<svg width="110" height="32" viewBox="0 0 110 32" fill="none" xmlns="http://www.w3.org/2000/svg">
<path d="M39.6802 10.8672C39.7765 10.8714 39.8771 10.8932 39.9771 10.9414C40.079 10.9906 40.1598 11.0574 40.2231 11.1328L40.3638 11.375L40.4614 11.6172L40.5591 11.8633L40.6411 12.0234C40.6738 12.0765 40.7122 12.1301 40.7583 12.1836L40.9497 12.4062L41.1372 12.625L41.2739 12.8164C41.352 12.9509 41.405 13.096 41.4263 13.25L41.4341 13.4844L41.4224 13.7773L41.4067 14.0664C41.4049 14.1041 41.4102 14.1323 41.4575 14.1758L41.6841 14.3828L41.9067 14.5898L42.1763 14.9023C42.2513 15.0173 42.3113 15.1427 42.3521 15.2773L42.5083 15.793L42.5825 16.1172C42.6017 16.226 42.6149 16.3373 42.6216 16.4492L42.6411 16.7266V16.6719L42.6333 16.3867C42.6272 16.0839 42.7193 15.8035 42.9028 15.5625L43.0747 15.3359L43.2505 15.1055L43.3442 14.957C43.3692 14.906 43.3857 14.8534 43.3989 14.8008L43.4653 14.5391L43.5317 14.2734L43.6255 13.9688C43.6619 13.8679 43.7037 13.7691 43.7505 13.6719L43.9849 13.1797L44.0396 13.0273C44.0523 12.9737 44.0615 12.9156 44.063 12.8555L44.0669 12.5742L44.0747 12.293L44.1099 12.043C44.1732 11.8016 44.3239 11.5948 44.5669 11.4609L45.02 11.2109C45.2911 11.0622 45.5881 11.0355 45.8794 11.0977L46.1724 11.1602L46.4614 11.2227C46.5381 11.2391 46.6378 11.2681 46.731 11.3242C46.8271 11.3823 46.9511 11.49 47.0044 11.668C47.0575 11.8458 47.0136 12.0042 46.9653 12.1055L46.7974 12.3359L46.5864 12.5508L46.3794 12.7617C46.3579 12.7836 46.35 12.7991 46.3481 12.8047C46.3461 12.8119 46.3442 12.8284 46.3481 12.8594L46.4263 13.4609L46.4341 13.7109C46.4155 13.9563 46.3199 14.1859 46.145 14.3789L45.9458 14.5938L45.7505 14.8125C45.7073 14.8604 45.6934 14.9029 45.6958 14.9648L45.7075 15.2539L45.7153 15.543L45.7075 15.7695C45.6889 15.9171 45.6466 16.0589 45.5786 16.1914L45.4575 16.3828L45.2896 16.6055L45.1177 16.832C45.0873 16.8724 45.0644 16.9146 45.0474 16.957L45.0161 17.0898L44.9849 17.3672L44.9536 17.6406C44.941 17.7528 44.921 17.8642 44.895 17.9727L44.7974 18.2891L44.7036 18.543L44.606 18.7969L44.4497 19.2695L44.3755 19.5273L44.3052 19.7891C44.2741 19.8985 44.2337 20.0057 44.188 20.1094L44.0317 20.4102L43.7427 20.8789L43.4263 21.3633L43.1138 21.8164L42.9106 22.1875L42.813 22.4336L42.7153 22.6758C42.6691 22.7919 42.6128 22.9031 42.5435 23.0039L42.3013 23.2773L41.9263 23.6211L41.52 23.9883L41.3052 24.1797L41.0903 24.375C40.9596 24.493 40.7957 24.5836 40.6021 24.6133C40.5064 24.6278 40.4136 24.6276 40.3247 24.6133L40.0669 24.5352L39.7974 24.418L39.5278 24.2969C39.3463 24.2162 39.185 24.1413 39.0435 24.0742L38.6294 23.8789C38.5426 23.8377 38.2596 23.6877 38.2388 23.3477C38.2287 23.1813 38.289 23.0484 38.3481 22.9648C38.4052 22.8843 38.4759 22.8263 38.5317 22.7852L38.7231 22.6445L38.9185 22.5L39.1958 22.332C39.2921 22.2844 39.3921 22.2426 39.4966 22.2109L39.9731 22.0703L40.4888 21.9141L41.0435 21.75C41.0568 21.7459 41.0635 21.7402 41.0669 21.7383H41.0708C41.072 21.7364 41.0749 21.7292 41.0786 21.7188L41.1724 21.4492L41.2622 21.1836L41.4302 20.6484L41.5122 20.3555L41.5942 20.0664C41.6061 20.0246 41.6084 19.9924 41.606 19.9688L41.5864 19.9141L41.4575 19.6758L41.3247 19.4375L41.0591 18.9219L40.8325 18.4297L40.6138 17.8672L40.5317 17.6055L40.4497 17.3477C40.4325 17.2933 40.4115 17.2397 40.3833 17.1875L40.2778 17.0312L40.1021 16.8125L39.9224 16.5898C39.8378 16.4844 39.7698 16.3701 39.7153 16.25L39.5981 15.8672L39.5513 15.5938L39.5083 15.3242C39.4987 15.2662 39.4816 15.2098 39.4614 15.1562L39.3872 15L39.2388 14.7656L39.0942 14.5312C38.9427 14.2877 38.8717 14.016 38.8794 13.7305L38.8911 13.4375L38.8989 13.1445L38.8833 12.9648L38.8403 12.8086L38.6372 12.3086C38.607 12.2346 38.5808 12.1821 38.563 12.1484C38.5549 12.1333 38.5494 12.1242 38.5474 12.1211L38.5005 12.0703L38.4302 12C38.3491 11.915 38.24 11.7395 38.2935 11.5078C38.3385 11.3144 38.4707 11.2085 38.5239 11.1719C38.638 11.0934 38.7786 11.0546 38.8716 11.0312L39.1411 10.9648L39.4106 10.8945L39.6802 10.8672ZM41.3286 22.707L40.7739 22.8711L40.2622 23.0273L40.0239 23.0977L39.7856 23.1719C39.7296 23.189 39.6817 23.2175 39.6333 23.2422C39.7257 23.2848 39.8248 23.3342 39.9341 23.3828L40.2036 23.5039L40.4458 23.6094L40.6372 23.4414L40.8521 23.2461L41.2544 22.8828L41.4419 22.7109L41.5435 22.6172C41.4766 22.6535 41.4051 22.6841 41.3286 22.707ZM45.5005 12.0859L45.2739 12.2109L45.0708 12.3203L45.0669 12.5977L45.063 12.8828C45.0598 13.0108 45.0412 13.1358 45.0122 13.2578L44.8872 13.6133L44.77 13.8594L44.6489 14.1055L44.5005 14.5156L44.438 14.7773L44.3716 15.043C44.341 15.1653 44.2973 15.2825 44.2427 15.3945L44.0435 15.7148L43.6997 16.168C43.653 16.2292 43.6317 16.2895 43.6333 16.3672L43.6372 16.6523L43.645 16.9375L43.6255 17.5508L43.6021 17.8242L43.5747 18.0977C43.5636 18.2196 43.536 18.3783 43.4497 18.5195C43.3466 18.6874 43.1655 18.817 42.9302 18.8281L42.7856 18.8359L42.6372 18.8438C42.4141 18.8537 42.2304 18.7512 42.1099 18.6133C42.0574 18.5531 42.0163 18.4874 41.9849 18.4219L41.9146 18.2305L41.7661 17.7148C41.7362 17.6103 41.7139 17.5023 41.6958 17.3945L41.6567 17.0664L41.6411 16.7891L41.6255 16.5078L41.5513 16.0859L41.4731 15.8242L41.395 15.5664C41.3834 15.5281 41.363 15.4899 41.3364 15.4492L41.231 15.3242L41.0044 15.1172L40.7817 14.9102C40.5288 14.6775 40.3899 14.3699 40.4067 14.0195L40.4224 13.7305L40.4341 13.4375L40.4263 13.3516L40.3794 13.2773L40.1919 13.0586L40.0005 12.8398C39.9263 12.7538 39.8645 12.6602 39.8052 12.5664C39.829 12.6418 39.8581 12.7153 39.8716 12.793L39.895 13.1758L39.8872 13.4648L39.8794 13.7578C39.8767 13.8596 39.9002 13.9369 39.9419 14.0039L40.0903 14.2383L40.2349 14.4727L40.3989 14.8008C40.4425 14.9159 40.4722 15.0369 40.4927 15.1602L40.5396 15.4297L40.5825 15.7031L40.6255 15.8359C40.6451 15.8796 40.6701 15.9231 40.7036 15.9648L40.8833 16.1836L41.0591 16.4062L41.2622 16.7148C41.3199 16.8218 41.3701 16.9339 41.4067 17.0508L41.4849 17.3086L41.5669 17.5664L41.7388 18.0078L41.9653 18.5L42.1958 18.9531L42.4614 19.4297L42.5552 19.6484C42.6248 19.8734 42.6207 20.1097 42.5552 20.3398L42.4731 20.6289L42.3911 20.9219L42.2896 21.2461L42.6021 20.793L42.8911 20.3594L43.0317 20.1211L43.1763 19.8867L43.3403 19.5156L43.4146 19.2578L43.4888 18.9961L43.6724 18.4414L43.7661 18.1914L43.8638 17.9375L43.9575 17.5312L43.9888 17.2539L44.02 16.9805L44.1177 16.5859C44.1676 16.461 44.2378 16.3449 44.3208 16.2344L44.4888 16.0078L44.6606 15.7812L44.7036 15.6914L44.7192 15.582L44.6958 15.0039C44.6832 14.6791 44.7907 14.3812 45.0083 14.1406L45.2075 13.9219L45.4028 13.707C45.4167 13.6918 45.4246 13.6771 45.4302 13.6602L45.4341 13.5898L45.356 12.9883C45.3115 12.645 45.4131 12.3255 45.6528 12.0742C45.5701 12.0595 45.5277 12.071 45.5005 12.0859ZM21.895 10.8906L22.1685 10.9141C22.3186 10.9287 22.4719 10.9306 22.6294 10.918L22.9106 10.8945L23.1919 10.875L23.4419 10.8828C23.6847 10.9183 23.9019 11.0366 24.0747 11.2266L24.2661 11.4375L24.4614 11.6484L24.8169 12.0508L24.9771 12.2305L25.1333 12.4141L25.3286 12.6914C25.3852 12.7912 25.4312 12.8971 25.4692 13.0078L25.6411 13.5L25.7192 13.8828L25.6958 14.2695L25.645 14.5391L25.5981 14.8086C25.5768 14.9255 25.5747 15.0416 25.5981 15.1602L25.7075 15.6992L25.7427 16.0625L25.7153 16.4219L25.6685 16.6914L25.6255 16.9609C25.6102 17.0505 25.6153 17.1438 25.6528 17.2461L25.7505 17.5156L25.8521 17.7852L25.9106 18C25.9382 18.1435 25.9436 18.2889 25.9224 18.4336L25.8716 18.6484L25.7817 18.9219L25.6958 19.1914L25.6216 19.5469L25.6138 19.7617L25.6021 19.9766C25.5933 20.1472 25.5221 20.3922 25.2739 20.5312C25.1683 20.59 25.0588 20.6142 24.9614 20.6172L24.7114 20.5859L24.4536 20.5234L24.1919 20.4609C24.0394 20.424 23.8806 20.3526 23.7505 20.2227C23.6416 20.114 23.5801 19.9828 23.5435 19.8477L23.1021 20.1523L22.8911 20.2891L22.6763 20.4219C22.5862 20.4789 22.4933 20.5328 22.395 20.5781L22.0864 20.6953L21.8208 20.7812L21.5591 20.8672C21.355 20.9329 21.1451 20.9506 20.938 20.9219L20.731 20.8789L20.4653 20.8008L20.1958 20.7188C19.9205 20.6383 19.6842 20.4834 19.5083 20.2539L19.3481 20.043L19.1841 19.832L18.8677 19.4375L18.6919 19.2344L18.52 19.0312C18.4288 18.9243 18.3551 18.8084 18.3013 18.6836L18.1958 18.2891L18.1255 17.7344C18.095 17.4863 18.1149 17.2379 18.1763 16.9922L18.3169 16.4219L18.4028 16.1875C18.5105 15.968 18.684 15.793 18.9146 15.6797L19.1763 15.5508L19.438 15.4258L19.8521 15.1758L20.0786 15.0078L20.3052 14.8438L20.4966 14.7266C20.6983 14.6275 20.9213 14.5882 21.1528 14.6094L21.4302 14.6328L21.7114 14.6602C21.8172 14.6698 21.9204 14.6555 22.0239 14.6133L22.2856 14.5039L22.5513 14.3945L22.9146 14.2891C23.0389 14.2679 23.1658 14.2656 23.2935 14.2773L23.4224 14.2852L23.4067 14.0742L23.3442 13.9141L23.1802 13.7305L23.02 13.5469C22.9744 13.4956 22.93 13.4687 22.8833 13.457L22.4302 13.3477L22.0786 13.3125L21.8208 13.3164L21.563 13.3242C21.4012 13.3281 21.2272 13.3369 21.0474 13.3516L20.4849 13.3984C20.3035 13.4132 20.1088 13.4049 19.9263 13.3438L19.7466 13.2617L19.4185 13.0742C19.3459 13.0327 19.2532 12.9642 19.1841 12.8555C19.1089 12.7367 19.081 12.5976 19.0981 12.4609C19.1276 12.2277 19.2805 12.0682 19.3638 11.9922L19.563 11.8125L19.7622 11.6289L20.0356 11.418C20.1309 11.354 20.2314 11.2965 20.3364 11.2461L20.8364 11.0039L21.2231 10.8789C21.3543 10.8555 21.4891 10.85 21.6255 10.8633L21.895 10.8906ZM30.6099 7.43359C30.7053 7.47398 30.7868 7.53136 30.856 7.59766L31.0239 7.82031L31.145 8.05078L31.27 8.28125L31.356 8.48438C31.3994 8.6214 31.4174 8.76329 31.4106 8.90625L31.3794 9.12109L31.3247 9.39062L31.2661 9.66016C31.2356 9.80345 31.2206 9.94515 31.2231 10.0859L31.231 10.3555L31.2349 10.625V10.7422C31.2368 10.7465 31.2413 10.7507 31.2427 10.7539C31.2567 10.7869 31.2658 10.8154 31.27 10.832C31.2783 10.8652 31.2798 10.8943 31.2817 10.9102C31.2858 10.9442 31.2886 10.9794 31.2896 11.0078V11.2383L31.2856 11.3945C31.4345 11.2187 31.6327 11.0968 31.8716 11.043L32.1489 10.9805L32.4263 10.9141C32.6563 10.8622 32.8891 10.8449 33.1216 10.8594L33.3989 10.875L33.6763 10.8945L34.3052 10.9805L34.8677 11.0977L35.0786 11.1562C35.2789 11.23 35.4576 11.3469 35.6099 11.5039L35.813 11.7109L36.0122 11.9219L36.2466 12.2031C36.3153 12.3029 36.3749 12.4087 36.4263 12.5195L36.5435 12.7773L36.6646 13.0312L36.7856 13.3359C36.8213 13.4376 36.8539 13.5401 36.8794 13.6445L36.9419 13.9141L37.0083 14.1797L37.1099 14.7969L37.1333 15.0664L37.1567 15.3398L37.1606 15.6758L37.1216 16.0117L37.0747 16.2812L37.0239 16.5508L36.9731 17.0234L36.9614 17.293L36.9497 17.5664C36.9443 17.6946 36.9245 17.8202 36.8911 17.9414L36.7466 18.2969L36.6177 18.5352L36.4849 18.7734C36.4276 18.8788 36.3635 18.9786 36.2896 19.0703L36.0435 19.3242L35.8442 19.4961L35.6411 19.6641L35.2544 20L35.0552 20.1719L34.8599 20.3477C34.6738 20.5112 34.4572 20.6305 34.2192 20.707L33.9536 20.793L33.688 20.875C33.4541 20.95 33.2191 20.9516 32.9966 20.8789L32.7778 20.7812L32.5317 20.6406L32.2856 20.5039C32.2251 20.4697 32.1636 20.4414 32.1021 20.418L31.9146 20.3594L31.6489 20.3047L31.3794 20.25C31.197 20.2116 31.0247 20.1434 30.8677 20.0547L30.7935 20.293C30.7453 20.4445 30.6378 20.6699 30.3911 20.7812C30.2618 20.8396 30.136 20.8472 30.0239 20.832L29.7427 20.7422L29.4888 20.6094L29.2388 20.4766C29.0933 20.4004 28.958 20.2919 28.8599 20.1406C28.8104 20.064 28.7746 19.9812 28.7505 19.8984L28.7114 19.6445L28.6958 19.1055C28.6891 18.8533 28.7347 18.605 28.8286 18.3672L28.938 18.0977L29.0435 17.8281L29.0669 17.7227C29.068 17.6898 29.0618 17.6583 29.0513 17.625L28.8794 17.0859C28.7925 16.8131 28.7891 16.5294 28.8677 16.2539L28.9458 15.9844L29.02 15.7148L29.0903 15.2891L29.106 15.0195L29.1177 14.75L29.1099 14.5742L29.0669 14.3906L28.9771 14.1211L28.8872 13.8477C28.7975 13.5749 28.7898 13.2924 28.8677 13.0156L28.9458 12.7461L29.02 12.4766L29.0356 12.3516L29.0122 12.2266L28.9263 11.957L28.8364 11.6875C28.7405 11.3924 28.7555 11.0905 28.8716 10.8047L29.0903 10.2656L29.1255 10.1367L29.1177 10.0195L29.0005 9.48047L28.8872 8.91797L28.7935 8.37891C28.762 8.19703 28.7766 7.96125 28.938 7.76172C29.0893 7.57468 29.3018 7.50696 29.4653 7.48047L29.77 7.42969L30.0747 7.38281L30.3364 7.36719C30.4264 7.3743 30.519 7.39517 30.6099 7.43359ZM67.0708 8.00391C67.1345 7.99633 67.3121 7.98117 67.4771 8.07812L67.6333 8.21875L67.7427 8.35938L67.8521 8.57031C67.8721 8.63683 67.8793 8.6959 67.8833 8.73438V9.04297L67.8638 9.31641L67.8481 9.58984C67.8399 9.71004 67.8219 9.82976 67.7935 9.94531L67.6763 10.2812L67.5669 10.5312L67.4575 10.7852L67.313 11.2148L67.2466 11.4766L67.1841 11.7383L67.0786 12.2422L67.0278 12.5078L66.981 12.7734C66.9492 12.9455 66.9177 13.1196 66.8911 13.293L66.8521 13.5586L66.8091 13.8281C66.7911 13.9454 66.7644 14.0602 66.7271 14.1719L66.5864 14.5L66.4536 14.7461L66.3247 14.9922C66.2986 15.0411 66.2758 15.0899 66.2622 15.1406L66.2388 15.2969L66.231 15.5703L66.2231 15.8477C66.2194 15.9554 66.2097 16.0622 66.1958 16.168L66.1372 16.4805L66.0786 16.7461L66.0161 17.0078C65.992 17.1119 65.9646 17.2152 65.9302 17.3164L65.8091 17.6133L65.5825 18.1133L65.3638 18.6055L65.2583 18.8594L65.1489 19.1094C65.1233 19.1692 65.0998 19.2312 65.0825 19.2969L65.0474 19.5078L65.0122 19.793L64.981 20.0781C64.9616 20.2458 64.8961 20.4467 64.731 20.6016C64.6462 20.6808 64.553 20.7341 64.4575 20.7656L64.1763 20.8086L63.6372 20.8008C63.4746 20.7994 63.3016 20.7628 63.145 20.6641C63.066 20.6142 62.9974 20.5552 62.9419 20.4883L62.8091 20.2695L62.5981 19.8008C62.5501 19.6936 62.5126 19.5824 62.4849 19.4688L62.4302 19.1211L62.3911 18.5742C62.3871 18.518 62.3789 18.4631 62.3638 18.4102L62.2974 18.2539L62.0396 17.7617C61.9403 17.5736 61.8573 17.3796 61.7935 17.1797L61.4653 16.1484L61.3872 15.8906L61.3052 15.6328L61.1528 15.0742L61.0942 14.8086L61.0317 14.5469L60.9028 14.0547L60.8247 13.793L60.7505 13.5352L60.606 12.9727L60.5513 12.707L60.5122 12.5273L60.4966 12.5859L60.4067 12.8398L60.2935 13.2852L60.2466 13.5508L60.2036 13.8203L60.0864 14.3828L60.02 14.6484L59.9575 14.9102L59.7505 15.5078L59.6372 15.7539L59.5239 16.0039C59.4906 16.078 59.478 16.1629 59.4927 16.2695L59.5317 16.5625L59.5747 16.8516L59.5825 17.1055C59.5689 17.2711 59.5181 17.4278 59.4341 17.5703L59.2817 17.7734L59.0786 17.9961L58.8716 18.2227C58.839 18.2585 58.8179 18.2904 58.8052 18.3203L58.7856 18.4062L58.7778 18.6797L58.7661 18.957C58.7576 19.1851 58.7177 19.4198 58.6528 19.6562L58.5708 19.9609L58.4849 20.2695C58.4404 20.4316 58.3491 20.6378 58.145 20.7695C58.0363 20.8396 57.9215 20.8705 57.813 20.8789L57.5083 20.8438L56.9692 20.6875C56.7596 20.6261 56.5477 20.5072 56.4106 20.3047L56.3013 20.0703L56.2388 19.8711L56.1802 19.6719L56.0278 19.3516L55.8755 19.1094L55.7271 18.8672C55.6656 18.7681 55.6095 18.6672 55.563 18.5625L55.4497 18.2383L55.3755 17.9766L55.3013 17.7188C55.2369 17.4889 55.216 17.2493 55.231 17.0078L55.2466 16.7266L55.2661 16.4453L55.2349 16.0391L55.1763 15.7773L55.1138 15.5117C55.1038 15.4673 55.0902 15.4214 55.0669 15.375L54.9692 15.2266L54.5864 14.7656C54.497 14.6577 54.4214 14.5418 54.3638 14.418L54.2466 14.0234L54.2036 13.7539L54.1646 13.4883C54.1331 13.2801 54.1206 13.066 54.1255 12.8516L54.1294 12.5742L54.1372 12.293L54.1216 12.1562L54.0708 12.0273L53.9302 11.7812L53.7935 11.5391C53.7309 11.4285 53.6796 11.3139 53.6411 11.1953L53.563 10.832L53.5356 10.5625L53.5044 10.2891L53.4692 9.69531L53.4614 9.14062C53.4599 9.00796 53.4769 8.83963 53.5591 8.68359C53.6537 8.50433 53.8177 8.37535 54.0239 8.33203L54.3599 8.26172L54.5552 8.24219C54.7466 8.24394 54.9276 8.3035 55.0825 8.37891L55.313 8.49219L55.5474 8.60547L55.7544 8.73828C55.9396 8.89252 56.0535 9.10558 56.0942 9.35156L56.1411 9.62109L56.1841 9.88672L56.2114 10.2461L56.1763 10.6094L56.1294 10.8984L56.0786 11.1875C56.0668 11.2575 56.0798 11.3039 56.1138 11.3555L56.27 11.5977L56.4302 11.8359L56.606 12.1992C56.6491 12.3253 56.6792 12.4573 56.688 12.5938L56.7036 12.8672L56.7231 13.1406L56.7505 13.2891C56.7656 13.3387 56.7848 13.3885 56.813 13.4375L56.9536 13.6836L57.0981 13.9258L57.2505 14.2734C57.2893 14.3922 57.3158 14.5145 57.3286 14.6406L57.356 14.9141L57.3833 15.1836L57.4185 15.418L57.7466 14.9805L57.8247 14.8477C57.8425 14.8045 57.8546 14.7619 57.8599 14.7188L57.8911 14.4492L57.9263 14.1758L57.9575 13.6836V13.4062L57.9614 13.125L58.0083 12.7422C58.0382 12.6177 58.0825 12.4956 58.1411 12.3789L58.2661 12.1328L58.3872 11.8867L58.5981 11.4258L58.7036 11.1719L58.8052 10.9219L58.9067 10.5312L58.938 10.2578L58.9692 9.98828L59.0864 9.37109L59.1606 9.10156L59.2349 8.82812L59.3481 8.57031C59.4044 8.48491 59.4819 8.405 59.5864 8.34375C59.6915 8.28243 59.8005 8.25299 59.9028 8.24609L60.188 8.27734L60.7271 8.41797L61.0513 8.53125C61.1564 8.58228 61.2558 8.64886 61.3403 8.73438L61.4536 8.85156L61.5708 8.96875L61.6841 9.10547C61.7824 9.25286 61.838 9.42331 61.8755 9.58203L61.938 9.84375L62.0005 10.1094L62.1489 10.4922L62.2778 10.7344L62.4106 10.9766L62.6724 11.5195L62.7739 11.7734L62.8794 12.0234C62.9274 12.1401 62.9625 12.2604 62.9849 12.3828L63.0122 12.7578L63.0083 13.0391L63.0005 13.3242C62.9973 13.4766 63.0118 13.6226 63.0396 13.7617L63.0903 14.0273L63.145 14.293L63.27 14.7344L63.3638 14.9922L63.4575 15.2461L63.6528 15.6875L63.688 15.7539C63.7215 15.6348 63.7656 15.5167 63.8286 15.4062L63.9692 15.1641L64.1099 14.918L64.145 14.8164L64.1489 14.7031L64.1099 14.4141L64.0708 14.1289C64.0321 13.8415 64.0752 13.5601 64.2075 13.3008L64.3364 13.0547L64.4614 12.8047L64.5356 12.625C64.5551 12.5648 64.5692 12.5032 64.5786 12.4414L64.6216 12.1758L64.6606 11.9062L64.731 11.3828L64.7661 11.1133L64.7974 10.8438L64.8911 10.4688C64.9367 10.3473 64.9975 10.2318 65.0708 10.1211L65.2271 9.87891L65.3872 9.64062L65.5083 9.39062L65.5786 9L65.6646 8.75C65.7847 8.53157 65.9931 8.39489 66.188 8.31641L66.4575 8.21094L66.7271 8.10156L67.0708 8.00391ZM73.9536 10.8438C74.1866 10.8639 74.4026 10.9546 74.5903 11.1094L74.813 11.2891L75.0317 11.4727L75.4731 11.832L75.6958 12.0156L75.9224 12.1953L76.0981 12.3711C76.2004 12.4996 76.2677 12.6477 76.3013 12.8086L76.3247 13.0586L76.3208 13.3438L76.3169 13.6328C76.3138 13.8252 76.3106 14.0137 76.3052 14.1953L76.2896 14.7344C76.2848 14.8969 76.2865 15.0596 76.2974 15.2227L76.3169 15.4922L76.3325 15.7656L76.3716 16.3047L76.3872 16.5742L76.4067 16.8438L76.4419 17.3867L76.4575 17.6562L76.4731 17.9297L76.4653 18.5391L76.4419 18.8086L76.4185 19.082L76.313 19.707L76.2466 19.9922L76.1763 20.2734C76.143 20.4111 76.0561 20.661 75.7974 20.7852C75.6593 20.8513 75.5257 20.86 75.4106 20.8398L75.1333 20.7344L74.8989 20.5938L74.6646 20.457C74.5464 20.3876 74.4283 20.2916 74.3364 20.168C74.2639 20.2356 74.1966 20.3073 74.1138 20.3594L73.7466 20.5273L73.4692 20.6172L73.1958 20.7031C72.9618 20.7775 72.7225 20.8123 72.481 20.8047L71.9341 20.7891H71.4106L71.1255 20.8008L70.8364 20.8125C70.5582 20.8232 70.3104 20.7332 70.1216 20.5547L69.9536 20.3477L69.8013 20.1016L69.645 19.8555L69.356 19.4492L69.188 19.2422L69.02 19.0312C68.937 18.9283 68.8677 18.817 68.813 18.6992L68.6919 18.332L68.6294 18.0508L68.5708 17.7695C68.5107 17.4877 68.5322 17.2048 68.6294 16.9336L68.8325 16.3711L68.9263 16.1641C69.0353 15.967 69.1895 15.8025 69.3872 15.6797L69.6333 15.5273L69.8833 15.3711L70.3833 15.0703L70.6255 14.9297L70.8638 14.793L71.0552 14.6992C71.25 14.6216 71.458 14.5906 71.6724 14.6055L71.9497 14.625L72.231 14.6445C72.3689 14.654 72.5011 14.6424 72.6294 14.6133L72.8989 14.5508L73.1646 14.4922L73.7505 14.3984L73.9536 14.3789V14.375L73.9146 14.1094C73.9069 14.055 73.8956 14.0069 73.8794 13.9648L73.8208 13.8555L73.5396 13.4492C73.5129 13.4112 73.4784 13.3742 73.438 13.3359L73.2935 13.2227L73.0552 13.0664L72.7974 12.8945H72.7856L72.7583 12.9023L72.4927 13L72.2271 13.0938L71.7153 13.2852L71.4653 13.3828L71.2114 13.4805C70.9859 13.5675 70.7438 13.5833 70.5161 13.5L70.2974 13.3828L70.0981 13.2461L69.9028 13.1094C69.7547 13.0055 69.5935 12.8156 69.5942 12.5391C69.595 12.2978 69.7228 12.1161 69.8208 12.0078L70.02 11.7891L70.2153 11.5703L70.3716 11.4219C70.5341 11.2869 70.7231 11.1919 70.9341 11.1406L71.1997 11.0742L71.4692 11.0078L71.7974 10.9492C71.9064 10.9365 72.0158 10.9326 72.1255 10.9336H72.395L72.6606 10.9375C72.8167 10.9391 72.9798 10.9293 73.1489 10.9102L73.7114 10.8477L73.9536 10.8438ZM9.51611 8.13281C9.65345 8.12751 9.79278 8.14067 9.93018 8.17578L10.4692 8.31641L10.6255 8.34375C10.6298 8.34413 10.6339 8.34747 10.6372 8.34766L10.7778 8.31641L10.9146 8.28125L11.3872 8.20703L11.6606 8.17578L11.9341 8.14062L12.3091 8.13672C12.4339 8.14806 12.5584 8.17312 12.6802 8.21094L12.9419 8.29297L13.2075 8.375L13.7466 8.54688L14.0083 8.63281L14.2739 8.72266L14.4927 8.82031C14.6956 8.93753 14.855 9.11122 14.9536 9.33594L15.063 9.58984L15.1763 9.84375L15.3989 10.2695L15.5513 10.5078L15.6997 10.7422L15.8052 10.9492C15.861 11.0904 15.8893 11.2387 15.8872 11.3906L15.8599 11.6211L15.8052 11.8906L15.7505 12.1641C15.7281 12.2739 15.699 12.3829 15.6646 12.4883L15.5435 12.7969L15.4302 13.043L15.313 13.2891C15.202 13.5286 15.0394 13.7316 14.8286 13.8906L14.645 14.0234C14.8862 14.1301 15.0905 14.2893 15.2505 14.5L15.4185 14.7227L15.5903 14.9453L15.7817 15.2422C15.8374 15.3468 15.884 15.457 15.9224 15.5703L16.0083 15.832L16.0981 16.0938L16.1763 16.4883C16.1836 16.6218 16.171 16.7563 16.1411 16.8906L16.0825 17.1602L16.02 17.4258C15.9693 17.6528 15.8876 17.8671 15.77 18.0625L15.6372 18.2812L15.5044 18.5039C15.4765 18.5505 15.45 18.6036 15.4263 18.6641L15.3638 18.875L15.2935 19.168L15.2231 19.4648C15.1815 19.6402 15.0935 19.8203 14.9302 19.957C14.8476 20.026 14.7567 20.0737 14.6646 20.1055L14.3911 20.1562L14.0903 20.1719L13.7896 20.1836L13.3755 20.2539L13.1255 20.3359L12.8794 20.418C12.7618 20.4564 12.6412 20.48 12.52 20.4922H12.1528L11.8872 20.4609L11.6177 20.4336L11.1841 20.4297L10.9106 20.4531L10.6411 20.4805L10.2036 20.5664L9.93408 20.6523L9.66455 20.7344C9.43993 20.8041 9.21233 20.8117 8.99268 20.7578L8.77783 20.6836L8.23877 20.4492C8.11182 20.3943 7.95935 20.3099 7.84814 20.168C7.72102 20.0055 7.66955 19.7991 7.71533 19.5898L7.75439 19.4102L7.79346 19.2344V19.1875L7.76221 19.0391L7.59814 18.5L7.46533 17.8789L7.43018 17.6094L7.39502 17.3359C7.36399 17.0951 7.37669 16.8544 7.43408 16.6172L7.50049 16.3438L7.56689 16.0742L7.64893 15.6055L7.67236 15.3359L7.69971 15.0664L7.71924 14.582L7.71143 14.043C7.70891 13.8993 7.691 13.7519 7.65674 13.6055L7.59033 13.3359L7.52783 13.0664C7.4724 12.829 7.46027 12.5883 7.49268 12.3477L7.53174 12.0781L7.56689 11.8047C7.58636 11.6601 7.5898 11.5151 7.57861 11.3711L7.55908 11.1016L7.53564 10.832C7.51776 10.6016 7.5351 10.3717 7.58643 10.1445L7.64893 9.87109L7.71143 9.60156L7.84424 9.13672L7.89111 9.01172L7.94189 8.89062L8.07471 8.67969C8.12649 8.62284 8.18425 8.57671 8.23486 8.54297C8.3377 8.4748 8.45379 8.42439 8.56689 8.38672L9.10596 8.20703L9.51611 8.13281ZM89.7075 10.8008L89.9067 10.8477L90.1021 10.8906L90.4185 10.8945L90.7075 10.8633L90.9927 10.832H91.2388C91.4801 10.8561 91.701 10.9567 91.8872 11.1289L92.1021 11.3242L92.313 11.5234L92.5474 11.7617C92.6205 11.8455 92.6891 11.9333 92.7505 12.0234L92.8989 12.2383L93.0435 12.457L93.3403 12.9883L93.4458 13.2227L93.5513 13.4609L93.7622 13.9648L93.8677 14.2188L93.9692 14.4688L94.0356 14.668C94.0682 14.8024 94.0796 14.9401 94.0708 15.0781L94.0396 15.2852L93.981 15.5586L93.9263 15.8281C93.8974 15.9639 93.8359 16.1319 93.7036 16.2695C93.5525 16.4266 93.3523 16.4935 93.1528 16.4805L92.9653 16.4688L92.7739 16.457C92.6953 16.4519 92.5797 16.4559 92.4224 16.4805L91.8833 16.5664C91.6657 16.6004 91.4457 16.6068 91.2271 16.5898L90.9575 16.5703L90.6841 16.5508C90.5109 16.5373 90.3377 16.527 90.1646 16.5195L89.8911 16.5078L89.6216 16.4961C89.471 16.4897 89.3197 16.4959 89.1685 16.5156L88.8989 16.5508L88.7153 16.5742L88.7036 16.6406L88.6646 16.8516C88.6621 16.8654 88.6565 16.9059 88.6958 16.9883L88.9224 17.4648L89.1567 17.918L89.2896 18.1562L89.4224 18.3984L89.4497 18.4336C89.4536 18.4364 89.4655 18.4435 89.4927 18.4492L89.7661 18.5039L90.0396 18.5625C90.1395 18.5829 90.2323 18.5785 90.3247 18.5508L90.5903 18.4688L90.8521 18.3906C91.0732 18.3236 91.2988 18.2908 91.5278 18.293H91.7974L92.063 18.2969C92.2245 18.2985 92.3647 18.2938 92.4849 18.2812L92.7036 18.2578L92.9185 18.2344L93.2114 18.2617C93.3153 18.2933 93.4197 18.3534 93.5083 18.457C93.5862 18.5482 93.6302 18.6477 93.6528 18.7422L93.6763 18.9922L93.6646 19.2539L93.6567 19.5156C93.6506 19.682 93.6037 19.8531 93.5044 20.0039C93.4552 20.0782 93.3963 20.141 93.3325 20.1953L93.1255 20.332L92.8833 20.457L92.6372 20.582C92.409 20.6974 92.1623 20.7571 91.9067 20.7656L91.6333 20.7773L91.3599 20.7852C91.2458 20.789 91.1324 20.7849 91.02 20.7734L90.688 20.7148L90.4263 20.6523L90.1606 20.5898C90.0147 20.5544 89.8701 20.5313 89.7271 20.5234L89.4653 20.5078L89.2036 20.4961C89.0957 20.4902 88.9871 20.4759 88.8794 20.457L88.5552 20.3828L88.2856 20.3047L88.0161 20.2227C87.8043 20.1607 87.6166 20.0545 87.4614 19.9062L87.3169 19.7422L87.145 19.5195L86.9731 19.293C86.9066 19.2054 86.8429 19.1163 86.7856 19.0234L86.6294 18.7344L86.3872 18.2344C86.2602 17.973 86.22 17.6923 86.2661 17.4062L86.313 17.125L86.356 16.8438L86.3599 16.7031L86.3247 16.5664L86.2192 16.3008L86.1099 16.0352C86.0023 15.7706 85.9725 15.4915 86.0317 15.2109L86.0903 14.9414L86.145 14.6758L86.2974 14.0977L86.3794 13.8398L86.4614 13.5781L86.6255 13.2266C86.6929 13.1176 86.7737 13.0172 86.8677 12.9258L87.063 12.7344L87.2544 12.5469L87.5864 12.1953L87.9224 11.7969L88.1489 11.5586C88.2296 11.4843 88.3158 11.4142 88.4067 11.3477L88.6411 11.1758L88.8716 11.0078L89.0513 10.8984C89.1783 10.8325 89.3199 10.7839 89.4731 10.7773L89.7075 10.8008ZM101.36 11L101.606 11.0625L101.848 11.125L102.11 11.2383C102.194 11.2944 102.273 11.3718 102.333 11.4766C102.39 11.5779 102.415 11.6834 102.422 11.7812L102.399 12.0508L102.274 12.582C102.238 12.7354 102.166 12.8991 102.028 13.0312C101.956 13.1 101.877 13.1517 101.793 13.1875L101.536 13.2539L101.297 13.2734L101.059 13.2969L100.653 13.375L100.403 13.4375L100.157 13.5039L99.7896 13.668L99.5396 13.8164L99.3013 13.9609L99.3169 14.2578L99.3364 14.5547C99.3438 14.6826 99.3404 14.8095 99.3247 14.9336L99.2388 15.3008L99.1528 15.5586L99.063 15.8164C99.0308 15.9124 99.0248 16.008 99.0396 16.1094L99.1177 16.6484L99.145 16.9805L99.1333 17.3086L99.106 17.5781L99.0786 17.8516C99.0669 17.9731 99.0748 18.0969 99.106 18.2227L99.1724 18.4922L99.2427 18.7617C99.2901 18.9537 99.3034 19.1548 99.2622 19.3516L99.1997 19.5469L99.1177 19.75L99.0317 19.9531C98.9048 20.2606 98.6471 20.4374 98.3716 20.5273L98.1021 20.6172L97.8325 20.7031C97.6787 20.7532 97.4593 20.7875 97.2427 20.6875C97.1296 20.6351 97.0444 20.5594 96.981 20.4766L96.8521 20.2188L96.77 19.9727L96.6919 19.7227L96.5513 19.125L96.5122 18.8516L96.4731 18.582C96.4374 18.338 96.4502 18.0922 96.5083 17.8516L96.5708 17.582L96.6372 17.3125L96.7427 16.8047L96.8364 16.2656L96.856 16.0742L96.8403 15.8867L96.7974 15.6172L96.7583 15.3477C96.7254 15.1325 96.7172 14.9154 96.731 14.6992L96.7622 14.1602L96.7427 13.7266L96.6567 13.1875L96.5825 12.625L96.5552 12.3555L96.5239 12.0859C96.5053 11.9182 96.5247 11.7007 96.6724 11.5117C96.8196 11.3233 97.0251 11.2533 97.1919 11.2305L97.4614 11.1914L97.731 11.1562L97.9771 11.1523C98.0678 11.1629 98.1647 11.1883 98.2583 11.2422C98.3656 11.304 98.4428 11.3865 98.4966 11.4766L98.5942 11.7539L98.6216 11.9609L98.6489 12.1719L98.6528 12.1875C98.6541 12.1898 98.6607 12.1977 98.6763 12.2109L98.7778 12.2969L98.9185 12.1133L99.1646 11.8516C99.2543 11.7744 99.351 11.7048 99.4575 11.6484L99.6763 11.5352L99.895 11.418L100.286 11.2148L100.446 11.1367L100.606 11.0547L100.797 10.9883C100.99 10.9414 101.186 10.9559 101.36 11ZM81.3833 9.13281C81.5544 9.20156 81.6412 9.3349 81.6763 9.39844L81.7544 9.60938L81.8794 10.0859L81.938 10.4023C81.95 10.5111 81.9565 10.6224 81.9536 10.7344L81.9458 11.0039L81.9419 11.1094L82.0435 11.1289L82.3052 11.1758C82.4062 11.1936 82.5114 11.1893 82.6255 11.1602L82.895 11.0938L83.1685 11.0234L83.4341 10.9922C83.5391 10.9972 83.6548 11.026 83.7661 11.0977C83.8881 11.1762 83.9637 11.2792 84.0083 11.3828L84.0708 11.668L84.0864 12.168L84.0747 12.3828C84.0514 12.5268 83.9956 12.6669 83.8989 12.7891L83.7231 12.957L83.395 13.1836C83.1911 13.3261 82.9529 13.3888 82.7153 13.4062L82.4458 13.4258L82.1724 13.4453C82.1079 13.4501 82.0656 13.4615 82.0396 13.4688H82.0278L81.8989 13.5586L81.8403 13.5977L81.8364 13.6289L81.8247 13.9023L81.813 14.1719C81.8065 14.3172 81.8135 14.463 81.8364 14.6094L81.8794 14.8828L81.9224 15.1523C81.9508 15.3333 81.9781 15.5143 82.0044 15.6953L82.0435 15.9648L82.0825 16.2383L82.1021 16.6016L82.0513 16.9609L81.9888 17.2305L81.9263 17.5039C81.9 17.6173 81.894 17.7359 81.9146 17.8633L82.0083 18.4336V18.4375L82.0161 18.4414L82.2856 18.5508L82.5552 18.6562C82.5787 18.6656 82.6024 18.6723 82.6216 18.6797C82.6534 18.6738 82.6882 18.6748 82.7153 18.6719C82.7756 18.6655 82.8538 18.6575 82.9458 18.6523L83.2192 18.6367L83.4927 18.625L83.7427 18.6406C83.8329 18.6593 83.9272 18.6954 84.0161 18.7578C84.1148 18.8272 84.1846 18.9123 84.231 19.0039L84.3091 19.2852L84.3247 19.5039L84.3442 19.7227L84.3208 19.9922C84.2966 20.0832 84.2549 20.1745 84.188 20.2578C84.1248 20.3363 84.0493 20.3937 83.9731 20.4375L83.7466 20.5312L83.5005 20.5938L83.2544 20.6602C83.0062 20.7257 82.7531 20.723 82.5044 20.6602L81.9966 20.5352C81.8565 20.4997 81.7097 20.4728 81.5552 20.4609L81.0083 20.4219C80.8414 20.409 80.6672 20.3568 80.5161 20.2422C80.4401 20.1844 80.3788 20.1158 80.3286 20.043L80.2114 19.8125L80.1216 19.5586L80.0356 19.3047L79.8364 18.9102L79.6724 18.6641L79.5122 18.4141C79.3195 18.1182 79.2775 17.7783 79.4028 17.4453L79.5083 17.1719L79.6099 16.8984L79.7231 16.4609L79.8013 15.9219L79.8052 15.7734L79.77 15.6133L79.5903 15.0742C79.5538 14.966 79.5234 14.8559 79.5005 14.7461L79.4497 14.4141L79.4302 14.1406L79.4106 13.8711L79.3833 13.2891L79.3794 13.0039L79.3755 12.9922L79.2427 13.0117C79.1426 13.0229 78.8132 13.0417 78.6216 12.7461C78.5314 12.6068 78.5195 12.4614 78.5278 12.3633C78.5362 12.267 78.5638 12.1818 78.5903 12.1172L78.688 11.8867L78.7817 11.6523L78.9692 11.3281C79.0471 11.2294 79.1421 11.1434 79.2505 11.0703L79.438 10.9414L79.6294 10.8164L79.8521 10.5781L80.0161 10.3477L80.1841 10.1133L80.4536 9.72266L80.6802 9.38672L80.8755 9.1875C80.9878 9.11409 81.1768 9.05012 81.3833 9.13281ZM21.3989 11.8633L21.27 11.9062L21.02 12.0273L20.7661 12.1445L20.438 12.3672L20.3989 12.3984L20.4028 12.4023L20.6841 12.3789L20.9692 12.3555C21.1652 12.3396 21.354 12.3287 21.5356 12.3242L21.7935 12.3203L22.0552 12.3125L22.3677 12.3242C22.4696 12.3347 22.5701 12.3508 22.6685 12.375L22.895 12.4336L23.1216 12.4883C23.3759 12.5511 23.594 12.6856 23.7661 12.8789L23.9302 13.0625L24.0903 13.2461L24.2153 13.4141C24.3241 13.5884 24.3855 13.7848 24.4028 13.9922L24.4497 14.5312L24.4341 14.7969C24.4121 14.8966 24.3659 15.0021 24.2817 15.0977C24.1891 15.202 24.0789 15.2631 23.9731 15.293L23.6841 15.3164L23.1997 15.2695C23.1659 15.2666 23.1271 15.2697 23.0825 15.2773L22.9302 15.3203L22.3989 15.5391C22.1502 15.6403 21.8887 15.6805 21.6216 15.6562L21.3403 15.6289L21.0591 15.6055C21.0269 15.6026 20.9991 15.6023 20.9731 15.6094L20.895 15.6484L20.6685 15.8164L20.4458 15.9805L19.8794 16.3203L19.356 16.5781C19.3351 16.5884 19.3234 16.6003 19.313 16.6133L19.2896 16.6641L19.2153 16.9492L19.145 17.2344C19.1118 17.3673 19.1067 17.4932 19.1216 17.6133L19.1528 17.8906L19.188 18.168L19.2192 18.2891C19.2345 18.3241 19.2574 18.3543 19.2817 18.3828L19.6255 18.7891L19.9771 19.2227L20.1411 19.4375L20.3013 19.6484C20.3412 19.7004 20.3953 19.7379 20.4771 19.7617L20.7427 19.8398L21.0122 19.918L21.1333 19.9336C21.1722 19.933 21.2106 19.9268 21.2505 19.9141L21.7817 19.7422L22.1411 19.5781L22.3521 19.4453L22.4497 19.3789L21.9888 19.4531L21.7388 19.4844L21.4849 19.5117C21.2148 19.5436 20.9534 19.4949 20.7114 19.375L20.4692 19.2539L20.2271 19.1367C19.9833 19.0157 19.8198 18.8194 19.7388 18.582L19.6841 18.332L19.6606 18.0508L19.6333 17.7734C19.6048 17.4656 19.6857 17.1714 19.8833 16.9258L20.0513 16.7148L20.2153 16.5078L20.5044 16.2383C20.6098 16.1639 20.726 16.1053 20.8521 16.0625L21.0942 15.9805L21.3325 15.8984L21.8677 15.7383L22.1255 15.6719L22.3872 15.6016L22.7153 15.543C22.8249 15.5326 22.9353 15.5305 23.0435 15.543L23.2505 15.5664L23.4614 15.5898L23.6606 15.6367C23.7924 15.6808 23.9218 15.7549 24.02 15.875L24.1411 16.0898L24.1958 16.2383L24.2505 16.3906L24.3208 16.668C24.3361 16.7664 24.3446 16.8702 24.3481 16.9727L24.3599 17.2461L24.3677 17.5195C24.3775 17.8118 24.2933 18.0856 24.1255 18.3242L23.9653 18.5508L23.9419 18.582C23.9605 18.5859 23.9814 18.5838 24.0005 18.5898C24.1679 18.6424 24.2702 18.7487 24.3325 18.8555L24.4263 19.125L24.4888 19.5L24.6216 19.5352L24.6255 19.4961L24.6646 19.1953C24.6851 19.0931 24.7131 18.9873 24.7466 18.8828L24.9185 18.3438L24.9341 18.2383L24.9106 18.1289L24.7153 17.5898C24.6209 17.3321 24.591 17.0633 24.6372 16.793L24.731 16.2539L24.7466 16.0742L24.7271 15.8945L24.6177 15.3555C24.57 15.1143 24.5697 14.8704 24.6138 14.6289L24.6606 14.3594L24.7114 14.0898L24.7192 13.9531L24.6958 13.8281L24.6099 13.5781L24.5239 13.332L24.3794 13.0703L24.2192 12.8867L24.063 12.707L23.7192 12.3203L23.5278 12.1094L23.3325 11.8984C23.3159 11.8803 23.3078 11.8723 23.3052 11.8711H23.27L22.9927 11.8945L22.7114 11.9141C22.496 11.9315 22.2822 11.9308 22.0708 11.9102L21.8013 11.8828L21.5278 11.8594C21.4839 11.8551 21.4414 11.8557 21.3989 11.8633ZM32.6489 11.8906L32.3677 11.9531L32.0903 12.0156C32.064 12.0216 32.0534 12.0295 32.0513 12.0312L32.0278 12.0703L31.8989 12.332L31.8442 12.4414C31.939 12.406 32.0308 12.3622 32.1255 12.3359L32.6333 12.1953C32.7976 12.15 32.9886 12.1247 33.1802 12.1602L33.3716 12.2188L33.5278 12.2852L33.6802 12.3516L34.1099 12.6016L34.3052 12.7383L34.5044 12.875C34.6718 12.9913 34.8277 13.1335 34.9731 13.2969L35.1606 13.5078L35.3481 13.7148L35.4771 13.8867C35.5924 14.0651 35.662 14.2671 35.6841 14.4844L35.7114 14.7578L35.7427 15.0352L35.7583 15.6602L35.7271 16.207C35.7207 16.3289 35.7047 16.4494 35.6763 16.5664L35.5552 16.9141L35.3286 17.4141L35.1528 17.8633L35.0708 18.1055L34.9888 18.3516C34.9506 18.4642 34.8994 18.5718 34.8403 18.6758L34.6333 18.9766L34.4497 19.2031L34.2622 19.4297C34.1523 19.5644 34.0094 19.6798 33.8286 19.7422C33.7376 19.7736 33.6454 19.7864 33.5552 19.7891L33.2935 19.7656L33.0083 19.6992L32.813 19.6523L33.0239 19.7734L33.27 19.9102L33.3833 19.9258L33.9146 19.7539C34.0291 19.7169 34.123 19.6651 34.1997 19.5977L34.395 19.4219L34.5942 19.25L34.9966 18.9023L35.1958 18.7305L35.395 18.5625L35.5122 18.4453C35.5479 18.4011 35.5806 18.3508 35.6099 18.2969L35.8677 17.8203L35.9263 17.6758C35.9396 17.6273 35.9475 17.5759 35.9497 17.5234L35.9614 17.2539L35.9731 16.9805L36.0396 16.3711L36.0903 16.1016L36.1372 15.832L36.1567 15.4219L36.1372 15.1523L36.1138 14.8789L36.0356 14.418L35.9731 14.1484L35.9067 13.8828L35.7544 13.4531L35.6372 13.1953L35.52 12.9414C35.4925 12.882 35.46 12.824 35.4224 12.7695L35.2935 12.6172L35.0942 12.4062L34.8911 12.1992C34.8595 12.1668 34.8259 12.1412 34.7896 12.1211L34.6646 12.0742L34.1021 11.957L33.6138 11.8906L33.3364 11.875L33.0591 11.8555L32.6489 11.8906ZM54.4614 9.25781L54.4653 9.40625L54.4692 9.68359L54.4966 10.1836L54.5591 10.7227L54.5942 10.8867C54.6117 10.9404 54.6348 10.9943 54.6646 11.0469L54.8013 11.2891L54.938 11.5352L55.0903 11.9102L55.1372 12.3164L55.1294 12.5938L55.1255 12.875C55.1219 13.0333 55.1303 13.1868 55.1528 13.3359L55.1919 13.6055L55.2349 13.8711L55.27 13.9961C55.2896 14.0384 55.318 14.0831 55.356 14.1289L55.7388 14.5898L55.9575 14.9219C56.0168 15.039 56.0611 15.1629 56.0903 15.293L56.1489 15.5586L56.2114 15.8203L56.2583 16.1602L56.2622 16.5078L56.2466 16.7891L56.2271 17.0703C56.2187 17.2055 56.2333 17.3323 56.2661 17.4492L56.3364 17.707L56.4106 17.9688L56.5786 18.3398L56.8755 18.8242L57.0317 19.1016C57.0764 19.1956 57.113 19.2924 57.1411 19.3867L57.1997 19.5859L57.2388 19.7227C57.2422 19.7238 57.2463 19.7253 57.2505 19.7266L57.52 19.8086L57.5708 19.8203L57.606 19.6992L57.688 19.3906C57.7353 19.218 57.7607 19.0623 57.7661 18.9219L57.7778 18.6445L57.7856 18.4375C57.7437 18.4744 57.6856 18.5208 57.606 18.5469C57.4116 18.6097 57.2243 18.544 57.106 18.4375C57.0175 18.3573 56.9783 18.2678 56.9653 18.2344L56.9341 18.125L56.9067 17.9922L56.8833 17.8594L56.8013 17.4609L56.7505 17.1953L56.6958 16.9297L56.5903 16.4023L56.481 15.8711L56.3911 15.2852L56.3638 15.0117L56.3364 14.7422C56.331 14.688 56.3186 14.6347 56.3013 14.582L56.231 14.4258L56.0903 14.1836L55.9497 13.9375C55.8845 13.8246 55.831 13.7079 55.7935 13.5859L55.7231 13.2031L55.7075 12.9297L55.688 12.6562C55.685 12.6114 55.6757 12.5676 55.6606 12.5234L55.5942 12.3867L55.4341 12.1484L55.2778 11.9062C55.1013 11.6383 55.0408 11.334 55.0942 11.0195L55.1411 10.7305L55.1919 10.4414L55.2114 10.2344L55.1958 10.0508L55.1528 9.78125L55.1099 9.51562C55.1087 9.50879 55.1069 9.50332 55.106 9.5L54.8755 9.39062L54.645 9.27734C54.597 9.25399 54.5656 9.24498 54.5513 9.24219C54.5547 9.24193 54.5611 9.2395 54.5669 9.23828L54.4614 9.25781ZM73.5435 11.8711L73.2622 11.9062C73.1697 11.9167 73.0759 11.9125 72.9849 11.918C73.1182 11.9444 73.2498 11.9939 73.3716 12.0742L73.606 12.2305L73.8442 12.3867L74.1255 12.6094C74.212 12.6912 74.2918 12.7815 74.3599 12.8789L74.5005 13.082L74.6411 13.2812L74.813 13.6094C74.8569 13.7244 74.8892 13.8442 74.9067 13.9688L74.9458 14.2344L74.981 14.5039V14.7695C74.9654 14.868 74.9304 14.9723 74.8599 15.0703C74.7844 15.1744 74.6898 15.2451 74.5942 15.2891L74.3169 15.3594L74.0747 15.3789L73.8286 15.3984L73.3872 15.4648L73.1216 15.5273L72.8521 15.5898C72.626 15.6412 72.394 15.6568 72.1606 15.6406L71.8833 15.6211L71.6021 15.6016C71.5592 15.5987 71.5191 15.6007 71.481 15.6094L71.3677 15.6562L70.8833 15.9375L70.4106 16.2227L70.1606 16.375L69.9146 16.5273C69.882 16.5476 69.8556 16.5731 69.8325 16.6016L69.7739 16.707L69.5708 17.2695C69.5338 17.3725 69.528 17.4665 69.5474 17.5586L69.6099 17.8398L69.6685 18.1211L69.7192 18.2773C69.7408 18.3239 69.7674 18.365 69.7974 18.4023L69.9653 18.6133L70.1372 18.8242L70.4927 19.3242L70.645 19.5703L70.7974 19.8086L71.0864 19.8008L71.3716 19.7891H71.9653L72.5122 19.8047C72.6338 19.8086 72.7593 19.7917 72.8911 19.75L73.1685 19.6641L73.4419 19.5742L73.5825 19.5117C73.6239 19.4855 73.6617 19.4546 73.6958 19.418L73.8872 19.2109L73.9419 19.1484C73.8421 19.2065 73.7348 19.2575 73.6138 19.2812L73.0825 19.3828C72.8635 19.4257 72.6442 19.4415 72.4302 19.4219L72.188 19.3984L71.9458 19.3789C71.7223 19.3584 71.5067 19.2934 71.313 19.1797L71.1333 19.0742L70.9497 18.9688C70.7478 18.8503 70.6154 18.6757 70.5435 18.4766L70.4927 18.2656L70.4575 18.0312L70.4224 17.793C70.3879 17.5605 70.4048 17.3249 70.4653 17.0938L70.5356 16.832L70.6021 16.5703L70.6997 16.3281C70.7446 16.2505 70.8031 16.1774 70.8755 16.1133C71.0186 15.9867 71.1897 15.9203 71.356 15.8945L71.6294 15.8555L71.9067 15.8125C72.0785 15.7859 72.2454 15.7528 72.4067 15.7148L72.9302 15.5898C73.1461 15.5391 73.3644 15.519 73.5747 15.543L73.7817 15.5664L73.9927 15.5898L74.1841 15.6289C74.3064 15.6661 74.4197 15.728 74.52 15.8125L74.6606 15.957L74.7778 16.1055L74.895 16.2578L75.0161 16.4805C75.0702 16.6312 75.0739 16.7862 75.0513 16.9297L75.0005 17.1367L74.8208 17.6602L74.5903 18.2227L74.4731 18.4648L74.3521 18.7109C74.3306 18.7551 74.3 18.7924 74.2739 18.832C74.3321 18.7945 74.4268 18.7456 74.5474 18.7344C74.6347 18.7263 74.7378 18.7413 74.8403 18.793C74.9421 18.8444 75.0116 18.9191 75.0552 18.9883C75.0935 19.0492 75.1162 19.1103 75.1294 19.1641L75.1489 19.293L75.1606 19.4844L75.1646 19.5898L75.1724 19.5938L75.2935 19.6641L75.3403 19.4727L75.4224 18.9961L75.4458 18.7227L75.4692 18.4531L75.4731 17.9883L75.4575 17.7148L75.4419 17.4453L75.4106 16.9102L75.3716 16.3711L75.3364 15.832L75.3169 15.5625L75.3013 15.2891C75.2882 15.0936 75.2837 14.8984 75.2896 14.7031L75.3052 14.1641C75.3105 13.9868 75.3139 13.8019 75.3169 13.6133L75.3247 13.043L75.3208 13.0039L75.2935 12.9727L75.0708 12.793L74.8442 12.6094L74.395 12.2461L74.1763 12.0625L73.9536 11.8789C73.9104 11.8436 73.8765 11.834 73.8247 11.8398L73.5435 11.8711ZM66.8325 9.13672L66.563 9.24609C66.5581 9.24804 66.5514 9.24823 66.5474 9.25L66.5278 9.37109L66.4927 9.56641C66.4729 9.6768 66.4375 9.78642 66.3911 9.89062L66.2192 10.1914L66.063 10.4336L65.9028 10.6719C65.8696 10.722 65.8431 10.771 65.8247 10.8203L65.7896 10.9648L65.7271 11.5039L65.6489 12.0586L65.6099 12.3242L65.5669 12.5938C65.5492 12.7094 65.5246 12.823 65.4888 12.9336L65.3521 13.2617L65.2271 13.5078L65.0981 13.7539C65.062 13.8247 65.0503 13.9019 65.063 13.9961L65.1021 14.2812L65.1372 14.5703L65.1528 14.7891C65.1494 14.935 65.1217 15.0778 65.0708 15.2148L64.9771 15.4141L64.8364 15.6602L64.6958 15.9023C64.6465 15.9886 64.6278 16.0752 64.6294 16.168L64.6372 16.7227L64.6021 17.1094L64.4731 17.4766L64.231 17.9844C64.1911 18.0673 64.1486 18.1468 64.1138 18.2031C64.1045 18.2181 64.0908 18.2441 64.0708 18.2695C64.0608 18.2823 64.0425 18.3024 64.02 18.3242C64.0014 18.3422 63.9544 18.3842 63.8833 18.418C63.8111 18.4522 63.6383 18.5089 63.4458 18.4141C63.4134 18.398 63.3849 18.3788 63.3599 18.3594C63.3671 18.4071 63.3837 18.4552 63.3872 18.5039L63.4263 19.0508L63.4575 19.2305C63.4714 19.2875 63.4898 19.3405 63.5122 19.3906L63.6138 19.625L63.6919 19.8008L63.9146 19.8047H64.0044L64.02 19.6797L64.0513 19.3906L64.1177 19.0469C64.1473 18.9333 64.1847 18.8226 64.231 18.7148L64.3364 18.4648L64.4458 18.2109L64.6724 17.6992L64.8989 17.1992L65.0435 16.7812L65.1021 16.5195L65.1646 16.2578L65.2231 15.8125L65.231 15.5352L65.2427 15.2617L65.2974 14.8789C65.3307 14.7555 65.3805 14.6346 65.4419 14.5195L65.5708 14.2773L65.7036 14.0312L65.7778 13.8555C65.7976 13.7965 65.8115 13.7366 65.8208 13.6758L65.8638 13.4062L65.9028 13.1406C65.931 12.9569 65.9629 12.7722 65.9966 12.5898L66.0474 12.3242L66.0942 12.0586L66.2114 11.5039L66.2778 11.2422L66.3403 10.9805L66.5396 10.3828L66.6528 10.1328L66.7622 9.87891L66.8208 9.70703C66.8356 9.64734 66.8438 9.5861 66.8481 9.52344L66.8677 9.25L66.8755 9.11719L66.8325 9.13672ZM11.7778 9.16797L11.5044 9.19922L11.1489 9.25391L11.0083 9.28906L10.8716 9.32031C10.6561 9.3719 10.42 9.33534 10.2231 9.28516L9.94971 9.21484L9.68018 9.14453C9.63843 9.13401 9.59699 9.13126 9.55518 9.13281L9.42236 9.15625L8.8833 9.33594C8.86166 9.34315 8.84306 9.34952 8.82861 9.35547L8.8208 9.38281L8.77393 9.50781C8.75655 9.55188 8.72359 9.65011 8.68408 9.82422L8.62549 10.0938L8.56299 10.3633C8.53305 10.4952 8.52571 10.6253 8.53564 10.7539L8.57471 11.293L8.58252 11.6172C8.57943 11.725 8.57365 11.8338 8.55908 11.9414L8.52002 12.2109L8.48486 12.4805C8.46881 12.599 8.472 12.7181 8.50049 12.8398L8.56689 13.1094L8.62939 13.3789C8.67928 13.5921 8.70756 13.8075 8.71143 14.0234L8.71533 14.293L8.71924 14.5664L8.6958 15.1602L8.66846 15.4336L8.64111 15.7031L8.53955 16.3125L8.40674 16.8516C8.37722 16.9731 8.37193 17.0932 8.38721 17.2109L8.45752 17.75L8.55518 18.207L8.63721 18.4805L8.71924 18.75L8.78955 19.0938L8.77002 19.4492L8.73877 19.5781L9.17627 19.7656C9.25067 19.7975 9.30721 19.7999 9.36768 19.7812L9.63721 19.6953L9.78955 19.6484C9.66685 19.6311 9.5372 19.5953 9.42236 19.5039C9.33421 19.4336 9.273 19.3481 9.22705 19.2617L9.1333 19L9.07471 18.7148L9.01611 18.4258L8.92236 17.8281L8.85986 17.2891C8.82896 17.021 8.86879 16.7554 8.96924 16.5039L9.07471 16.2344L9.18408 15.9648L9.21533 15.8398C9.2189 15.7995 9.21639 15.761 9.20752 15.7227L9.08252 15.1836C9.06773 15.1197 9.05334 15.0452 9.05127 14.9688C9.04939 14.899 9.05485 14.7807 9.11377 14.6602C9.18435 14.5165 9.3188 14.4036 9.49268 14.3633C9.56597 14.3464 9.63342 14.3449 9.69189 14.3516L9.83252 14.3828L10.0005 14.4375L10.1685 14.4961L10.4106 14.5078L10.9497 14.4688L11.4731 14.4219L11.7427 14.3906L12.0122 14.3633C12.3064 14.3321 12.5901 14.3979 12.8364 14.5664L13.0513 14.7148L13.27 14.8672L13.7192 15.2109L14.0786 15.5312L14.2349 15.707C14.3656 15.8922 14.4253 16.1117 14.4146 16.3438L14.4028 16.5977L14.3911 16.8555C14.3845 16.9976 14.3857 17.1597 14.4028 17.3398L14.4341 17.6367L14.4614 17.9375L14.4458 18.2227C14.4254 18.3216 14.3868 18.4215 14.3208 18.5156C14.1892 18.7032 14.0006 18.8 13.8247 18.8438L13.2466 18.9844L12.7896 19.1367L12.5396 19.2461L12.2935 19.3555C12.1869 19.4022 12.0769 19.4369 11.9653 19.4648L11.9966 19.4688L12.2622 19.4961H12.4185C12.4696 19.4911 12.5186 19.4806 12.5669 19.4648L12.8169 19.3867L13.063 19.3047L13.395 19.2227C13.5088 19.2029 13.6272 19.189 13.7466 19.1836L14.0435 19.1719L14.2661 19.1602L14.3208 18.9375L14.3911 18.6445L14.4966 18.3008C14.5395 18.1914 14.5897 18.0869 14.6489 17.9883L14.7817 17.7656L14.9146 17.5469C14.9725 17.4504 15.0185 17.3398 15.0474 17.2109L15.106 16.9414L15.1646 16.6758C15.1745 16.6312 15.1787 16.5862 15.1763 16.543L15.1489 16.4141L15.063 16.1523L14.9731 15.8906C14.9526 15.83 14.9287 15.7711 14.8989 15.7148L14.7935 15.5469L14.6216 15.3281L14.4536 15.1055C14.3941 15.0271 14.322 14.9682 14.231 14.9297L13.9771 14.8242L13.7192 14.7148C13.6306 14.6773 13.5253 14.6266 13.4419 14.5664C13.4138 14.546 13.3039 14.4689 13.2427 14.3281C13.2053 14.2417 13.1809 14.114 13.2231 13.9727C13.2643 13.8362 13.3508 13.75 13.4146 13.7031L13.4653 13.6641L13.52 13.625L13.7856 13.4258L14.0044 13.2578L14.2271 13.0938C14.3077 13.0329 14.3654 12.9599 14.4067 12.8711L14.52 12.6211L14.6372 12.375L14.77 11.9648L14.8247 11.6914L14.8794 11.4219L14.8833 11.3477L14.856 11.2773L14.7036 11.0391L14.5552 10.8047L14.2583 10.2461L14.1489 9.99219L14.0356 9.73828L13.9614 9.67188L13.6958 9.58203L13.4302 9.49609C13.2564 9.43858 13.0835 9.38179 12.9106 9.32812L12.645 9.24609L12.3833 9.16406C12.2744 9.13027 12.1643 9.11934 12.0513 9.13281L11.7778 9.16797ZM92.5903 19.2734C92.4241 19.2909 92.2436 19.2989 92.0513 19.2969L91.7856 19.293H91.52C91.3947 19.2917 91.2684 19.309 91.1411 19.3477L90.8794 19.4258L90.6177 19.5078C90.3981 19.5744 90.1746 19.5774 89.9497 19.5469C90.0996 19.5628 90.2503 19.5811 90.3989 19.6172L90.6606 19.6797L90.9224 19.7461L91.3247 19.7852L91.6021 19.7773L91.8755 19.7656C91.9849 19.7619 92.086 19.737 92.1841 19.6875L92.4302 19.5625L92.6567 19.4492L92.6606 19.2656L92.5903 19.2734ZM83.0044 19.6523C82.9563 19.655 82.915 19.6539 82.8833 19.6562C82.8433 19.6769 82.8078 19.6883 82.7817 19.6953C82.8584 19.7102 82.9273 19.7095 82.9966 19.6914L83.1919 19.6406L83.0044 19.6523ZM29.9302 8.41797L29.8169 8.43359L29.8247 8.47656L29.8716 8.74609L29.9771 9.26562L30.0942 9.80469C30.1412 10.0181 30.1378 10.2312 30.0864 10.4375L30.02 10.6406L29.9067 10.9102L29.7974 11.1797C29.7673 11.2535 29.7686 11.3144 29.7896 11.3789L29.8755 11.6484L29.9653 11.918L30.0161 12.125C30.0397 12.2624 30.0416 12.4008 30.0239 12.5391L29.981 12.7461L29.9067 13.0195L29.8325 13.2891C29.8095 13.3714 29.8081 13.4488 29.8364 13.5352L30.0161 14.0742L30.0981 14.4336L30.1177 14.7969L30.1021 15.0664L30.0903 15.3359C30.0851 15.4458 30.0733 15.5552 30.0552 15.6641L29.981 15.9883L29.9067 16.2578L29.8286 16.5312C29.805 16.6151 29.8049 16.6946 29.8325 16.7812L30.0044 17.3203C30.0743 17.5397 30.0861 17.7629 30.0396 17.9805L29.9731 18.1953L29.8677 18.4648L29.7583 18.7344C29.7102 18.8561 29.693 18.9706 29.6958 19.0781L29.7036 19.3477L29.7075 19.5938L29.9263 19.707L29.9302 19.7031L30.0239 19.418L30.1138 19.2031C30.1591 19.1237 30.2212 19.0412 30.3091 18.9766C30.4131 18.9002 30.5503 18.8518 30.6997 18.8594C30.7693 18.8631 30.8326 18.8776 30.8872 18.8984L31.0239 18.9727L31.3364 19.1836L31.5864 19.2695L31.8521 19.3281L32.02 19.3594L31.8638 19.2734L31.6411 19.1523C31.4649 19.0551 31.316 18.9239 31.2036 18.7617L31.1021 18.5859L30.8911 18.1484L30.6606 17.7266L30.5122 17.4805L30.3638 17.2383C30.2038 16.9756 30.1435 16.6803 30.1958 16.375L30.2896 15.8281L30.3052 15.4102L30.2778 15.1367L30.2505 14.8594C30.2276 14.6259 30.2405 14.3908 30.2856 14.1562L30.395 13.5859L30.4731 13.3398C30.5499 13.1685 30.6699 13.0268 30.8247 12.918C30.8109 12.9073 30.7938 12.9016 30.7817 12.8906L30.6841 12.7773L30.5786 12.6289L30.4731 12.4766C30.3191 12.2579 30.2776 11.9995 30.2817 11.7617L30.2896 11.2227H30.3638C30.3569 11.2139 30.3538 11.2036 30.3481 11.1953C30.3507 11.1998 30.3531 11.2063 30.356 11.2109C30.3583 11.2147 30.361 11.2185 30.3638 11.2227H30.2896C30.2904 11.1723 30.2896 11.1298 30.2896 11.0977C30.2811 11.0762 30.2734 11.059 30.27 11.0469C30.261 11.0146 30.2567 10.9842 30.2544 10.9688C30.2496 10.9361 30.2445 10.9028 30.2427 10.875L30.2349 10.6445L30.231 10.375L30.2231 10.1055C30.2191 9.88696 30.2436 9.66913 30.2896 9.45312L30.3442 9.17969L30.4028 8.91016L30.4106 8.82031L30.3872 8.75L30.2622 8.51953L30.1841 8.375L29.9302 8.41797ZM97.5981 12.1836L97.5396 12.1875L97.5474 12.2461L97.5786 12.5156L97.645 13.0312L97.688 13.3047L97.731 13.5742L97.7661 13.8984L97.7622 14.2227L97.7427 14.4922L97.7271 14.7617C97.7179 14.9055 97.7244 15.0505 97.7466 15.1953L97.7896 15.4648L97.8286 15.7344L97.856 16.0859L97.8208 16.4375L97.7271 16.9766L97.6099 17.5469L97.5435 17.8164L97.481 18.0898C97.4526 18.2081 97.4446 18.3226 97.4614 18.4375L97.5005 18.707L97.5435 18.9766L97.645 19.418L97.7231 19.668L97.7271 19.6836L97.7896 19.668L98.063 19.5781L98.1138 19.5508L98.1919 19.3672L98.2778 19.1641L98.27 19L98.1372 18.4609C98.0795 18.2277 98.0595 17.9913 98.0825 17.7539L98.1099 17.4844L98.1372 17.2109L98.1255 16.793L98.0474 16.2539C98.01 15.9961 98.034 15.7388 98.1177 15.4922L98.2036 15.2344L98.2935 14.9766L98.3325 14.8086C98.3402 14.7481 98.3404 14.6831 98.3364 14.6133L98.3208 14.3164L98.3013 14.0156C98.2917 13.8445 98.3211 13.6667 98.4067 13.5C98.4365 13.4422 98.477 13.3919 98.5161 13.3438L98.3677 13.2617L98.0317 12.9727C97.8805 12.8445 97.7657 12.6854 97.7036 12.5L97.6606 12.3086L97.6411 12.1758L97.5981 12.1836ZM80.8325 10.9219L80.6685 11.1562C80.6 11.253 80.5263 11.3438 80.4458 11.4258L80.188 11.6445L79.9966 11.7695L79.8091 11.8984C79.785 11.9147 79.7685 11.9422 79.7466 11.9766C79.8934 11.9894 80.0573 12.032 80.188 12.1758C80.2675 12.2635 80.3131 12.3631 80.3403 12.457L80.3755 12.7109L80.3794 12.9922L80.3833 13.2773L80.4067 13.793L80.4263 14.0664L80.4497 14.3359L80.5356 14.7539L80.6255 15.0234L80.7192 15.293L80.8013 15.6758L80.7935 16.0625L80.7544 16.3359L80.7153 16.6055C80.6997 16.7141 80.677 16.8222 80.6489 16.9297L80.5474 17.2539L80.4419 17.5234L80.3403 17.7969C80.3353 17.8102 80.3331 17.8197 80.3325 17.8242C80.3319 17.8285 80.3324 17.8311 80.3325 17.832C80.3327 17.8333 80.3347 17.8354 80.3364 17.8398C80.3384 17.845 80.3402 17.8547 80.3481 17.8672L80.5122 18.1172L80.6724 18.3633L80.8442 18.6641C80.8949 18.7652 80.94 18.8678 80.9771 18.9727L81.0669 19.2266L81.1372 19.4258L81.3599 19.4453L81.6294 19.4648C81.7684 19.4755 81.9053 19.5017 82.0396 19.5273L81.9146 19.4805L81.645 19.3711C81.3893 19.2689 81.1981 19.089 81.0942 18.8516L81.02 18.5938L80.9731 18.3086L80.9302 18.0234C80.8895 17.7724 80.8966 17.5229 80.9536 17.2773L81.0161 17.0039L81.0786 16.7344L81.1021 16.5547L81.0942 16.3789L81.0161 15.8398C80.9903 15.6619 80.962 15.4826 80.9341 15.3047L80.8481 14.7656C80.8148 14.5532 80.8034 14.3386 80.813 14.125L80.8364 13.5859L80.8599 13.4023C80.8948 13.2062 80.9804 12.9887 81.188 12.8398L81.4458 12.6523L81.6021 12.5664C81.7635 12.4925 81.9405 12.461 82.1021 12.4492L82.6411 12.4102C82.7629 12.4013 82.8127 12.3756 82.8247 12.3672L82.9849 12.2539L83.0825 12.1797L83.0786 12.0742L82.8755 12.1289C82.6303 12.1918 82.381 12.2037 82.1333 12.1602L81.8716 12.1172L81.606 12.0703C81.4375 12.0403 81.2488 11.9613 81.1099 11.7891C80.9714 11.6174 80.9337 11.4152 80.938 11.2461L80.9458 10.9766L80.9497 10.7539L80.8325 10.9219ZM87.7583 13.4531L87.5669 13.6406C87.5317 13.6748 87.5017 13.7139 87.4771 13.7539L87.4146 13.8828L87.3325 14.1406L87.2505 14.4023L87.1255 14.8789L87.0669 15.1484L87.0122 15.418C86.9959 15.4951 86.9998 15.5723 87.0356 15.6602L87.145 15.9219L87.2505 16.1875L87.356 16.5898L87.3442 17.0039L87.2974 17.2852L87.2544 17.5664C87.2403 17.6543 87.2514 17.726 87.2856 17.7969L87.5278 18.2969L87.77 18.6875L87.9419 18.9141L88.1099 19.1367L88.1919 19.2148C88.222 19.2357 88.2545 19.2541 88.2935 19.2656L88.5669 19.3438L88.8364 19.4219L89.2583 19.4961L89.52 19.5117L89.7505 19.5195L89.563 19.4844L89.2935 19.4297C89.0513 19.3798 88.8436 19.2602 88.688 19.082L88.5513 18.8828L88.4146 18.6406L88.2817 18.4023L88.02 17.8945L87.7935 17.418C87.6827 17.1858 87.6285 16.9273 87.6802 16.6602L87.7231 16.4492L87.7622 16.2383L87.856 15.9844C87.9022 15.906 87.9668 15.834 88.0435 15.7734C88.1875 15.6603 88.3537 15.6129 88.5005 15.5938L89.0396 15.5234C89.2045 15.5019 89.3702 15.4988 89.5356 15.5L89.3169 15.4922L89.0474 15.4844C88.9312 15.4808 88.8154 15.4708 88.7036 15.4492L88.3794 15.3555L88.145 15.2656L87.9106 15.1797C87.7429 15.1163 87.552 14.986 87.4653 14.75C87.3849 14.53 87.4317 14.3184 87.4888 14.1719L87.5942 13.9023L87.6997 13.6367L87.8481 13.3633L87.7583 13.4531ZM32.8989 13.1602L32.3911 13.3008L31.9536 13.4688L31.4224 13.7188C31.408 13.7256 31.3994 13.7348 31.395 13.7383C31.3914 13.7412 31.3877 13.7415 31.3872 13.7422L31.3833 13.75L31.3794 13.7773L31.3247 14.0586L31.2661 14.3438C31.2382 14.4886 31.2335 14.6283 31.2466 14.7617L31.2739 15.0391L31.3013 15.3125L31.313 15.6562C31.3088 15.7697 31.2972 15.8832 31.2778 15.9961L31.1841 16.543C31.1738 16.6029 31.1809 16.6558 31.2192 16.7188L31.3677 16.9609L31.5161 17.207L31.7935 17.7148L31.8989 17.9336L32.0044 18.1562L32.1255 18.2773L32.3481 18.3984L32.5708 18.5234L32.9458 18.6602L33.231 18.7227L33.4966 18.7812L33.6724 18.5703L33.8599 18.3438L33.9692 18.1836C33.9993 18.131 34.0228 18.0805 34.0396 18.0312L34.1216 17.7852L34.2036 17.543L34.4185 17.0039L34.5317 16.75L34.645 16.5L34.7036 16.332C34.7176 16.2746 34.7278 16.2162 34.731 16.1562L34.7427 15.8828L34.7583 15.6094L34.7466 15.1367L34.7192 14.8594L34.688 14.5859C34.684 14.5467 34.6754 14.51 34.6606 14.4766L34.5981 14.3789L34.4146 14.1719L34.2271 13.9609C34.125 13.8463 34.0266 13.7596 33.9341 13.6953L33.7388 13.5586L33.5396 13.4219L33.2778 13.2656L33.1255 13.1992L32.9888 13.1406L32.8989 13.1602ZM11.5786 15.4141L11.02 15.4648L10.481 15.5039C10.3809 15.5111 10.2798 15.511 10.1802 15.5039C10.2442 15.7863 10.2208 16.068 10.1138 16.3359L10.0044 16.6055L9.89893 16.875C9.85571 16.9832 9.84164 17.0802 9.85205 17.1719L9.91455 17.7109L9.99658 18.2266L10.0552 18.5156L10.0786 18.6484L10.1724 18.6406L10.4458 18.6133L10.9966 18.5664L11.2661 18.5469L11.5396 18.5273L11.7192 18.5C11.7777 18.4856 11.835 18.4659 11.8911 18.4414L12.1411 18.332L12.3872 18.2227L13.0044 18.0156L13.2935 17.9453L13.4497 17.9023L13.438 17.7344L13.4067 17.4336C13.3859 17.2146 13.3819 17.0055 13.3911 16.8086L13.4028 16.5508L13.4146 16.2969V16.2812L13.0552 15.9609L12.7075 15.6914L12.27 15.3945C12.2264 15.3647 12.1837 15.3524 12.1177 15.3594L11.5786 15.4141ZM22.6411 16.5664L22.3833 16.6367L22.1216 16.707L21.6528 16.8477L21.4146 16.9258L21.1724 17.0078C21.1406 17.0186 21.1112 17.0346 21.0825 17.0547L20.9966 17.1367L20.6606 17.5508C20.636 17.5814 20.6233 17.6138 20.6294 17.6797L20.6567 17.9609L20.6802 18.2422L21.1567 18.4805C21.2353 18.5191 21.3024 18.5272 21.3677 18.5195L21.6216 18.4922L21.8716 18.4609L22.3481 18.3867L22.6138 18.332L22.8755 18.2812L22.9888 18.2031L23.3091 17.75C23.354 17.6861 23.3702 17.6225 23.3677 17.5508L23.3599 17.2773L23.3481 17.0039L23.313 16.7383L23.2583 16.5898L23.2505 16.5742L23.1372 16.5625L22.9263 16.5352L22.6411 16.5664ZM73.1606 16.5625L72.6372 16.6875C72.4498 16.7316 72.2553 16.7703 72.0591 16.8008L71.7856 16.8438L71.5552 16.875L71.5005 17.0859L71.4341 17.3477C71.403 17.4664 71.3984 17.5664 71.4106 17.6484L71.4458 17.8828L71.4771 18.1172L71.6372 18.2109L71.8208 18.3203C71.8695 18.3487 71.9376 18.3736 72.0356 18.3828L72.2778 18.4023L72.52 18.4258C72.6286 18.4357 72.7512 18.4289 72.8872 18.4023L73.1567 18.3516L73.4224 18.2969L73.4419 18.293C73.4434 18.291 73.4484 18.2842 73.4536 18.2734L73.5708 18.0312L73.6919 17.7852L73.8755 17.3359L74.0552 16.8125L73.9849 16.7188L73.8794 16.5859L73.6685 16.5625L73.4614 16.5352L73.1606 16.5625ZM60.1255 9.36328L60.0513 9.63281L59.9614 10.1016L59.9302 10.3711L59.8989 10.6445C59.8861 10.7572 59.8643 10.8677 59.8364 10.9766L59.731 11.3008L59.6294 11.5508L59.5239 11.8047L59.2817 12.3359L59.1567 12.582L59.0356 12.8281C59.0117 12.8758 58.9931 12.9257 58.981 12.9766L58.9614 13.1328L58.9575 13.4141V13.6914L58.9185 14.2969L58.8833 14.5664L58.8521 14.8398C58.8355 14.9762 58.8016 15.1068 58.7505 15.2305L58.5474 15.582L58.3716 15.8164L58.1958 16.0469C58.1544 16.1016 58.1422 16.1496 58.1489 16.2109L58.2114 16.7812L58.2192 17.1523L58.1528 17.5156L58.145 17.5273L58.3403 17.3242L58.5435 17.0977L58.5825 17.043V16.9883L58.5044 16.4102C58.4654 16.1304 58.4977 15.8521 58.6138 15.5938L58.7271 15.3438L58.8364 15.0977L58.9849 14.668L59.0513 14.4062L59.1138 14.1445L59.2153 13.6523L59.2622 13.3828L59.3052 13.1172L59.4614 12.5156L59.5513 12.2578L59.6372 12.0039L59.7583 11.5508L59.8091 11.2891L59.8599 11.0234L59.9458 10.7148C59.9611 10.6822 60.0241 10.5476 60.1724 10.4609C60.265 10.407 60.3906 10.3734 60.5278 10.3984C60.5908 10.41 60.644 10.4324 60.688 10.457L60.7935 10.5352L60.8442 10.582L60.8989 10.6328L61.0122 10.7812C61.0407 10.8296 61.0597 10.8729 61.0708 10.8984C61.1026 10.972 61.1351 11.0588 61.1646 11.1523L61.2466 11.4102L61.3247 11.668C61.3838 11.8557 61.4369 12.0456 61.4771 12.2383L61.5864 12.7695L61.7075 13.25L61.7856 13.5117L61.8599 13.7695L62.0083 14.3203L62.0669 14.5859L62.1294 14.8477L62.2583 15.332L62.4224 15.8477L62.5825 16.3594L62.7466 16.875C62.7922 17.0179 62.8536 17.1592 62.9263 17.2969L63.0552 17.5391L63.1763 17.7734L63.1802 17.7617C63.18 17.7516 63.181 17.7375 63.1802 17.7188L63.1646 17.5156L63.1411 17.2422L63.1177 16.9727C63.1129 16.9161 63.1059 16.8588 63.0903 16.8047L63.0239 16.6406L62.7661 16.1484L62.52 15.5898L62.3325 15.082L62.1646 14.4883L62.0552 13.957C62.0124 13.7429 61.9956 13.5236 62.0005 13.3008L62.0083 13.0195L62.0122 12.7383L62.0005 12.5625C61.9905 12.5081 61.9741 12.4564 61.9536 12.4062L61.8481 12.1523L61.7466 11.9023L61.5317 11.4531L61.3989 11.2109L61.27 10.9688C61.2156 10.8685 61.1658 10.7653 61.1255 10.6602L61.0278 10.3359L60.9028 9.8125C60.888 9.74968 60.8714 9.70852 60.8599 9.68359L60.856 9.66797L60.7427 9.55469L60.6294 9.4375C60.6414 9.44966 60.6409 9.44681 60.6138 9.43359L60.4731 9.38281L60.2036 9.3125L60.1411 9.29688L60.1255 9.36328ZM90.7739 15.3516L90.2349 15.4531C90.0744 15.4833 89.912 15.4921 89.7505 15.4961L89.938 15.5078L90.2075 15.5195C90.3924 15.5275 90.5774 15.5364 90.7622 15.5508L91.0317 15.5742L91.3052 15.5938C91.3952 15.6007 91.4843 15.5886 91.5747 15.582L91.313 15.4805L91.0435 15.3789C90.9451 15.3413 90.8583 15.3357 90.7739 15.3516ZM89.4614 11.8164L89.231 11.9844L88.9966 12.1523L88.6841 12.4414L88.3481 12.8398C88.3221 12.8707 88.289 12.8954 88.2622 12.9258L88.4263 12.8125L88.6528 12.6445L88.9575 12.457C89.0623 12.404 89.1729 12.3622 89.2856 12.3281L89.5356 12.25L89.7896 12.1719L90.0825 12.1094C90.1227 12.1044 90.1802 12.0977 90.2466 12.1016L90.4614 12.1484L90.5435 12.1836L90.6294 12.2188L90.7036 12.2383C90.7538 12.252 90.8208 12.2692 90.9067 12.2891L91.1802 12.3516L91.4497 12.4141L91.6958 12.5078C91.7736 12.5495 91.8486 12.6037 91.9146 12.6719C92.0465 12.8087 92.1187 12.9745 92.1528 13.1406L92.2114 13.418L92.2661 13.6914L92.3755 14.2734L92.4263 14.5586L92.4731 14.8477L92.481 15.1328C92.4638 15.2382 92.4109 15.3755 92.2856 15.4883C92.4804 15.4588 92.6665 15.4461 92.8364 15.457L92.9771 15.4648L93.0044 15.3477L93.063 15.0781L93.0708 14.957L93.0435 14.8477L92.9419 14.5938L92.8364 14.3398L92.6372 13.8672L92.5317 13.6289L92.4263 13.3945L92.2192 13.0195L92.0708 12.8008L91.9224 12.5859L91.6372 12.2578L91.4224 12.0586L91.2075 11.8633C91.1895 11.8466 91.1765 11.8336 91.1606 11.8281L91.1021 11.8242L90.8169 11.8594L90.5278 11.8906C90.4158 11.903 90.3044 11.9093 90.1958 11.9062L89.8755 11.8672L89.6802 11.8203L89.52 11.7812L89.4614 11.8164ZM90.1606 13.1094L90.0786 13.1328L89.8247 13.207L89.5747 13.2852C89.5197 13.3018 89.4651 13.324 89.4106 13.3516L89.2466 13.4531L89.02 13.6172L88.7896 13.7852C88.7539 13.8115 88.7221 13.8406 88.6958 13.875L88.6294 13.9961L88.5239 14.2656L88.4966 14.332L88.731 14.4219L89.0747 14.4844L89.3481 14.4961L89.6177 14.5039C89.7601 14.5082 89.9031 14.4958 90.0474 14.4688L90.3169 14.418L90.5903 14.3672C90.728 14.3414 90.8651 14.3344 91.0005 14.3477L91.3911 14.4414L91.2896 13.8945L91.231 13.6172L91.1802 13.3789L90.9536 13.3281L90.6841 13.2656L90.2505 13.1445L90.1646 13.1094L90.1606 13.1055V13.1094ZM11.0356 9.5L11.3013 9.52734L11.5708 9.55859L11.895 9.61328C12.0018 9.63921 12.1055 9.67458 12.2075 9.71484L12.4458 9.80859L12.688 9.90234L12.9731 10.0391C13.0626 10.0897 13.1481 10.1475 13.2271 10.2109L13.395 10.3477L13.5669 10.4844L13.7075 10.6172C13.8345 10.7606 13.9226 10.9322 13.9731 11.1172L14.0356 11.3516L14.1021 11.5898L14.1372 11.8008C14.1488 11.9397 14.1356 12.0775 14.0942 12.2109L14.0122 12.4102L13.8989 12.6211L13.7856 12.8359L13.4653 13.3359L13.1372 13.7891C12.9748 14.0114 12.751 14.1463 12.4966 14.1836L12.231 14.1875L11.9497 14.1562L11.6685 14.1289C11.5601 14.1172 11.4527 14.098 11.356 14.0703C11.3139 14.0582 11.2585 14.0404 11.1997 14.0117L11.02 13.8867L11.0083 13.875L10.7505 13.9531L10.481 14.0352C10.2764 14.0964 10.026 14.1176 9.79736 14.0117L9.57471 13.8594L9.43408 13.7188L9.28955 13.5781C9.0348 13.3307 8.99967 13.003 9.04736 12.7266L9.14111 12.1875C9.14875 12.1433 9.14986 12.0973 9.14502 12.0508L9.10986 11.9062L8.90674 11.3672C8.80573 11.0984 8.78388 10.8022 8.90283 10.5156L8.99268 10.2969L9.08252 10.082L9.21143 9.86719C9.26466 9.80113 9.32821 9.74086 9.40283 9.69141C9.54784 9.59552 9.70785 9.5522 9.85986 9.53906L10.3989 9.49219L10.7192 9.48047C10.8247 9.48165 10.9305 9.48859 11.0356 9.5ZM10.2153 10.5117L9.97705 10.5312L9.91455 10.6836L9.82471 10.8984C9.82299 10.9026 9.82058 10.9091 9.8208 10.9219C9.82118 10.9373 9.82647 10.9684 9.84424 11.0156L10.0474 11.5547L10.1411 11.9492C10.1549 12.0834 10.149 12.219 10.1255 12.3555L10.0786 12.625L10.0317 12.8984L10.0278 12.9062L10.1294 13L10.2036 13.0742L10.4653 12.9961L10.7349 12.9141L11.0864 12.8516C11.1662 12.8495 11.3034 12.8571 11.438 12.9297L11.5708 13.0273L11.645 13.0977L11.6606 13.1133C11.6673 13.1147 11.6755 13.1196 11.6841 13.1211C11.7088 13.1254 11.7406 13.1288 11.7778 13.1328L12.0591 13.1641L12.3325 13.1875L12.4927 12.9727L12.6606 12.7461L12.9028 12.3633L13.0161 12.1523L13.1294 11.9375L13.1372 11.8555L13.0708 11.6172L13.0083 11.3789L12.9419 11.2617L12.5981 10.9883L12.3208 10.832L12.0786 10.7383L11.8403 10.6445L11.4614 10.5508L11.1958 10.5234L10.9263 10.4922C10.7803 10.4764 10.6324 10.4756 10.4849 10.4883L10.2153 10.5117ZM71.7075 11.9805L71.438 12.0469L71.1685 12.1094C71.1306 12.1187 71.0946 12.1344 71.0591 12.1562L70.9575 12.2422L70.7583 12.4609L70.7427 12.4727L70.8521 12.5469L71.1021 12.4492L71.356 12.3516L72.4185 11.9609L72.5239 11.9336H72.1177L71.7075 11.9805ZM100.891 12.0312L100.731 12.1094L100.364 12.3008L100.145 12.418L99.938 12.5273L100.149 12.4727L100.399 12.4062L100.965 12.3047L101.204 12.2812L101.321 12.2695L101.364 12.0898L101.375 12.0391L101.36 12.0352L101.114 11.9727C101.068 11.961 101.04 11.9606 101.032 11.9609L100.891 12.0312Z" fill="#6787A1"/>
</svg>
