<svg width="24" height="24" viewBox="0 0 24 24" fill="none" xmlns="http://www.w3.org/2000/svg">
<path d="M5.84056 2.47558C6.06148 2.47558 6.24056 2.65467 6.24056 2.87558V2.91308L6.31244 3.15995L6.35619 3.34433C6.3779 3.47027 6.38433 3.60097 6.35931 3.7287L6.29681 3.9162L6.21556 4.0912L6.13119 4.26308V4.2662L6.13431 4.26308L6.21869 4.43808L6.30619 4.61308C6.39539 4.79395 6.4334 4.99294 6.40306 5.19745L6.37806 5.36933L6.34994 5.54433C6.33023 5.67712 6.3022 5.80971 6.26556 5.9412L6.21869 6.1162L6.16869 6.28808C6.15828 6.32544 6.15444 6.35372 6.15306 6.37245C6.15196 6.38762 6.15277 6.39552 6.15306 6.39745L6.16869 6.46933L6.26244 6.47558L6.77494 6.52558L7.12494 6.58183C7.19369 6.59281 7.26167 6.59208 7.33119 6.5787L7.68119 6.50995L8.10931 6.47245L8.45931 6.4787L8.70931 6.45058L8.88431 6.41308L9.05619 6.37245C9.24652 6.3282 9.44067 6.33862 9.62494 6.40058L9.79681 6.45683L9.97181 6.5162L10.1031 6.52558L10.2749 6.48495L10.4499 6.44433L10.7374 6.41933C10.8324 6.42483 10.9265 6.44366 11.0187 6.47558L11.1937 6.53495L11.3656 6.59433C11.4391 6.61981 11.5093 6.63024 11.5749 6.6287L11.7499 6.62558L11.9218 6.62245C12.003 6.62056 12.0869 6.60891 12.1718 6.58495L12.3468 6.53495L12.5187 6.48495C12.7004 6.43369 12.8881 6.43069 13.0718 6.47558L13.2437 6.51933L13.4187 6.55995L13.5406 6.5537L13.7156 6.49433L13.8874 6.43183C14.0357 6.38038 14.1896 6.35097 14.3437 6.3412L14.5156 6.3287L14.6906 6.31933L15.0999 6.32245L15.2749 6.3412L15.4499 6.35683C15.5901 6.36996 15.7308 6.39658 15.8687 6.43495L16.0406 6.48183L16.2156 6.53183L16.4124 6.54745L16.7624 6.50995C16.91 6.4941 17.0589 6.49651 17.2062 6.5162L17.3781 6.53808L17.5531 6.56308L17.5999 6.5662H17.6031L17.6874 6.3287L17.7281 6.15995V6.1287L17.6624 5.95683L17.5968 5.78183L17.4781 5.36308L17.4156 5.01308C17.3902 4.87249 17.3791 4.7299 17.3812 4.58808L17.3843 4.4162V4.2412L17.4374 3.80995L17.4749 3.63808L17.5156 3.46308L17.5499 3.23495L17.5562 3.10995V3.10058L17.5624 2.97558V2.87558C17.5624 2.65518 17.7422 2.47641 17.9624 2.47558C18.1834 2.47558 18.3624 2.65467 18.3624 2.87558V3.00058L18.3531 3.15058L18.3499 3.2662L18.2968 3.63808L18.2562 3.81308L18.2187 3.98808L18.1843 4.2537V4.42558L18.1812 4.60058C18.1799 4.69037 18.1866 4.78143 18.2031 4.87245L18.2343 5.04433L18.2656 5.21933L18.3437 5.49745L18.4093 5.66933L18.4781 5.84433L18.5218 6.03183C18.5295 6.09533 18.5298 6.15904 18.5249 6.22245L18.4437 6.58808L18.3624 6.82245V6.85683C18.3624 6.89021 18.3613 6.92449 18.3531 6.95683L18.3281 7.0537C18.3196 7.08678 18.304 7.1176 18.2874 7.14745L18.1937 7.30995L18.1968 7.31308L18.1281 7.45995L18.0749 7.65995L18.0562 7.83495L18.0343 8.00683L17.9781 8.3787L17.9156 8.72245C17.9021 8.79545 17.8847 8.86758 17.8624 8.93808L17.7812 9.14745L17.7062 9.30995L17.6343 9.46933L17.5531 9.7162L17.5187 9.88495L17.4843 10.0568C17.4665 10.1444 17.4541 10.2347 17.4531 10.3287V10.51L17.4499 10.6881C17.4483 10.8484 17.4068 10.9978 17.3312 11.1318L17.2437 11.26L17.1281 11.41L17.0249 11.535L17.0812 11.6881L17.1437 11.8693L17.2468 12.0412L17.3687 12.1756L17.4937 12.3068L17.5906 12.4287C17.675 12.5551 17.7268 12.6989 17.7437 12.8537L17.7624 13.0381L17.7812 13.2193L17.8156 13.2881L18.0843 13.5443L18.2656 13.7756C18.314 13.8609 18.3506 13.9542 18.3718 14.0537L18.4468 14.4037C18.4612 14.4709 18.4856 14.5313 18.5218 14.585L18.6218 14.7287L18.7187 14.8756L18.9187 15.185L19.0999 15.485L19.2093 15.7037C19.2389 15.7803 19.2621 15.8595 19.2781 15.9412L19.3124 16.1193L19.4156 16.6443L19.4531 16.8193L19.4874 16.9943L19.5624 17.2787L19.6624 17.585L19.6874 17.8131C19.6794 17.9059 19.6448 18.0088 19.5562 18.1006C19.4835 18.1755 19.3991 18.2144 19.3218 18.235L19.1281 18.2568L18.9343 18.2537L18.7437 18.2475C18.7268 18.2471 18.7166 18.2493 18.7124 18.2506L18.6937 18.2631L18.5593 18.385L18.4249 18.51C18.3576 18.572 18.2846 18.6256 18.2062 18.6693L17.9531 18.7725L17.7812 18.8193L17.6124 18.8631L17.4374 18.9506L17.1499 19.1631C17.0807 19.2152 17.0084 19.2612 16.9312 19.2975L16.6874 19.3818L16.5124 19.4225L16.3406 19.4631C16.247 19.485 16.1578 19.5147 16.0718 19.5506L15.9093 19.6162L15.7499 19.685L15.5499 19.8037L15.4124 19.9131L15.2781 20.0225C15.1607 20.1169 15.0311 20.1947 14.8937 20.2568L14.7343 20.3318L14.5749 20.4037L14.3249 20.5412L14.1812 20.635L14.0343 20.7318L13.7343 20.9256L13.4406 21.1131L13.1281 21.3006L12.9781 21.3881L12.8249 21.4725C12.7421 21.52 12.6541 21.5809 12.5593 21.6537L12.3999 21.7756L12.2374 21.9006C12.1423 21.9734 12.0169 22.0376 11.8656 22.0475C11.7865 22.0525 11.7119 22.0413 11.6437 22.0193L11.4562 21.9225L11.1749 21.7162L10.9624 21.6006L10.7968 21.535L10.6343 21.4693C10.5546 21.4383 10.4772 21.4022 10.4062 21.3568L10.2093 21.2006L10.0781 21.0756L9.94994 20.9537L9.80306 20.8631L9.63431 20.8068L9.46244 20.7506C9.38116 20.7232 9.30444 20.6864 9.23119 20.6443L9.02494 20.4975L8.89369 20.3818L8.75931 20.2662L8.51869 20.0756L8.37494 19.9725L8.23431 19.8725L7.92806 19.6381L7.79056 19.5225L7.65306 19.41L7.50931 19.335L7.33431 19.2975L7.15931 19.2568L6.75619 19.1225L6.43744 18.985L6.16869 18.8912L5.99681 18.8506L5.82494 18.8068C5.65756 18.7652 5.50291 18.6924 5.36556 18.5881L5.22494 18.4787L5.08119 18.3725L4.81869 18.185L4.67181 18.0912L4.52494 17.9943C4.44422 17.9421 4.33737 17.8567 4.27806 17.7193C4.20909 17.5595 4.23067 17.3962 4.29994 17.2662L4.35931 17.1568L4.41556 17.0475L4.50306 16.8318L4.55619 16.6662L4.61244 16.4975L4.78431 16.1037L4.87181 15.9537L4.95619 15.8006L5.15306 15.4818L5.24681 15.335L5.34369 15.1881L5.39681 15.0318L5.44056 14.6631C5.45916 14.5014 5.4996 14.3436 5.56556 14.1975L5.63744 14.0412L5.70931 13.8818L5.85306 13.6475C5.90969 13.5765 5.97441 13.5111 6.04681 13.4537L6.19681 13.3381L6.34681 13.2193L6.37806 13.1693L6.40619 12.9881L6.43744 12.8068L6.48744 12.585C6.50852 12.5118 6.53224 12.439 6.56244 12.3693L6.63119 12.21L6.70306 12.0506L6.77806 11.8287L6.80619 11.6975L6.83744 11.5662C6.84663 11.525 6.84975 11.4593 6.84369 11.3662L6.83431 11.1881L6.82181 11.01C6.81494 10.9043 6.80179 10.7988 6.78431 10.6975L6.75619 10.5256L6.72494 10.3506L6.66869 10.2506L6.53119 10.1131L6.39681 9.97245C6.28178 9.85408 6.20254 9.7124 6.16556 9.5537L6.14369 9.3912L6.13431 9.20995L6.12806 9.0287L6.09994 8.7162L6.07181 8.5412L6.04681 8.3662L5.98119 8.1162L5.91556 7.9537L5.85306 7.7912L5.66556 7.40995L5.52181 7.14433L5.49369 7.07558L5.46244 6.98183C5.44937 6.94177 5.44056 6.89897 5.44056 6.85683V6.8162L5.41244 6.73808C5.40681 6.72201 5.40035 6.70474 5.39681 6.68808L5.37181 6.56308C5.33662 6.39658 5.35722 6.22928 5.39994 6.07558L5.44681 5.90058L5.49681 5.72558C5.52467 5.62545 5.54465 5.52443 5.55931 5.42558L5.58431 5.2537L5.61244 5.0787C5.61639 5.05166 5.61247 5.01683 5.58744 4.9662L5.50306 4.79433L5.41556 4.61933C5.30457 4.39484 5.30164 4.15002 5.40931 3.92245L5.49056 3.74745L5.57494 3.57558V3.54433L5.54681 3.38808L5.45931 3.08808C5.44854 3.05144 5.44056 3.01377 5.44056 2.97558V2.87558C5.44056 2.65514 5.6203 2.47635 5.84056 2.47558ZM14.5687 7.1287L14.3937 7.13808C14.3158 7.14302 14.2337 7.15901 14.1499 7.18808L13.9781 7.24745L13.8031 7.30995C13.7099 7.34225 13.6146 7.36126 13.5187 7.3662L13.2281 7.33808L13.0562 7.29433L12.8812 7.2537L12.7374 7.25683L12.5624 7.3037L12.3874 7.3537C12.3141 7.37436 12.24 7.38924 12.1656 7.40058L11.9406 7.42245L11.7687 7.42558L11.5937 7.4287C11.4275 7.43258 11.2644 7.40531 11.1062 7.35058L10.7562 7.23183L10.6312 7.22245L10.2812 7.3037C10.1863 7.32559 10.0912 7.33367 9.99681 7.3287L9.71556 7.27558L9.54369 7.2162L9.36869 7.15683C9.32103 7.14083 9.27906 7.1409 9.23744 7.15058L9.06556 7.1912L8.89056 7.23183C8.81701 7.24893 8.74297 7.26133 8.66869 7.26933L8.44369 7.2787L8.27181 7.27558L8.09681 7.27245L7.83119 7.29745L7.65931 7.33183L7.48431 7.36308C7.32268 7.39438 7.15923 7.39861 6.99681 7.37245L6.64681 7.3162C6.6068 7.30977 6.55884 7.30647 6.50306 7.30058C6.53856 7.37428 6.57587 7.43888 6.59994 7.50058L6.72494 7.82558L6.79369 8.03495C6.81232 8.10528 6.8266 8.17807 6.83744 8.25058L6.86556 8.42245L6.89056 8.59745C6.91015 8.72855 6.92278 8.8628 6.92806 8.99745L6.93431 9.1787L6.94056 9.35683L6.97181 9.4162L7.24056 9.6912L7.41556 9.93183C7.46198 10.0194 7.49487 10.1143 7.51244 10.2162L7.54369 10.3881L7.57494 10.5631C7.59721 10.6925 7.61004 10.8239 7.61869 10.9568L7.63119 11.135L7.64369 11.3162C7.65309 11.4617 7.64561 11.6065 7.61556 11.7412L7.55931 12.0037L7.43431 12.3693L7.29681 12.6881L7.22494 12.935L7.19681 13.1162L7.16869 13.2943C7.14172 13.4619 7.06977 13.6104 6.96244 13.7318L6.84369 13.8443L6.54369 14.0818L6.44056 14.21L6.29681 14.5287C6.26722 14.5943 6.24409 14.6687 6.23431 14.7537L6.21556 14.9381L6.19369 15.1225C6.18329 15.2129 6.16097 15.3007 6.13119 15.385L6.01244 15.6287L5.91556 15.7756L5.82181 15.9193C5.76254 16.0096 5.70608 16.1041 5.65306 16.1975L5.56556 16.3475L5.48119 16.4975L5.37181 16.7443L5.31869 16.9131L5.26244 17.0787L5.12181 17.4225L5.11869 17.4256L5.25306 17.5131L5.56556 17.735L5.70931 17.8412L5.84994 17.9506L6.01869 18.0318L6.19056 18.0725L6.36244 18.1162L6.75931 18.2506L6.91869 18.3193L7.07806 18.3912L7.34056 18.4756L7.51244 18.5162L7.68744 18.5568L7.94056 18.6475C8.02039 18.6872 8.0957 18.736 8.16556 18.7943L8.44056 19.0256L8.69681 19.2193L8.83744 19.3225L8.98119 19.4225L9.28744 19.6631L9.41869 19.7787L9.55306 19.8975L9.71869 19.9912L10.0562 20.1037L10.2968 20.2162C10.3708 20.2611 10.4394 20.3146 10.5031 20.3756L10.6343 20.4975L10.7624 20.6225L10.9218 20.7256L11.0874 20.7881L11.2531 20.8537L11.4593 20.9506C11.5253 20.9869 11.589 21.0275 11.6499 21.0725L11.7906 21.1756L11.8281 21.2037L11.9124 21.1412L12.0718 21.0193L12.4281 20.7787L12.5781 20.6912L12.7312 20.6068L13.0156 20.435L13.1624 20.3412L13.3093 20.2506L13.5937 20.0662L13.7374 19.9693L13.8843 19.8725L14.2437 19.6725L14.4031 19.6006L14.5656 19.5287C14.641 19.4945 14.7108 19.4521 14.7749 19.4006L14.9124 19.2912L15.0468 19.1787L15.2374 19.0475C15.3026 19.0087 15.3702 18.9738 15.4406 18.9443L15.6031 18.8787L15.7624 18.81C15.8902 18.7566 16.0232 18.7167 16.1593 18.685L16.5031 18.6037L16.6687 18.5256L16.8124 18.4193L16.9562 18.31L17.1687 18.1787C17.244 18.1418 17.3241 18.1132 17.4062 18.0912L17.5749 18.0443L17.7468 18.0006L17.8843 17.9225L18.1531 17.6725L18.2874 17.5725C18.4296 17.4853 18.5924 17.4435 18.7624 17.4475H18.7781L18.7031 17.1568L18.6687 16.9787L18.6312 16.8037L18.5593 16.4475L18.5249 16.2725L18.4906 16.0943L18.4187 15.9006L18.3281 15.7506L18.2343 15.6037L18.0562 15.3225L17.9562 15.1787L17.8593 15.0318C17.7644 14.8913 17.6979 14.7354 17.6624 14.5693L17.5874 14.2193L17.5312 14.1225L17.2624 13.8662C17.1449 13.7538 17.0628 13.6179 17.0187 13.4662L16.9874 13.3068L16.9687 13.1256L16.9468 12.9412L16.9093 12.8537L16.6593 12.585C16.5983 12.5192 16.5451 12.4483 16.4999 12.3725L16.3874 12.1318L16.3249 11.9537L16.2624 11.7725C16.1756 11.5237 16.2178 11.2699 16.3812 11.0631L16.4999 10.9131L16.6187 10.7662L16.6499 10.6818L16.6531 10.5006V10.3225C16.6545 10.1785 16.6716 10.0367 16.6999 9.89745L16.7687 9.5537L16.8249 9.3412C16.8476 9.27209 16.8757 9.20476 16.9062 9.13808L16.9781 8.97558L17.0531 8.8162L17.1281 8.57558L17.1593 8.40683L17.1937 8.23495L17.2406 7.91308L17.2624 7.7412L17.2812 7.5662L17.3249 7.3412V7.33808L17.2718 7.33183L17.0999 7.30995L16.8468 7.30683L16.6718 7.32558L16.4999 7.34433C16.3319 7.36252 16.1632 7.34601 15.9999 7.30058L15.8281 7.2537L15.6531 7.2037C15.5593 7.17761 15.4664 7.16225 15.3749 7.1537L15.1999 7.13808L15.0281 7.11933C14.9328 7.11044 14.8357 7.11018 14.7406 7.1162L14.5687 7.1287Z" fill="#1E1E1E"/>
</svg>
