<svg width="24" height="24" viewBox="0 0 24 24" fill="none" xmlns="http://www.w3.org/2000/svg">
<path d="M11.8692 5.02891C12.058 5.00321 12.2436 5.02797 12.4192 5.10079L12.5879 5.16954L12.7567 5.24141L12.9817 5.29766L13.3317 5.32891C13.5262 5.34654 13.7035 5.41826 13.8567 5.53829L14.1379 5.75704L14.3317 5.94766C14.3869 6.0178 14.4312 6.09609 14.4692 6.17891L14.5442 6.34141L14.6192 6.50704L14.7036 6.74766C14.7233 6.83117 14.7345 6.91681 14.7379 7.00391L14.7442 7.18829L14.7536 7.37266L14.7473 7.52579C14.7354 7.62691 14.7067 7.72431 14.6629 7.81641L14.5848 7.95079L14.3786 8.25079L14.1192 8.57579L14.0004 8.70079L13.8786 8.82579C13.7575 8.95361 13.6131 9.05011 13.4473 9.11016L13.2879 9.16954L13.1286 9.22579L12.7598 9.33516L12.4286 9.41641C12.3779 9.42848 12.3404 9.43519 12.3161 9.44141C12.1641 9.50633 11.9839 9.47964 11.8661 9.35079C11.7841 9.26097 11.7554 9.14399 11.7692 9.03204C11.7709 9.01518 11.7746 8.99873 11.7786 8.98204C11.7859 8.9533 11.7929 8.92444 11.8067 8.89766L11.8129 8.88516L11.8442 8.84766C11.8594 8.82695 11.8714 8.80319 11.8911 8.78516L11.9661 8.71641L11.9754 8.71016L12.1129 8.63204C12.173 8.61271 12.2359 8.613 12.2973 8.62266L12.4098 8.59766L12.5754 8.55704L12.8567 8.47266L13.0161 8.41641L13.1754 8.35704L13.2973 8.27579L13.4192 8.15079L13.5379 8.02579L13.7192 7.79766L13.9254 7.49766L13.9536 7.40391L13.9442 7.21954L13.9379 7.03516L13.8911 6.83829L13.8192 6.67579L13.7442 6.51329L13.6442 6.38829L13.5036 6.27579L13.3629 6.16641C13.3295 6.14048 13.2977 6.12927 13.2598 6.12579L12.9098 6.09454C12.8307 6.08744 12.7521 6.073 12.6754 6.05391L12.4473 5.97891L12.2817 5.91016L12.1129 5.83829C12.0661 5.81892 12.0215 5.81321 11.9754 5.81954L11.8004 5.84454L11.6223 5.86954L11.4723 5.92891L11.1786 6.12891L11.0473 6.25704L10.9567 6.39141L10.8629 6.52579L10.7036 6.85704L10.5942 7.12891C10.5786 7.16709 10.5546 7.20072 10.5286 7.23204L10.4379 7.31329L10.3536 7.36954C10.1676 7.48781 9.91936 7.43316 9.80044 7.24766C9.68852 7.0724 9.73361 6.84503 9.89419 6.71954L9.96294 6.55704L10.0786 6.29454C10.1185 6.21406 10.1584 6.1411 10.2004 6.07891L10.2942 5.94454L10.3848 5.81016L10.5379 5.62266C10.595 5.56616 10.6583 5.51572 10.7254 5.46954L11.0192 5.26954L11.2536 5.14454C11.3366 5.11239 11.423 5.08818 11.5129 5.07579L11.6911 5.05391L11.8692 5.02891ZM12.3629 9.41641C12.3721 9.41128 12.3848 9.40638 12.3973 9.39766L12.4036 9.39141C12.3906 9.40148 12.3767 9.40816 12.3629 9.41641Z" fill="#1E1E1E"/>
<path d="M11.9496 10.6127C12.1565 10.5384 12.3833 10.6439 12.459 10.8502C12.5339 11.0574 12.4282 11.287 12.2215 11.3627L12.1246 11.3971C12.0992 11.4062 12.0732 11.4151 12.0465 11.419L11.884 11.4408L11.784 11.4627L11.5746 11.5377L11.4184 11.6127L11.259 11.6846L10.934 11.8283L10.7746 11.8971L10.6152 11.969C10.505 12.017 10.3924 12.062 10.2809 12.1065L10.1184 12.1721L9.95586 12.2346L9.69961 12.3627L9.54648 12.4533L9.39648 12.544C9.25247 12.6299 9.09554 12.6692 8.93711 12.669L8.78086 12.6565L8.38711 12.594H8.36523L8.35898 12.5971L8.21523 12.7096L8.07461 12.8252C7.93174 12.9396 7.76701 13.0169 7.58711 13.0533L7.41523 13.0908L7.24023 13.1252L7.03711 13.2002L6.88398 13.2908L6.73086 13.3783C6.64948 13.4251 6.56295 13.4603 6.47461 13.4846L6.20586 13.5252L6.02148 13.5283L5.83711 13.5346L5.74023 13.569L5.59336 13.6783L5.44961 13.7877L5.10586 14.0127L4.79961 14.1877C4.71407 14.2363 4.62356 14.2691 4.53086 14.2908L4.24648 14.319L4.05898 14.3127L3.87148 14.3033L3.72461 14.3346L3.56211 14.419L3.40273 14.5033L3.28086 14.6096L3.17773 14.7627L3.07461 14.9127L2.98086 15.1127L2.93398 15.2877L2.88711 15.4658C2.86634 15.5436 2.85644 15.6251 2.85898 15.7127L2.86211 15.9002L2.86836 16.0908L2.87148 16.094L3.01523 16.2096L3.16211 16.3252L3.25273 16.3658L3.42148 16.3783L3.59023 16.3877L3.96523 16.4252L4.14023 16.4502L4.31211 16.4752L4.61836 16.5033L4.79023 16.5127L4.96523 16.519L5.37773 16.569L5.54961 16.6033L5.72461 16.6377L5.94023 16.644L6.11211 16.6221L6.28711 16.5971L6.69648 16.5721L6.86836 16.5752H7.04336L7.37148 16.5721L7.54336 16.5658L7.71836 16.5596L7.98086 16.519L8.15586 16.4752L8.32773 16.4283L8.61523 16.3971C8.70992 16.3999 8.80376 16.4179 8.89648 16.4471L9.07148 16.5002L9.24648 16.5565L9.46523 16.5877L9.64023 16.5846L9.81211 16.5815L10.0902 16.5502L10.2652 16.5158L10.4371 16.4783L10.8059 16.4158L10.9809 16.3908L11.1527 16.3658L11.4559 16.3627C11.5609 16.3731 11.6692 16.3926 11.7777 16.419L12.0309 16.4783H12.0809C12.3018 16.4769 12.4826 16.6574 12.484 16.8783C12.4847 17.0985 12.3074 17.2767 12.0871 17.2783L11.9871 17.2815C11.9546 17.2817 11.9218 17.2766 11.8902 17.269L11.5902 17.1971C11.4998 17.1751 11.4301 17.1618 11.3777 17.1565H11.2684L11.0965 17.1815L10.9215 17.2065C10.8133 17.2223 10.7049 17.2408 10.5965 17.2627L10.4215 17.3002L10.2496 17.3346L9.83086 17.3815L9.65586 17.3846L9.48398 17.3877C9.40252 17.3895 9.32036 17.3839 9.24023 17.3721L9.00586 17.319L8.83086 17.2627L8.65586 17.2096L8.52773 17.2033L8.35586 17.2502L8.18086 17.294L7.74961 17.3565L7.57461 17.3658L7.40273 17.3721L7.03086 17.3752L6.85898 17.3721H6.68398L6.39648 17.3877L6.22148 17.4127L6.04961 17.4377C5.96865 17.4489 5.88669 17.4528 5.80586 17.4502L5.56523 17.4221L5.39336 17.3877L5.21836 17.3533L4.93398 17.319L4.75898 17.3096L4.58711 17.3033L4.19648 17.269L4.02461 17.244L3.84961 17.219L3.54336 17.1846L3.20586 17.1658C3.10381 17.1596 3.0058 17.1368 2.91523 17.1002L2.66523 16.9533L2.51836 16.8346L2.37148 16.719C2.22864 16.6052 2.13481 16.4569 2.09336 16.2877L2.06836 16.1127L2.06211 15.9252L2.05898 15.7377C2.05423 15.5748 2.07028 15.4124 2.11211 15.2565L2.20586 14.9065L2.29336 14.6721C2.32801 14.5974 2.36787 14.525 2.41523 14.4565L2.62148 14.1565L2.80586 13.9502C2.87375 13.8901 2.94878 13.837 3.03086 13.794L3.19023 13.7096L3.35273 13.6252L3.61836 13.5283C3.71032 13.5081 3.80649 13.4995 3.90273 13.5033L4.09023 13.5127L4.27773 13.519L4.40273 13.4908L4.55586 13.4033L4.71211 13.3158L4.96836 13.1471L5.11211 13.0377L5.25898 12.9283L5.52148 12.7877C5.61483 12.7551 5.71317 12.7375 5.81523 12.7346L5.99961 12.7283L6.18398 12.7252L6.33086 12.6846L6.48398 12.5971L6.63711 12.5065L6.85273 12.4065C6.92741 12.3782 7.00494 12.3568 7.08398 12.3408L7.25586 12.3065L7.42773 12.269C7.47735 12.259 7.52645 12.2387 7.57461 12.2002L7.71523 12.0846L7.85898 11.9721C8.05002 11.8192 8.2803 11.7669 8.51211 11.8033L8.90586 11.8658L8.98711 11.8565L9.13711 11.7658L9.29023 11.6752L9.66211 11.494L9.82148 11.4283L9.98398 11.3627C10.0876 11.3215 10.1909 11.2792 10.2934 11.2346L10.4527 11.1658L10.6152 11.094L10.9246 10.9565L11.084 10.8846L11.2434 10.8096L11.6121 10.6846L11.7402 10.6533L11.7715 10.6502L11.8965 10.6315L11.9496 10.6127Z" fill="#1E1E1E"/>
<path d="M12.0505 10.6127C11.8436 10.5384 11.6168 10.6439 11.5411 10.8502C11.4662 11.0574 11.5719 11.287 11.7786 11.3627L11.8755 11.3971C11.9009 11.4062 11.9269 11.4151 11.9536 11.419L12.1161 11.4408L12.2161 11.4627L12.4255 11.5377L12.5818 11.6127L12.7411 11.6846L13.0661 11.8283L13.2255 11.8971L13.3849 11.969C13.4951 12.017 13.6077 12.062 13.7193 12.1065L13.8818 12.1721L14.0443 12.2346L14.3005 12.3627L14.4536 12.4533L14.6036 12.544C14.7477 12.6299 14.9046 12.6692 15.063 12.669L15.2193 12.6565L15.613 12.594H15.6349L15.6411 12.5971L15.7849 12.7096L15.9255 12.8252C16.0684 12.9396 16.2331 13.0169 16.413 13.0533L16.5849 13.0908L16.7599 13.1252L16.963 13.2002L17.1161 13.2908L17.2693 13.3783C17.3506 13.4251 17.4372 13.4603 17.5255 13.4846L17.7943 13.5252L17.9786 13.5283L18.163 13.5346L18.2599 13.569L18.4068 13.6783L18.5505 13.7877L18.8943 14.0127L19.2005 14.1877C19.286 14.2363 19.3766 14.2691 19.4693 14.2908L19.7536 14.319L19.9411 14.3127L20.1286 14.3033L20.2755 14.3346L20.438 14.419L20.5974 14.5033L20.7193 14.6096L20.8224 14.7627L20.9255 14.9127L21.0193 15.1127L21.0661 15.2877L21.113 15.4658C21.1338 15.5436 21.1437 15.6251 21.1411 15.7127L21.138 15.9002L21.1318 16.0908L21.1286 16.094L20.9849 16.2096L20.838 16.3252L20.7474 16.3658L20.5786 16.3783L20.4099 16.3877L20.0349 16.4252L19.8599 16.4502L19.688 16.4752L19.3818 16.5033L19.2099 16.5127L19.0349 16.519L18.6224 16.569L18.4505 16.6033L18.2755 16.6377L18.0599 16.644L17.888 16.6221L17.713 16.5971L17.3036 16.5721L17.1318 16.5752H16.9568L16.6286 16.5721L16.4568 16.5658L16.2818 16.5596L16.0193 16.519L15.8443 16.4752L15.6724 16.4283L15.3849 16.3971C15.2902 16.3999 15.1964 16.4179 15.1036 16.4471L14.9286 16.5002L14.7536 16.5565L14.5349 16.5877L14.3599 16.5846L14.188 16.5815L13.9099 16.5502L13.7349 16.5158L13.563 16.4783L13.1943 16.4158L13.0193 16.3908L12.8474 16.3658L12.5443 16.3627C12.4392 16.3731 12.3309 16.3926 12.2224 16.419L11.9693 16.4783H11.9193C11.6984 16.4769 11.5176 16.6574 11.5161 16.8783C11.5154 17.0985 11.6927 17.2767 11.913 17.2783L12.013 17.2815C12.0455 17.2817 12.0783 17.2766 12.1099 17.269L12.4099 17.1971C12.5003 17.1751 12.57 17.1618 12.6224 17.1565H12.7318L12.9036 17.1815L13.0786 17.2065C13.1869 17.2223 13.2953 17.2408 13.4036 17.2627L13.5786 17.3002L13.7505 17.3346L14.1693 17.3815L14.3443 17.3846L14.5161 17.3877C14.5976 17.3895 14.6798 17.3839 14.7599 17.3721L14.9943 17.319L15.1693 17.2627L15.3443 17.2096L15.4724 17.2033L15.6443 17.2502L15.8193 17.294L16.2505 17.3565L16.4255 17.3658L16.5974 17.3721L16.9693 17.3752L17.1411 17.3721H17.3161L17.6036 17.3877L17.7786 17.4127L17.9505 17.4377C18.0315 17.4489 18.1134 17.4528 18.1943 17.4502L18.4349 17.4221L18.6068 17.3877L18.7818 17.3533L19.0661 17.319L19.2411 17.3096L19.413 17.3033L19.8036 17.269L19.9755 17.244L20.1505 17.219L20.4568 17.1846L20.7943 17.1658C20.8963 17.1596 20.9943 17.1368 21.0849 17.1002L21.3349 16.9533L21.4818 16.8346L21.6286 16.719C21.7715 16.6052 21.8653 16.4569 21.9068 16.2877L21.9318 16.1127L21.938 15.9252L21.9411 15.7377C21.9459 15.5748 21.9298 15.4124 21.888 15.2565L21.7943 14.9065L21.7068 14.6721C21.6721 14.5974 21.6323 14.525 21.5849 14.4565L21.3786 14.1565L21.1943 13.9502C21.1264 13.8901 21.0513 13.837 20.9693 13.794L20.8099 13.7096L20.6474 13.6252L20.3818 13.5283C20.2898 13.5081 20.1936 13.4995 20.0974 13.5033L19.9099 13.5127L19.7224 13.519L19.5974 13.4908L19.4443 13.4033L19.288 13.3158L19.0318 13.1471L18.888 13.0377L18.7411 12.9283L18.4786 12.7877C18.3853 12.7551 18.287 12.7375 18.1849 12.7346L18.0005 12.7283L17.8161 12.7252L17.6693 12.6846L17.5161 12.5971L17.363 12.5065L17.1474 12.4065C17.0727 12.3782 16.9952 12.3568 16.9161 12.3408L16.7443 12.3065L16.5724 12.269C16.5228 12.259 16.4737 12.2387 16.4255 12.2002L16.2849 12.0846L16.1411 11.9721C15.9501 11.8192 15.7198 11.7669 15.488 11.8033L15.0943 11.8658L15.013 11.8565L14.863 11.7658L14.7099 11.6752L14.338 11.494L14.1786 11.4283L14.0161 11.3627C13.9125 11.3215 13.8092 11.2792 13.7068 11.2346L13.5474 11.1658L13.3849 11.094L13.0755 10.9565L12.9161 10.8846L12.7568 10.8096L12.388 10.6846L12.2599 10.6533L12.2286 10.6502L12.1036 10.6315L12.0505 10.6127Z" fill="#1E1E1E"/>
<path d="M11.6842 10.9877L11.6842 10.9158L11.6624 10.794L11.6592 10.7721L11.6467 10.6408L11.6124 10.3565L11.5624 10.0065C11.5357 9.81518 11.5676 9.59805 11.6217 9.38145L11.6842 9.13145L11.6842 9.08145C11.6842 8.86054 11.8633 8.68145 12.0842 8.68145C12.3051 8.68145 12.4842 8.86054 12.4842 9.08145L12.4842 9.18145L12.4717 9.27833L12.3967 9.5752C12.3516 9.75569 12.3504 9.85651 12.3561 9.89708L12.3811 10.069L12.4061 10.244L12.4436 10.5627L12.453 10.6658L12.478 10.8221L12.4842 10.8877L12.4842 10.9877C12.4842 11.2086 12.3051 11.3877 12.0842 11.3877C11.8633 11.3877 11.6842 11.2086 11.6842 10.9877Z" fill="#1E1E1E"/>
</svg>
