<svg width="24" height="24" viewBox="0 0 24 24" fill="none" xmlns="http://www.w3.org/2000/svg">
<path d="M21.8409 21.2687C21.9959 21.425 21.9967 21.6786 21.8409 21.8344C21.6851 21.9902 21.4315 21.9894 21.2752 21.8344L21.8409 21.2687ZM12.0502 3.48749L12.2252 3.49999L12.6409 3.57187L12.9784 3.66562L13.2252 3.69999L13.4002 3.70312H13.5784L13.8627 3.74999C13.9536 3.77856 14.0407 3.82058 14.1221 3.87499L14.4221 4.07499L14.5221 4.09999L14.7127 4.08749L14.9065 4.07812L15.0752 4.08749C15.2397 4.11039 15.3928 4.18095 15.5221 4.29999L15.7909 4.54374L16.0659 4.81562L16.1877 4.94687L16.3096 5.07499L16.4159 5.13124L16.7846 5.21874C16.9606 5.26069 17.1242 5.33745 17.2659 5.44999L17.4034 5.56249L17.544 5.67187L17.7127 5.82499C17.7651 5.87897 17.8142 5.93627 17.8596 5.99687L17.9659 6.14062L18.0721 6.28124L18.294 6.60937L18.3846 6.76249L18.4752 6.91249L18.6471 7.18124L18.7502 7.32187L18.8502 7.46562L18.9784 7.69374C19.012 7.7734 19.037 7.85731 19.0534 7.94374L19.0877 8.11874L19.1221 8.29687L19.1752 8.38437L19.3159 8.51562L19.4596 8.64687L19.6502 8.87812C19.7012 8.96364 19.7402 9.05802 19.7627 9.15937L19.8002 9.33124L19.8377 9.50624L19.869 9.76562L19.844 10.0281L19.8096 10.2125L19.7721 10.3969C19.7668 10.4242 19.7702 10.4432 19.7846 10.4687L19.8815 10.6344L19.9752 10.7969L20.0409 10.9344C20.0778 11.0281 20.1004 11.1287 20.1002 11.2344L20.0815 11.3937L20.0502 11.5406L20.019 11.6844L19.9346 12.0187L19.8909 12.1906L19.844 12.3594L19.794 12.6344L19.7784 12.8031L19.7627 12.975L19.7221 13.3375L19.6971 13.5062L19.669 13.6781C19.6501 13.8052 19.6261 13.9314 19.594 14.0562L19.5502 14.225L19.5065 14.3906C19.4879 14.4629 19.4652 14.5342 19.4377 14.6031L19.344 14.8062L19.2596 14.9562L19.1752 15.1094L19.0659 15.3594L19.0096 15.525L18.9565 15.6906C18.9293 15.7729 18.8931 15.8514 18.8502 15.925L18.7002 16.1312L18.5815 16.2594L18.4659 16.3906L18.3721 16.5531L18.3127 16.7312L18.2534 16.9062C18.225 16.991 18.1889 17.0714 18.144 17.1469L17.9846 17.3594L17.919 17.4219C17.9405 17.4454 17.9643 17.4725 17.9909 17.5L18.1096 17.625L18.2315 17.75C18.3072 17.8286 18.3861 17.9066 18.4659 17.9812L18.5909 18.1L18.719 18.2187L18.9315 18.3781L19.0846 18.4719L19.2409 18.5625L19.4627 18.7437C19.5274 18.8133 19.5839 18.8914 19.6284 18.9781L19.7096 19.1406L19.794 19.3031C19.8307 19.3747 19.8749 19.4355 19.9252 19.4844L20.0502 19.6031L20.1752 19.725L20.3909 19.9L20.6846 20.1L20.9909 20.3156L21.2721 20.5281L21.4846 20.7406C21.5512 20.8228 21.6145 20.9134 21.6721 21.0094L21.8002 21.2281L21.8409 21.2687L21.5565 21.55L21.2752 21.8344L21.2034 21.7625C21.1803 21.7394 21.1608 21.7124 21.144 21.6844L20.9846 21.4219C20.9367 21.3421 20.8957 21.2846 20.8627 21.2437L20.7877 21.1656L20.6471 21.0594L20.5096 20.9562L20.2377 20.7625L20.0909 20.6625L19.944 20.5656L19.6159 20.3L19.494 20.1781L19.369 20.0562C19.311 20 19.2571 19.9398 19.2096 19.875L19.0815 19.6687L19.0002 19.5062L18.9159 19.3437L18.8284 19.25L18.6752 19.1562L18.5221 19.0656L18.1721 18.8031L18.044 18.6844L17.919 18.5656L17.6565 18.3062L17.4127 18.0562C17.3786 18.0209 17.3492 17.9833 17.319 17.95L17.2534 17.9969L17.1065 18.0969L16.819 18.2906L16.5315 18.4906C16.4652 18.5362 16.3943 18.5753 16.3221 18.6094L16.1002 18.6937L15.7565 18.7937L15.4815 18.8937L15.3284 18.9656L15.1721 19.0344C15.1233 19.0562 15.0715 19.0935 15.0159 19.1531L14.7534 19.4344C14.6304 19.5661 14.4761 19.6516 14.3034 19.6812L14.1252 19.6906L13.7565 19.6719L13.6034 19.7031L13.4409 19.7812L13.2784 19.8562C13.1937 19.8965 13.1059 19.9268 13.0159 19.9437L12.7377 19.9594L12.5596 19.9437L12.3846 19.9312L12.069 19.9187L11.894 19.9219H11.7221C11.6455 19.9224 11.5695 19.9165 11.494 19.9062L11.269 19.8594L11.1034 19.8125L10.9346 19.7656L10.7659 19.7594L10.5877 19.7906L10.4096 19.825C10.315 19.8422 10.2188 19.846 10.1252 19.8375L9.85024 19.7719L9.68462 19.7094L9.52212 19.6469L9.20024 19.5219L9.03774 19.4594L8.87837 19.3969L8.51899 19.2344L8.36899 19.1531L8.21587 19.0719L7.92524 18.925L7.61274 18.775L7.26587 18.5812L7.12212 18.4875L6.97837 18.3906C6.91207 18.3472 6.8488 18.2999 6.79087 18.2469L6.62837 18.075L6.52212 17.9375L6.41274 17.8L6.26587 17.6781L6.10962 17.5906L5.95649 17.5031C5.88593 17.4639 5.81905 17.4182 5.75649 17.3687L5.58149 17.2062L5.46274 17.0781L5.34712 16.95L5.09712 16.6406L4.99712 16.5L4.89712 16.3562L4.68774 16.0531L4.50024 15.7594C4.45626 15.6914 4.41634 15.6205 4.38462 15.5469L4.30962 15.3187L4.26587 15.1469L4.22524 14.975L4.14399 14.6219L4.10649 14.4531L4.07212 14.2812C4.05563 14.2039 4.02774 14.1294 3.99087 14.0562L3.91274 13.8969L3.83149 13.7406C3.79719 13.6727 3.76881 13.6025 3.74399 13.5312L3.68462 13.3156L3.64712 13.1437L3.61274 12.975C3.57953 12.8128 3.57944 12.648 3.60649 12.4844L3.66274 12.1344L3.64712 11.9906L3.58149 11.8187L3.51587 11.6437C3.43586 11.4311 3.44129 11.2088 3.53462 11L3.60962 10.8312L3.68462 10.6656L3.76274 10.4187L3.79399 10.2531L3.82524 10.0844L3.85024 9.80624L3.85337 9.62812L3.85649 9.44687C3.85847 9.30001 3.87682 9.15522 3.90962 9.01249L3.94712 8.83749L3.98774 8.66562L4.13149 8.24999L4.20649 8.09062L4.28462 7.93124L4.41899 7.70624C4.47177 7.63766 4.53347 7.57611 4.60024 7.51874L4.74087 7.39687L4.87837 7.27812L5.00337 7.12499L5.15962 6.81249L5.27212 6.62187C5.31237 6.56073 5.35622 6.50017 5.40337 6.44374L5.51274 6.30937L5.62524 6.17499C5.72175 6.05956 5.83387 5.95947 5.95649 5.87187L6.09712 5.76874L6.24087 5.66562C6.33266 5.60004 6.42478 5.53582 6.51274 5.46874L6.64712 5.36249L6.78462 5.25937L6.96899 5.13437C7.03224 5.09739 7.09813 5.06367 7.16587 5.03437L7.48462 4.89687L7.70649 4.77187L7.84712 4.66874L7.98462 4.56874L8.33462 4.35624L8.48774 4.28124L8.64087 4.20312L8.92524 4.04687L9.07837 3.95937L9.23149 3.86874L9.47524 3.75937C9.55969 3.73306 9.64769 3.71557 9.73774 3.70937L9.91274 3.69687L10.0909 3.68437L10.394 3.64999L10.7377 3.58749C10.8564 3.5665 10.977 3.5477 11.0971 3.53124L11.269 3.50937L11.4409 3.48437L11.8752 3.47187L12.0502 3.48749ZM19.2971 11.2344C19.2954 11.2289 19.2943 11.2168 19.2846 11.2L19.1877 11.0344L19.094 10.8719C18.9829 10.6799 18.9458 10.4652 18.9877 10.2469L19.0221 10.0625L19.0596 9.87499V9.68124L19.019 9.50624L18.9815 9.33124L18.919 9.23437L18.7784 9.10624L18.6346 8.97499C18.5191 8.86933 18.4321 8.74191 18.3784 8.59687L18.3346 8.44687L18.3002 8.26874L18.269 8.09062L18.2002 7.92812L18.0971 7.78749L17.9971 7.64374L17.7877 7.32499L17.6971 7.17187L17.6065 7.02187L17.4315 6.76249L17.3252 6.61874L17.219 6.47812L17.044 6.29687L16.9065 6.18749L16.7659 6.07812C16.7224 6.04358 16.6697 6.01671 16.6002 5.99999L16.4159 5.95312L16.2315 5.90937C16.1344 5.88622 16.0415 5.85129 15.9565 5.80312L15.7252 5.62187L15.6034 5.49374L15.4846 5.36562L15.2471 5.13437L15.1127 5.00937L14.9815 4.88749L14.9721 4.88124C14.9717 4.88108 14.9624 4.87721 14.944 4.87812L14.7534 4.88749L14.5596 4.89687C14.3529 4.90684 14.1539 4.85753 13.9784 4.74062L13.6784 4.54062L13.5659 4.50312H13.3909L13.2127 4.49999C13.137 4.4989 13.0621 4.4917 12.9877 4.48124L12.769 4.43749L12.4315 4.34374L12.1596 4.29687L11.9877 4.28437L11.8127 4.26874L11.5502 4.27812L11.3784 4.29999L11.2034 4.32499C11.0935 4.34007 10.9836 4.35582 10.8752 4.37499L10.7065 4.40624L10.5346 4.43749C10.4065 4.46019 10.2755 4.47532 10.144 4.48437L9.96899 4.49687L9.79087 4.50937L9.63774 4.55624L9.33149 4.73749L9.00024 4.91874L8.84712 4.99374L8.69399 5.07187L8.45649 5.21562L8.31587 5.31874L8.17837 5.41874L7.80337 5.63124L7.48462 5.76874L7.27212 5.89374L7.13462 5.99999L6.99712 6.10312C6.90229 6.17543 6.80508 6.24832 6.70649 6.31874L6.56274 6.41874L6.41899 6.52187C6.35159 6.57013 6.29347 6.62766 6.24087 6.69062L6.12837 6.82187L6.01587 6.95624L5.87524 7.17187L5.79399 7.32812L5.71587 7.48437C5.67714 7.56078 5.63082 7.63367 5.57837 7.69999L5.40024 7.88437L5.25962 8.00624L5.12212 8.12499L5.00649 8.27187L4.93149 8.43124L4.85649 8.59374L4.76899 8.84374L4.72837 9.01874L4.68774 9.19062C4.6676 9.27806 4.65768 9.36841 4.65649 9.45937L4.65024 9.81562L4.61274 10.2312L4.58149 10.4L4.55024 10.5656C4.53676 10.6382 4.51644 10.7104 4.49399 10.7812L4.41587 10.9906L4.34087 11.1594L4.26587 11.325C4.26083 11.3362 4.25963 11.3434 4.25962 11.3437C4.25978 11.3462 4.26206 11.3524 4.26587 11.3625L4.33149 11.5344L4.39399 11.7094L4.45962 11.9844L4.45337 12.2656L4.42212 12.4406L4.39399 12.6156C4.38282 12.684 4.38423 12.7488 4.39712 12.8125L4.43149 12.9844L4.46587 13.1531L4.54712 13.3812L4.70337 13.6937C4.77156 13.8286 4.82223 13.9716 4.85337 14.1187L4.89087 14.2875L4.92524 14.4562L5.00024 14.7844L5.04399 14.9562L5.08462 15.1281L5.17212 15.325L5.35962 15.6187L5.54712 15.8937L5.64712 16.0344L5.75024 16.1781C5.80843 16.2596 5.87056 16.3385 5.93774 16.4125L6.05649 16.5406L6.17212 16.6687L6.34399 16.8031L6.65649 16.9781L6.86274 17.1219C6.92688 17.1761 6.98795 17.2363 7.04087 17.3031L7.14712 17.4406L7.25649 17.5781L7.41587 17.7219L7.55962 17.8156L7.70337 17.9125L7.95649 18.0531L8.26899 18.2031L8.59087 18.3656L8.89712 18.5281L9.16587 18.65L9.32524 18.7125L9.97524 18.9625L10.1409 19.0281L10.2659 19.0375L10.444 19.0062L10.6252 18.9719L10.8877 18.9531C10.976 18.9568 11.0635 18.9725 11.1502 18.9969L11.4877 19.0906L11.7159 19.1219H11.8909L12.0627 19.1187L12.4471 19.1344L12.6221 19.1469L12.8002 19.1594L12.9346 19.1344L13.0971 19.0562L13.2596 18.9812L13.519 18.8937C13.6087 18.876 13.7007 18.8706 13.794 18.875L13.9784 18.8844L14.1596 18.8906L14.1659 18.8875L14.4284 18.6062C14.5474 18.4787 14.686 18.374 14.844 18.3031L15.1565 18.1656L15.5315 18.025L15.8752 17.925L16.0752 17.8312L16.2221 17.7312L16.3659 17.6344L16.6596 17.4312L16.8096 17.3344L16.8909 17.2781C16.8925 17.178 16.9332 17.0795 17.0096 17.0031C17.0956 16.9171 17.2097 16.8819 17.3221 16.8906L17.4065 16.8062L17.4971 16.6531L17.5534 16.4781L17.6127 16.3L17.719 16.0625C17.7619 15.9881 17.8137 15.9178 17.8721 15.8531L17.9877 15.725L18.1065 15.5937L18.1971 15.4406L18.2502 15.275L18.3065 15.1062L18.4752 14.7219L18.5596 14.5687L18.644 14.4187C18.6836 14.3472 18.7112 14.2694 18.7315 14.1906L18.7752 14.025L18.819 13.8562L18.8784 13.5594L18.9034 13.3906L18.9284 13.2187L18.969 12.9031L18.9815 12.7312L18.9971 12.5625L19.0721 12.1531L19.119 11.9812L19.1627 11.8125L19.2377 11.5125L19.269 11.3656L19.2971 11.2344Z" fill="#1E1E1E"/>
</svg>
