<svg width="25" height="25" viewBox="0 0 25 25" fill="none" xmlns="http://www.w3.org/2000/svg">
<path d="M10.8752 3.15869L11.0979 3.21338L11.3206 3.26416C11.4122 3.28562 11.4982 3.29132 11.5784 3.27979L11.7932 3.24854L12.012 3.21729L12.2893 3.19385C12.3829 3.19192 12.477 3.19584 12.5706 3.20557L12.7893 3.229L13.0042 3.24854L13.2854 3.29932C13.378 3.32204 13.4695 3.34976 13.5588 3.38525L13.762 3.46729L13.969 3.54932L14.5667 3.78369L14.7698 3.86182L15.0237 3.979C15.1052 4.02375 15.1825 4.07586 15.2581 4.13135L15.4338 4.26025L15.6096 4.38525L15.8909 4.55322L16.0823 4.64307L16.2776 4.73291C16.4346 4.80566 16.5853 4.89454 16.7268 4.99463L16.9026 5.11572L17.0784 5.24072L17.4182 5.47119L17.6057 5.59229L17.7932 5.70947L18.0549 5.92432C18.1323 6.00518 18.2011 6.09461 18.2581 6.19385L18.4768 6.57666L18.6877 6.90869L18.8127 7.08838L18.9338 7.26416L19.1917 7.65479L19.4182 8.02979L19.5471 8.27197C19.5855 8.35582 19.6204 8.44144 19.6487 8.52979L19.7151 8.74072L19.7815 8.94775L19.8909 9.4751L19.9143 9.68994L19.9377 9.90869L20.0042 10.2212L20.0784 10.4282L20.1526 10.6392L20.2229 10.9165L20.2424 11.2056L20.2346 11.3774L20.2268 11.5454C20.2228 11.6306 20.2093 11.7174 20.1917 11.8032L20.1213 12.0649L19.9807 12.4868L19.9104 12.8032L19.887 13.0142L19.8635 13.2212L19.7815 13.7017L19.6877 14.1157L19.5627 14.5649L19.4963 14.7681L19.4338 14.9751L19.2542 15.4321L19.0745 15.8228C19.0346 15.9091 18.9886 15.9932 18.9377 16.0728L18.7698 16.2993L18.4885 16.6274L18.2854 16.9126L18.176 17.1001L18.0627 17.2915C18.0581 17.2992 18.0479 17.3034 18.0432 17.311L18.4924 17.7603L18.6292 17.8423L18.8206 17.9595C19.0306 18.0853 19.1976 18.2619 19.3088 18.479L19.4104 18.6821L19.5159 18.8853L19.6799 19.1079L19.9924 19.4126L20.262 19.6313L20.6292 19.8813L21.012 20.1509L21.1877 20.2837L21.3596 20.4165L21.6331 20.6821C21.7173 20.7858 21.7933 20.9044 21.8674 21.0259L22.0393 21.3032L22.0745 21.3384L22.1838 21.5063C22.2565 21.6867 22.2206 21.9032 22.0745 22.0493C21.9283 22.1955 21.7118 22.2313 21.5315 22.1587L21.3635 22.0493L21.2932 21.9751L21.2542 21.936L21.2229 21.8853L21.0159 21.5454C20.9529 21.4423 20.8986 21.3679 20.8557 21.3149L20.7581 21.2134L20.4065 20.9478L20.0706 20.7095L19.7034 20.4595L19.2932 20.1313L18.9807 19.8267C18.9088 19.7568 18.8444 19.6805 18.7854 19.6001L18.6252 19.3423L18.5198 19.1392L18.4182 18.936C18.3905 18.882 18.3552 18.8427 18.3088 18.8149L18.1174 18.7017L17.9221 18.5845L17.4885 18.2603L17.3284 18.1079L17.2385 18.022L17.0901 18.1821L16.9612 18.3774L16.8362 18.5688C16.7737 18.6642 16.7019 18.7531 16.6213 18.8306L16.3518 19.0337L15.969 19.2603C15.8875 19.308 15.8012 19.3478 15.7151 19.3853L15.4534 19.4829L15.2385 19.5454L15.0276 19.6118L14.5979 19.7368L14.387 19.7993L14.176 19.8579C14.0782 19.8862 13.9793 19.9054 13.8792 19.9165L13.5784 19.9282L13.3557 19.9126L13.1331 19.9009H12.7581L12.5471 19.9126L12.3362 19.9282L12.0901 19.9946L11.8713 20.0962L11.6565 20.2017C11.4511 20.2985 11.231 20.3244 11.0159 20.2759L10.801 20.2017L10.594 20.104L10.387 20.0024L10.1838 19.9595L9.96118 19.9634L9.73462 19.9712C9.4962 19.9774 9.2669 19.9209 9.05884 19.8032L8.67603 19.5845L8.31665 19.397L8.12134 19.3032L7.92993 19.2095C7.84194 19.1667 7.75579 19.1163 7.67603 19.061L7.45337 18.8774L7.29321 18.729L7.13696 18.5806L6.94556 18.4712L6.73071 18.397L6.51587 18.3267C6.40045 18.2883 6.29349 18.2336 6.19556 18.1665L5.92993 17.9243L5.79321 17.7524L5.65649 17.5845L5.38306 17.2368L5.25024 17.0688L5.11743 16.897L4.83618 16.4829L4.73071 16.2993L4.62134 16.1118L4.40649 15.7524L4.29712 15.5728L4.18384 15.3892L3.95337 14.936L3.78931 14.5376C3.75087 14.4447 3.72121 14.3495 3.69946 14.2524L3.6604 13.9556L3.63696 13.5181C3.63278 13.437 3.61389 13.3586 3.57837 13.2798L3.48853 13.0767L3.39478 12.8735C3.35316 12.781 3.32215 12.6853 3.29712 12.5884L3.24634 12.2876L3.23071 12.0688L3.21118 11.854C3.19836 11.6867 3.19727 11.5176 3.20728 11.3501L3.2229 11.1313L3.23462 10.9126L3.27759 10.4478L3.33228 10.0103L3.39868 9.71338C3.42895 9.61631 3.46459 9.51968 3.51196 9.42822L3.61353 9.23291L3.71899 9.0376L3.94165 8.63135L4.05103 8.44775L4.1604 8.26025L4.28149 7.9751L4.3479 7.76807L4.4104 7.55713L4.51196 7.2876C4.55184 7.20152 4.59663 7.11772 4.64868 7.0376L4.76978 6.854L4.88696 6.67041L5.08228 6.42822C5.1547 6.35389 5.23403 6.28518 5.32056 6.2251L5.50415 6.1001L5.68384 5.9751L5.80493 5.83057L6.00806 5.4165L6.12134 5.23682C6.24786 5.07113 6.41782 4.94767 6.62524 4.88135L6.84399 4.81494L7.06274 4.74463L7.36353 4.61182L7.54712 4.50244L7.73071 4.39697L8.02759 4.19385L8.19946 4.05322L8.37524 3.9126L8.60181 3.74854C8.68061 3.69899 8.76341 3.65595 8.8479 3.61572L9.05103 3.51807L9.25024 3.42432L9.50806 3.31885C9.59618 3.28891 9.68606 3.26414 9.77759 3.24463L10.2151 3.15088L10.5432 3.11963C10.6538 3.12112 10.7657 3.13301 10.8752 3.15869ZM10.2034 4.17822L9.98853 4.22119L9.67993 4.32666L9.48071 4.42432L9.27759 4.51807L9.00024 4.68994L8.82837 4.83057L8.65259 4.97119L8.23462 5.26025L8.05103 5.36963L7.86743 5.4751L7.36743 5.69775L7.14868 5.76416L6.92993 5.83447C6.92413 5.83633 6.92013 5.83741 6.91821 5.83838V5.84229H6.91431L6.90649 5.85791L6.70337 6.27197C6.65163 6.37682 6.5861 6.47371 6.51196 6.56104L6.25415 6.79541L6.07446 6.92041L5.89087 7.04932C5.82284 7.09672 5.76952 7.15204 5.72681 7.21729L5.60571 7.40088L5.48853 7.58057L5.36743 7.84229L5.24243 8.26416C5.21585 8.35271 5.18135 8.43796 5.14478 8.52197L5.01978 8.76807L4.9104 8.95166L4.80103 9.13916L4.60571 9.49854L4.40259 9.88916L4.32446 10.1353L4.26978 10.5728L4.23071 10.9751L4.21899 11.1899L4.20728 11.4087C4.19992 11.5312 4.20181 11.6537 4.21118 11.7759L4.22681 11.9946L4.24243 12.2095L4.30884 12.4634L4.39868 12.6665L4.49243 12.8696C4.57801 13.06 4.62659 13.263 4.63696 13.4712L4.64868 13.686L4.65649 13.9048C4.66091 13.9934 4.68231 14.0757 4.71509 14.1548L4.87915 14.5532L5.03931 14.8657L5.14868 15.0493L5.26196 15.2329L5.48853 15.6118L5.59399 15.7993L5.70337 15.9829L5.90259 16.2798L6.0354 16.4517L6.43384 16.9556L6.57056 17.1235L6.71118 17.2954L6.83228 17.3774L7.04712 17.4478L7.26196 17.522L7.56274 17.6548C7.65585 17.7099 7.74044 17.7784 7.82056 17.854L7.98071 18.0024L8.13696 18.1509C8.20585 18.2159 8.28439 18.2667 8.36743 18.3071L8.55884 18.4009L8.75415 18.4985L9.16821 18.7134L9.55103 18.9321C9.59907 18.9593 9.64859 18.9725 9.70728 18.9712L9.93384 18.9634L10.1565 18.9595L10.4963 18.9907C10.6061 19.0146 10.7133 19.0507 10.8167 19.1001L11.0237 19.2017L11.2307 19.2954L11.4456 19.1938L11.6643 19.0923L11.9612 18.979C12.0631 18.9515 12.1676 18.9347 12.2737 18.9282L12.6956 18.9048H13.1877L13.6331 18.9282L13.8987 18.897L14.1096 18.8384L14.3206 18.7759L14.7385 18.6548L14.9534 18.5884L15.1643 18.5259L15.4612 18.397L15.844 18.1704L16.0002 18.022L16.1252 17.8267L16.2542 17.6353L16.4534 17.3853C16.5272 17.3091 16.6069 17.2388 16.6956 17.1782L16.8792 17.0532L16.9104 17.0298L16.9495 16.7837L17.1487 16.8306C17.1645 16.8114 17.1901 16.7981 17.2034 16.7759L17.3167 16.5884L17.426 16.4009L17.7268 15.979L18.0081 15.6509L18.1643 15.4048L18.2581 15.2095L18.3479 15.0142L18.4807 14.6704L18.5432 14.4673L18.6096 14.2603L18.7112 13.8892L18.762 13.6821L18.8088 13.4751L18.8713 13.1157L18.8948 12.9048L18.9143 12.6938L19.0315 12.1665L19.1018 11.9556L19.176 11.7446L19.2268 11.4985L19.2346 11.3306L19.2424 11.1587L19.2073 10.9673L19.1331 10.7603L19.0627 10.5493C19.0323 10.4617 19.0047 10.3735 18.9846 10.2837L18.9417 10.0103L18.9182 9.79541L18.8948 9.57666L18.8284 9.25244L18.762 9.04541L18.6956 8.83447L18.5627 8.54932L18.4495 8.36182L18.3362 8.17822L18.1135 7.83838L17.9924 7.65869L17.8674 7.48291L17.6096 7.07666L17.5002 6.88135L17.3909 6.68994L17.2581 6.55322L17.0706 6.43604L16.8831 6.31494L16.5002 6.05713L16.3245 5.93213L16.1487 5.81104C16.0572 5.7463 15.9606 5.69003 15.8596 5.64307L15.469 5.46338L15.0159 5.19385L14.8401 5.06494L14.6682 4.93604L14.4065 4.79541L14.0081 4.63916L13.5979 4.479L13.3948 4.39697L13.1877 4.31494C13.0953 4.27836 13.0007 4.2549 12.9026 4.24463L12.6838 4.22119L12.4651 4.20166L12.1565 4.20557L11.719 4.26807C11.5101 4.29797 11.3005 4.28903 11.094 4.24072L10.8713 4.18604L10.6448 4.13525C10.5647 4.11656 10.4924 4.11642 10.4221 4.13135L10.2034 4.17822Z" fill="#1E1E1E"/>
</svg>
