<svg width="24" height="24" viewBox="0 0 24 24" fill="none" xmlns="http://www.w3.org/2000/svg">
<path d="M21.8409 21.2691C21.9959 21.4254 21.9967 21.6789 21.8409 21.8348C21.6851 21.9906 21.4315 21.9898 21.2752 21.8348L21.8409 21.2691ZM12.0502 3.48789L12.2252 3.50039L12.6409 3.57227L12.9784 3.66602L13.2252 3.70039L13.4002 3.70352H13.5784L13.8627 3.75039C13.9536 3.77896 14.0407 3.82098 14.1221 3.87539L14.4221 4.07539L14.5221 4.10039L14.7127 4.08789L14.9065 4.07852L15.0752 4.08789C15.2397 4.11079 15.3928 4.18134 15.5221 4.30039L15.7909 4.54414L16.0659 4.81602L16.1877 4.94727L16.3096 5.07539L16.4159 5.13164L16.7846 5.21914C16.9606 5.26109 17.1242 5.33785 17.2659 5.45039L17.4034 5.56289L17.544 5.67227L17.7127 5.82539C17.7651 5.87937 17.8142 5.93667 17.8596 5.99727L17.9659 6.14102L18.0721 6.28164L18.294 6.60977L18.3846 6.76289L18.4752 6.91289L18.6471 7.18164L18.7502 7.32227L18.8502 7.46602L18.9784 7.69414C19.012 7.77379 19.037 7.8577 19.0534 7.94414L19.0877 8.11914L19.1221 8.29727L19.1752 8.38477L19.3159 8.51602L19.4596 8.64727L19.6502 8.87852C19.7012 8.96404 19.7402 9.05842 19.7627 9.15977L19.8002 9.33164L19.8377 9.50664L19.869 9.76602L19.844 10.0285L19.8096 10.2129L19.7721 10.3973C19.7668 10.4246 19.7702 10.4436 19.7846 10.4691L19.8815 10.6348L19.9752 10.7973L20.0409 10.9348C20.0778 11.0285 20.1004 11.1291 20.1002 11.2348L20.0815 11.3941L20.0502 11.541L20.019 11.6848L19.9346 12.0191L19.8909 12.191L19.844 12.3598L19.794 12.6348L19.7784 12.8035L19.7627 12.9754L19.7221 13.3379L19.6971 13.5066L19.669 13.6785C19.6501 13.8056 19.6261 13.9318 19.594 14.0566L19.5502 14.2254L19.5065 14.391C19.4879 14.4633 19.4652 14.5346 19.4377 14.6035L19.344 14.8066L19.2596 14.9566L19.1752 15.1098L19.0659 15.3598L19.0096 15.5254L18.9565 15.691C18.9293 15.7733 18.8931 15.8518 18.8502 15.9254L18.7002 16.1316L18.5815 16.2598L18.4659 16.391L18.3721 16.5535L18.3127 16.7316L18.2534 16.9066C18.225 16.9914 18.1889 17.0718 18.144 17.1473L17.9846 17.3598L17.919 17.4223C17.9405 17.4458 17.9643 17.4729 17.9909 17.5004L18.1096 17.6254L18.2315 17.7504C18.3072 17.829 18.3861 17.907 18.4659 17.9816L18.5909 18.1004L18.719 18.2191L18.9315 18.3785L19.0846 18.4723L19.2409 18.5629L19.4627 18.7441C19.5274 18.8137 19.5839 18.8917 19.6284 18.9785L19.7096 19.141L19.794 19.3035C19.8307 19.3751 19.8749 19.4359 19.9252 19.4848L20.0502 19.6035L20.1752 19.7254L20.3909 19.9004L20.6846 20.1004L20.9909 20.316L21.2721 20.5285L21.4846 20.741C21.5512 20.8232 21.6145 20.9138 21.6721 21.0098L21.8002 21.2285L21.8409 21.2691L21.5565 21.5504L21.2752 21.8348L21.2034 21.7629C21.1803 21.7398 21.1608 21.7128 21.144 21.6848L20.9846 21.4223C20.9367 21.3425 20.8957 21.285 20.8627 21.2441L20.7877 21.166L20.6471 21.0598L20.5096 20.9566L20.2377 20.7629L20.0909 20.6629L19.944 20.566L19.6159 20.3004L19.494 20.1785L19.369 20.0566C19.311 20.0004 19.2571 19.9402 19.2096 19.8754L19.0815 19.6691L19.0002 19.5066L18.9159 19.3441L18.8284 19.2504L18.6752 19.1566L18.5221 19.066L18.1721 18.8035L18.044 18.6848L17.919 18.566L17.6565 18.3066L17.4127 18.0566C17.3786 18.0213 17.3492 17.9837 17.319 17.9504L17.2534 17.9973L17.1065 18.0973L16.819 18.291L16.5315 18.491C16.4652 18.5366 16.3943 18.5757 16.3221 18.6098L16.1002 18.6941L15.7565 18.7941L15.4815 18.8941L15.3284 18.966L15.1721 19.0348C15.1233 19.0566 15.0715 19.0939 15.0159 19.1535L14.7534 19.4348C14.6304 19.5665 14.4761 19.652 14.3034 19.6816L14.1252 19.691L13.7565 19.6723L13.6034 19.7035L13.4409 19.7816L13.2784 19.8566C13.1937 19.8969 13.1059 19.9272 13.0159 19.9441L12.7377 19.9598L12.5596 19.9441L12.3846 19.9316L12.069 19.9191L11.894 19.9223H11.7221C11.6455 19.9228 11.5695 19.9169 11.494 19.9066L11.269 19.8598L11.1034 19.8129L10.9346 19.766L10.7659 19.7598L10.5877 19.791L10.4096 19.8254C10.315 19.8426 10.2188 19.8464 10.1252 19.8379L9.85024 19.7723L9.68462 19.7098L9.52212 19.6473L9.20024 19.5223L9.03774 19.4598L8.87837 19.3973L8.51899 19.2348L8.36899 19.1535L8.21587 19.0723L7.92524 18.9254L7.61274 18.7754L7.26587 18.5816L7.12212 18.4879L6.97837 18.391C6.91207 18.3476 6.8488 18.3003 6.79087 18.2473L6.62837 18.0754L6.52212 17.9379L6.41274 17.8004L6.26587 17.6785L6.10962 17.591L5.95649 17.5035C5.88593 17.4643 5.81905 17.4186 5.75649 17.3691L5.58149 17.2066L5.46274 17.0785L5.34712 16.9504L5.09712 16.641L4.99712 16.5004L4.89712 16.3566L4.68774 16.0535L4.50024 15.7598C4.45626 15.6918 4.41634 15.6209 4.38462 15.5473L4.30962 15.3191L4.26587 15.1473L4.22524 14.9754L4.14399 14.6223L4.10649 14.4535L4.07212 14.2816C4.05563 14.2043 4.02774 14.1298 3.99087 14.0566L3.91274 13.8973L3.83149 13.741C3.79719 13.6731 3.76881 13.6029 3.74399 13.5316L3.68462 13.316L3.64712 13.1441L3.61274 12.9754C3.57953 12.8132 3.57944 12.6484 3.60649 12.4848L3.66274 12.1348L3.64712 11.991L3.58149 11.8191L3.51587 11.6441C3.43586 11.4315 3.44129 11.2092 3.53462 11.0004L3.60962 10.8316L3.68462 10.666L3.76274 10.4191L3.79399 10.2535L3.82524 10.0848L3.85024 9.80664L3.85337 9.62852L3.85649 9.44727C3.85847 9.3004 3.87682 9.15562 3.90962 9.01289L3.94712 8.83789L3.98774 8.66602L4.13149 8.25039L4.20649 8.09102L4.28462 7.93164L4.41899 7.70664C4.47177 7.63805 4.53347 7.57651 4.60024 7.51914L4.74087 7.39727L4.87837 7.27852L5.00337 7.12539L5.15962 6.81289L5.27212 6.62227C5.31237 6.56113 5.35622 6.50057 5.40337 6.44414L5.51274 6.30977L5.62524 6.17539C5.72175 6.05995 5.83387 5.95987 5.95649 5.87227L6.09712 5.76914L6.24087 5.66602C6.33266 5.60044 6.42478 5.53622 6.51274 5.46914L6.64712 5.36289L6.78462 5.25977L6.96899 5.13477C7.03224 5.09778 7.09813 5.06407 7.16587 5.03477L7.48462 4.89727L7.70649 4.77227L7.84712 4.66914L7.98462 4.56914L8.33462 4.35664L8.48774 4.28164L8.64087 4.20352L8.92524 4.04727L9.07837 3.95977L9.23149 3.86914L9.47524 3.75977C9.55969 3.73346 9.64769 3.71597 9.73774 3.70977L9.91274 3.69727L10.0909 3.68477L10.394 3.65039L10.7377 3.58789C10.8564 3.5669 10.977 3.5481 11.0971 3.53164L11.269 3.50977L11.4409 3.48477L11.8752 3.47227L12.0502 3.48789ZM19.2971 11.2348C19.2954 11.2293 19.2943 11.2172 19.2846 11.2004L19.1877 11.0348L19.094 10.8723C18.9829 10.6803 18.9458 10.4656 18.9877 10.2473L19.0221 10.0629L19.0596 9.87539V9.68164L19.019 9.50664L18.9815 9.33164L18.919 9.23477L18.7784 9.10664L18.6346 8.97539C18.5191 8.86973 18.4321 8.74231 18.3784 8.59727L18.3346 8.44727L18.3002 8.26914L18.269 8.09102L18.2002 7.92852L18.0971 7.78789L17.9971 7.64414L17.7877 7.32539L17.6971 7.17227L17.6065 7.02227L17.4315 6.76289L17.3252 6.61914L17.219 6.47852L17.044 6.29727L16.9065 6.18789L16.7659 6.07852C16.7224 6.04398 16.6697 6.0171 16.6002 6.00039L16.4159 5.95352L16.2315 5.90977C16.1344 5.88662 16.0415 5.85169 15.9565 5.80352L15.7252 5.62227L15.6034 5.49414L15.4846 5.36602L15.2471 5.13477L15.1127 5.00977L14.9815 4.88789L14.9721 4.88164C14.9717 4.88148 14.9624 4.87761 14.944 4.87852L14.7534 4.88789L14.5596 4.89727C14.3529 4.90724 14.1539 4.85793 13.9784 4.74102L13.6784 4.54102L13.5659 4.50352H13.3909L13.2127 4.50039C13.137 4.4993 13.0621 4.4921 12.9877 4.48164L12.769 4.43789L12.4315 4.34414L12.1596 4.29727L11.9877 4.28477L11.8127 4.26914L11.5502 4.27852L11.3784 4.30039L11.2034 4.32539C11.0935 4.34046 10.9836 4.35621 10.8752 4.37539L10.7065 4.40664L10.5346 4.43789C10.4065 4.46058 10.2755 4.47572 10.144 4.48477L9.96899 4.49727L9.79087 4.50977L9.63774 4.55664L9.33149 4.73789L9.00024 4.91914L8.84712 4.99414L8.69399 5.07227L8.45649 5.21602L8.31587 5.31914L8.17837 5.41914L7.80337 5.63164L7.48462 5.76914L7.27212 5.89414L7.13462 6.00039L6.99712 6.10352C6.90229 6.17583 6.80508 6.24871 6.70649 6.31914L6.56274 6.41914L6.41899 6.52227C6.35159 6.57053 6.29347 6.62806 6.24087 6.69102L6.12837 6.82227L6.01587 6.95664L5.87524 7.17227L5.79399 7.32852L5.71587 7.48477C5.67714 7.56118 5.63082 7.63406 5.57837 7.70039L5.40024 7.88477L5.25962 8.00664L5.12212 8.12539L5.00649 8.27227L4.93149 8.43164L4.85649 8.59414L4.76899 8.84414L4.72837 9.01914L4.68774 9.19102C4.6676 9.27846 4.65768 9.3688 4.65649 9.45977L4.65024 9.81602L4.61274 10.2316L4.58149 10.4004L4.55024 10.566C4.53676 10.6386 4.51644 10.7108 4.49399 10.7816L4.41587 10.991L4.34087 11.1598L4.26587 11.3254C4.26083 11.3366 4.25963 11.3438 4.25962 11.3441C4.25978 11.3466 4.26206 11.3528 4.26587 11.3629L4.33149 11.5348L4.39399 11.7098L4.45962 11.9848L4.45337 12.266L4.42212 12.441L4.39399 12.616C4.38282 12.6844 4.38423 12.7492 4.39712 12.8129L4.43149 12.9848L4.46587 13.1535L4.54712 13.3816L4.70337 13.6941C4.77156 13.829 4.82223 13.972 4.85337 14.1191L4.89087 14.2879L4.92524 14.4566L5.00024 14.7848L5.04399 14.9566L5.08462 15.1285L5.17212 15.3254L5.35962 15.6191L5.54712 15.8941L5.64712 16.0348L5.75024 16.1785C5.80843 16.26 5.87056 16.3389 5.93774 16.4129L6.05649 16.541L6.17212 16.6691L6.34399 16.8035L6.65649 16.9785L6.86274 17.1223C6.92688 17.1765 6.98795 17.2367 7.04087 17.3035L7.14712 17.441L7.25649 17.5785L7.41587 17.7223L7.55962 17.816L7.70337 17.9129L7.95649 18.0535L8.26899 18.2035L8.59087 18.366L8.89712 18.5285L9.16587 18.6504L9.32524 18.7129L9.97524 18.9629L10.1409 19.0285L10.2659 19.0379L10.444 19.0066L10.6252 18.9723L10.8877 18.9535C10.976 18.9572 11.0635 18.9729 11.1502 18.9973L11.4877 19.091L11.7159 19.1223H11.8909L12.0627 19.1191L12.4471 19.1348L12.6221 19.1473L12.8002 19.1598L12.9346 19.1348L13.0971 19.0566L13.2596 18.9816L13.519 18.8941C13.6087 18.8764 13.7007 18.871 13.794 18.8754L13.9784 18.8848L14.1596 18.891L14.1659 18.8879L14.4284 18.6066C14.5474 18.4791 14.686 18.3744 14.844 18.3035L15.1565 18.166L15.5315 18.0254L15.8752 17.9254L16.0752 17.8316L16.2221 17.7316L16.3659 17.6348L16.6596 17.4316L16.8096 17.3348L16.8909 17.2785C16.8925 17.1784 16.9332 17.0799 17.0096 17.0035C17.0956 16.9175 17.2097 16.8823 17.3221 16.891L17.4065 16.8066L17.4971 16.6535L17.5534 16.4785L17.6127 16.3004L17.719 16.0629C17.7619 15.9885 17.8137 15.9182 17.8721 15.8535L17.9877 15.7254L18.1065 15.5941L18.1971 15.441L18.2502 15.2754L18.3065 15.1066L18.4752 14.7223L18.5596 14.5691L18.644 14.4191C18.6836 14.3476 18.7112 14.2698 18.7315 14.191L18.7752 14.0254L18.819 13.8566L18.8784 13.5598L18.9034 13.391L18.9284 13.2191L18.969 12.9035L18.9815 12.7316L18.9971 12.5629L19.0721 12.1535L19.119 11.9816L19.1627 11.8129L19.2377 11.5129L19.269 11.366L19.2971 11.2348Z" fill="#1E1E1E"/>
</svg>
