<svg width="24" height="25" viewBox="0 0 24 25" fill="none" xmlns="http://www.w3.org/2000/svg">
<g id="Shopping cart">
<path id="Icon" d="M9.08984 20.5371L9.3125 20.541L9.53906 20.5723C9.61676 20.5942 9.69564 20.6311 9.76953 20.6816C9.84324 20.7324 9.90476 20.7916 9.95312 20.8574L10.0625 21.0684L10.1367 21.2676L10.207 21.4629L10.2266 21.5254L10.2695 21.5605C10.3914 21.6608 10.4561 21.803 10.4648 21.9434C10.472 22.063 10.4371 22.1598 10.4141 22.2129L10.2461 22.4629L9.98828 22.752L9.63281 23.0918L9.46094 23.2285L9.29297 23.3652C9.16334 23.4702 8.99835 23.5444 8.80859 23.5488C8.71679 23.551 8.62991 23.5381 8.55078 23.5137L8.33594 23.4121L8.125 23.2832L7.91016 23.1543C7.69547 23.0237 7.55049 22.8331 7.48828 22.6035L7.45312 22.3613L7.44531 21.8691C7.43964 21.5687 7.54792 21.2878 7.78906 21.084L7.96484 20.9355L8.14062 20.791L8.30078 20.6738C8.47059 20.5751 8.66284 20.5251 8.86719 20.5293L9.08984 20.5371ZM20.5625 20.4395C20.8026 20.4816 21.0061 20.6182 21.1562 20.8184L21.3125 21.0254L21.4727 21.2363L21.6445 21.5332C21.6685 21.5977 21.7235 21.7795 21.6523 21.9668L21.5352 22.1504L21.4258 22.2598C21.4242 22.2624 21.4241 22.2677 21.4219 22.2715L21.3633 22.3887L21.1836 22.7715C21.0874 22.9751 20.9293 23.133 20.7227 23.2129L20.4961 23.2637L20.3008 23.2871L20.1055 23.3066C19.9976 23.3179 19.8897 23.3143 19.7852 23.2988L19.4766 23.2129L19.2852 23.1348L19.0977 23.0566C18.8023 22.9349 18.6289 22.6911 18.5508 22.4199L18.4805 22.1816L18.4141 21.9473C18.3696 21.7922 18.3607 21.6148 18.4219 21.4355C18.4834 21.256 18.6007 21.1209 18.7305 21.0254L18.9297 20.877L19.1289 20.7324L19.457 20.5527C19.5737 20.5089 19.6965 20.4814 19.8242 20.4707L20.0703 20.4512L20.3125 20.4316L20.5625 20.4395ZM8.78516 21.5566L8.60938 21.7012L8.44531 21.8379C8.44511 21.8408 8.44523 21.8446 8.44531 21.8496L8.44922 22.0957V22.3145L8.64062 22.4316L8.76172 22.5059L8.83203 22.4512L9.00391 22.3145L9.24219 22.0879L9.33984 21.9746L9.26562 21.8027L9.19531 21.6074L9.16797 21.5371H9.07031L8.84766 21.5293L8.78516 21.5566ZM20.1523 21.4473L19.9062 21.4668L19.7188 21.5371L19.5195 21.6855L19.4023 21.7676L19.4453 21.9082L19.5117 22.1426L19.668 22.209L19.8555 22.2871L20 22.3105L20.1953 22.291L20.3047 22.2793L20.3672 22.1543L20.457 21.9629L20.5586 21.7676C20.5672 21.753 20.5769 21.7389 20.5859 21.7246L20.5156 21.627L20.3633 21.4277L20.1523 21.4473ZM18.6406 6.29883L19.0781 6.33789C19.255 6.3528 19.4317 6.38308 19.6055 6.43164L19.8203 6.49414L20.0391 6.55273L20.2578 6.56836L20.4727 6.5293L20.6914 6.49414L20.9805 6.4668C21.0766 6.46448 21.1733 6.46703 21.2695 6.47852L21.4883 6.50586L21.7031 6.5332H22.0234L22.4609 6.48633H22.668C22.7482 6.49569 22.8361 6.51701 22.9219 6.56445C23.0818 6.65299 23.1739 6.7918 23.2148 6.93555L23.2383 7.08008L23.25 7.22852L23.2578 7.37695L23.2734 7.75977L23.2891 8.20508C23.2936 8.33126 23.282 8.45466 23.25 8.57227L23.1016 8.9082L22.9805 9.10742L22.8594 9.30273L22.7734 9.52539L22.7422 9.74023L22.7109 9.95898C22.7015 10.0254 22.7036 10.1054 22.7305 10.2012L22.7969 10.4355L22.8633 10.666C22.8949 10.7786 22.9131 10.8948 22.918 11.0098L22.8906 11.3574L22.8398 11.5723L22.793 11.7832C22.7706 11.8834 22.7424 11.9818 22.7031 12.0762L22.5586 12.3496L22.4375 12.5488L22.3125 12.7441C22.2971 12.7688 22.2951 12.7846 22.3008 12.8145L22.3438 13.0449L22.3867 13.2715L22.4023 13.6465L22.3047 14.0059L22.2148 14.209L22.1211 14.416C22.0971 14.47 22.0873 14.5242 22.0938 14.5879L22.1406 15.041L22.1328 15.2793C22.0971 15.5095 21.9751 15.7074 21.793 15.8574L21.6016 16.0137L21.4141 16.1699L21.1328 16.4238L20.8672 16.6973L20.5664 17.0059L20.4023 17.1777L20.2344 17.3457C20.0772 17.5062 19.8822 17.6101 19.6641 17.6387L19.4375 17.6426L19.2148 17.6191L18.9883 17.5957C18.8906 17.5858 18.7944 17.5683 18.6992 17.5449L18.4141 17.4551L17.9844 17.2832L17.9727 17.291L17.7539 17.4121L17.5391 17.5332C17.3414 17.6438 17.123 17.6926 16.9023 17.6621L16.6836 17.6074L16.4648 17.5215L16.2461 17.4395L15.9961 17.3926L15.5586 17.4004L15.1602 17.4199L14.9414 17.4355L14.7266 17.4551L14.2812 17.4863L14.0625 17.502L13.8477 17.5137L13.3945 17.5371L13.1758 17.541L12.9609 17.5488L12.6055 17.5879L12.168 17.6738C11.963 17.7133 11.7635 17.6941 11.5781 17.627L11.3984 17.5449L11.1797 17.4238L10.9648 17.3027C10.945 17.2918 10.9336 17.291 10.9336 17.291L10.9297 17.2949L10.7109 17.3691L10.4961 17.4434C10.385 17.4812 10.2709 17.505 10.1562 17.5137L9.80859 17.4902L9.59375 17.4512L9.38281 17.4082L8.92969 17.3066L8.71875 17.2559L8.50391 17.2012C8.28153 17.1457 8.09923 17.0228 7.97266 16.8457L7.86719 16.6543L7.69531 16.248C7.65238 16.1454 7.60145 16.0481 7.53906 15.959L7.41406 15.7793L7.28906 15.6035C7.18222 15.4511 7.09479 15.2858 7.02734 15.1113L6.94531 14.9043L6.86719 14.7012C6.77829 14.4712 6.76299 14.2296 6.80859 13.9902L6.89453 13.5293L6.89062 13.3066L6.83594 13.0957L6.78125 12.8887L6.68359 12.4004L6.65234 12.1816L6.625 11.9668C6.60676 11.8308 6.58692 11.6952 6.5625 11.5605L6.48438 11.1309C6.45763 10.9834 6.4325 10.8339 6.41016 10.6855L6.375 10.4707L6.34375 10.2559C6.32978 10.1638 6.30165 10.0732 6.25781 9.98242L6.0625 9.57617C5.98757 9.42085 5.92237 9.26155 5.87109 9.09961L5.80859 8.89258L5.74219 8.68164C5.71446 8.59394 5.68934 8.50583 5.67188 8.41602L5.63672 8.14258L5.61719 7.92773L5.60156 7.70898L5.55469 7.31836L5.51562 7.10742L5.48047 6.89258L5.4375 6.36914L5.43359 6.15039V5.92773L5.39062 5.66211L5.32031 5.45508L5.24609 5.24805L5.11719 4.75195L5.03906 4.32227L4.95703 3.91992L4.85547 3.49805L4.74609 3.18164L4.64844 2.98242L4.55469 2.7793L4.42578 2.56836L4.31641 2.44336L4.25781 2.37305H4.05078L3.83594 2.37695C3.7211 2.37866 3.60475 2.39332 3.48828 2.41602L3.26953 2.45508L3.05469 2.49805C2.90167 2.52787 2.747 2.55467 2.59375 2.57617L2.15625 2.63867C2.03739 2.65524 1.90965 2.65232 1.77734 2.63867L1.36719 2.56445L1.04688 2.48633H1C0.723858 2.48633 0.5 2.26247 0.5 1.98633C0.5 1.71019 0.723858 1.48633 1 1.48633H1.16016L1.21875 1.50195L1.60156 1.5918L1.87891 1.64258C1.94742 1.64981 1.99374 1.6501 2.01953 1.64648L2.23438 1.61523L2.45312 1.58398L2.86328 1.51758L3.07812 1.47461L3.29688 1.43164C3.47034 1.39785 3.64522 1.37956 3.82031 1.37695L4.03906 1.37305H4.25391C4.43449 1.37036 4.63361 1.40638 4.80469 1.52148L4.96484 1.66211L5.07031 1.78711L5.17969 1.9082L5.33203 2.11523C5.3782 2.18913 5.41852 2.26848 5.45703 2.34961L5.55469 2.55273L5.64844 2.75586L5.83203 3.26758L5.87891 3.48242L5.92969 3.69336L6.02344 4.14258L6.10156 4.57227L6.19141 4.91992L6.26562 5.12695L6.33594 5.33398L6.41016 5.62695C6.42662 5.72547 6.4335 5.82666 6.43359 5.92773V6.14648L6.4375 6.36914L6.44531 6.48633H6.58594L6.58984 6.61523L6.71094 6.63477L6.92969 6.66602L7.10938 6.64258L7.32812 6.55664L7.54297 6.47461L7.91406 6.39258C8.03956 6.38557 8.16682 6.40077 8.29297 6.43555L8.51172 6.49414L8.72656 6.55273C8.81268 6.57647 8.89624 6.58492 8.97656 6.57617L9.19141 6.55273L9.41016 6.5293L9.85547 6.48633L10.0742 6.4668L10.2891 6.44727L10.5898 6.44336C10.6879 6.45048 10.7859 6.46385 10.8828 6.48633L11.1016 6.53711L11.3164 6.58789H11.5156L11.7344 6.5293L11.9492 6.47461L12.418 6.37305L12.6367 6.33008L12.8555 6.29102L13.2227 6.2793C13.3436 6.29407 13.4636 6.32797 13.5781 6.37695L13.793 6.4707L14.0117 6.56445C14.0859 6.59607 14.1486 6.60489 14.2031 6.59961L14.418 6.57617L14.6367 6.55664C14.8273 6.5382 15.0179 6.54667 15.207 6.58008L15.4258 6.61523L15.6406 6.6543L15.8906 6.65039L16.3281 6.56445L16.7305 6.4707L16.9492 6.41602L17.168 6.35742C17.352 6.30885 17.5383 6.28387 17.7266 6.2832H17.9453L18.1641 6.2793L18.6406 6.29883ZM12.5977 7.35352L12.1992 7.44336L11.9805 7.49805L11.7656 7.55664C11.6549 7.58503 11.5416 7.59813 11.4297 7.59961L11.0898 7.56445L10.875 7.51367L10.6562 7.46289L10.3789 7.44336L10.1602 7.46289L9.94531 7.48242L9.51953 7.52148L9.08203 7.56836C8.8729 7.59092 8.6643 7.57363 8.46094 7.51758L8.24609 7.45898L8.02734 7.40039L7.90625 7.4082L7.6875 7.49023L7.46875 7.57617C7.35927 7.61835 7.24701 7.64847 7.13281 7.66211L6.78125 7.6543L6.59375 7.62695L6.59766 7.63086L6.61719 7.8457L6.63281 8.06445L6.69531 8.38086L6.76172 8.5918L6.82812 8.79883C6.86471 8.91422 6.90998 9.02897 6.96484 9.14258L7.16016 9.54883C7.24586 9.7267 7.30277 9.91356 7.33203 10.1074L7.36719 10.3223L7.39844 10.5371C7.41924 10.6752 7.44386 10.8139 7.46875 10.9512L7.50391 11.166L7.54297 11.3809C7.57023 11.5311 7.59685 11.6824 7.61719 11.834L7.64453 12.0488L7.67578 12.2676L7.74609 12.6309L7.80078 12.8418L7.85938 13.0527L7.90625 13.3848C7.90902 13.4949 7.89993 13.6067 7.87891 13.7168L7.83203 13.9473L7.78906 14.1777C7.77638 14.2448 7.78395 14.2939 7.80078 14.3379L7.95703 14.752C7.99568 14.8519 8.04572 14.944 8.10547 15.0293L8.23047 15.209L8.35547 15.3848C8.45957 15.5333 8.54685 15.6932 8.61719 15.8613L8.70312 16.0645L8.77734 16.2363L8.95703 16.2832L9.17188 16.3379L9.57422 16.4277L9.78516 16.4668L10 16.5098L10.1719 16.4941L10.6094 16.3457C10.8985 16.2478 11.1887 16.2866 11.4453 16.4277L11.6641 16.5488L11.8789 16.666L11.9805 16.6934L12.1953 16.6504L12.4141 16.6074L12.9297 16.5488L13.1445 16.5449L13.3633 16.5371L13.7812 16.5176L14.2188 16.4863L14.6445 16.459L14.8594 16.4395L15.0781 16.4199L15.5469 16.4004L15.9844 16.3926L16.2969 16.4199C16.3999 16.4388 16.5019 16.4682 16.6016 16.5059L16.8203 16.5879L17.0312 16.666C17.0345 16.6648 17.0425 16.6667 17.0508 16.6621L17.2695 16.541L17.4844 16.4199L17.6914 16.3301C17.9021 16.2639 18.1268 16.2664 18.3477 16.3535L18.5664 16.4395L18.7812 16.5254L19.0898 16.6035L19.3125 16.623L19.5195 16.6426L19.6875 16.4746L19.8516 16.3066L20.1484 16.002L20.4141 15.7285L20.7773 15.4004L20.9688 15.2441L21.1367 15.0996L21.1211 14.916L21.0977 14.6895C21.0736 14.4529 21.1131 14.2193 21.2109 14.002L21.3008 13.7988L21.3945 13.5957L21.4062 13.4629L21.3633 13.2324L21.3164 13.002C21.2635 12.7257 21.3159 12.4558 21.4648 12.2168L21.5859 12.0176L21.7109 11.8184L21.8164 11.5645L21.8672 11.3535L21.9141 11.1387L21.9023 10.9395L21.7695 10.4707C21.7091 10.2555 21.6907 10.0347 21.7227 9.81445L21.7539 9.59961L21.7852 9.38086L21.8633 9.06836C21.9006 8.96788 21.9506 8.87209 22.0078 8.7793L22.25 8.38086L22.293 8.24023L22.2773 7.79492C22.2733 7.68499 22.2658 7.59016 22.2617 7.50977L22.1328 7.52539C22.0416 7.53532 21.9506 7.54149 21.8594 7.54102L21.5859 7.52539L21.3672 7.49805L21.1523 7.4707L20.8594 7.47852L20.6406 7.51758L20.4219 7.55273C20.3123 7.5711 20.2027 7.57838 20.0938 7.57227L19.7695 7.51758L19.5508 7.45508L19.3359 7.39648C19.2203 7.36415 19.1047 7.34339 18.9922 7.33398L18.7773 7.31445L18.5586 7.29492L18.168 7.2793L17.9492 7.2832H17.7305C17.6298 7.28352 17.5268 7.29452 17.4219 7.32227L17.2031 7.38086L16.9883 7.43945L16.5234 7.54492L16.3047 7.58789L16.0859 7.63477C15.9835 7.65504 15.8803 7.66489 15.7773 7.66602L15.4688 7.63867L15.25 7.59961L15.0312 7.56445C14.9312 7.54688 14.833 7.5433 14.7344 7.55273L14.2969 7.5918C14.0619 7.61439 13.8325 7.57452 13.6172 7.48242L13.4023 7.38867L13.1836 7.29883C13.1226 7.27272 13.0766 7.26793 13.0352 7.27539L12.5977 7.35352Z" fill="#1E1E1E"/>
</g>
</svg>
