<svg width="25" height="25" viewBox="0 0 25 25" fill="none" xmlns="http://www.w3.org/2000/svg">
<g id="Shopping cart" clip-path="url(#clip0_347_791)">
<path id="Icon" d="M1.08069 1.20557H5.08069L7.76069 14.5956C7.85213 15.056 8.1026 15.4695 8.46823 15.7639C8.83387 16.0582 9.29139 16.2146 9.76069 16.2056H19.4807C19.95 16.2146 20.4075 16.0582 20.7731 15.7639C21.1388 15.4695 21.3892 15.056 21.4807 14.5956L23.0807 6.20557H6.08069M10.0807 21.2056C10.0807 21.7579 9.63297 22.2056 9.08069 22.2056C8.5284 22.2056 8.08069 21.7579 8.08069 21.2056C8.08069 20.6533 8.5284 20.2056 9.08069 20.2056C9.63297 20.2056 10.0807 20.6533 10.0807 21.2056ZM21.0807 21.2056C21.0807 21.7579 20.633 22.2056 20.0807 22.2056C19.5284 22.2056 19.0807 21.7579 19.0807 21.2056C19.0807 20.6533 19.5284 20.2056 20.0807 20.2056C20.633 20.2056 21.0807 20.6533 21.0807 21.2056Z" stroke="#1E1E1E" stroke-width="2.5" stroke-linecap="round" stroke-linejoin="round"/>
</g>
<defs>
<clipPath id="clip0_347_791">
<rect width="24" height="24" fill="white" transform="translate(0.0806885 0.205566)"/>
</clipPath>
</defs>
</svg>
