<svg width="24" height="25" viewBox="0 0 24 25" fill="none" xmlns="http://www.w3.org/2000/svg">
<g id="User">
<path id="Icon" d="M19.5039 22.0483C19.5381 22.3224 19.788 22.5167 20.062 22.4825C20.336 22.4482 20.5304 22.1983 20.4961 21.9243L19.5039 22.0483ZM19.9876 21.8871L19.5034 21.7624L19.4796 21.8546L19.4915 21.9491L19.9876 21.8871ZM20.0869 21.5017L20.5711 21.6264L20.0869 21.5017ZM20.1557 20.8988L20.6508 20.8295L20.1557 20.8988ZM20.1252 20.6813L20.6204 20.612L20.1252 20.6813ZM20.0947 20.4638L19.5996 20.5332L20.0947 20.4638ZM20.0106 20.0334L20.4954 19.9112L20.0106 20.0334ZM19.9032 19.6076L19.4184 19.7298L19.9032 19.6076ZM19.7919 19.1916L20.2729 19.0551L19.7919 19.1916ZM19.7343 18.9886L20.2153 18.8521L19.7343 18.9886ZM19.6767 18.7856L19.1957 18.9221L19.6767 18.7856ZM19.5804 18.3567L19.0876 18.4411L19.5804 18.3567ZM19.5031 17.905L19.9959 17.8207L19.5031 17.905ZM19.2817 17.5452L19.5775 17.142L19.2817 17.5452ZM18.9164 17.2771L18.6206 17.6803L18.9164 17.2771ZM18.5605 17.0185L18.2686 17.4245L18.5605 17.0185ZM18.214 16.7694L17.9221 17.1753L18.214 16.7694ZM17.8498 16.5506L17.6286 16.999L17.8498 16.5506ZM17.6588 16.4564L17.88 16.0079L17.6588 16.4564ZM17.4678 16.3622L17.689 15.9137L17.4678 16.3622ZM17.0654 16.2504L17.1067 15.7521L17.0654 16.2504ZM16.6424 16.2153L16.6011 16.7136L16.6424 16.2153ZM16.219 16.1483L16.1054 16.6353L16.219 16.1483ZM15.795 16.0495L15.9086 15.5625L15.795 16.0495ZM15.3655 15.994L15.3515 16.4938L15.3655 15.994ZM15.148 15.9879L15.134 16.4877L15.148 15.9879ZM14.9305 15.9818L14.9445 15.482L14.9305 15.9818ZM14.4955 15.9497L14.4361 16.4461L14.4955 15.9497ZM14.0605 15.8976L14.1199 15.4012L14.0605 15.8976ZM13.6255 15.8954L13.68 16.3925L13.6255 15.8954ZM13.1905 15.9431L13.1361 15.446L13.1905 15.9431ZM12.7555 16.023L12.6307 15.5388L12.7555 16.023ZM12.3205 16.1352L12.4454 16.6193L12.3205 16.1352ZM11.8855 16.1808L11.9095 15.6814L11.8855 16.1808ZM11.668 16.1703L11.692 15.6709L11.668 16.1703ZM11.4505 16.1599L11.4265 16.6593L11.4505 16.1599ZM11.0155 16.1455L11.0065 16.6454L11.0155 16.1455ZM10.798 16.1416L10.8071 15.6417L10.798 16.1416ZM10.1455 16.1197L10.1135 16.6187L10.1455 16.1197ZM9.71054 16.0918L9.74263 15.5928L9.71054 16.0918ZM9.27554 16.091L9.30591 16.5901L9.27554 16.091ZM8.84054 16.1175L8.81017 15.6184L8.84054 16.1175ZM8.40235 16.0443L8.58468 15.5787L8.40235 16.0443ZM7.96095 15.8714L7.77862 16.337L7.96095 15.8714ZM7.52551 15.8599L7.69025 16.332L7.52551 15.8599ZM7.09601 16.0098L6.93127 15.5377L7.09601 16.0098ZM6.7092 16.2268L6.39087 15.8412L6.7092 16.2268ZM6.53714 16.3689L6.21881 15.9833L6.53714 16.3689ZM6.36508 16.5109L6.6834 16.8965L6.36508 16.5109ZM5.97666 16.7157L5.83746 16.2355L5.97666 16.7157ZM5.54396 16.8411L5.68317 17.3213L5.54396 16.8411ZM5.20784 17.089L4.78799 16.8175L5.20784 17.089ZM5.08806 17.2742L4.66821 17.0027L5.08806 17.2742ZM4.96828 17.4594L5.38813 17.731L4.96828 17.4594ZM4.71112 17.8152L4.32175 17.5015L4.71112 17.8152ZM4.57374 17.9857L4.96311 18.2994L4.57374 17.9857ZM4.43636 18.1562L4.04699 17.8426L4.43636 18.1562ZM4.31324 19.0001L3.81335 19.0107L4.31324 19.0001ZM4.17883 19.4284L4.59184 19.7103L4.17883 19.4284ZM4.03967 19.6324L3.62666 19.3506L4.03967 19.6324ZM3.90051 19.8363L4.31351 20.1181L3.90051 19.8363ZM3.80345 20.2578L3.31257 20.3528L3.80345 20.2578ZM3.88766 20.6928L4.37855 20.5977L3.88766 20.6928ZM3.93669 21.1278L3.43694 21.1436L3.93669 21.1278ZM3.96808 21.8318L4.45774 21.7306L3.96808 21.8318ZM3.97872 21.8833L3.48905 21.9844L3.56237 22.3394L3.92252 22.3801L3.97872 21.8833ZM4.0124 21.8871L4.50854 21.9491L4.57129 21.4471L4.0686 21.3903L4.0124 21.8871ZM3.50386 21.9243C3.46961 22.1983 3.66398 22.4482 3.93799 22.4825C4.212 22.5167 4.46189 22.3224 4.49614 22.0483L3.50386 21.9243ZM15.9219 8.41117L15.4302 8.32079L15.9219 8.41117ZM15.8829 8.6236L16.3746 8.71398L15.8829 8.6236ZM15.6204 9.43449L15.152 9.25964L15.6204 9.43449ZM15.4254 9.80725L15.015 9.52162L15.4254 9.80725ZM15.3048 9.98053L15.7152 10.2662L15.3048 9.98053ZM15.1842 10.1538L15.5946 10.4394L15.1842 10.1538ZM14.9289 10.4901L15.3144 10.8085L14.9289 10.4901ZM14.6596 10.8161L15.045 11.1345L14.6596 10.8161ZM14.3511 11.1024L14.0618 10.6946L14.3511 11.1024ZM14.1773 11.2257L13.888 10.8179L14.1773 11.2257ZM14.0034 11.349L14.2927 11.7568L14.0034 11.349ZM13.6189 11.5067L13.6995 12.0002L13.6189 11.5067ZM13.1976 11.5755L13.117 11.082L13.1976 11.5755ZM12.7885 11.7016L12.9983 12.1555L12.7885 11.7016ZM12.3917 11.885L12.1819 11.4312L12.3917 11.885ZM11.9754 11.9713L11.9629 12.4711L11.9754 11.9713ZM11.5399 11.9603L11.5524 11.4605L11.5399 11.9603ZM11.1115 11.8962L10.9773 12.3778L11.1115 11.8962ZM10.6904 11.7788L10.5562 12.2604L10.6904 11.7788ZM10.2814 11.6248L10.0649 12.0755L10.2814 11.6248ZM9.5503 11.165L9.94425 10.8571L9.5503 11.165ZM9.41447 10.9912L9.02053 11.2991L9.41447 10.9912ZM9.27865 10.8175L9.6726 10.5096L9.27865 10.8175ZM9.04187 10.4588L9.4807 10.2192L9.04187 10.4588ZM8.83996 10.089L9.27879 9.84941L8.83996 10.089ZM8.61102 9.73126L8.20913 10.0287L8.61102 9.73126ZM8.35506 9.38544L8.75695 9.08798L8.35506 9.38544ZM8.17607 9.00248L8.66196 8.8845L8.17607 9.00248ZM8.12507 8.79242L8.61096 8.67445L8.12507 8.79242ZM8.07407 8.58237L8.55995 8.46439L8.07407 8.58237ZM8.07885 8.16179L8.56217 8.28986L8.07885 8.16179ZM8.19042 7.74074L7.70711 7.61266L8.19042 7.74074ZM8.21382 7.30269L8.70883 7.23221L8.21382 7.30269ZM8.14904 6.84763L7.65403 6.9181L8.14904 6.84763ZM8.59365 6.13236L8.23619 5.78277L8.59365 6.13236ZM8.8806 5.80646L8.487 5.49811L8.8806 5.80646ZM9.00855 5.64313L8.61495 5.33478L9.00855 5.64313ZM9.1365 5.4798L9.53011 5.78814L9.1365 5.4798ZM9.39293 5.1363L9.80003 5.42658L9.39293 5.1363ZM9.64987 4.77595L9.24277 4.48566L9.64987 4.77595ZM9.96352 4.46746L9.67873 4.05649L9.96352 4.46746ZM10.1487 4.33913L9.8639 3.92817L10.1487 4.33913ZM10.3339 4.21081L10.6187 4.62177L10.3339 4.21081ZM10.7381 4.02334L10.6077 3.54063L10.7381 4.02334ZM12.0604 4.03823L12.1993 3.55789L12.0604 4.03823ZM13.3579 4.19989L13.542 3.73503L13.3579 4.19989ZM13.562 4.28074L13.3779 4.7456L13.562 4.28074ZM13.7661 4.36159L13.9503 3.89673L13.7661 4.36159ZM14.1288 4.59335L13.784 4.95549L14.1288 4.59335ZM14.4458 4.89516L14.7906 4.53302L14.4458 4.89516ZM14.7433 5.20701L14.365 5.53385L14.7433 5.20701ZM15.2303 5.8893L15.7022 5.72401L15.2303 5.8893ZM15.5273 6.67663L15.9811 6.4666L15.5273 6.67663ZM15.6148 6.86565L15.1611 7.07568L15.6148 6.86565ZM15.7023 7.05466L16.1561 6.84462L15.7023 7.05466ZM15.8424 7.42934L16.3235 7.29318L15.8424 7.42934ZM15.8949 7.615L15.4138 7.75116L15.8949 7.615ZM15.9475 7.80066L15.4664 7.93682L15.9475 7.80066ZM15.961 8.19875L15.4692 8.10837L15.961 8.19875ZM20 21.9863L20.4961 21.9243L20.4837 21.8251L19.9876 21.8871L19.4915 21.9491L19.5039 22.0483L20 21.9863ZM19.9876 21.8871L20.4718 22.0118L20.5711 21.6264L20.0869 21.5017L19.6027 21.377L19.5034 21.7624L19.9876 21.8871ZM20.0869 21.5017L20.5711 21.6264C20.6425 21.3492 20.6848 21.0722 20.6508 20.8295L20.1557 20.8988L19.6605 20.9682C19.6671 21.0155 19.6636 21.1404 19.6027 21.377L20.0869 21.5017ZM20.1557 20.8988L20.6508 20.8295L20.6204 20.612L20.1252 20.6813L19.63 20.7507L19.6605 20.9682L20.1557 20.8988ZM20.1252 20.6813L20.6204 20.612L20.5899 20.3945L20.0947 20.4638L19.5996 20.5332L19.63 20.7507L20.1252 20.6813ZM20.0947 20.4638L20.5899 20.3945C20.5671 20.2317 20.5356 20.0705 20.4954 19.9112L20.0106 20.0334L19.5257 20.1556C19.5571 20.2802 19.5817 20.406 19.5996 20.5332L20.0947 20.4638ZM20.0106 20.0334L20.4954 19.9112L20.4417 19.6983L19.9569 19.8205L19.4721 19.9427L19.5257 20.1556L20.0106 20.0334ZM19.9569 19.8205L20.4417 19.6983L20.388 19.4853L19.9032 19.6076L19.4184 19.7298L19.4721 19.9427L19.9569 19.8205ZM19.9032 19.6076L20.388 19.4853C20.3511 19.3388 20.3127 19.1954 20.2729 19.0551L19.7919 19.1916L19.3109 19.3281C19.3479 19.4586 19.3838 19.5924 19.4184 19.7298L19.9032 19.6076ZM19.7919 19.1916L20.2729 19.0551L20.2153 18.8521L19.7343 18.9886L19.2533 19.1251L19.3109 19.3281L19.7919 19.1916ZM19.7343 18.9886L20.2153 18.8521L20.1577 18.6491L19.6767 18.7856L19.1957 18.9221L19.2533 19.1251L19.7343 18.9886ZM19.6767 18.7856L20.1577 18.6491C20.1245 18.5323 20.0963 18.4068 20.0732 18.2724L19.5804 18.3567L19.0876 18.4411C19.1161 18.6078 19.152 18.7682 19.1957 18.9221L19.6767 18.7856ZM19.5804 18.3567L20.0732 18.2724L20.0346 18.0465L19.5417 18.1309L19.0489 18.2153L19.0876 18.4411L19.5804 18.3567ZM19.5417 18.1309L20.0346 18.0465L19.9959 17.8207L19.5031 17.905L19.0102 17.9894L19.0489 18.2153L19.5417 18.1309ZM19.5031 17.905L19.9959 17.8207C19.9485 17.5439 19.8051 17.309 19.5775 17.142L19.2817 17.5452L18.986 17.9483C18.9986 17.9576 19.0019 17.963 19.0025 17.9641C19.0032 17.9652 19.0072 17.9717 19.0102 17.9894L19.5031 17.905ZM19.2817 17.5452L19.5775 17.142L19.3948 17.008L19.0991 17.4112L18.8033 17.8143L18.986 17.9483L19.2817 17.5452ZM19.0991 17.4112L19.3948 17.008L19.2122 16.874L18.9164 17.2771L18.6206 17.6803L18.8033 17.8143L19.0991 17.4112ZM18.9164 17.2771L19.2122 16.874C19.0892 16.7838 18.9693 16.6966 18.8524 16.6126L18.5605 17.0185L18.2686 17.4245C18.3827 17.5065 18.5001 17.5918 18.6206 17.6803L18.9164 17.2771ZM18.5605 17.0185L18.8524 16.6126L18.6792 16.488L18.3873 16.8939L18.0953 17.2999L18.2686 17.4245L18.5605 17.0185ZM18.3873 16.8939L18.6792 16.488L18.506 16.3634L18.214 16.7694L17.9221 17.1753L18.0953 17.2999L18.3873 16.8939ZM18.214 16.7694L18.506 16.3634C18.3681 16.2643 18.2231 16.1772 18.071 16.1021L17.8498 16.5506L17.6286 16.999C17.7312 17.0496 17.8289 17.1083 17.9221 17.1753L18.214 16.7694ZM17.8498 16.5506L18.071 16.1021L17.88 16.0079L17.6588 16.4564L17.4376 16.9048L17.6286 16.999L17.8498 16.5506ZM17.6588 16.4564L17.88 16.0079L17.689 15.9137L17.4678 16.3622L17.2466 16.8106L17.4376 16.9048L17.6588 16.4564ZM17.4678 16.3622L17.689 15.9137C17.5056 15.8233 17.3105 15.769 17.1067 15.7521L17.0654 16.2504L17.024 16.7487C17.1022 16.7552 17.1754 16.7754 17.2466 16.8106L17.4678 16.3622ZM17.0654 16.2504L17.1067 15.7521L16.8952 15.7346L16.8539 16.2329L16.8126 16.7311L17.024 16.7487L17.0654 16.2504ZM16.8539 16.2329L16.8952 15.7346L16.6838 15.717L16.6424 16.2153L16.6011 16.7136L16.8126 16.7311L16.8539 16.2329ZM16.6424 16.2153L16.6838 15.717C16.5677 15.7074 16.4507 15.689 16.3325 15.6614L16.219 16.1483L16.1054 16.6353C16.2699 16.6736 16.4352 16.6998 16.6011 16.7136L16.6424 16.2153ZM16.219 16.1483L16.3325 15.6614L16.1205 15.612L16.007 16.0989L15.8935 16.5858L16.1054 16.6353L16.219 16.1483ZM16.007 16.0989L16.1205 15.612L15.9086 15.5625L15.795 16.0495L15.6815 16.5364L15.8935 16.5858L16.007 16.0989ZM15.795 16.0495L15.9086 15.5625C15.7346 15.522 15.5581 15.4992 15.3795 15.4942L15.3655 15.994L15.3515 16.4938C15.463 16.4969 15.5728 16.5111 15.6815 16.5364L15.795 16.0495ZM15.3655 15.994L15.3795 15.4942L15.162 15.4881L15.148 15.9879L15.134 16.4877L15.3515 16.4938L15.3655 15.994ZM15.148 15.9879L15.162 15.4881L14.9445 15.482L14.9305 15.9818L14.9165 16.4816L15.134 16.4877L15.148 15.9879ZM14.9305 15.9818L14.9445 15.482C14.8148 15.4783 14.685 15.4688 14.5549 15.4532L14.4955 15.9497L14.4361 16.4461C14.5961 16.4653 14.7563 16.4771 14.9165 16.4816L14.9305 15.9818ZM14.4955 15.9497L14.5549 15.4532L14.3374 15.4272L14.278 15.9236L14.2186 16.4201L14.4361 16.4461L14.4955 15.9497ZM14.278 15.9236L14.3374 15.4272L14.1199 15.4012L14.0605 15.8976L14.0011 16.3941L14.2186 16.4201L14.278 15.9236ZM14.0605 15.8976L14.1199 15.4012C13.9372 15.3793 13.754 15.3784 13.5711 15.3984L13.6255 15.8954L13.68 16.3925C13.7871 16.3807 13.8939 16.3812 14.0011 16.3941L14.0605 15.8976ZM13.6255 15.8954L13.5711 15.3984L13.3536 15.4222L13.408 15.9192L13.4625 16.4163L13.68 16.3925L13.6255 15.8954ZM13.408 15.9192L13.3536 15.4222L13.1361 15.446L13.1905 15.9431L13.245 16.4401L13.4625 16.4163L13.408 15.9192ZM13.1905 15.9431L13.1361 15.446C12.9667 15.4646 12.7982 15.4956 12.6307 15.5388L12.7555 16.023L12.8804 16.5071C13.0029 16.4756 13.1244 16.4533 13.245 16.4401L13.1905 15.9431ZM12.7555 16.023L12.6307 15.5388L12.4132 15.5949L12.538 16.0791L12.6629 16.5632L12.8804 16.5071L12.7555 16.023ZM12.538 16.0791L12.4132 15.5949L12.1957 15.651L12.3205 16.1352L12.4454 16.6193L12.6629 16.5632L12.538 16.0791ZM12.3205 16.1352L12.1957 15.651C12.0977 15.6763 12.0029 15.6859 11.9095 15.6814L11.8855 16.1808L11.8615 16.6802C12.0582 16.6897 12.2534 16.6688 12.4454 16.6193L12.3205 16.1352ZM11.8855 16.1808L11.9095 15.6814L11.692 15.6709L11.668 16.1703L11.644 16.6698L11.8615 16.6802L11.8855 16.1808ZM11.668 16.1703L11.692 15.6709L11.4745 15.6605L11.4505 16.1599L11.4265 16.6593L11.644 16.6698L11.668 16.1703ZM11.4505 16.1599L11.4745 15.6605C11.3246 15.6533 11.1746 15.6483 11.0246 15.6456L11.0155 16.1455L11.0065 16.6454C11.1465 16.648 11.2865 16.6526 11.4265 16.6593L11.4505 16.1599ZM11.0155 16.1455L11.0246 15.6456L10.8071 15.6417L10.798 16.1416L10.789 16.6415L11.0065 16.6454L11.0155 16.1455ZM10.798 16.1416L10.8071 15.6417L10.5896 15.6377L10.5805 16.1377L10.5715 16.6376L10.789 16.6415L10.798 16.1416ZM10.5805 16.1377L10.5896 15.6377C10.4523 15.6353 10.315 15.6296 10.1776 15.6208L10.1455 16.1197L10.1135 16.6187C10.2661 16.6285 10.4188 16.6348 10.5715 16.6376L10.5805 16.1377ZM10.1455 16.1197L10.1776 15.6208L9.96013 15.6068L9.92804 16.1057L9.89595 16.6047L10.1135 16.6187L10.1455 16.1197ZM9.92804 16.1057L9.96013 15.6068L9.74263 15.5928L9.71054 16.0918L9.67845 16.5907L9.89595 16.6047L9.92804 16.1057ZM9.71054 16.0918L9.74263 15.5928C9.57684 15.5821 9.41098 15.5818 9.24517 15.5919L9.27554 16.091L9.30591 16.5901C9.43011 16.5825 9.55425 16.5827 9.67845 16.5907L9.71054 16.0918ZM9.27554 16.091L9.24517 15.5919L9.02767 15.6052L9.05804 16.1042L9.08841 16.6033L9.30591 16.5901L9.27554 16.091ZM9.05804 16.1042L9.02767 15.6052L8.81017 15.6184L8.84054 16.1175L8.87091 16.6166L9.08841 16.6033L9.05804 16.1042ZM8.84054 16.1175L8.81017 15.6184C8.74384 15.6224 8.6702 15.6122 8.58468 15.5787L8.40235 16.0443L8.22001 16.5099C8.42876 16.5916 8.64724 16.6302 8.87091 16.6166L8.84054 16.1175ZM8.40235 16.0443L8.58468 15.5787L8.36398 15.4923L8.18165 15.9579L7.99932 16.4234L8.22001 16.5099L8.40235 16.0443ZM8.18165 15.9579L8.36398 15.4923L8.14329 15.4059L7.96095 15.8714L7.77862 16.337L7.99932 16.4234L8.18165 15.9579ZM7.96095 15.8714L8.14329 15.4059C7.89005 15.3067 7.62175 15.2968 7.36077 15.3879L7.52551 15.8599L7.69025 16.332C7.71559 16.3232 7.73759 16.3209 7.77862 16.337L7.96095 15.8714ZM7.52551 15.8599L7.36077 15.3879L7.14602 15.4628L7.31076 15.9349L7.4755 16.407L7.69025 16.332L7.52551 15.8599ZM7.31076 15.9349L7.14602 15.4628L6.93127 15.5377L7.09601 16.0098L7.26075 16.4819L7.4755 16.407L7.31076 15.9349ZM7.09601 16.0098L6.93127 15.5377C6.73329 15.6068 6.55214 15.7081 6.39087 15.8412L6.7092 16.2268L7.02753 16.6124C7.09567 16.5561 7.1724 16.5127 7.26075 16.4819L7.09601 16.0098ZM6.7092 16.2268L6.39087 15.8412L6.21881 15.9833L6.53714 16.3689L6.85547 16.7544L7.02753 16.6124L6.7092 16.2268ZM6.53714 16.3689L6.21881 15.9833L6.04675 16.1253L6.36508 16.5109L6.6834 16.8965L6.85547 16.7544L6.53714 16.3689ZM6.36508 16.5109L6.04675 16.1253C5.98518 16.1762 5.91679 16.2125 5.83746 16.2355L5.97666 16.7157L6.11587 17.1959C6.325 17.1353 6.51556 17.0351 6.6834 16.8965L6.36508 16.5109ZM5.97666 16.7157L5.83746 16.2355L5.62111 16.2982L5.76031 16.7784L5.89952 17.2586L6.11587 17.1959L5.97666 16.7157ZM5.76031 16.7784L5.62111 16.2982L5.40476 16.3609L5.54396 16.8411L5.68317 17.3213L5.89952 17.2586L5.76031 16.7784ZM5.54396 16.8411L5.40476 16.3609C5.14761 16.4354 4.93473 16.5906 4.78799 16.8175L5.20784 17.089L5.62768 17.3606C5.64065 17.3405 5.65185 17.3304 5.68317 17.3213L5.54396 16.8411ZM5.20784 17.089L4.78799 16.8175L4.66821 17.0027L5.08806 17.2742L5.5079 17.5458L5.62768 17.3606L5.20784 17.089ZM5.08806 17.2742L4.66821 17.0027L4.54843 17.1879L4.96828 17.4594L5.38813 17.731L5.5079 17.5458L5.08806 17.2742ZM4.96828 17.4594L4.54843 17.1879C4.47794 17.2969 4.40238 17.4014 4.32175 17.5015L4.71112 17.8152L5.10049 18.1288C5.20304 18.0015 5.29892 17.8689 5.38813 17.731L4.96828 17.4594ZM4.71112 17.8152L4.32175 17.5015L4.18437 17.672L4.57374 17.9857L4.96311 18.2994L5.10049 18.1288L4.71112 17.8152ZM4.57374 17.9857L4.18437 17.672L4.04699 17.8426L4.43636 18.1562L4.82573 18.4699L4.96311 18.2994L4.57374 17.9857ZM4.43636 18.1562L4.04699 17.8426C3.87953 18.0504 3.79825 18.2977 3.80384 18.5618L4.30373 18.5512L4.80362 18.5406C4.80288 18.5055 4.81002 18.4894 4.82573 18.4699L4.43636 18.1562ZM4.30373 18.5512L3.80384 18.5618L3.8086 18.7862L4.30848 18.7756L4.80837 18.765L4.80362 18.5406L4.30373 18.5512ZM4.30848 18.7756L3.8086 18.7862L3.81335 19.0107L4.31324 19.0001L4.81312 18.9895L4.80837 18.765L4.30848 18.7756ZM4.31324 19.0001L3.81335 19.0107C3.81409 19.0457 3.80603 19.0877 3.76582 19.1466L4.17883 19.4284L4.59184 19.7103C4.73717 19.4973 4.81872 19.2536 4.81312 18.9895L4.31324 19.0001ZM4.17883 19.4284L3.76582 19.1466L3.62666 19.3506L4.03967 19.6324L4.45268 19.9142L4.59184 19.7103L4.17883 19.4284ZM4.03967 19.6324L3.62666 19.3506L3.4875 19.5545L3.90051 19.8363L4.31351 20.1181L4.45268 19.9142L4.03967 19.6324ZM3.90051 19.8363L3.4875 19.5545C3.32896 19.7868 3.25613 20.0612 3.31257 20.3528L3.80345 20.2578L4.29434 20.1627C4.29363 20.1591 4.29367 20.1575 4.29367 20.1573C4.29367 20.1573 4.29366 20.157 4.29391 20.1559C4.29428 20.1543 4.29729 20.1419 4.31351 20.1181L3.90051 19.8363ZM3.80345 20.2578L3.31257 20.3528L3.35467 20.5703L3.84556 20.4753L4.33644 20.3802L4.29434 20.1627L3.80345 20.2578ZM3.84556 20.4753L3.35467 20.5703L3.39678 20.7878L3.88766 20.6928L4.37855 20.5977L4.33644 20.3802L3.84556 20.4753ZM3.88766 20.6928L3.39678 20.7878C3.41989 20.9072 3.43319 21.0257 3.43694 21.1436L3.93669 21.1278L4.43643 21.1119C4.43096 20.9398 4.41158 20.7684 4.37855 20.5977L3.88766 20.6928ZM3.93669 21.1278L3.43694 21.1436L3.44386 21.3611L3.9436 21.3453L4.44335 21.3294L4.43643 21.1119L3.93669 21.1278ZM3.9436 21.3453L3.44386 21.3611L3.45077 21.5786L3.95052 21.5628L4.45027 21.5469L4.44335 21.3294L3.9436 21.3453ZM3.95052 21.5628L3.45077 21.5786C3.45484 21.7064 3.46058 21.8466 3.47841 21.9329L3.96808 21.8318L4.45774 21.7306C4.46095 21.7462 4.46129 21.7533 4.46029 21.7437C4.45956 21.7368 4.45851 21.7247 4.45731 21.7062C4.45489 21.6692 4.45249 21.6167 4.45027 21.5469L3.95052 21.5628ZM3.96808 21.8318L3.47841 21.9329L3.48905 21.9844L3.97872 21.8833L4.46838 21.7822L4.45774 21.7306L3.96808 21.8318ZM3.97872 21.8833L3.92252 22.3801L3.95621 22.3839L4.0124 21.8871L4.0686 21.3903L4.03492 21.3865L3.97872 21.8833ZM4.0124 21.8871L3.51626 21.8251L3.50386 21.9243L4 21.9863L4.49614 22.0483L4.50854 21.9491L4.0124 21.8871ZM15.9219 8.41117L15.4302 8.32079L15.3911 8.53321L15.8829 8.6236L16.3746 8.71398L16.4137 8.50156L15.9219 8.41117ZM15.8829 8.6236L15.3911 8.53321C15.3703 8.64646 15.3402 8.75548 15.3009 8.86066L15.7694 9.03551L16.2378 9.21036C16.2978 9.04956 16.3434 8.88397 16.3746 8.71398L15.8829 8.6236ZM15.7694 9.03551L15.3009 8.86066L15.2265 9.06015L15.6949 9.235L16.1633 9.40985L16.2378 9.21036L15.7694 9.03551ZM15.6949 9.235L15.2265 9.06015L15.152 9.25964L15.6204 9.43449L16.0889 9.60934L16.1633 9.40985L15.6949 9.235ZM15.6204 9.43449L15.152 9.25964C15.1169 9.35377 15.0713 9.44076 15.015 9.52162L15.4254 9.80725L15.8358 10.0929C15.9403 9.94272 16.0247 9.7812 16.0889 9.60934L15.6204 9.43449ZM15.4254 9.80725L15.015 9.52162L14.8944 9.6949L15.3048 9.98053L15.7152 10.2662L15.8358 10.0929L15.4254 9.80725ZM15.3048 9.98053L14.8944 9.6949L14.7738 9.86817L15.1842 10.1538L15.5946 10.4394L15.7152 10.2662L15.3048 9.98053ZM15.1842 10.1538L14.7738 9.86817C14.7013 9.97239 14.6245 10.0735 14.5435 10.1716L14.9289 10.4901L15.3144 10.8085C15.4129 10.6893 15.5063 10.5662 15.5946 10.4394L15.1842 10.1538ZM14.9289 10.4901L14.5435 10.1716L14.4088 10.3346L14.7942 10.6531L15.1797 10.9715L15.3144 10.8085L14.9289 10.4901ZM14.7942 10.6531L14.4088 10.3346L14.2741 10.4976L14.6596 10.8161L15.045 11.1345L15.1797 10.9715L14.7942 10.6531ZM14.6596 10.8161L14.2741 10.4976C14.2126 10.5721 14.1421 10.6376 14.0618 10.6946L14.3511 11.1024L14.6404 11.5102C14.7918 11.4028 14.927 11.2774 15.045 11.1345L14.6596 10.8161ZM14.3511 11.1024L14.0618 10.6946L13.888 10.8179L14.1773 11.2257L14.4665 11.6335L14.6404 11.5102L14.3511 11.1024ZM14.1773 11.2257L13.888 10.8179L13.7141 10.9412L14.0034 11.349L14.2927 11.7568L14.4665 11.6335L14.1773 11.2257ZM14.0034 11.349L13.7141 10.9412C13.6605 10.9792 13.6037 11.0026 13.5383 11.0132L13.6189 11.5067L13.6995 12.0002C13.915 11.965 14.1146 11.8832 14.2927 11.7568L14.0034 11.349ZM13.6189 11.5067L13.5383 11.0132L13.3277 11.0476L13.4083 11.5411L13.4889 12.0346L13.6995 12.0002L13.6189 11.5067ZM13.4083 11.5411L13.3277 11.0476L13.117 11.082L13.1976 11.5755L13.2782 12.069L13.4889 12.0346L13.4083 11.5411ZM13.1976 11.5755L13.117 11.082C12.9309 11.1124 12.7511 11.1681 12.5788 11.2477L12.7885 11.7016L12.9983 12.1555C13.0905 12.1129 13.1835 12.0844 13.2782 12.069L13.1976 11.5755ZM12.7885 11.7016L12.5788 11.2477L12.3803 11.3394L12.5901 11.7933L12.7998 12.2472L12.9983 12.1555L12.7885 11.7016ZM12.5901 11.7933L12.3803 11.3394L12.1819 11.4312L12.3917 11.885L12.6014 12.3389L12.7998 12.2472L12.5901 11.7933ZM12.3917 11.885L12.1819 11.4312C12.1189 11.4602 12.0562 11.4731 11.988 11.4714L11.9754 11.9713L11.9629 12.4711C12.185 12.4767 12.3998 12.4321 12.6014 12.3389L12.3917 11.885ZM11.9754 11.9713L11.988 11.4714L11.7702 11.466L11.7577 11.9658L11.7451 12.4657L11.9629 12.4711L11.9754 11.9713ZM11.7577 11.9658L11.7702 11.466L11.5524 11.4605L11.5399 11.9603L11.5273 12.4602L11.7451 12.4657L11.7577 11.9658ZM11.5399 11.9603L11.5524 11.4605C11.4485 11.4579 11.3466 11.4427 11.2458 11.4146L11.1115 11.8962L10.9773 12.3778C11.1572 12.428 11.3408 12.4555 11.5273 12.4602L11.5399 11.9603ZM11.1115 11.8962L11.2458 11.4146L11.0352 11.3559L10.901 11.8375L10.7667 12.3191L10.9773 12.3778L11.1115 11.8962ZM10.901 11.8375L11.0352 11.3559L10.8247 11.2972L10.6904 11.7788L10.5562 12.2604L10.7667 12.3191L10.901 11.8375ZM10.6904 11.7788L10.8247 11.2972C10.7128 11.266 10.604 11.225 10.4979 11.1741L10.2814 11.6248L10.0649 12.0755C10.2235 12.1516 10.3873 12.2134 10.5562 12.2604L10.6904 11.7788ZM10.2814 11.6248L10.4979 11.1741L10.2995 11.0788L10.083 11.5294L9.86647 11.9801L10.0649 12.0755L10.2814 11.6248ZM10.083 11.5294L10.2995 11.0788L10.1011 10.9834L9.88455 11.4341L9.66804 11.8848L9.86647 11.9801L10.083 11.5294ZM9.88455 11.4341L10.1011 10.9834C10.0383 10.9533 9.98751 10.9125 9.94425 10.8571L9.5503 11.165L9.15635 11.4729C9.29418 11.6493 9.46627 11.7879 9.66804 11.8848L9.88455 11.4341ZM9.5503 11.165L9.94425 10.8571L9.80842 10.6833L9.41447 10.9912L9.02053 11.2991L9.15635 11.4729L9.5503 11.165ZM9.41447 10.9912L9.80842 10.6833L9.6726 10.5096L9.27865 10.8175L8.8847 11.1254L9.02053 11.2991L9.41447 10.9912ZM9.27865 10.8175L9.6726 10.5096C9.59807 10.4142 9.53434 10.3174 9.4807 10.2192L9.04187 10.4588L8.60304 10.6984C8.68402 10.8467 8.77814 10.989 8.8847 11.1254L9.27865 10.8175ZM9.04187 10.4588L9.4807 10.2192L9.37975 10.0343L8.94092 10.2739L8.50208 10.5136L8.60304 10.6984L9.04187 10.4588ZM8.94092 10.2739L9.37975 10.0343L9.27879 9.84941L8.83996 10.089L8.40113 10.3287L8.50208 10.5136L8.94092 10.2739ZM8.83996 10.089L9.27879 9.84941C9.20028 9.70564 9.11156 9.56709 9.01291 9.4338L8.61102 9.73126L8.20913 10.0287C8.28112 10.126 8.34503 10.226 8.40113 10.3287L8.83996 10.089ZM8.61102 9.73126L9.01291 9.4338L8.88493 9.26089L8.48304 9.55835L8.08115 9.85582L8.20913 10.0287L8.61102 9.73126ZM8.48304 9.55835L8.88493 9.26089L8.75695 9.08798L8.35506 9.38544L7.95317 9.68291L8.08115 9.85582L8.48304 9.55835ZM8.35506 9.38544L8.75695 9.08798C8.71152 9.0266 8.68029 8.96003 8.66196 8.8845L8.17607 9.00248L7.69019 9.12045C7.73986 9.325 7.82796 9.51374 7.95317 9.68291L8.35506 9.38544ZM8.17607 9.00248L8.66196 8.8845L8.61096 8.67445L8.12507 8.79242L7.63919 8.9104L7.69019 9.12045L8.17607 9.00248ZM8.12507 8.79242L8.61096 8.67445L8.55995 8.46439L8.07407 8.58237L7.58819 8.70034L7.63919 8.9104L8.12507 8.79242ZM8.07407 8.58237L8.55995 8.46439C8.54576 8.40594 8.54615 8.35032 8.56217 8.28986L8.07885 8.16179L7.59553 8.03371C7.53718 8.25395 7.53438 8.47872 7.58819 8.70034L8.07407 8.58237ZM8.07885 8.16179L8.56217 8.28986L8.61796 8.07933L8.13464 7.95126L7.65132 7.82319L7.59553 8.03371L8.07885 8.16179ZM8.13464 7.95126L8.61796 8.07933L8.67374 7.86881L8.19042 7.74074L7.70711 7.61266L7.65132 7.82319L8.13464 7.95126ZM8.19042 7.74074L8.67374 7.86881C8.72903 7.66019 8.73933 7.44647 8.70883 7.23221L8.21382 7.30269L7.71881 7.37316C7.7315 7.46227 7.72621 7.54058 7.70711 7.61266L8.19042 7.74074ZM8.21382 7.30269L8.70883 7.23221L8.67644 7.00469L8.18143 7.07516L7.68642 7.14563L7.71881 7.37316L8.21382 7.30269ZM8.18143 7.07516L8.67644 7.00469L8.64404 6.77716L8.14904 6.84763L7.65403 6.9181L7.68642 7.14563L8.18143 7.07516ZM8.14904 6.84763L8.64404 6.77716C8.64327 6.77169 8.64371 6.77107 8.64347 6.77441C8.64321 6.77794 8.64233 6.78373 8.64007 6.79069C8.63781 6.79766 8.635 6.80322 8.63275 6.80684C8.6306 6.81029 8.63004 6.81026 8.63311 6.80712L8.27565 6.45752L7.91818 6.10793C7.70222 6.32875 7.61081 6.61455 7.65403 6.9181L8.14904 6.84763ZM8.27565 6.45752L8.63311 6.80712L8.79211 6.64454L8.43465 6.29494L8.07718 5.94535L7.91818 6.10793L8.27565 6.45752ZM8.43465 6.29494L8.79211 6.64454L8.95111 6.48196L8.59365 6.13236L8.23619 5.78277L8.07718 5.94535L8.43465 6.29494ZM8.59365 6.13236L8.95111 6.48196C9.06871 6.36173 9.17661 6.23938 9.27421 6.1148L8.8806 5.80646L8.487 5.49811C8.41399 5.5913 8.3306 5.68623 8.23619 5.78277L8.59365 6.13236ZM8.8806 5.80646L9.27421 6.1148L9.40216 5.95147L9.00855 5.64313L8.61495 5.33478L8.487 5.49811L8.8806 5.80646ZM9.00855 5.64313L9.40216 5.95147L9.53011 5.78814L9.1365 5.4798L8.7429 5.17145L8.61495 5.33478L9.00855 5.64313ZM9.1365 5.4798L9.53011 5.78814C9.62034 5.67296 9.7103 5.55242 9.80003 5.42658L9.39293 5.1363L8.98582 4.84601C8.90425 4.9604 8.82327 5.06886 8.7429 5.17145L9.1365 5.4798ZM9.39293 5.1363L9.80003 5.42658L9.9285 5.24641L9.5214 4.95612L9.1143 4.66584L8.98582 4.84601L9.39293 5.1363ZM9.5214 4.95612L9.9285 5.24641L10.057 5.06624L9.64987 4.77595L9.24277 4.48566L9.1143 4.66584L9.5214 4.95612ZM9.64987 4.77595L10.057 5.06624C10.1085 4.99397 10.1714 4.93171 10.2483 4.87842L9.96352 4.46746L9.67873 4.05649C9.50872 4.1743 9.36253 4.31771 9.24277 4.48566L9.64987 4.77595ZM9.96352 4.46746L10.2483 4.87842L10.4335 4.7501L10.1487 4.33913L9.8639 3.92817L9.67873 4.05649L9.96352 4.46746ZM10.1487 4.33913L10.4335 4.7501L10.6187 4.62177L10.3339 4.21081L10.0491 3.79984L9.8639 3.92817L10.1487 4.33913ZM10.3339 4.21081L10.6187 4.62177C10.6948 4.56902 10.7772 4.53068 10.8684 4.50605L10.7381 4.02334L10.6077 3.54063C10.4069 3.59486 10.2199 3.68149 10.0491 3.79984L10.3339 4.21081ZM10.7381 4.02334L10.8684 4.50605L11.0874 4.4469L10.9571 3.96419L10.8267 3.48148L10.6077 3.54063L10.7381 4.02334ZM10.9571 3.96419L11.0874 4.4469L11.3065 4.38776L11.1761 3.90505L11.0458 3.42234L10.8267 3.48148L10.9571 3.96419ZM11.1761 3.90505L11.3065 4.38776C11.3626 4.3726 11.4164 4.37253 11.478 4.39034L11.6169 3.91001L11.7558 3.42968C11.5217 3.36202 11.2817 3.35864 11.0458 3.42234L11.1761 3.90505ZM11.6169 3.91001L11.478 4.39034L11.6998 4.45445L11.8387 3.97412L11.9775 3.49379L11.7558 3.42968L11.6169 3.91001ZM11.8387 3.97412L11.6998 4.45445L11.9215 4.51856L12.0604 4.03823L12.1993 3.55789L11.9775 3.49379L11.8387 3.97412ZM12.0604 4.03823L11.9215 4.51856C12.109 4.57273 12.2989 4.60275 12.4905 4.60642L12.5001 4.10651L12.5097 3.6066C12.4107 3.6047 12.3075 3.58919 12.1993 3.55789L12.0604 4.03823ZM12.5001 4.10651L12.4905 4.60642L12.7084 4.61059L12.718 4.11068L12.7276 3.61078L12.5097 3.6066L12.5001 4.10651ZM12.718 4.11068L12.7084 4.61059L12.9263 4.61477L12.9359 4.11486L12.9455 3.61495L12.7276 3.61078L12.718 4.11068ZM12.9359 4.11486L12.9263 4.61477C13.0113 4.6164 13.0929 4.63271 13.1738 4.66475L13.3579 4.19989L13.542 3.73503C13.3508 3.65926 13.151 3.61889 12.9455 3.61495L12.9359 4.11486ZM13.3579 4.19989L13.1738 4.66475L13.3779 4.7456L13.562 4.28074L13.7462 3.81588L13.542 3.73503L13.3579 4.19989ZM13.562 4.28074L13.3779 4.7456L13.582 4.82645L13.7661 4.36159L13.9503 3.89673L13.7462 3.81588L13.562 4.28074ZM13.7661 4.36159L13.582 4.82645C13.6586 4.85681 13.725 4.89925 13.784 4.95549L14.1288 4.59335L14.4735 4.23121C14.3212 4.08624 14.1458 3.97418 13.9503 3.89673L13.7661 4.36159ZM14.1288 4.59335L13.784 4.95549L13.9425 5.10639L14.2873 4.74425L14.632 4.38211L14.4735 4.23121L14.1288 4.59335ZM14.2873 4.74425L13.9425 5.10639L14.1011 5.2573L14.4458 4.89516L14.7906 4.53302L14.632 4.38211L14.2873 4.74425ZM14.4458 4.89516L14.1011 5.2573C14.1953 5.34701 14.2832 5.43921 14.365 5.53385L14.7433 5.20701L15.1217 4.88018C15.0181 4.76022 14.9077 4.64451 14.7906 4.53302L14.4458 4.89516ZM14.7433 5.20701L14.365 5.53385L14.504 5.6948L14.8824 5.36796L15.2608 5.04113L15.1217 4.88018L14.7433 5.20701ZM14.8824 5.36796L14.504 5.6948L14.643 5.85575L15.0214 5.52891L15.3998 5.20208L15.2608 5.04113L14.8824 5.36796ZM15.0214 5.52891L14.643 5.85575C14.6949 5.91586 14.7327 5.98126 14.7584 6.0546L15.2303 5.8893L15.7022 5.72401C15.6347 5.53142 15.5332 5.35657 15.3998 5.20208L15.0214 5.52891ZM15.2303 5.8893L14.7584 6.0546L14.8282 6.25404L15.3001 6.08874L15.772 5.92345L15.7022 5.72401L15.2303 5.8893ZM15.3001 6.08874L14.8282 6.25404L14.8981 6.45348L15.37 6.28818L15.8419 6.12289L15.772 5.92345L15.3001 6.08874ZM15.37 6.28818L14.8981 6.45348C14.9499 6.60141 15.0084 6.74584 15.0736 6.88667L15.5273 6.67663L15.9811 6.4666C15.9296 6.35542 15.8832 6.24087 15.8419 6.12289L15.37 6.28818ZM15.5273 6.67663L15.0736 6.88667L15.1611 7.07568L15.6148 6.86565L16.0686 6.65561L15.9811 6.4666L15.5273 6.67663ZM15.6148 6.86565L15.1611 7.07568L15.2486 7.2647L15.7023 7.05466L16.1561 6.84462L16.0686 6.65561L15.6148 6.86565ZM15.7023 7.05466L15.2486 7.2647C15.2967 7.3687 15.3339 7.46893 15.3613 7.56549L15.8424 7.42934L16.3235 7.29318C16.2807 7.14219 16.2246 6.99263 16.1561 6.84462L15.7023 7.05466ZM15.8424 7.42934L15.3613 7.56549L15.4138 7.75116L15.8949 7.615L16.376 7.47884L16.3235 7.29318L15.8424 7.42934ZM15.8949 7.615L15.4138 7.75116L15.4664 7.93682L15.9475 7.80066L16.4286 7.66451L16.376 7.47884L15.8949 7.615ZM15.9475 7.80066L15.4664 7.93682C15.4781 7.97851 15.483 8.03301 15.4692 8.10837L15.961 8.19875L16.4527 8.28913C16.4909 8.08126 16.4868 7.87037 16.4286 7.66451L15.9475 7.80066ZM15.961 8.19875L15.4692 8.10837L15.4302 8.32079L15.9219 8.41117L16.4137 8.50156L16.4527 8.28913L15.961 8.19875Z" fill="#1E1E1E"/>
</g>
</svg>
