<svg width="25" height="25" viewBox="0 0 25 25" fill="none" xmlns="http://www.w3.org/2000/svg">
<g id="IG" clip-path="url(#clip0_536_167)">
<path id="Vector" d="M12.6482 17.2148C15.4096 17.2148 17.6482 14.9763 17.6482 12.2148C17.6482 9.45342 15.4096 7.21484 12.6482 7.21484C9.88677 7.21484 7.64819 9.45342 7.64819 12.2148C7.64819 14.9763 9.88677 17.2148 12.6482 17.2148Z" fill="#E8E8E8"/>
<path id="Vector_2" d="M7.72976 7.23903C9.05188 5.91691 10.8097 5.18097 12.6794 5.18097C14.5492 5.18097 16.307 5.92078 17.6291 7.24291C18.468 8.08178 19.0673 9.08984 19.3936 10.2148H24.6482V3.15234C24.6482 1.49547 23.3676 0.214844 21.7107 0.214844H3.71069C2.05382 0.214844 0.648193 1.49547 0.648193 3.15234V10.2148H5.96519C6.29157 9.08984 6.89088 8.07791 7.72976 7.23903ZM22.6482 5.41484C22.6482 5.85666 22.2901 6.21484 21.8482 6.21484H19.4482C19.0064 6.21484 18.6482 5.85672 18.6482 5.41484V3.01484C18.6482 2.57303 19.0063 2.21484 19.4482 2.21484H21.8482C22.29 2.21484 22.6482 2.57297 22.6482 3.01484V5.41484ZM17.6291 17.1385C16.307 18.4607 14.5492 19.181 12.6794 19.181C10.8097 19.181 9.05188 18.4646 7.72976 17.1425C6.41007 15.8228 5.68232 14.0273 5.67957 12.2148H0.648193V21.1523C0.648193 22.8092 2.05382 24.2148 3.71069 24.2148H21.7107C23.3676 24.2148 24.6482 22.8092 24.6482 21.1523V12.2148H19.6793C19.6766 14.0273 18.9489 15.8188 17.6291 17.1385Z" fill="#E8E8E8"/>
</g>
<defs>
<clipPath id="clip0_536_167">
<rect width="24" height="24" fill="white" transform="translate(0.648193 0.214844)"/>
</clipPath>
</defs>
</svg>
