<svg width="25" height="25" viewBox="0 0 25 25" fill="none" xmlns="http://www.w3.org/2000/svg">
<g id="line (1) 1" clip-path="url(#clip0_536_170)">
<path id="Vector" d="M11.883 24.2138C11.8765 24.2148 11.8682 24.2148 11.8608 24.2148C11.7897 24.2148 11.7233 24.1908 11.6679 24.1508L11.6688 24.1518C11.4371 23.9548 11.522 23.4758 11.6199 22.9208C11.6919 22.6318 11.7334 22.3008 11.7334 21.9588C11.7334 21.8108 11.726 21.6648 11.7103 21.5208L11.7122 21.5388C11.6217 21.0578 11.2562 20.6928 10.8039 20.6438H10.7993C10.6488 20.6248 10.5233 20.6078 10.4051 20.5898C8.96419 20.3688 7.66173 19.9378 6.45527 19.3228L6.53927 19.3608C5.89773 19.0348 5.35496 18.6978 4.83896 18.3188L4.88235 18.3488C4.34604 17.9568 3.87804 17.5498 3.44327 17.1048L3.44881 17.1098C3.02419 16.6758 2.63927 16.2068 2.29404 15.7038L2.27558 15.6748C1.95619 15.2108 1.66265 14.6858 1.41804 14.1308L1.39496 14.0738C0.92327 13.0218 0.648193 11.7858 0.648193 10.4808C0.648193 9.74682 0.734963 9.03482 0.89927 8.35582L0.88727 8.41382C1.0645 7.67982 1.29989 7.03882 1.59804 6.43982L1.57681 6.48682C1.90635 5.82582 2.26912 5.25582 2.68265 4.73282L2.6725 4.74582C3.11096 4.18582 3.58358 3.68682 4.09681 3.23982L4.11712 3.22282C4.6285 2.77682 5.20173 2.36182 5.80727 2.00182L5.86819 1.96882C6.43312 1.63082 7.09681 1.31082 7.78727 1.05282L7.87865 1.02282C8.50173 0.78482 9.24942 0.57682 10.0183 0.43682L10.1005 0.42482C10.8177 0.29182 11.643 0.21582 12.4857 0.21582C13.3285 0.21582 14.1537 0.29182 14.9577 0.43782L14.871 0.42482C15.722 0.57682 16.4697 0.78482 17.1916 1.05482L17.0928 1.02282C17.8747 1.31082 18.5383 1.63082 19.1707 2.00582L19.1033 1.96882C19.7697 2.36182 20.343 2.77682 20.8774 3.24182L20.8543 3.22282C21.3879 3.68682 21.8605 4.18582 22.287 4.72982L22.299 4.74582C22.7005 5.25582 23.0623 5.82682 23.366 6.43682L23.39 6.48882C23.6679 7.03982 23.9051 7.67982 24.0703 8.35182L24.0833 8.41282C24.2356 9.03382 24.3233 9.74682 24.3233 10.4818C24.3233 11.5058 24.1534 12.4858 23.8423 13.3928L23.8599 13.3348C23.5267 14.3078 23.0863 15.1498 22.5427 15.8998L22.5565 15.8798C22.4854 15.9908 22.4134 16.0868 22.3359 16.1778L22.3377 16.1758L22.3303 16.1848C21.9353 16.6928 21.5143 17.1478 21.0593 17.5618L21.0436 17.5758C19.4697 19.1278 17.7547 20.5948 15.9482 21.9268L15.7876 22.0388C15.1267 22.5368 14.3503 23.0568 13.5491 23.5318L13.4125 23.6058C13.1688 23.7508 12.8725 23.9018 12.567 24.0338L12.5116 24.0548C12.3279 24.1408 12.1137 24.1988 11.8903 24.2138H11.8848H11.883ZM17.4057 7.47182C17.0651 7.47282 16.79 7.77182 16.7891 8.13982V13.0978C16.79 13.4668 17.066 13.7648 17.4057 13.7658H19.7928C20.1334 13.7648 20.4085 13.4658 20.4094 13.0978V13.0418C20.4085 12.6728 20.1325 12.3748 19.7928 12.3738H18.0731V11.3168H19.7919C20.1325 11.3158 20.4076 11.0168 20.4085 10.6488V10.5928C20.4076 10.2238 20.1316 9.92582 19.7919 9.92482H18.0731V8.86582H19.7919C20.1325 8.86482 20.4076 8.56582 20.4085 8.19782V8.14082C20.4076 7.77182 20.1316 7.47382 19.7919 7.47282L17.4057 7.47182ZM11.894 7.45982C11.5534 7.46082 11.2783 7.75982 11.2774 8.12782V13.0858C11.2783 13.4548 11.5543 13.7528 11.894 13.7538H11.9457C12.2863 13.7528 12.5614 13.4538 12.5623 13.0858V10.1198L14.8091 13.4448C14.8239 13.4698 14.8387 13.4918 14.8553 13.5128L14.8543 13.5118C14.9134 13.5988 14.9947 13.6648 15.0879 13.7028L15.0916 13.7038C15.1608 13.7358 15.2411 13.7538 15.3251 13.7538H15.3279H15.3796C15.4848 13.7538 15.5845 13.7248 15.6703 13.6738L15.6667 13.6758C15.7257 13.6468 15.7765 13.6058 15.8171 13.5548V13.5538C15.927 13.4338 15.9953 13.2688 15.9953 13.0858V13.0848V8.12782C15.9953 7.75882 15.7193 7.45982 15.3787 7.45982H15.3242C14.9836 7.46082 14.7085 7.75982 14.7076 8.12782V11.0388L12.4793 7.79782C12.3713 7.59382 12.1728 7.45782 11.9439 7.45582L11.894 7.45982ZM9.73958 7.45982C9.39896 7.46082 9.12389 7.75982 9.12296 8.12782V13.0858C9.12389 13.4548 9.39989 13.7528 9.73958 13.7538H9.79127C10.1319 13.7528 10.407 13.4538 10.4079 13.0858V8.12782C10.407 7.75882 10.131 7.46082 9.79127 7.45982H9.73958ZM5.62081 7.45982C5.28019 7.46082 5.00512 7.75982 5.00419 8.12782V13.0858C5.00512 13.4548 5.28112 13.7528 5.62081 13.7538H8.00604C8.34665 13.7528 8.62173 13.4538 8.62265 13.0858V13.0358C8.62265 12.6668 8.34665 12.3678 8.00604 12.3678H6.28819V8.12882C6.28727 7.75982 6.01127 7.46182 5.67158 7.46082L5.62081 7.45982Z" fill="#E8E8E8"/>
</g>
<defs>
<clipPath id="clip0_536_170">
<rect width="24" height="24" fill="white" transform="translate(0.648193 0.214844)"/>
</clipPath>
</defs>
</svg>
