<svg width="49" height="48" viewBox="0 0 49 48" fill="none" xmlns="http://www.w3.org/2000/svg">
<path d="M33.9897 14.793C34.0661 14.7893 34.1985 14.7944 34.3296 14.8633L34.4624 14.9609L34.5249 15.0195L34.5796 15.0977C34.7102 15.1879 34.8022 15.3293 34.8022 15.5C34.8022 15.7761 34.5784 16 34.3022 16H34.2007C34.0663 15.9996 33.9476 15.9405 33.8569 15.8516L33.7788 15.8828L33.5601 15.957C33.3438 16.0304 33.1187 16.0531 32.8921 16.0195L32.6733 15.9844L32.4546 15.9531L32.1812 15.957L31.9624 15.9961L31.7476 16.0352C31.6328 16.0554 31.5172 16.0595 31.4038 16.0508L31.0679 15.9805L30.8491 15.9102L30.6343 15.8398L30.5015 15.8359L30.2827 15.9023L30.0679 15.9688L29.5718 16.0898L29.353 16.125L29.1343 16.1641C29.0132 16.1849 28.893 16.1895 28.7749 16.1758L28.4272 16.0859L27.9897 15.9062L27.7749 15.8672L27.5562 15.8828L27.3413 15.8945H26.8413L26.6265 15.8789L26.4077 15.8672L25.9976 15.8477L25.5601 15.8398L25.1108 15.8242L24.8921 15.8164L24.6772 15.8047L24.3882 15.8359L24.1733 15.8906L23.9546 15.9492L23.4507 16.0391L23.2319 16.0625L23.0132 16.0898C22.9221 16.0998 22.8308 16.102 22.7397 16.1016L22.4663 16.0859L22.0288 16.0312L21.6421 16.0039L21.4233 16L21.2046 15.9922L20.689 15.9336L20.2515 15.8477L19.9819 15.8398L19.7632 15.8672L19.5483 15.8984L19.0366 15.9258L18.5991 15.918L18.1929 15.9219L17.7554 15.9375L17.4272 15.9844L16.9897 16.0938C16.8715 16.1232 16.7525 16.1332 16.6343 16.1289L16.2827 16.0664L16.064 15.9961L15.8452 15.9297L15.5718 15.8867H15.353L15.1382 15.8906L14.7905 15.9297L14.5718 15.9688L14.3569 16.0117C14.2039 16.0415 14.0492 16.0683 13.896 16.0898L13.4585 16.1523C13.22 16.1856 12.9458 16.1449 12.6694 16.0781L12.3491 16H12.3022C12.0261 16 11.8022 15.7761 11.8022 15.5C11.8022 15.2239 12.0261 15 12.3022 15H12.4038L12.521 15.0156L12.9038 15.1055C13.1404 15.1627 13.2705 15.1673 13.3218 15.1602L13.5366 15.1289L13.7554 15.0977C13.8914 15.0786 14.0292 15.0578 14.1655 15.0312L14.3804 14.9883L14.5991 14.9453C14.7726 14.9115 14.9475 14.8932 15.1226 14.8906L15.3413 14.8867H15.5562C15.7584 14.8837 15.9595 14.9139 16.1538 14.9766L16.3726 15.0469L16.5874 15.1172L16.7476 15.1211L16.9663 15.0664L17.1851 15.0156L17.7241 14.9375L17.939 14.9297L18.1577 14.9219C18.3112 14.9168 18.4652 14.9151 18.6187 14.918L18.8374 14.9219L19.0522 14.9258L19.4116 14.9062L19.6304 14.875L19.8491 14.8477C20.0489 14.8206 20.2487 14.8278 20.4468 14.8672L20.8843 14.9531L21.2319 14.9922L21.4507 15L21.6694 15.0039L22.1499 15.0391L22.3647 15.0664L22.5835 15.0938H22.9038L23.3413 15.0469L23.7046 14.9805L23.9233 14.9219L24.1382 14.8672L24.4312 14.8125C24.5281 14.8024 24.6262 14.8 24.7241 14.8047L24.9429 14.8164L25.1577 14.8281C25.2977 14.8349 25.4396 14.8373 25.5796 14.8398L25.7944 14.8438L26.0132 14.8477L26.4702 14.8672L26.689 14.8828L26.9077 14.8945H27.2788L27.7163 14.8711C27.941 14.8577 28.1604 14.8958 28.3687 14.9805L28.5874 15.0703L28.8022 15.1562L28.9663 15.1797L29.1812 15.1406L29.3999 15.1055L29.7749 15.0156L29.9897 14.9453L30.2085 14.8789L30.5796 14.8281C30.7029 14.8297 30.8258 14.8506 30.9468 14.8906L31.1655 14.9609L31.3804 15.0312L31.5718 15.0508L32.0093 14.9727L32.3062 14.9453C32.4052 14.944 32.5041 14.9501 32.603 14.9648L32.8218 14.9961L33.0366 15.0273C33.0992 15.0367 33.1667 15.0327 33.2397 15.0078L33.4546 14.9336L33.6733 14.8594L33.9897 14.793Z" fill="#23222A"/>
<path d="M33.9897 22.793C34.0661 22.7893 34.1985 22.7944 34.3296 22.8633L34.4624 22.9609L34.5249 23.0195L34.5796 23.0977C34.7102 23.1879 34.8022 23.3293 34.8022 23.5C34.8022 23.7761 34.5784 24 34.3022 24H34.2007C34.0663 23.9996 33.9476 23.9405 33.8569 23.8516L33.7788 23.8828L33.5601 23.957C33.3438 24.0304 33.1187 24.0531 32.8921 24.0195L32.6733 23.9844L32.4546 23.9531L32.1812 23.957L31.9624 23.9961L31.7476 24.0352C31.6328 24.0554 31.5172 24.0595 31.4038 24.0508L31.0679 23.9805L30.8491 23.9102L30.6343 23.8398L30.5015 23.8359L30.2827 23.9023L30.0679 23.9688L29.5718 24.0898L29.353 24.125L29.1343 24.1641C29.0132 24.1849 28.893 24.1895 28.7749 24.1758L28.4272 24.0859L27.9897 23.9062L27.7749 23.8672L27.5562 23.8828L27.3413 23.8945H26.8413L26.6265 23.8789L26.4077 23.8672L25.9976 23.8477L25.5601 23.8398L25.1108 23.8242L24.8921 23.8164L24.6772 23.8047L24.3882 23.8359L24.1733 23.8906L23.9546 23.9492L23.4507 24.0391L23.2319 24.0625L23.0132 24.0898C22.9221 24.0998 22.8308 24.102 22.7397 24.1016L22.4663 24.0859L22.0288 24.0312L21.6421 24.0039L21.4233 24L21.2046 23.9922L20.689 23.9336L20.2515 23.8477L19.9819 23.8398L19.7632 23.8672L19.5483 23.8984L19.0366 23.9258L18.5991 23.918L18.1929 23.9219L17.7554 23.9375L17.4272 23.9844L16.9897 24.0938C16.8715 24.1232 16.7525 24.1332 16.6343 24.1289L16.2827 24.0664L16.064 23.9961L15.8452 23.9297L15.5718 23.8867H15.353L15.1382 23.8906L14.7905 23.9297L14.5718 23.9688L14.3569 24.0117C14.2039 24.0415 14.0492 24.0683 13.896 24.0898L13.4585 24.1523C13.22 24.1856 12.9458 24.1449 12.6694 24.0781L12.3491 24H12.3022C12.0261 24 11.8022 23.7761 11.8022 23.5C11.8022 23.2239 12.0261 23 12.3022 23H12.4038L12.521 23.0156L12.9038 23.1055C13.1404 23.1627 13.2705 23.1673 13.3218 23.1602L13.5366 23.1289L13.7554 23.0977C13.8914 23.0786 14.0292 23.0578 14.1655 23.0312L14.3804 22.9883L14.5991 22.9453C14.7726 22.9115 14.9475 22.8932 15.1226 22.8906L15.3413 22.8867H15.5562C15.7584 22.8837 15.9595 22.9139 16.1538 22.9766L16.3726 23.0469L16.5874 23.1172L16.7476 23.1211L16.9663 23.0664L17.1851 23.0156L17.7241 22.9375L17.939 22.9297L18.1577 22.9219C18.3112 22.9168 18.4652 22.9151 18.6187 22.918L18.8374 22.9219L19.0522 22.9258L19.4116 22.9062L19.6304 22.875L19.8491 22.8477C20.0489 22.8206 20.2487 22.8278 20.4468 22.8672L20.8843 22.9531L21.2319 22.9922L21.4507 23L21.6694 23.0039L22.1499 23.0391L22.3647 23.0664L22.5835 23.0938H22.9038L23.3413 23.0469L23.7046 22.9805L23.9233 22.9219L24.1382 22.8672L24.4312 22.8125C24.5281 22.8024 24.6262 22.8 24.7241 22.8047L24.9429 22.8164L25.1577 22.8281C25.2977 22.8349 25.4396 22.8373 25.5796 22.8398L25.7944 22.8438L26.0132 22.8477L26.4702 22.8672L26.689 22.8828L26.9077 22.8945H27.2788L27.7163 22.8711C27.941 22.8577 28.1604 22.8958 28.3687 22.9805L28.5874 23.0703L28.8022 23.1562L28.9663 23.1797L29.1812 23.1406L29.3999 23.1055L29.7749 23.0156L29.9897 22.9453L30.2085 22.8789L30.5796 22.8281C30.7029 22.8297 30.8258 22.8506 30.9468 22.8906L31.1655 22.9609L31.3804 23.0312L31.5718 23.0508L32.0093 22.9727L32.3062 22.9453C32.4052 22.944 32.5041 22.9501 32.603 22.9648L32.8218 22.9961L33.0366 23.0273C33.0992 23.0367 33.1667 23.0327 33.2397 23.0078L33.4546 22.9336L33.6733 22.8594L33.9897 22.793Z" fill="#23222A"/>
<path d="M33.9897 30.793C34.0661 30.7893 34.1985 30.7944 34.3296 30.8633L34.4624 30.9609L34.5249 31.0195L34.5796 31.0977C34.7102 31.1879 34.8022 31.3293 34.8022 31.5C34.8022 31.7761 34.5784 32 34.3022 32H34.2007C34.0663 31.9996 33.9476 31.9405 33.8569 31.8516L33.7788 31.8828L33.5601 31.957C33.3438 32.0304 33.1187 32.0531 32.8921 32.0195L32.6733 31.9844L32.4546 31.9531L32.1812 31.957L31.9624 31.9961L31.7476 32.0352C31.6328 32.0554 31.5172 32.0595 31.4038 32.0508L31.0679 31.9805L30.8491 31.9102L30.6343 31.8398L30.5015 31.8359L30.2827 31.9023L30.0679 31.9688L29.5718 32.0898L29.353 32.125L29.1343 32.1641C29.0132 32.1849 28.893 32.1895 28.7749 32.1758L28.4272 32.0859L27.9897 31.9062L27.7749 31.8672L27.5562 31.8828L27.3413 31.8945H26.8413L26.6265 31.8789L26.4077 31.8672L25.9976 31.8477L25.5601 31.8398L25.1108 31.8242L24.8921 31.8164L24.6772 31.8047L24.3882 31.8359L24.1733 31.8906L23.9546 31.9492L23.4507 32.0391L23.2319 32.0625L23.0132 32.0898C22.9221 32.0998 22.8308 32.102 22.7397 32.1016L22.4663 32.0859L22.0288 32.0312L21.6421 32.0039L21.4233 32L21.2046 31.9922L20.689 31.9336L20.2515 31.8477L19.9819 31.8398L19.7632 31.8672L19.5483 31.8984L19.0366 31.9258L18.5991 31.918L18.1929 31.9219L17.7554 31.9375L17.4272 31.9844L16.9897 32.0938C16.8715 32.1232 16.7525 32.1332 16.6343 32.1289L16.2827 32.0664L16.064 31.9961L15.8452 31.9297L15.5718 31.8867H15.353L15.1382 31.8906L14.7905 31.9297L14.5718 31.9688L14.3569 32.0117C14.2039 32.0415 14.0492 32.0683 13.896 32.0898L13.4585 32.1523C13.22 32.1856 12.9458 32.1449 12.6694 32.0781L12.3491 32H12.3022C12.0261 32 11.8022 31.7761 11.8022 31.5C11.8022 31.2239 12.0261 31 12.3022 31H12.4038L12.521 31.0156L12.9038 31.1055C13.1404 31.1627 13.2705 31.1673 13.3218 31.1602L13.5366 31.1289L13.7554 31.0977C13.8914 31.0786 14.0292 31.0578 14.1655 31.0312L14.3804 30.9883L14.5991 30.9453C14.7726 30.9115 14.9475 30.8932 15.1226 30.8906L15.3413 30.8867H15.5562C15.7584 30.8837 15.9595 30.9139 16.1538 30.9766L16.3726 31.0469L16.5874 31.1172L16.7476 31.1211L16.9663 31.0664L17.1851 31.0156L17.7241 30.9375L17.939 30.9297L18.1577 30.9219C18.3112 30.9168 18.4652 30.9151 18.6187 30.918L18.8374 30.9219L19.0522 30.9258L19.4116 30.9062L19.6304 30.875L19.8491 30.8477C20.0489 30.8206 20.2487 30.8278 20.4468 30.8672L20.8843 30.9531L21.2319 30.9922L21.4507 31L21.6694 31.0039L22.1499 31.0391L22.3647 31.0664L22.5835 31.0938H22.9038L23.3413 31.0469L23.7046 30.9805L23.9233 30.9219L24.1382 30.8672L24.4312 30.8125C24.5281 30.8024 24.6262 30.8 24.7241 30.8047L24.9429 30.8164L25.1577 30.8281C25.2977 30.8349 25.4396 30.8373 25.5796 30.8398L25.7944 30.8438L26.0132 30.8477L26.4702 30.8672L26.689 30.8828L26.9077 30.8945H27.2788L27.7163 30.8711C27.941 30.8577 28.1604 30.8958 28.3687 30.9805L28.5874 31.0703L28.8022 31.1562L28.9663 31.1797L29.1812 31.1406L29.3999 31.1055L29.7749 31.0156L29.9897 30.9453L30.2085 30.8789L30.5796 30.8281C30.7029 30.8297 30.8258 30.8506 30.9468 30.8906L31.1655 30.9609L31.3804 31.0312L31.5718 31.0508L32.0093 30.9727L32.3062 30.9453C32.4052 30.944 32.5041 30.9501 32.603 30.9648L32.8218 30.9961L33.0366 31.0273C33.0992 31.0367 33.1667 31.0327 33.2397 31.0078L33.4546 30.9336L33.6733 30.8594L33.9897 30.793Z" fill="#23222A"/>
</svg>
