<svg width="25" height="24" viewBox="0 0 25 24" fill="none" xmlns="http://www.w3.org/2000/svg">
<path d="M9.5082 3.47187L9.6832 3.51562L9.85508 3.55937L10.1082 3.59062H10.4551C10.5995 3.59083 10.7438 3.60715 10.8863 3.6375L11.0613 3.675L11.2332 3.7125C11.3079 3.72839 11.3825 3.73003 11.4551 3.72187L11.627 3.70312L11.802 3.68437L12.0363 3.675C12.1135 3.67786 12.1909 3.68584 12.2676 3.7L12.4426 3.73125L12.6145 3.76562C12.7001 3.78145 12.7865 3.78563 12.8707 3.78125L13.0426 3.77187L13.2176 3.7625L13.5707 3.74687L13.7426 3.74062L13.9176 3.73125C14.0289 3.72665 14.1406 3.72061 14.252 3.7125L14.602 3.6875L14.9551 3.66562L15.1301 3.65625L15.302 3.64375L15.7176 3.65625L15.8895 3.67187L16.0645 3.69062L16.3051 3.68437L16.4801 3.65625L16.652 3.625L16.9145 3.6125C17.0004 3.6173 17.0864 3.63221 17.1707 3.65625L17.3363 3.70312L17.5051 3.75L17.727 3.775L17.9145 3.7625L18.0988 3.75312L18.3801 3.775C18.4714 3.794 18.5602 3.82543 18.6457 3.86875L18.8082 3.95L18.9676 4.03125L19.1707 4.15625C19.2351 4.20211 19.2977 4.25084 19.3551 4.30625L19.6113 4.55625L19.877 4.83125L19.9957 4.9625L20.1113 5.09375L20.2613 5.29688C20.3042 5.3696 20.3395 5.44709 20.3676 5.52813L20.427 5.69375L20.4832 5.8625L20.5988 6.1625L20.7238 6.46875L20.8457 6.65938L20.9707 6.80625L21.0957 6.95L21.1988 7.10313C21.2545 7.20943 21.2837 7.32574 21.2832 7.44688L21.2582 7.63125L21.2145 7.80938L21.1707 7.99063C21.1569 8.04771 21.158 8.10002 21.1707 8.15L21.2145 8.32188L21.2582 8.49688L21.2957 8.75625L21.277 9.01563L21.2457 9.19063L21.2145 9.3625L21.1863 9.64375L21.1832 9.81875V9.99063L21.1363 10.4156L21.102 10.5875L21.0645 10.7625C21.0557 10.8054 21.0593 10.8493 21.077 10.9L21.1363 11.075L21.1957 11.2469L21.2551 11.5094C21.2648 11.597 21.2661 11.6857 21.2551 11.775L21.2113 12.125L21.1863 12.4344L21.1801 12.6094L21.177 12.7844C21.1733 12.9041 21.1656 13.024 21.1582 13.1438L21.1488 13.3188L21.1363 13.4906C21.1302 13.5892 21.1326 13.6889 21.1395 13.7875L21.152 13.9625L21.1645 14.1344L21.1801 14.5L21.1832 14.675L21.1895 14.85L21.1801 15.0688L21.1488 15.2875L21.0738 15.6375C21.0631 15.6899 21.065 15.7416 21.0801 15.7969L21.127 15.9719L21.177 16.1469L21.2207 16.3875L21.2238 16.6313L21.2082 16.8031L21.1957 16.9781L21.1207 17.3969L21.0707 17.5656L21.0238 17.7344L20.8895 18.1125L20.8207 18.2719L20.7488 18.4344C20.715 18.5129 20.6752 18.5874 20.627 18.6563L20.4582 18.85L20.3301 18.9719L20.1988 19.0906L19.8988 19.3438L19.7613 19.4438L19.6238 19.5469L19.4238 19.725L19.3051 19.8531L19.1895 19.9781C19.1339 20.0377 19.0725 20.0922 19.0082 20.1406L18.8051 20.2688L18.652 20.3469L18.4957 20.425C18.417 20.4652 18.3361 20.4977 18.252 20.5188L17.9926 20.5531L17.6426 20.5594L17.4738 20.6031L17.3113 20.6875L17.1457 20.7688C16.9925 20.8461 16.8284 20.8773 16.6645 20.8563L16.4988 20.8156L16.3238 20.7594L16.1488 20.7L15.9301 20.6625H15.5801C15.5005 20.6627 15.4193 20.6718 15.3363 20.6938L14.9863 20.7875L14.5926 20.8656L14.4176 20.8906L14.2457 20.9156L13.8457 20.9469H13.6707L13.4988 20.95C13.4173 20.9509 13.3351 20.9442 13.2551 20.9313L13.0176 20.8719L12.8457 20.8156L12.6707 20.7563L12.5145 20.7438L12.1645 20.8L11.7613 20.8344L11.5895 20.8406L11.4145 20.8438L10.9988 20.8188L10.827 20.7938L10.652 20.7688L10.352 20.7406L10.002 20.7344L9.5957 20.6906L9.4207 20.6625L9.2457 20.6313C9.16956 20.6178 9.0953 20.6158 9.0207 20.625L8.8457 20.6469L8.67383 20.6688L8.2582 20.6844L7.9207 20.6656L7.56758 20.6438L7.38945 20.6344L7.21133 20.6219C7.02047 20.6096 6.84332 20.5471 6.68633 20.4375L6.53945 20.3375L6.3957 20.2344L6.11445 20.0438L5.9707 19.95L5.82695 19.8531L5.51133 19.6156L5.24258 19.3906C5.18269 19.3397 5.12812 19.2837 5.07695 19.225L4.93633 19.0406L4.84258 18.8906L4.74883 18.7438C4.70771 18.6793 4.67135 18.6125 4.63945 18.5438L4.5582 18.3344L4.5082 18.1688L4.45508 18.0031L4.34883 17.7406L4.26758 17.5844L4.18945 17.4281C4.09521 17.2433 4.06689 17.0403 4.10508 16.8375L4.13945 16.6625L4.1707 16.4875L4.15508 16.3813L4.0707 16.2094L3.98945 16.0375C3.8967 15.8414 3.87442 15.6267 3.9332 15.4125L4.02695 15.0625L4.11758 14.725L4.1582 14.55L4.20195 14.3781L4.19258 14.2906L4.03633 13.9406C3.96742 13.7864 3.92364 13.6255 3.91133 13.4594L3.89883 13.2844L3.88633 13.1125C3.87604 12.9737 3.87594 12.8324 3.88945 12.6938L3.9082 12.5219L3.92383 12.3469C3.9353 12.2291 3.94813 12.1115 3.96133 11.9938L3.98008 11.8188L4.00195 11.6469L4.0082 11.3656L3.98945 11.0156C3.98027 10.8528 3.99971 10.6919 4.0457 10.5344L4.1457 10.1844L4.13633 10.1219L4.05508 9.95L3.9707 9.775C3.88783 9.60245 3.84638 9.41532 3.86133 9.22188L3.87383 9.05L3.88945 8.875C3.90197 8.71325 3.94138 8.55507 4.00508 8.40313L4.07695 8.23125L4.14883 8.05625L4.15195 7.97813L4.0957 7.8L4.03945 7.61875C3.95666 7.35876 4.01545 7.1013 4.1957 6.90313L4.32695 6.7625L4.4582 6.61875L4.50508 6.52188L4.52383 6.34063L4.5457 6.1625C4.56581 5.98282 4.62481 5.81414 4.72383 5.6625L4.8207 5.51563L4.91445 5.36875L5.15508 5.04688L5.2707 4.90938L5.38633 4.775L5.4957 4.6625C5.6124 4.56404 5.75057 4.49912 5.90195 4.46563L6.08633 4.425L6.26758 4.38438L6.37695 4.325L6.50195 4.19375L6.63008 4.0625L6.84883 3.8875C6.92722 3.83996 7.01152 3.80125 7.10195 3.775L7.27383 3.72812L7.44258 3.67812L7.81445 3.58437L8.16445 3.50937L8.38008 3.48125C8.41571 3.48068 8.46754 3.48314 8.52383 3.49687C8.55583 3.50471 8.60059 3.52763 8.65195 3.55937L8.78633 3.52187L8.96133 3.475L9.2332 3.4375C9.32502 3.43683 9.41703 3.44894 9.5082 3.47187ZM8.98945 4.29375L8.81758 4.34063C8.75063 4.35836 8.67465 4.3736 8.60195 4.37813C8.56577 4.38031 8.51118 4.38127 8.45195 4.36875C8.41441 4.36078 8.35867 4.33965 8.29883 4.3L8.15508 4.33125L7.98008 4.36875L7.66445 4.44688L7.4957 4.49688L7.32695 4.54375L7.20508 4.61875L7.08008 4.75L6.95195 4.88125C6.81166 5.02652 6.63851 5.12216 6.44258 5.16563L6.07383 5.24688L5.9957 5.29063L5.8832 5.425L5.76758 5.5625L5.58633 5.80625L5.39258 6.1C5.36372 6.14431 5.34595 6.19477 5.33945 6.25313L5.3207 6.43125L5.29883 6.60938C5.28718 6.71378 5.26003 6.81194 5.21758 6.90313L5.04883 7.15625L4.91758 7.3L4.81445 7.4125L4.8582 7.55625L4.91445 7.7375L4.95195 7.89375C4.96663 8.00047 4.96031 8.10737 4.93633 8.2125L4.88945 8.36563L4.81445 8.54063L4.74258 8.7125C4.70933 8.7918 4.69175 8.8673 4.68633 8.9375L4.67383 9.10938L4.6582 9.28438C4.65522 9.32293 4.66402 9.36867 4.69258 9.42813L4.77383 9.60313L4.8582 9.77813C4.92933 9.92667 4.96106 10.0853 4.9457 10.2469L4.91445 10.4094L4.86445 10.5844L4.81133 10.7594C4.79006 10.8328 4.78243 10.9037 4.78633 10.9719L4.7957 11.1438L4.8082 11.3188L4.7957 11.7344L4.77695 11.9094L4.7207 12.425L4.70508 12.6L4.68633 12.7719C4.67723 12.8652 4.6763 12.9599 4.6832 13.0531L4.6957 13.225L4.7082 13.4C4.71308 13.4658 4.73288 13.538 4.76758 13.6156L4.8457 13.7875L4.9207 13.9625L4.97383 14.1094C5.00086 14.2091 5.01274 14.3118 5.00508 14.4156L4.98008 14.5719L4.93633 14.7438L4.89258 14.9188L4.79883 15.275L4.75195 15.45L4.70195 15.625C4.6974 15.6422 4.6984 15.6598 4.71445 15.6938L4.7957 15.8688L4.87695 16.0406L4.96445 16.3313C4.97133 16.3807 4.97499 16.4307 4.97383 16.4813L4.9582 16.6344L4.92383 16.8094L4.89258 16.9875C4.88682 17.0185 4.88993 17.0385 4.90195 17.0625L4.9832 17.2219L5.06133 17.3781L5.2207 17.7656L5.2707 17.9313L5.32383 18.0969L5.42383 18.3125L5.51758 18.4625L5.61133 18.6094L5.76133 18.7813L5.8957 18.8938L6.02695 19.0063L6.26758 19.1875L6.41133 19.2813L6.55508 19.3781L6.85195 19.5813L6.99883 19.6813L7.14258 19.7813C7.17868 19.8065 7.21616 19.8219 7.26133 19.825L7.43945 19.8344L7.61758 19.8469L7.96133 19.8656L8.29883 19.8844L8.57383 19.8719L8.7457 19.8531L8.9207 19.8313C9.07625 19.8118 9.23161 19.8162 9.38633 19.8438L9.56133 19.8719L9.73633 19.9031L10.0238 19.9344L10.1957 19.9375L10.3707 19.9438L10.7676 19.975L10.9395 20L11.1145 20.025L11.3957 20.0438L11.5707 20.0406L11.7457 20.0344L12.0363 20.0094L12.3863 19.9531L12.6582 19.9438C12.7478 19.9515 12.8368 19.9679 12.9238 19.9969L13.0988 20.0563L13.2707 20.1125L13.4895 20.15L13.6613 20.1469H13.8363L14.1332 20.1219L14.3082 20.1L14.4832 20.075L14.7832 20.0125L14.9551 19.9688L15.1301 19.9219C15.278 19.8826 15.4286 19.8627 15.5801 19.8625H15.9301L16.1707 19.8813C16.2497 19.8946 16.3279 19.9147 16.4051 19.9406L16.7551 20.0594L16.7676 20.0625H16.7738C16.7761 20.0618 16.7808 20.0591 16.7863 20.0563L16.9488 19.9719L17.1145 19.8906L17.3645 19.7969C17.4495 19.7752 17.5376 19.7613 17.627 19.7594L17.977 19.7531L18.1332 19.7125L18.2863 19.6344L18.4426 19.5563L18.602 19.4344L18.7207 19.3063L18.8395 19.1813L19.1488 18.9031L19.2863 18.8L19.4238 18.7L19.652 18.5063L19.7832 18.3875L19.9113 18.2656L20.0145 18.1188L20.0832 17.9563L20.1551 17.7938C20.1944 17.7022 20.2279 17.6075 20.2551 17.5125L20.302 17.3469L20.352 17.1781L20.3988 16.9156L20.4113 16.7406L20.427 16.5656L20.4051 16.3563L20.3582 16.1813L20.3082 16.0094C20.26 15.8332 20.2552 15.6509 20.2926 15.4719L20.327 15.3L20.3645 15.125L20.3895 14.8688L20.3832 14.6938L20.3801 14.5188L20.3645 14.1906L20.352 14.0156L20.3395 13.8438C20.3302 13.7103 20.3312 13.5741 20.3395 13.4406L20.3488 13.2688L20.3613 13.0938C20.3682 12.9823 20.3735 12.8708 20.377 12.7594L20.3832 12.5844L20.3863 12.4094L20.4176 12.025L20.4395 11.85L20.4613 11.6781L20.4395 11.5094L20.3801 11.3375L20.3207 11.1625C20.2578 10.9814 20.2416 10.792 20.2801 10.6031L20.3176 10.4281L20.352 10.2531L20.3832 9.98125V9.80938L20.3863 9.63438L20.427 9.21875L20.4895 8.86875L20.4832 8.69375L20.4395 8.51875L20.3957 8.34688C20.3496 8.16576 20.3514 7.98107 20.3957 7.8L20.4395 7.61875L20.477 7.45938L20.3613 7.325L20.2395 7.18125C20.1858 7.11862 20.1354 7.05273 20.0926 6.98438L19.9832 6.77188L19.8582 6.46563L19.7301 6.125L19.6707 5.95625L19.6145 5.79063L19.5176 5.62813L19.402 5.49688L19.2832 5.36875C19.2113 5.28891 19.1347 5.20818 19.0551 5.13125L18.927 5.00625L18.7988 4.88438L18.6051 4.74688L18.4457 4.66563L18.2832 4.58125C18.2408 4.55998 18.195 4.55026 18.1395 4.55313L17.9551 4.5625L17.7676 4.57188C17.6855 4.57605 17.6042 4.57434 17.5238 4.56563L17.2863 4.51875L17.1176 4.47188L16.952 4.425L16.7832 4.41563L16.6113 4.44375L16.4363 4.47188C16.3605 4.48449 16.2844 4.49458 16.2082 4.49688L15.9801 4.4875L15.8051 4.46875L15.6332 4.45L15.3488 4.44375L15.177 4.45313L15.002 4.4625L14.4863 4.5L14.3113 4.5125C14.1916 4.52123 14.0717 4.52629 13.952 4.53125L13.777 4.54063L13.602 4.54688L13.2582 4.5625L13.0863 4.57188L12.9113 4.58125C12.7638 4.58893 12.6168 4.57694 12.4707 4.55L12.1207 4.4875C12.0438 4.4734 11.9682 4.46977 11.8926 4.47813L11.7176 4.49688L11.5426 4.51875C11.3835 4.53654 11.2246 4.52714 11.0676 4.49375L10.8926 4.45625L10.7207 4.41875C10.6317 4.3998 10.5423 4.39082 10.4551 4.39063H10.1051C10.0309 4.39049 9.95677 4.38739 9.8832 4.37813L9.66133 4.33438L9.48633 4.29063L9.31445 4.24688C9.26439 4.23428 9.21518 4.23344 9.16445 4.24688L8.98945 4.29375ZM12.6145 8.3125C12.7654 8.29571 12.9159 8.31625 13.0613 8.37188L13.2363 8.4375L13.4082 8.50313L13.7801 8.67188L13.9332 8.75313L14.0895 8.8375C14.185 8.88835 14.2828 8.93633 14.3801 8.98125L14.6926 9.125L15.0582 9.3375L15.352 9.54375L15.5457 9.7125C15.6043 9.77513 15.6566 9.84433 15.702 9.91875L15.8895 10.225C15.9687 10.3552 16.0301 10.4951 16.0738 10.6406L16.1738 10.9781L16.2551 11.2938L16.277 11.4L16.2957 11.5063L16.3082 11.7281L16.2738 11.9438L16.2332 12.1156L16.1957 12.2875C16.1778 12.3666 16.1708 12.4444 16.1738 12.5219L16.1863 12.8656L16.1738 13.1094L16.1176 13.3438L16.0613 13.5094L16.0082 13.6719C15.9813 13.7516 15.9463 13.8281 15.9051 13.9L15.7613 14.1L15.5363 14.3625L15.3645 14.5938L15.2707 14.7469L15.1738 14.9C15.0825 15.0463 14.9566 15.1541 14.8051 15.2188L14.6426 15.2688L14.2863 15.3438L13.9738 15.4219L13.8176 15.4656L13.6582 15.5094L13.4395 15.6094L13.2801 15.7094L13.1176 15.8094C12.9857 15.8904 12.8412 15.9384 12.6895 15.95H12.5332L12.3551 15.9344L12.1738 15.9156C12.0921 15.9083 12.0116 15.8958 11.9332 15.875L11.702 15.7906L11.377 15.6406L11.002 15.4188L10.8613 15.3125L10.7238 15.2094C10.6629 15.1634 10.5905 15.1207 10.5051 15.0875L10.3301 15.0188L10.1551 14.9531C9.96656 14.8797 9.82874 14.746 9.75195 14.575L9.6957 14.3938L9.66133 14.2031L9.62695 14.0094L9.5582 13.825L9.46133 13.6844L9.36758 13.5438C9.31682 13.4672 9.27753 13.385 9.24883 13.3L9.19883 13.0375L9.18633 12.8656L9.17383 12.6969L9.1332 12.4188L9.09258 12.25L9.05508 12.0781C9.01415 11.8987 9.01839 11.7173 9.0707 11.5406L9.1707 11.2094C9.20546 11.0922 9.24224 10.9746 9.2832 10.8594L9.34258 10.6938L9.39883 10.5313L9.53008 10.2844C9.58377 10.2092 9.64675 10.1406 9.7207 10.0813L9.9957 9.8625C10.0389 9.82793 10.0773 9.78077 10.1082 9.71875L10.1895 9.55313L10.2738 9.3875L10.377 9.23125C10.495 9.09138 10.6569 9.00233 10.8488 8.97813L11.0332 8.95625L11.2176 8.93125L11.3613 8.875L11.5051 8.76875L11.652 8.65938L11.8707 8.52813C11.9455 8.49201 12.0239 8.46316 12.1051 8.44063L12.4613 8.34063L12.6145 8.3125ZM12.4988 9.1625L12.3207 9.2125L12.127 9.30313L11.9801 9.4125L11.8363 9.51875C11.7594 9.57548 11.6761 9.62194 11.5895 9.65625L11.3176 9.725L11.1332 9.75L10.977 9.76563L10.9082 9.90938L10.8238 10.075C10.7444 10.2346 10.6349 10.3729 10.4957 10.4844L10.3582 10.5969L10.2207 10.7063L10.1551 10.8L10.0363 11.125C10.0001 11.2269 9.96706 11.3308 9.93633 11.4344L9.88633 11.6031L9.83945 11.7688C9.82658 11.8125 9.82279 11.8539 9.8332 11.9L9.87383 12.0719L9.91133 12.2406L9.9707 12.6438L9.9957 12.9813L10.0363 13.1L10.1301 13.2438L10.2238 13.3844L10.3426 13.6156C10.3737 13.696 10.3986 13.7794 10.4145 13.8656L10.4488 14.0563L10.477 14.2188L10.6207 14.275L10.7957 14.3438C10.9437 14.4014 11.0811 14.4754 11.2051 14.5688L11.3457 14.675L11.4832 14.7781L11.7113 14.9156L12.0363 15.0656L12.2457 15.1188L12.4238 15.1375L12.6051 15.1531L12.6988 15.1281L12.8582 15.0281L13.0207 14.9281L13.2238 14.8188C13.2941 14.7871 13.3663 14.7614 13.4395 14.7406L13.5988 14.6969L13.7582 14.65L14.1207 14.5625L14.2988 14.525L14.4801 14.4875L14.4926 14.4844H14.4895C14.4898 14.484 14.4933 14.4819 14.4957 14.4781L14.5895 14.325L14.6863 14.1719L14.9301 13.8375L15.0457 13.7063L15.1582 13.5781L15.2488 13.4156L15.3051 13.2531L15.3613 13.0875L15.3863 12.8969L15.3801 12.725L15.3738 12.5563C15.3678 12.4066 15.3811 12.2563 15.4145 12.1094L15.4551 11.9375L15.4926 11.7656L15.5082 11.675V11.6531L15.4707 11.4406L15.4082 11.2094L15.3582 11.0375L15.3082 10.8688C15.2843 10.7892 15.2495 10.7135 15.2051 10.6406L15.0176 10.3344L14.8895 10.1969L14.7457 10.0938L14.5988 9.99063L14.3582 9.85313L14.202 9.78125L14.0426 9.70625C13.9313 9.65487 13.8202 9.60174 13.7113 9.54375L13.5582 9.45938L13.4051 9.37813L13.1207 9.25L12.777 9.11875C12.7408 9.10492 12.7093 9.10269 12.6738 9.1125L12.4988 9.1625ZM17.252 7.29063C17.3986 7.29063 17.5351 7.37111 17.6051 7.5C17.6748 7.62876 17.6692 7.78651 17.5895 7.90938L17.5395 7.98438C17.5242 8.00784 17.4941 8.05279 17.4582 8.09063C17.4478 8.10163 17.4256 8.12222 17.3957 8.14375C17.3778 8.15667 17.2951 8.21828 17.1707 8.22188C17.0958 8.22398 17.0089 8.20471 16.9301 8.15C16.8548 8.09759 16.8142 8.02994 16.7926 7.98125L16.7895 7.97813C16.6994 7.8929 16.6479 7.77117 16.6645 7.64063C16.6899 7.44088 16.86 7.29063 17.0613 7.29063H17.252Z" fill="#23222A"/>
</svg>
