<svg width="25" height="25" viewBox="0 0 25 25" fill="none" xmlns="http://www.w3.org/2000/svg">
<path d="M12.759 3.77441C12.7941 3.77988 12.8313 3.78503 12.8645 3.79199C12.9347 3.80677 13.0275 3.83018 13.134 3.85645L13.7668 4.00879C13.8693 4.03397 13.9828 4.0431 14.1125 4.02051L14.7922 3.90332L15.2786 3.86816C15.4394 3.87342 15.6003 3.89339 15.759 3.93262L16.0813 4.01465L16.4094 4.09082L16.8254 4.23145C16.9608 4.28722 17.0912 4.35496 17.218 4.43066L17.7922 4.77051L18.3547 5.09277L18.6418 5.25684L18.9348 5.4209L19.2981 5.66113C19.4127 5.74782 19.5236 5.84009 19.6262 5.94238L19.8665 6.18262L20.1067 6.41699L20.4348 6.8623C20.5198 7.02251 20.5782 7.19624 20.6165 7.37793L20.6926 7.72949L20.7629 8.0752L20.9094 8.46777L21.2141 9.00684L21.5364 9.54004L21.718 9.83301L21.9055 10.126L22.0579 10.4482C22.1292 10.6681 22.1384 10.8968 22.093 11.1221L21.9875 11.4502L21.8352 11.7725L21.6887 12.0947L21.5422 12.5283L21.4368 13.1377L21.261 13.835L21.1672 14.1396L21.0735 14.4385C21.0285 14.5798 20.9713 14.7185 20.9036 14.8486L20.6633 15.2236L20.2766 15.7275C20.1216 15.9306 19.9485 16.1222 19.761 16.2959L19.2922 16.7295L18.759 17.1865L18.5012 17.3857L18.2493 17.585C18.001 17.7786 17.7214 17.9193 17.4172 18.001L17.1008 18.083L16.7903 18.165L16.4856 18.3291L16.2161 18.5459L15.9465 18.7686C15.6059 19.0473 15.1903 19.1657 14.7571 19.1143L14.4055 19.0674L14.054 19.0264C13.9899 19.0189 13.9707 19.0324 13.9543 19.0439L13.6848 19.2373L13.4153 19.4248L12.7766 19.8232L12.4895 19.9697L12.2024 20.1221L11.511 20.4502L11.1653 20.6025L10.8137 20.7549C10.7307 20.7905 10.6098 20.8363 10.4739 20.8545C10.3693 20.8684 10.0293 20.8924 9.75903 20.6143C9.48403 20.33 9.52693 19.9863 9.5481 19.876C9.57466 19.738 9.63013 19.6162 9.67114 19.5361L9.84106 19.2021L9.99927 18.8857L9.94067 18.7861L9.87036 18.6689L9.61841 18.6514L9.29028 18.6279C9.12059 18.615 8.95611 18.5808 8.7981 18.5283L8.34106 18.3115L7.79028 17.96C7.67573 17.8864 7.56706 17.8048 7.46216 17.7197L7.16333 17.4502L6.94067 17.2217L6.71216 16.9932L6.47778 16.8643L5.78638 16.6768C5.50848 16.6013 5.25523 16.4728 5.04224 16.2842L4.84302 16.0791L4.63208 15.8154L4.42114 15.5576C4.30834 15.4198 4.21738 15.2704 4.14575 15.1123L3.98755 14.6143L3.93481 14.2744L3.87622 13.9404L3.74146 13.4541L3.49536 12.8564C3.3901 12.5954 3.31931 12.3231 3.28442 12.042L3.24341 11.7139L3.20825 11.3857C3.17521 11.1183 3.16617 10.8437 3.18481 10.5713L3.20825 10.2373L3.23169 9.89746L3.29028 9.56348C3.38584 9.24754 3.58559 8.98294 3.85278 8.78418L4.14575 8.56738L4.44458 8.34473L4.46802 8.32715V8.31543C4.46935 8.31065 4.47265 8.30031 4.47388 8.28613L4.50903 7.91699L4.53833 7.54785L4.59692 7.22559C4.68671 6.91315 4.87192 6.63353 5.15942 6.42871L5.71021 6.04199L6.26685 5.64941L6.80591 5.27441L7.52075 4.8877L8.13013 4.6416L8.74536 4.39551L9.35474 4.16113L9.74731 4.03809C9.88008 4.00408 10.015 3.97435 10.1516 3.95605L10.7961 3.87402L11.511 3.80957L12.1555 3.78613C12.262 3.78219 12.3458 3.78286 12.4016 3.78027C12.4283 3.77901 12.4476 3.77516 12.4602 3.77441H12.4778L12.5071 3.76855L12.6829 3.7627C12.7122 3.76521 12.7412 3.77166 12.759 3.77441ZM17.8176 9.12891L17.6194 9.16504C17.5893 9.17049 17.5585 9.17414 17.5286 9.17676L17.4387 9.18066L17.2395 9.17871H17.0393L16.8401 9.17969L16.6428 9.17773L16.4446 9.17285L16.2336 9.18066L16.0344 9.19824C15.991 9.20218 15.9465 9.21354 15.9084 9.23926C15.8882 9.25301 15.8709 9.2699 15.8577 9.28906L15.8293 9.35352L15.7932 9.49414L15.7522 9.66602L15.7043 9.86523C15.683 9.95555 15.6947 10.0457 15.7356 10.1309L15.8313 10.3301L15.843 10.3809L15.8245 10.4355L15.7083 10.6348C15.6619 10.7145 15.6372 10.7991 15.6399 10.8867L15.6467 11.0859L15.6633 11.2959L15.6907 11.4951L15.6956 11.5801L15.6897 11.666L15.6604 11.8652C15.6482 11.9507 15.6613 12.0356 15.6956 12.1172L15.7786 12.3164L15.7922 12.3789L15.7805 12.4404L15.7024 12.6396C15.6875 12.6776 15.6755 12.7163 15.6672 12.7549L15.6526 12.8721L15.6458 13.0713C15.6424 13.1674 15.6785 13.2527 15.7473 13.3203L15.8987 13.4688L15.9534 13.5127C16.0107 13.5506 16.0768 13.5698 16.1487 13.5664L16.3479 13.5566L16.5569 13.5361L16.7561 13.5049L16.8401 13.499C16.8676 13.4993 16.8955 13.5021 16.9231 13.5068L17.1223 13.541L17.2454 13.5479C17.2861 13.5452 17.3272 13.5374 17.3674 13.5254L17.5667 13.4658L17.6555 13.4443C17.6853 13.4387 17.7158 13.434 17.7454 13.4316L17.9436 13.416L18.134 13.4141L18.3401 13.4238L18.4172 13.416C18.4438 13.4084 18.4705 13.3941 18.4924 13.3701C18.5148 13.3457 18.5265 13.3175 18.5315 13.29L18.5305 13.2129L18.4983 13.0137C18.4926 12.9787 18.4853 12.9469 18.4778 12.9209C18.4745 12.9094 18.4708 12.8952 18.4651 12.8818L18.4426 12.8428L18.4026 12.792L18.3694 12.7617C18.3341 12.7404 18.2943 12.7414 18.2747 12.7432L18.1692 12.7695L17.97 12.8428C17.9465 12.8513 17.9233 12.8565 17.9006 12.8574L17.8333 12.8486L17.634 12.792C17.5979 12.7817 17.561 12.7731 17.5247 12.7666L17.4143 12.7529L17.2151 12.7393C17.1731 12.7363 17.1312 12.7385 17.0901 12.7461L16.969 12.7842L16.7698 12.8721C16.7495 12.8811 16.7297 12.8856 16.7112 12.8857L16.6555 12.873L16.4622 12.7861C16.4538 12.7823 16.4485 12.7779 16.4456 12.7754C16.4438 12.7739 16.4422 12.7721 16.4417 12.7715C16.4415 12.7711 16.4409 12.7697 16.4407 12.7686C16.4404 12.7659 16.4411 12.7607 16.4426 12.7529L16.4817 12.5537L16.4983 12.4453C16.5022 12.4097 16.5043 12.3736 16.5051 12.3379L16.509 12.1387L16.5051 11.9307L16.4924 11.7344L16.6252 11.7295L16.7297 11.7129C16.7655 11.7035 16.8023 11.6909 16.8391 11.6748L17.0383 11.5869L17.1077 11.5684C17.13 11.5662 17.1523 11.5681 17.1741 11.5732L17.3733 11.6201L17.4915 11.6367C17.5308 11.6385 17.5712 11.6366 17.6106 11.6309L17.8088 11.6016L17.8713 11.5869C17.8916 11.5799 17.9121 11.5705 17.9299 11.5576C17.9692 11.529 17.9949 11.4862 17.9993 11.4355L18.009 11.3125L18.0081 11.2637C18.0043 11.2313 17.9935 11.1996 17.9749 11.1719L17.9407 11.1328L17.8606 11.0635C17.8104 11.0196 17.7455 11.0133 17.6868 11.0205L17.6311 11.0312L17.4319 11.082C17.403 11.0893 17.3736 11.0943 17.345 11.0977L17.2581 11.1016L17.0588 11.0986C17.0319 11.0982 17.0042 11.0952 16.9768 11.0898L16.8938 11.0664L16.6946 10.9922C16.6647 10.9811 16.6448 10.9707 16.6331 10.9629L16.6165 10.9482L16.5579 10.8477C16.5517 10.8371 16.5447 10.8217 16.5374 10.8018L16.5139 10.7236L16.4622 10.5244C16.4483 10.4704 16.4455 10.4164 16.4524 10.3633L16.4788 10.1641L16.5139 9.96582L16.5618 9.75L16.7551 9.81738L16.8713 9.84668C16.91 9.853 16.9495 9.8561 16.9885 9.85547L17.1877 9.85254L17.3752 9.85938L17.5745 9.87891H17.6936C17.7328 9.87506 17.772 9.86667 17.8108 9.85547L18.01 9.79785L18.1565 9.76172L18.2727 9.74219L18.3264 9.72461C18.3435 9.71599 18.36 9.70416 18.3743 9.68848C18.4029 9.65677 18.4151 9.6175 18.4182 9.58203L18.428 9.46289L18.427 9.42383C18.4184 9.36279 18.3767 9.31864 18.3313 9.28809L18.2766 9.25781L18.0774 9.16504C18.0149 9.1359 17.9498 9.12089 17.884 9.12207L17.8176 9.12891ZM7.14282 9.14941L7.08521 9.17676L6.92603 9.27051C6.8631 9.30781 6.82201 9.36224 6.80298 9.42773L6.79126 9.49707L6.77856 9.69531L6.77075 9.89941L6.76685 10.0986L6.76001 10.2949L6.75024 10.4941C6.74664 10.5706 6.75521 10.6472 6.77466 10.7227L6.82642 10.9219L6.85962 11.1074L6.88208 11.3066L6.88599 11.3945L6.8811 11.4824L6.85669 11.6816L6.84204 11.8896L6.83618 12.0889C6.83532 12.1192 6.83281 12.1503 6.82935 12.1807L6.81567 12.2715L6.77563 12.4707C6.76034 12.5477 6.75826 12.6258 6.7688 12.7031L6.79517 12.9023L6.81763 13.1045L6.83521 13.3213L6.85278 13.3965C6.86249 13.4209 6.87703 13.4449 6.89771 13.4648C6.94083 13.5061 6.99618 13.5193 7.04712 13.5176L7.24634 13.5107L7.35669 13.501C7.39311 13.4958 7.42981 13.4886 7.46606 13.4795L7.66528 13.4297L7.73755 13.4219C7.76123 13.4228 7.78561 13.4268 7.80981 13.4346L8.00903 13.499L8.12427 13.5264C8.16258 13.5322 8.20183 13.5348 8.24048 13.5342L8.4397 13.5312L8.5481 13.5254C8.58404 13.5216 8.62064 13.5158 8.65649 13.5088L8.85571 13.4697L9.01294 13.4414L9.13501 13.4219L9.17114 13.4131C9.2499 13.3833 9.28543 13.3033 9.30005 13.2354L9.34204 13.0361L9.35376 12.9395C9.35315 12.9316 9.35069 12.9163 9.34399 12.9004C9.33692 12.8841 9.31871 12.8545 9.28052 12.8418C9.24335 12.8297 9.2122 12.8415 9.19849 12.8486L9.16821 12.8711L9.13403 12.9043C9.1328 12.904 9.13061 12.9037 9.12915 12.9033L9.09399 12.8916L8.89478 12.8164C8.85619 12.8018 8.81685 12.7904 8.77759 12.7832L8.65942 12.7734L8.46021 12.7754L8.25415 12.7852L8.05493 12.8018L7.85767 12.8164L7.65845 12.8291C7.64587 12.8299 7.63914 12.8279 7.63696 12.8271L7.63403 12.8193L7.5813 12.6475L7.53833 12.4717L7.50024 12.2725C7.49246 12.2319 7.49811 12.189 7.52466 12.1406L7.63501 11.9414L7.66431 11.874C7.67916 11.8283 7.6843 11.7807 7.67896 11.7334L7.66235 11.6621L7.59497 11.4629C7.57733 11.411 7.57296 11.3603 7.58032 11.3105L7.60962 11.1113L7.61743 10.9961L7.60669 10.8799L7.57153 10.6816C7.56285 10.6324 7.56649 10.5823 7.58325 10.5312L7.64966 10.332L7.66528 10.2666C7.67259 10.2236 7.67349 10.1798 7.66724 10.1367L7.65259 10.0713L7.59106 9.87305L7.54614 9.68555L7.51196 9.48633C7.50215 9.42971 7.48474 9.37524 7.4563 9.33008L7.4231 9.28809L7.33325 9.19336L7.27661 9.15332C7.25558 9.14407 7.2318 9.13876 7.20728 9.13867C7.18489 9.13868 7.16303 9.14278 7.14282 9.14941ZM14.6292 9.12012L14.4299 9.15723C14.3824 9.16627 14.3367 9.1867 14.3 9.22168C14.2817 9.23921 14.2672 9.25889 14.2561 9.28027L14.2317 9.34961L14.1946 9.53711C14.188 9.57068 14.1831 9.60519 14.179 9.63965L14.1692 9.74414L14.1594 9.94336C14.1558 10.0164 14.1601 10.0903 14.1711 10.1631L14.2014 10.3623L14.2278 10.5576L14.2502 10.7568L14.2551 10.8428L14.2473 10.9297L14.217 11.1289L14.179 11.3184L14.1282 11.5176C14.1079 11.5978 14.1057 11.679 14.1213 11.7598L14.1594 11.959L14.176 12.0303L14.1155 11.9883L13.9299 11.8789C13.9082 11.8661 13.8892 11.8516 13.8743 11.835L13.8391 11.7773L13.759 11.5879C13.7436 11.5514 13.7251 11.5161 13.7043 11.4834L13.634 11.3906L13.4993 11.2432L13.387 11.0977L13.2776 10.9307C13.2568 10.8988 13.2335 10.8682 13.2083 10.8398L13.1252 10.7598L12.968 10.6289C12.9466 10.611 12.9268 10.5911 12.9094 10.5703L12.8635 10.5039L12.7649 10.3281C12.7462 10.295 12.7246 10.2631 12.7014 10.2334L12.6243 10.1484L12.4778 10.0088C12.4618 9.99356 12.4477 9.97562 12.4368 9.95508L12.4124 9.88379L12.3684 9.66602C12.3537 9.59234 12.3197 9.52901 12.2678 9.48047L12.2102 9.43652L12.0295 9.32812C11.9961 9.30805 11.9611 9.291 11.927 9.27637L11.8225 9.24023L11.6448 9.19531C11.599 9.18376 11.5454 9.18366 11.4963 9.21191C11.4721 9.22589 11.4532 9.24411 11.4387 9.26465L11.4075 9.33008L11.3499 9.51074C11.3275 9.58107 11.316 9.65552 11.3157 9.73145L11.3147 9.92969C11.3145 10.0115 11.3334 10.0929 11.3684 10.1709L11.4583 10.3701L11.4827 10.4473L11.4875 10.5225L11.4758 10.7207C11.4741 10.7488 11.471 10.7781 11.4651 10.8066L11.4407 10.8926L11.3694 11.0918C11.3393 11.1764 11.3344 11.2634 11.3567 11.3496L11.4084 11.5488L11.4211 11.6299L11.4192 11.7109L11.3958 11.9102C11.3872 11.9822 11.3848 12.0548 11.3889 12.127L11.4006 12.3262L11.4104 12.4336C11.4151 12.4689 11.4216 12.5048 11.429 12.54L11.47 12.7393L11.4768 12.8145L11.4641 12.8906L11.4075 13.0898C11.3811 13.1821 11.3925 13.2759 11.4641 13.3477L11.5852 13.4688L11.6409 13.5098C11.662 13.5205 11.6866 13.5282 11.7131 13.5293C11.7669 13.5313 11.8125 13.5074 11.8459 13.4785L11.9739 13.3682L12.0198 13.3154C12.0442 13.2779 12.0564 13.2351 12.0588 13.1904L12.0559 13.1221L12.0247 12.9229L12.009 12.7383L12.0071 12.5391C12.0067 12.4885 12.018 12.4362 12.0422 12.3818L12.1311 12.1826L12.1711 12.0635L12.1829 11.9404L12.179 11.7412C12.1782 11.7056 12.1759 11.6694 12.1721 11.6338L12.1555 11.5254L12.1174 11.3262C12.1071 11.2728 12.1076 11.2195 12.1184 11.166L12.1584 10.9668L12.1702 10.8457L12.1555 10.7256L12.1106 10.5264C12.1076 10.5132 12.1069 10.501 12.1057 10.4912L12.1516 10.5762L12.219 10.6758C12.2442 10.706 12.2728 10.7344 12.304 10.7598L12.4631 10.8887L12.5159 10.9434C12.5307 10.9632 12.5429 10.9859 12.553 11.0098L12.6331 11.1992L12.718 11.3896L12.8049 11.5752L12.8694 11.6797C12.895 11.7116 12.9251 11.7408 12.9583 11.7666L13.1204 11.8936L13.2844 12.0195L13.4475 12.1455L13.4895 12.1914C13.5002 12.2096 13.5081 12.2316 13.5129 12.2568L13.5549 12.4756L13.5715 12.541C13.5922 12.6037 13.6248 12.6604 13.6702 12.708L13.8088 12.8535L13.8635 12.9189C13.88 12.9419 13.895 12.9668 13.9084 12.9922L14.0032 13.1709L14.0383 13.2275C14.0773 13.2794 14.1285 13.3219 14.1887 13.3535L14.3811 13.4541L14.4485 13.4824C14.5161 13.5021 14.5868 13.4995 14.6555 13.4717L14.843 13.3955L14.9104 13.3545C14.9305 13.3369 14.9479 13.3148 14.9592 13.2871C14.9702 13.2599 14.9735 13.2315 14.9719 13.2051L14.9543 13.1289L14.8782 12.9297C14.86 12.8827 14.8571 12.8378 14.8694 12.793L14.925 12.5938L14.9456 12.4766L14.9446 12.3574L14.9231 12.1582L14.9036 11.9609L14.886 11.7617C14.8811 11.7064 14.8848 11.6507 14.8977 11.5947L14.9436 11.3955L14.9573 11.2715L14.9407 11.1484L14.8899 10.9492L14.8479 10.7568L14.8108 10.5576C14.8026 10.5122 14.8083 10.4654 14.8293 10.416L14.9143 10.2168L14.9358 10.1562C14.9479 10.1155 14.9548 10.0739 14.9563 10.0322L14.9543 9.96875L14.9358 9.76953L14.9211 9.5752L14.9104 9.37598C14.9086 9.3414 14.9057 9.31026 14.9016 9.28516C14.9 9.27548 14.8972 9.26148 14.8928 9.24707L14.8723 9.20312L14.843 9.16211L14.8098 9.12988C14.7984 9.12276 14.7863 9.11883 14.7776 9.11621C14.7597 9.11086 14.7411 9.10961 14.7268 9.10938L14.6292 9.12012ZM10.135 9.16797C10.0954 9.15461 10.0389 9.14275 9.9856 9.16699C9.93749 9.18894 9.91365 9.22827 9.90356 9.2666L9.89771 9.30273L9.88599 9.4668L9.85767 9.63086L9.80884 9.83008C9.79044 9.9049 9.78191 9.98103 9.78442 10.0566L9.79126 10.2559L9.80005 10.3643C9.80445 10.4002 9.81006 10.4368 9.81763 10.4727L9.85962 10.6719L9.87036 10.7539L9.86646 10.8369L9.83911 11.0361L9.80688 11.2295L9.76685 11.4287C9.75239 11.5025 9.7476 11.5771 9.75122 11.6514L9.76099 11.8506L9.76587 12.0459L9.76685 12.2451L9.77075 12.4473L9.77856 12.6465L9.78833 12.7578C9.79408 12.7946 9.80266 12.8316 9.81274 12.8682L9.86743 13.0674L9.90454 13.2139L9.927 13.3203L9.93872 13.3555C9.95432 13.388 9.98061 13.4126 10.01 13.4287C10.046 13.4482 10.0884 13.457 10.1282 13.46L10.3274 13.4746L10.3821 13.4756C10.3975 13.4747 10.4202 13.472 10.4417 13.4629C10.4638 13.4534 10.5035 13.4272 10.511 13.374C10.514 13.3518 10.5101 13.3317 10.5042 13.3164L10.4856 13.2842L10.4319 13.2129C10.4318 13.212 10.4319 13.2103 10.4319 13.209C10.431 13.1977 10.4318 13.1783 10.4368 13.1504L10.4719 12.9512L10.4875 12.8438C10.4912 12.8082 10.4935 12.7719 10.4944 12.7363L10.4993 12.5371L10.5149 12.3506L10.5432 12.1514L10.5549 12.043L10.5569 11.9355L10.552 11.7363L10.5325 11.5234L10.5002 11.3242C10.4922 11.2746 10.4969 11.2243 10.5139 11.1729L10.5803 10.9736L10.6086 10.8584L10.6174 10.7412L10.6155 10.542L10.5989 10.3301L10.5715 10.1318L10.5286 9.91992L10.4758 9.72168C10.4605 9.66392 10.4593 9.62128 10.4641 9.59277L10.4885 9.45117L10.4905 9.41309C10.4892 9.37579 10.476 9.33947 10.4504 9.30859C10.435 9.29017 10.4164 9.2746 10.3967 9.2627L10.3342 9.23438L10.135 9.16797Z" fill="#23222A"/>
</svg>
