<svg width="387" height="441" viewBox="0 0 387 441" fill="none" xmlns="http://www.w3.org/2000/svg">
<path d="M221.617 0.0458359C222.41 -0.00297223 223.193 -0.0155088 223.937 0.0214218C224.595 0.0537135 225.222 0.124357 225.796 0.230406C225.986 0.265527 226.176 0.303939 226.368 0.347594C227.122 0.512621 228.09 0.823117 228.775 1.10834C229.461 1.37896 230.153 1.78775 230.591 2.09173C231.075 2.42437 231.49 2.76245 231.875 3.11029C232.271 3.46915 232.632 3.83897 232.971 4.2265C233.325 4.63255 233.655 5.05779 233.963 5.51263C234.293 6.00162 234.598 6.52418 234.868 7.10736C234.881 7.13632 234.895 7.16612 234.908 7.19525C235.16 7.72296 235.507 8.76367 235.576 9.33392C235.576 9.33702 235.577 9.3406 235.577 9.34369C235.854 10.3579 235.799 12.0468 235.598 12.9306C235.398 13.9697 235.075 14.8574 234.698 15.666C234.319 16.4732 233.881 17.2014 233.389 17.8847C233.372 17.9075 233.356 17.9302 233.339 17.9529C233.275 18.0401 233.197 18.1156 233.107 18.1755C233.001 18.2465 232.893 18.3158 232.783 18.3837C232.301 18.6811 231.818 18.9981 231.292 19.3408C230.645 19.7565 229.95 20.2201 228.99 20.6952C228.424 20.9735 227.511 21.3607 226.463 21.5327C226.294 21.5604 226.133 21.624 225.996 21.7269C225.966 21.7498 225.936 21.7722 225.906 21.7939C225.783 21.884 225.645 21.9723 225.495 22.0585C225.004 22.3408 224.377 22.5994 223.688 22.8476C223.282 22.9943 222.853 23.1386 222.415 23.288C221.849 23.4813 221.268 23.6836 220.697 23.9199C220.392 24.0463 220.109 24.1617 219.847 24.2693C219.787 24.2941 219.729 24.3248 219.675 24.3608C219.464 24.5005 219.252 24.6396 219.038 24.7773C219.02 24.7888 219.001 24.8009 218.983 24.8124C216.551 26.3781 214.12 27.9466 211.691 29.5165C211.631 29.5548 211.576 29.5993 211.526 29.6493L211.497 29.6784C211.451 29.7247 211.4 29.7663 211.346 29.8026C210.949 30.068 210.536 30.3431 210.107 30.624C209.578 30.9708 209.022 31.327 208.434 31.6835C208.117 31.8758 207.79 32.0668 207.453 32.2577C206.582 32.8215 205.711 33.3851 204.841 33.9492C203.481 34.8301 202.121 35.7113 200.762 36.5927C200.451 36.8129 200.139 37.0338 199.827 37.2519C197.508 38.875 195.46 40.5512 193.414 42.2304C192.944 42.616 192.473 43.0031 192 43.3886C191.768 43.5775 191.519 43.7731 191.255 43.9736C187.586 46.7581 181.036 50.5774 177.028 52.9199C176.851 53.023 176.679 53.1235 176.513 53.2206C176.436 53.2659 176.358 53.3121 176.281 53.3574C175.282 53.9412 174.348 54.513 173.256 55.1845C171.021 56.5597 168.112 58.347 162.598 61.5302C161.686 62.0575 160.702 62.6234 159.639 63.2324C159.03 63.6237 158.421 64.0143 157.812 64.4048C157.103 64.8596 157.239 65.9342 158.04 66.1988C158.215 66.257 158.39 66.3147 158.562 66.372C159.435 66.6618 160.266 66.9406 161.051 67.2079C162.204 67.6008 163.377 68.0032 164.557 68.4062C166.54 69.0827 168.488 69.7415 170.49 70.3857C172.936 71.171 175.382 72.0337 177.622 72.8574C179.69 73.6175 181.633 74.3592 183.395 75.0331C183.801 75.1885 184.198 75.3404 184.584 75.4882C185.174 75.7141 185.741 75.9305 186.28 76.1357C188.036 76.7245 189.786 77.3071 191.53 77.872C193.844 78.6212 196.15 79.3411 198.452 80.0077C199.366 80.2725 200.28 80.5286 201.194 80.7751C201.247 80.7896 201.3 80.8084 201.35 80.8316C201.641 80.9651 201.934 81.1 202.232 81.2363C203.151 81.6562 204.134 82.046 205.2 82.4111C207.178 83.0835 209.346 83.6632 212.047 84.1708C214.408 84.6101 217.048 85.0412 220.087 85.4843C221.798 85.7335 223.636 85.9861 225.615 86.2392C227.959 86.5386 230.503 86.8397 233.274 87.1308C236.241 87.4394 237.894 87.7792 239.197 88.0781C239.34 88.1107 239.48 88.1426 239.616 88.1738C240.02 88.2662 240.399 88.3517 240.784 88.4247C242.104 88.6748 243.519 88.5684 245.181 88.4199C247.246 88.2338 249.686 87.9886 252.858 88.2314C253.005 88.2425 253.153 88.2543 253.303 88.2675C259.267 88.7862 263.41 88.5659 266.488 88.1786C268.996 87.8566 270.809 87.4099 272.381 87.0058C273.409 86.7406 274.335 86.4914 275.29 86.289C276.615 86.0081 278.193 85.7613 279.826 85.5312C282.004 85.2264 284.293 84.9452 286.223 84.7216C287.861 84.5354 290.428 83.9179 293.103 83.0742L294.386 82.664C295.664 82.2484 296.923 81.8189 298.072 81.4101C298.816 81.1457 299.7 80.8719 300.699 80.581C301.712 80.2861 302.843 79.9734 304.066 79.6318C305.402 79.2587 306.848 78.8512 308.369 78.3974C309.711 77.9969 311.113 77.5594 312.549 77.0771C313.769 76.6671 314.898 76.2849 315.947 75.9277C319.061 74.867 321.471 74.0275 323.473 73.3251C325.072 72.7634 326.411 72.2888 327.637 71.8505C328.57 71.5165 329.439 71.204 330.306 70.8886C330.52 70.8107 330.738 70.7308 330.96 70.6503C333.18 69.8454 335.752 68.9236 338.423 67.9443C338.878 67.7766 339.308 67.6078 339.714 67.4404C340.393 67.1598 341.144 66.8275 341.86 66.4882C343.032 65.934 344.194 65.3287 345.319 64.7079C346.553 64.0272 347.743 63.3291 348.847 62.666C349.176 62.468 349.497 62.2725 349.809 62.082C350.722 61.6027 351.65 61.113 352.598 60.623C353.892 59.9535 355.225 59.2821 356.601 58.6327C357.947 57.9971 359.472 57.3249 360.871 56.7802C362.425 56.1755 363.797 55.5726 365.252 54.8515C366.679 54.1424 368.067 53.3692 369.396 52.5322C370.451 51.8678 371.471 51.1616 372.439 50.4169C372.69 50.224 372.94 50.0307 373.186 49.8388C374.438 48.8641 375.625 47.9024 376.72 46.9794C377.991 45.9098 379.141 44.889 380.182 43.9765C380.256 43.9121 380.331 43.8473 380.403 43.7841C382.55 41.917 384.155 40.6326 385.44 41.0019C386.673 41.3464 387.522 43.5766 386.631 47.2499C386.6 47.3717 386.568 47.4953 386.534 47.6191C386.052 49.3713 385.162 51.3015 383.905 53.164C382.824 54.7717 381.478 56.3283 379.957 57.7304C379.657 58.0068 379.35 58.2785 379.038 58.5429C377.834 59.5621 376.586 60.5144 375.308 61.4042C373.699 62.5249 372.041 63.5496 370.345 64.4911C368.675 65.4198 366.848 66.3181 365.134 67.0683C363.904 67.6123 362.824 68.1465 361.624 68.7724C360.449 69.3866 359.266 70.0434 358.066 70.7245C356.927 71.371 355.771 72.0406 354.589 72.7158C354.526 72.7518 354.462 72.7881 354.398 72.8242C353.15 73.5358 351.87 74.2534 350.549 74.954C349.227 75.6548 347.862 76.3385 346.449 76.9794C345.073 77.6068 343.488 78.2496 342.063 78.746C339.529 79.6363 336.957 80.5137 334.401 81.3583C331.84 82.2048 329.272 83.0275 326.699 83.8271C325.266 84.2725 323.829 84.7105 322.392 85.1415C321.25 85.4843 320.106 85.8235 318.962 86.1591C316.378 86.9169 313.79 87.6577 311.2 88.3818C308.61 89.1058 306.016 89.8143 303.421 90.5087C302.184 90.8396 300.947 91.1671 299.709 91.4921C298.927 91.6973 298.144 91.9009 297.363 92.1035C296.792 92.2869 296.222 92.4701 295.654 92.6513C290.733 94.2245 285.603 95.4933 281.613 96.2704C280.901 96.4102 280.22 96.5362 279.575 96.6494C275.67 97.3303 272.777 97.4703 270.312 97.5605C269.219 97.5988 268.207 97.6248 267.223 97.6699C266.679 97.6947 266.143 97.7249 265.605 97.7665C264.794 97.8294 263.687 97.9194 262.351 98.0097C259.842 98.1805 256.521 98.3469 252.848 98.3622C248.539 98.3854 243.744 98.1915 239.224 97.7197C238.998 97.6962 238.769 97.6718 238.539 97.6464C234.988 97.257 230.979 96.6273 227.173 95.9335C226.252 95.7662 225.342 95.5956 224.453 95.4257C219.75 94.5286 215.593 93.6298 213.296 93.3408C212.386 93.2267 211.457 93.0918 210.516 92.9413C208.068 92.5512 205.407 91.9379 202.962 91.2597C201.293 90.7988 199.666 90.2987 198.122 89.7988C197.282 89.5268 196.465 89.2542 195.679 88.9882C192.815 88.0191 190.345 87.1359 188.536 86.6132C188.175 86.5086 187.839 86.418 187.533 86.3437C185.437 85.8348 183.656 85.1855 181.462 84.3105C180.83 84.0586 180.163 83.7868 179.446 83.496C178.069 82.9381 176.502 82.3039 174.624 81.5937C173.468 81.1569 172.187 80.6895 170.772 80.205C169.704 79.8392 168.708 79.4977 167.769 79.1777L166.88 78.8701C164.847 78.1559 163.129 77.4765 161.625 76.8622C161.291 76.7257 160.965 76.5917 160.647 76.4599C158.832 75.7065 157.252 75.0305 155.607 74.3906C153.919 73.7332 152.161 73.111 150.02 72.4745C149.848 72.4233 149.675 72.372 149.502 72.3202C148.732 72.0899 147.961 71.8547 147.193 71.618C146.914 71.5321 146.612 71.5719 146.364 71.7268C145.247 72.4267 144.111 73.1245 142.978 73.8033C142.659 73.9944 142.479 74.3468 142.447 74.7172C142.375 75.5345 142.089 76.4924 141.591 77.5497C141.114 78.5619 140.464 79.6241 139.693 80.6855C138.771 81.9559 137.675 83.2251 136.494 84.4199C136.029 84.89 135.568 85.3612 135.113 85.8329C133.553 87.4512 132.06 89.0827 130.666 90.7431C129.376 92.2795 128.171 93.8409 127.075 95.4326C126.995 95.5667 126.914 95.7017 126.835 95.8359C126.79 95.9108 126.746 95.9858 126.702 96.0605C125.785 97.613 125.196 99.1822 124.721 100.738C124.641 101 124.563 101.263 124.488 101.525C124.461 101.621 124.434 101.717 124.408 101.811C123.976 103.291 123.307 104.861 122.535 106.987C121.806 109.005 121.085 110.907 120.553 112.396C120.509 112.517 120.469 112.629 120.43 112.741C120.41 112.797 120.39 112.854 120.37 112.91C120.11 113.646 119.896 114.341 119.657 115.154C119.441 115.892 119.205 116.724 118.917 117.764C118.55 119.1 118.08 120.786 117.578 123.013C117.442 123.621 117.307 124.264 117.179 124.952C117.073 126.007 117.01 127.034 117 128.012C116.996 128.427 117.001 128.85 117.017 129.242C117.06 130.332 117.19 131.332 117.39 132.133C117.794 133.45 117.74 133.433 118.344 134.233C119.734 135.707 121.321 137.592 122.595 139.391C123.918 141.246 125.119 143.237 126.136 145.344C127.152 147.446 127.976 149.653 128.591 151.874C129.208 154.099 129.619 156.327 129.88 158.518C130.14 160.704 130.253 162.852 130.276 164.95C130.3 167.018 130.234 169.167 130.121 171.118C130.026 172.98 129.747 175.32 129.313 177.292C128.875 179.348 128.253 181.379 127.464 183.323C127.018 184.422 126.52 185.494 125.981 186.529C125.856 186.793 125.727 187.059 125.594 187.326C125.332 187.849 125.053 188.376 124.761 188.902C123.803 190.627 122.687 192.332 121.542 193.892C120.344 195.525 119.12 197.004 118.002 198.268C117.296 199.064 116.631 199.775 116.029 200.386C115.411 201.013 114.835 201.588 114.289 202.128C111.772 204.618 109.923 206.415 108.336 207.957C107.603 208.75 106.872 209.545 106.143 210.342C103.544 213.184 100.97 216.053 98.4276 218.948C95.8848 221.844 93.3717 224.767 90.8924 227.719C88.4134 230.67 85.9678 233.652 83.5594 236.662C81.8796 238.762 80.2175 240.877 78.5751 243.006C77.8629 243.929 77.1539 244.855 76.4491 245.784C74.2461 248.688 72.0899 251.606 69.9608 254.568C69.8352 254.743 69.7093 254.919 69.5838 255.094C67.4269 258.103 65.2691 261.108 63.1922 264.111C62.8872 264.552 62.5843 264.992 62.284 265.432C60.9308 267.611 59.7019 269.71 58.6014 271.662C58.2511 272.283 57.9132 272.888 57.5868 273.479C56.474 275.495 55.5058 277.317 54.6542 278.861C53.9298 280.174 53.1775 281.528 52.4364 282.889C50.6538 286.149 48.9565 289.463 47.702 292.295C47.5622 292.609 47.4279 292.916 47.2987 293.217C47.0077 293.893 46.7432 294.537 46.5086 295.133C45.7511 297.45 45.1235 299.791 44.659 302.135C44.4524 303.177 44.2779 304.221 44.1373 305.264C44.1263 305.345 44.1056 305.425 44.0754 305.502C44.0031 305.684 43.9303 305.868 43.8573 306.055C43.2248 307.691 42.8551 309.498 42.7547 312.084L42.7264 313.285C42.7109 314.513 42.7321 315.835 42.784 317.344C42.7992 317.781 42.8167 318.231 42.8368 318.694C42.8899 319.921 42.96 321.242 43.0409 322.674C43.1336 324.321 43.2423 326.114 43.3456 328.078C43.3483 328.13 43.3507 328.182 43.3534 328.233C43.4793 330.645 43.2818 331.914 43.118 332.947C43.0829 333.169 43.0492 333.381 43.0204 333.592C43.0097 333.67 43.0002 333.747 42.9911 333.825C42.8745 334.813 43.1079 335.837 43.371 337.059C43.5058 337.685 43.6483 338.365 43.7528 339.117C43.9119 340.268 43.9839 341.581 43.7909 343.154C43.7217 343.711 43.6566 344.239 43.5946 344.743C43.1116 348.661 42.8143 351.493 42.7196 353.613C42.6368 355.31 42.6606 356.615 42.6678 357.771C42.6724 358.592 42.6658 359.34 42.5907 360.091C42.5146 360.847 42.366 361.689 42.162 362.563C41.7105 364.511 40.9783 366.602 40.2694 368.263C39.977 368.95 39.6671 369.908 39.3485 370.991C38.7852 372.917 38.181 375.239 37.6913 377.174C37.5258 377.831 37.2719 378.603 36.9559 379.468C36.7223 380.107 36.4548 380.799 36.1639 381.534C35.4562 383.325 34.6089 385.375 33.793 387.6C33.7929 387.6 33.7928 387.601 33.7928 387.601V387.601C33.7928 387.601 33.7928 387.602 33.7927 387.602C32.4572 391.235 31.4549 393.749 30.6864 395.684C30.2555 396.759 29.8603 397.69 29.4842 398.55C29.1818 399.241 28.889 399.89 28.6034 400.518C28.1216 401.579 27.556 402.757 26.9442 403.984C26.4064 405.063 25.8328 406.181 25.2547 407.294C24.444 408.854 23.6213 410.412 22.87 411.856C22.2485 413.05 21.6751 414.169 21.1913 415.154C20.3282 416.572 19.4727 417.982 18.6346 419.389C17.1776 421.834 15.7705 424.271 14.4618 426.719C13.6803 428.181 12.9327 429.648 12.2342 431.121C11.7516 432.138 11.2375 433.119 10.7059 434.04C9.79999 435.608 8.8472 437.005 7.87584 438.124C6.33796 439.89 4.84986 440.836 3.55845 440.549C2.27882 440.268 1.29375 438.699 1.0438 436.097C0.887698 434.461 1.04612 432.521 1.51255 430.515C1.78568 429.336 2.16259 428.136 2.62877 426.962C3.30458 425.261 4.02508 423.59 4.77427 421.945C6.02904 419.192 7.36661 416.51 8.73619 413.878C9.62756 412.165 10.5332 410.473 11.4403 408.797C11.9263 407.899 12.414 407.003 12.8993 406.113C14.2906 403.562 15.6709 401.042 16.993 398.535C18.3263 396.004 19.5438 393.603 20.7108 391.059C21.1806 390.032 21.6465 389.012 22.1063 388C22.7971 386.479 23.4827 384.946 24.1502 383.421C25.2625 380.879 26.3322 378.337 27.3338 375.786C27.697 374.861 28.051 373.935 28.3954 373.008C28.5872 372.491 28.7763 371.973 28.9618 371.455C29.2697 370.299 29.5618 369.144 29.8319 368.016C30.5377 365.077 31.0832 362.313 31.4852 360.146C31.5099 360.014 31.5337 359.884 31.5575 359.756C32.0192 357.259 32.4936 355.48 32.8739 353.94C33.0058 353.402 33.1243 352.897 33.2215 352.4C33.316 351.918 33.3896 351.449 33.4344 350.972C33.4831 350.452 33.5353 349.739 33.5799 348.889C33.6411 347.707 33.6888 346.268 33.6991 344.532C33.7079 342.893 33.6885 341.221 33.66 339.375C33.6337 337.654 33.6004 335.867 33.5936 334.104C33.593 333.955 33.5928 333.805 33.5926 333.655C33.5915 332.133 33.6161 330.447 33.6522 328.712C33.6767 327.541 33.7063 326.348 33.7391 325.172C33.7575 324.511 33.7773 323.856 33.7967 323.213C33.8581 321.154 33.9249 319.219 33.9501 317.637C33.9661 316.59 33.9624 315.699 33.9159 315.023C33.8483 314.042 33.8178 313.01 33.8211 311.996L33.8251 311.482C33.8695 308.892 34.2653 305.932 34.7801 303.492C35.0294 302.281 35.3064 301.134 35.5731 300.086C36.0753 298.112 36.5442 296.475 36.7362 295.345C37.0954 293.273 37.7723 291.613 38.8749 289.236C38.937 289.103 39.0002 288.968 39.0653 288.83C39.8072 287.264 40.7367 285.382 41.9754 282.931C42.8602 281.184 43.6786 279.777 44.4247 278.572C44.9936 277.655 45.5223 276.856 46.0184 276.119C47.6392 273.724 48.8924 271.97 50.3553 269.101C50.3872 269.039 50.4189 268.976 50.451 268.914C52.0603 265.789 53.9357 262.675 55.6532 260.398C55.9013 260.069 56.16 259.717 56.4217 259.353C56.9934 258.56 57.5983 257.691 58.2137 256.812C59.4065 255.109 60.6645 253.334 61.9169 251.8C62.3241 251.3 62.7217 250.854 63.1063 250.448C63.7109 249.807 64.2926 249.255 64.8319 248.744C65.086 248.503 65.3307 248.271 65.5645 248.043C65.6054 248.003 65.6426 247.96 65.676 247.914C66.4061 246.902 67.1396 245.889 67.8718 244.879C67.9083 244.829 67.94 244.775 67.9664 244.719C68.0461 244.549 68.1283 244.372 68.2137 244.187C68.643 243.262 69.1592 242.155 69.8944 240.906C70.0163 240.699 70.1446 240.488 70.2792 240.273C71.7771 237.884 73.3801 236.001 75.0799 234.026C75.735 233.266 76.4046 232.491 77.0897 231.669C77.7892 230.83 78.5054 229.94 79.2381 228.964C80.227 227.647 81.3036 226.107 82.3778 224.586C82.9398 223.79 83.5015 222.998 84.0487 222.245C85.0543 220.861 86.0126 219.608 86.8338 218.694C87.3092 218.165 87.8188 217.793 88.3241 217.426C88.3264 217.424 88.3295 217.423 88.3319 217.422V217.422C88.4001 217.372 88.4606 217.313 88.5122 217.246C89.5346 215.923 90.5607 214.602 91.5907 213.284C93.3775 210.998 95.1762 208.721 96.9872 206.453C97.2148 206.122 97.4462 205.788 97.6756 205.457C98.0269 204.951 98.3756 204.449 98.7079 203.965C99.4364 202.904 100.086 201.925 100.504 201.159C101.158 199.955 103.265 197.272 105.489 194.497C105.517 194.462 105.546 194.427 105.574 194.392L106.401 193.354C107.22 192.323 108.004 191.315 108.688 190.377C108.947 190.022 109.189 189.681 109.415 189.352C110.023 188.467 110.768 187.796 111.512 187.092C111.63 186.98 111.748 186.867 111.865 186.753C112.434 186.198 112.984 185.602 113.421 184.875C113.684 184.436 113.917 183.936 114.145 183.405C114.209 183.258 114.273 183.107 114.337 182.955C114.475 182.625 114.613 182.285 114.761 181.941C114.96 181.474 115.553 180.52 116.166 179.239C116.187 179.194 116.209 179.149 116.23 179.103C116.589 178.343 116.948 177.47 117.249 176.524C117.351 176.042 117.438 175.562 117.512 175.071C117.729 173.594 117.808 172.389 117.815 170.753C117.816 169.743 117.803 168.778 117.774 167.835C117.772 167.771 117.764 167.708 117.75 167.646C117.606 167.037 117.414 166.494 117.174 166.08C117.035 165.838 116.876 165.626 116.71 165.423C116.659 165.36 116.607 165.299 116.555 165.237C116.252 164.871 115.937 164.507 115.669 164.003C115.459 163.609 115.351 163.15 115.401 162.83C115.425 162.682 115.482 162.565 115.534 162.459C115.593 162.338 115.646 162.226 115.632 162.101C115.621 162.01 115.561 161.919 115.489 161.81C115.374 161.637 115.224 161.414 115.175 161.057C115.153 160.9 115.131 160.742 115.108 160.582C114.938 159.384 114.732 158.114 114.452 156.915C114.389 156.645 114.322 156.376 114.252 156.114C113.933 154.913 113.533 153.815 113.108 152.95C112.978 152.683 112.839 152.384 112.693 152.067C112.197 150.984 111.574 149.643 110.792 148.313C110.75 148.242 110.707 148.17 110.664 148.098C109.973 146.948 109.254 145.911 108.479 144.986C108.281 144.75 108.06 144.508 107.823 144.264C106.788 143.267 105.276 141.234 104.483 139.638C103.79 138.313 103.297 137.017 102.966 135.801C102.667 134.703 102.502 133.675 102.456 132.74C102.438 132.35 102.58 131.844 102.78 131.236C102.908 130.856 103.059 130.431 103.208 129.964C103.242 129.855 103.257 129.74 103.253 129.626C103.232 129.024 103.227 128.412 103.236 127.829C103.26 126.334 103.37 124.886 103.534 123.473C103.547 123.365 103.54 123.257 103.515 123.152C103.509 123.128 103.504 123.104 103.498 123.08C103.497 123.078 103.496 123.075 103.495 123.072V123.072C103.331 122.396 103.156 121.624 103.068 120.753C102.925 119.333 103.018 117.643 103.77 115.783C104.065 115.055 104.405 114.627 104.715 114.254C104.729 114.237 104.743 114.219 104.758 114.202C105.075 113.82 105.359 113.487 105.545 112.939C105.756 112.318 105.832 111.54 105.924 110.697C106.019 109.828 106.133 108.888 106.42 107.988C106.527 107.651 106.658 107.322 106.818 107.01C106.858 106.931 106.903 106.841 106.949 106.751C107.364 105.935 107.992 104.72 108.823 103.604C108.88 103.527 108.926 103.444 108.96 103.356C109.096 103.005 109.242 102.628 109.373 102.295C110.273 99.9626 111.541 97.3399 112.853 95.1435C113.52 94.0174 114.226 92.9231 114.967 91.8613C115.715 90.7877 116.497 89.7484 117.306 88.7421C117.592 88.386 117.881 88.0341 118.174 87.6862C118.853 86.8785 117.993 85.5684 116.985 85.8797C116.804 85.9353 116.624 85.9904 116.443 86.0449C114.144 86.74 111.595 87.3873 109.268 87.8476C106.933 88.3197 104.216 88.6915 101.778 88.8603C99.2767 89.0406 96.7808 89.0671 94.3143 88.9628C91.8477 88.8588 89.4097 88.6249 87.0116 88.291C84.6138 87.957 82.2542 87.5228 79.9354 87.0185C77.6155 86.5139 75.3358 85.9386 73.0907 85.3183C72.5345 85.1646 71.9808 85.0085 71.4286 84.8495C71.0838 84.7617 70.7331 84.6713 70.3797 84.579C69.0866 84.2415 67.736 83.874 66.4051 83.498C65.232 83.1676 64.0011 82.8434 62.6922 82.4765C61.3829 82.1097 60.0313 81.7096 58.6825 81.2509C57.2664 80.7698 55.8521 80.2222 54.4979 79.5937C52.982 78.8917 51.5408 78.0831 50.2684 77.1992C49.8869 76.9346 49.5192 76.6626 49.1708 76.3886C48.1262 75.5679 47.1663 74.6733 46.3182 73.7265C45.0834 72.383 43.8234 70.4496 43.2381 69.1542L42.9588 68.5546C41.5836 65.5289 40.53 62.0738 40.3856 59.0966C40.3568 58.7669 40.3331 58.3895 40.3231 58.039C39.9635 53.7378 42.3974 48.3596 45.9032 45.8437C49.3162 43.1674 52.8722 42.0588 56.2137 41.2577C59.5807 40.4933 62.8475 40.1537 66.0702 39.9765C69.2873 39.8062 72.4689 39.8196 75.5956 39.9286C78.7461 40.0377 81.8527 40.2547 84.8846 40.4941C85.7876 40.5572 86.939 40.7284 87.8436 40.9326C88.7965 41.1419 89.711 41.4069 90.5838 41.7021C91.4571 41.9974 92.2905 42.3232 93.0897 42.6601C93.8886 42.997 94.6546 43.3449 95.3944 43.6894C96.1343 44.0341 96.8487 44.3753 97.5438 44.7011C98.251 45.0323 98.8861 45.3259 99.5751 45.623C100.58 46.0551 101.528 46.4354 102.55 46.8232C102.83 46.9294 103.111 47.0347 103.393 47.1386C104.127 47.4086 104.869 47.6715 105.618 47.9286C106.655 48.2848 107.705 48.6304 108.765 48.9726C109.826 49.3148 110.898 49.6535 111.978 49.9951C113.058 50.3366 114.147 50.6811 115.242 51.0361C116.329 51.3885 117.455 51.7625 118.542 52.1396C119.478 52.4628 120.503 52.8652 121.402 53.247C121.903 53.4588 122.395 53.6753 122.879 53.8935C123.286 54.0771 123.688 54.2621 124.085 54.4472C124.954 54.8525 125.801 55.2585 126.632 55.6523C127.462 56.046 128.276 56.4281 129.077 56.7861C129.878 57.1441 130.668 57.4785 131.446 57.7773C132.251 58.0846 132.929 58.3183 133.747 58.5556C134.891 58.885 136.05 59.2361 137.203 59.5968C137.499 59.6893 137.821 59.6404 138.075 59.4636C138.828 58.9403 139.568 58.4287 140.306 57.9413C140.773 57.6333 141.233 57.3412 141.685 57.0708C141.909 56.9367 142.072 56.7222 142.157 56.4751C142.207 56.3297 142.262 56.1864 142.322 56.0458C142.338 56.009 142.355 55.9719 142.371 55.9355C142.71 55.1853 143.04 54.447 143.355 53.7216C143.686 52.9611 144.001 52.2133 144.293 51.4804C144.488 50.9894 144.673 50.5043 144.846 50.0274C144.863 49.9818 144.876 49.9351 144.886 49.8876C144.903 49.8056 144.92 49.7239 144.937 49.6435C144.963 49.5244 144.984 49.4034 145 49.2841C145.09 48.6217 145.023 47.998 144.931 47.3964C144.915 47.2611 144.899 47.1197 144.886 46.9745C144.885 46.9263 144.885 46.8768 144.885 46.8271C144.886 46.4727 144.962 46.0334 145.071 45.6035C145.177 45.1911 145.323 44.7553 145.498 44.3154C145.662 43.9012 145.852 43.4821 146.056 43.0732C146.264 42.6541 146.487 42.2445 146.709 41.8603C146.961 41.4242 147.213 41.019 147.439 40.6669C147.483 40.5995 147.526 40.5332 147.567 40.4697C147.586 40.4405 147.605 40.4109 147.624 40.3818C147.811 40.0978 148.025 39.747 148.202 39.4638L148.345 39.2353C148.707 38.6588 149.226 37.8413 150.068 36.787C150.525 36.2141 151.092 35.5488 151.816 34.7782C151.849 34.7432 151.88 34.7057 151.908 34.6664C151.988 34.5523 152.069 34.4383 152.15 34.3251C152.573 33.7347 153.009 33.1546 153.455 32.5869C153.661 32.3243 153.87 32.0629 154.08 31.8046C154.745 30.9875 155.43 30.1909 156.132 29.415C156.833 28.639 157.553 27.8834 158.287 27.1464C159.008 26.4223 159.799 25.6622 160.533 24.9921C161.264 24.3275 161.961 23.6908 162.687 23.0214C163.408 22.3582 164.131 21.6884 164.857 21.0146C165.584 20.3407 166.314 19.6622 167.048 18.9804C167.781 18.2986 168.519 17.6128 169.262 16.9257C170.004 16.2386 170.752 15.549 171.505 14.8593C171.797 14.5915 172.091 14.3235 172.386 14.0556C172.459 13.9741 172.533 13.8898 172.609 13.8056C172.941 13.4372 173.292 13.048 173.648 12.6601C174.464 11.7666 175.575 10.7058 176.496 9.97455C177.076 9.50904 177.64 9.11006 178.143 8.80755C178.738 8.45018 179.292 8.14531 179.806 7.87982C181.186 7.17128 182.286 6.7353 183.235 6.39056C183.275 6.37156 183.314 6.35181 183.353 6.33295C184.492 5.78735 185.644 5.29859 186.799 4.86029C187.953 4.42194 189.112 4.03308 190.266 3.68451C191.404 3.34137 192.614 3.01411 193.719 2.74701C194.47 2.56058 195.353 2.37411 196.113 2.24505C196.899 2.10898 197.674 2.00037 198.438 1.90912C199.203 1.81799 199.958 1.74485 200.705 1.68353C201.452 1.62226 202.191 1.57263 202.923 1.53021C203.654 1.48781 204.378 1.4524 205.096 1.41986C205.104 1.41947 205.113 1.41927 205.122 1.41888C205.828 1.38694 206.534 1.3566 207.223 1.32611C207.632 1.30812 207.964 1.28489 208.383 1.24505C208.785 1.20657 209.202 1.15762 209.635 1.10248C210.067 1.04739 210.514 0.98543 210.977 0.922789C211.07 0.910293 211.164 0.898218 211.258 0.88568C211.634 0.835368 212.021 0.784872 212.418 0.738219C212.914 0.679984 213.427 0.626821 213.958 0.586852C214.466 0.547443 215.09 0.51898 215.6 0.514586C216.219 0.5067 216.822 0.489876 217.471 0.472594C217.537 0.470826 217.603 0.469473 217.67 0.467711C218.265 0.394073 218.865 0.31616 219.465 0.246031C220.04 0.178736 220.617 0.118603 221.189 0.0751328C221.332 0.0643062 221.475 0.0545234 221.617 0.0458359ZM66.6825 48.5585C66.65 48.5545 66.6172 48.5542 66.5847 48.5572C63.7462 48.8225 60.9572 49.2468 58.3749 49.9501C55.7866 50.6506 53.3583 51.7012 51.8729 53.0341C51.6938 53.1933 51.533 53.3509 51.3827 53.5136C51.1724 53.784 51.0036 54.05 50.8651 54.3163C50.2928 55.4166 50.2995 56.5362 50.5604 57.5742C50.6014 57.7317 50.6507 57.8992 50.702 58.0351C51.0598 59.0525 51.481 60.6927 53.286 63.8398L53.5946 64.3154C53.8676 64.7098 54.0645 64.9072 54.4501 65.3281C54.553 65.4334 54.659 65.537 54.7694 65.6396C55.3617 66.1911 56.0704 66.704 56.8592 67.1591C57.6985 67.6446 58.6247 68.0624 59.5458 68.4052C59.7598 68.485 59.9741 68.5609 60.1864 68.6327C61.0015 68.9086 61.7927 69.2542 62.6122 69.6249C63.0508 69.8232 63.4978 70.0285 63.9588 70.2333C64.5865 70.5122 65.2441 70.7906 65.9471 71.0488C66.6279 71.2988 67.3473 71.529 68.1444 71.7314C68.6402 71.8574 69.1764 71.9763 69.7235 72.0956C70.0636 72.169 70.4127 72.2414 70.7684 72.3134C71.5706 72.4759 72.4043 72.6387 73.2694 72.831C73.813 72.9518 74.787 73.2491 76.0497 73.6298C76.6617 73.8143 77.3435 74.0186 78.076 74.2304C79.3308 74.5932 80.7414 74.9788 82.2264 75.3329C82.3833 75.3704 82.5417 75.4076 82.7001 75.4443C84.6277 75.7668 86.5483 76.0285 88.4579 76.2138C90.526 76.4146 92.5818 76.5264 94.618 76.5322C95.031 76.5334 95.4441 76.53 95.8553 76.5224C96.755 76.38 97.5259 76.1714 98.1229 75.9062C98.5518 75.7157 98.9097 75.4894 99.2713 75.2548C99.6523 75.0077 100.037 74.7512 100.51 74.5068C100.648 74.4349 100.796 74.3633 100.951 74.2939C101.488 74.0556 102.125 73.905 102.569 73.9228C102.777 73.9313 102.94 73.9775 103.085 74.0185C103.251 74.0653 103.399 74.1058 103.567 74.0781C103.688 74.0578 103.807 73.989 103.952 73.9042C104.184 73.7685 104.48 73.5929 104.996 73.4911C105.349 73.4212 105.726 73.3454 106.121 73.2607C107.908 72.8743 109.52 72.4836 111.346 71.9599C111.543 71.9032 111.739 71.8453 111.935 71.787C114.038 71.1632 116.065 70.4422 117.711 69.746C117.79 69.7127 117.868 69.6786 117.945 69.6454C119.42 69.013 121.385 68.2498 123.486 67.3681C124.315 67.0212 125.165 66.6571 126.014 66.2812V66.2812C126.804 65.9312 126.777 64.7976 125.99 64.44C125.892 64.3953 125.794 64.3506 125.697 64.3056C124.794 63.888 123.932 63.4591 123.117 63.0351C122.925 62.935 122.735 62.8348 122.548 62.7353C121.879 62.3795 121.268 62.0332 120.699 61.7011C119.856 61.2085 119.106 60.7476 118.409 60.33C118.157 60.1791 117.912 60.0337 117.673 59.8945C117.247 59.648 116.875 59.4345 116.467 59.2255C116.359 59.1874 116.25 59.149 116.14 59.1113C115.086 58.7505 114.053 58.4133 112.986 58.0751C112.453 57.9063 111.917 57.7394 111.38 57.5732C111.089 57.525 110.782 57.4765 110.461 57.4257C110.218 57.3873 109.966 57.3475 109.706 57.3056C108.715 57.146 107.594 56.9559 106.332 56.6835C105.725 56.5524 105.084 56.4017 104.41 56.2245C103.924 56.0968 103.446 55.9633 102.974 55.8242C101.829 55.4858 100.723 55.1137 99.6415 54.707C98.5379 54.2921 97.4036 53.8181 96.3504 53.3349C95.6038 52.9935 94.8226 52.6098 94.1083 52.248C93.9985 52.1925 93.8892 52.1364 93.7801 52.081C93.1823 51.7771 92.5936 51.4741 92.0077 51.1806C91.3387 50.8456 90.6717 50.522 89.9999 50.2245C89.3589 49.9408 88.7124 49.6804 88.0575 49.4599C87.4378 49.2513 86.8094 49.0782 86.1747 48.957C86.1718 48.9564 86.1687 48.9556 86.1659 48.955C85.5356 48.8383 85.0661 48.7842 84.3631 48.7587C82.7218 48.7021 81.0114 48.6697 79.3104 48.664C77.9911 48.6591 76.6896 48.67 75.4325 48.6894C73.1211 48.7243 71.0126 48.7949 69.3749 48.7958C68.4316 48.7958 67.6169 48.6793 66.8094 48.5751C66.806 48.5744 66.8021 48.5739 66.7987 48.5732C66.7601 48.5682 66.7211 48.5633 66.6825 48.5585V48.5585ZM210.623 8.41302C210.177 8.47635 209.72 8.53973 209.25 8.59806C209.232 8.60034 209.214 8.60631 209.198 8.61517V8.61517C209.11 8.66354 209.016 8.7161 208.918 8.76947C208.602 8.94833 208.163 9.15436 207.727 9.32123C207.478 9.42404 207.206 9.51833 206.916 9.59271C206.494 9.7007 206.089 9.76248 205.695 9.79486C205.007 9.85144 204.347 9.81889 203.673 9.78705C203.637 9.78536 203.6 9.78384 203.564 9.78216C202.959 9.75413 202.339 9.73081 201.683 9.78216C201.413 9.80343 201.136 9.83764 200.852 9.88959C200.509 9.95248 200.147 10.042 199.781 10.1474C199.442 10.2451 199.1 10.3563 198.765 10.4716C198.502 10.5624 198.243 10.6562 197.994 10.747C197.328 10.9869 196.833 11.1826 196.306 11.3046C196.229 11.3226 196.155 11.3378 196.084 11.3505C195.789 11.4033 195.502 11.3264 195.221 11.2495C195.219 11.2492 195.218 11.2487 195.217 11.248V11.248C195.215 11.2473 195.214 11.2468 195.213 11.2464C195.21 11.2456 195.207 11.2448 195.204 11.244C195.174 11.2358 195.143 11.2375 195.114 11.249C194.519 11.4859 193.909 11.7417 193.321 12.0058C192.397 12.4204 191.497 12.8643 190.63 13.3398C190.487 13.4178 190.345 13.497 190.205 13.5768C190.153 13.6062 190.104 13.6402 190.058 13.6785C189.956 13.764 189.854 13.8502 189.754 13.9355C189.194 14.4099 188.676 14.8884 188.385 15.3281C188.363 15.3611 188.341 15.3941 188.322 15.4267C188.051 15.8802 187.213 16.5574 186.358 17.3476C186.263 17.4355 186.166 17.5252 186.071 17.6152C185.477 18.1753 184.898 18.7794 184.474 19.3398C184.453 19.3678 184.431 19.3971 184.411 19.4247C184.163 19.7617 183.756 19.9064 183.356 20.0478C182.988 20.1755 182.602 20.3229 182.305 20.6845C182.261 20.7382 182.217 20.7975 182.176 20.8603L182.017 21.1103C181.965 21.1971 181.913 21.2877 181.86 21.3798C181.727 21.6115 181.588 21.8562 181.421 22.0917C181.268 22.3062 180.808 22.6652 180.215 23.1279C180.203 23.1367 180.191 23.1463 180.18 23.1552C179.823 23.4336 179.42 23.7497 179.007 24.093C178.96 24.1324 178.917 24.1762 178.878 24.2236C178.601 24.5595 178.322 24.8959 178.044 25.2324C177.398 26.0129 176.748 26.7958 176.091 27.5771V27.5771C176.056 27.6178 176.03 27.6643 176.014 27.715C175.918 28.0188 175.875 28.3226 175.897 28.622C175.915 28.8547 175.973 29.0945 176.031 29.3398C176.111 29.6739 176.192 30.0205 176.179 30.3779C176.168 30.657 176.05 30.8869 175.88 30.9531C175.8 30.9835 175.71 30.9792 175.629 30.9755C175.536 30.9713 175.452 30.9679 175.407 31.0175C175.382 31.0451 175.377 31.0938 175.376 31.1533C175.376 31.1713 175.376 31.1909 175.376 31.2109C175.376 31.3489 175.375 31.5284 175.242 31.6728C174.745 32.2109 174.132 32.7828 173.527 33.3417C173.463 33.4012 173.399 33.4614 173.335 33.5204C172.73 34.0792 172.144 34.6213 171.699 35.1093C171.522 35.3043 171.303 35.5062 171.058 35.7089C170.576 36.1057 170.057 36.4512 169.492 36.8574C169.311 36.9868 169.128 37.1182 168.952 37.249C168.571 37.5319 168.21 37.8168 167.909 38.0937C167.607 38.3717 167.356 38.712 167.128 39.0644C167.03 39.2155 166.936 39.3691 166.844 39.5214C166.475 40.1311 166.137 40.7186 165.653 41.0585C165.633 41.0725 165.607 41.084 165.575 41.0917C165.452 41.1217 165.246 41.1095 165.002 41.0976C164.914 41.0933 164.821 41.089 164.725 41.0866C164.442 41.0794 164.181 41.2205 164.007 41.4435C163.738 41.7886 163.471 42.1345 163.207 42.4804C163.135 42.5742 163.063 42.6681 162.992 42.762C162.958 42.8065 162.944 42.8634 162.954 42.9185C162.955 42.9271 162.957 42.9357 162.959 42.9442C162.959 42.9449 162.959 42.9456 162.959 42.9462V42.9462C162.96 42.9469 162.96 42.9476 162.96 42.9483C163.011 43.2125 163.069 43.5032 163.096 43.7977C163.131 44.1734 163.519 44.503 163.849 44.3202V44.3202C164.601 43.9037 165.39 43.2539 166.251 42.5468C167.145 41.8122 168.118 41.0141 169.206 40.3495C169.588 40.1161 169.986 39.8991 170.398 39.707C170.507 39.6566 170.624 39.6025 170.745 39.5458C171.872 39.0181 173.532 38.2428 175.305 37.65C175.373 37.6274 175.438 37.5979 175.5 37.5616C178.395 35.8565 181.298 34.1629 184.206 32.4804C186.032 31.4241 187.86 30.3717 189.689 29.3232C192.745 27.5721 195.806 25.831 198.871 24.0976C200.145 23.3771 201.421 22.66 202.696 21.942C202.75 21.9117 202.801 21.8764 202.848 21.8367C202.998 21.7115 203.15 21.5844 203.303 21.454C203.72 21.0981 204.153 20.7246 204.605 20.3398C204.619 20.3279 204.634 20.3156 204.648 20.3036C205.088 19.9303 205.547 19.5454 206.032 19.1552C206.515 18.7648 207.104 18.3147 207.63 17.9365C208.514 17.2885 209.847 16.5375 210.865 16.0761C211.953 15.5733 213.025 15.183 214.038 14.8613C214.624 14.6754 215.191 14.5112 215.736 14.3622C216.135 14.2535 216.522 14.1517 216.895 14.0536C216.968 14.0346 217.04 14.0148 217.112 13.9955C217.172 13.9795 217.23 13.9583 217.286 13.9319C217.37 13.8922 217.454 13.8529 217.539 13.8138C217.983 13.6074 218.212 13.1146 218.148 12.629C218.123 12.4365 218.107 12.2619 218.091 12.0966C218.073 11.8588 218.068 11.6539 218.066 11.4589C218.066 10.7001 218.123 10.1621 218.127 9.65912C218.127 9.63062 218.127 9.60143 218.127 9.57318C218.127 9.50331 218.127 9.42938 218.128 9.35196C218.131 9.05089 217.89 8.80901 217.59 8.78607V8.78607C217.575 8.78492 217.559 8.78323 217.544 8.78216C216.987 8.74269 216.315 8.76207 215.623 8.77435C215.616 8.77449 215.608 8.7752 215.6 8.77533C215.208 8.78452 214.92 8.80444 214.521 8.8222C214.138 8.83965 213.741 8.85184 213.342 8.83685C213.34 8.83679 213.337 8.83693 213.335 8.83685C212.874 8.81917 212.437 8.72986 212.028 8.62494C211.853 8.58008 211.683 8.53277 211.517 8.48724C211.409 8.45739 211.303 8.42845 211.198 8.40177C211.078 8.37114 210.954 8.36641 210.831 8.38364C210.762 8.39338 210.693 8.40313 210.623 8.41302Z" fill="#2E2F30"/>
</svg>
