<svg width="24" height="24" viewBox="0 0 24 24" fill="none" xmlns="http://www.w3.org/2000/svg">
<path d="M14.8538 5.42891L14.6788 5.47266L14.5038 5.51953L14.1007 5.59141L13.9257 5.61016L13.7507 5.63203C13.605 5.64787 13.4588 5.64631 13.3132 5.62891L13.1382 5.60703L12.9663 5.58516L12.6538 5.56328L12.4788 5.56016L12.3069 5.55391L11.8913 5.50703L11.5413 5.43828L11.3257 5.43203L11.1538 5.45391L10.9788 5.47891L10.5694 5.50078L10.3944 5.49766L10.2226 5.49453C10.1136 5.49252 10.0034 5.49406 9.89445 5.49766L9.54445 5.51016C9.45811 5.51312 9.37078 5.52539 9.28195 5.54766L9.10695 5.59141L8.93507 5.63516C8.8398 5.65904 8.74285 5.66678 8.64757 5.66328L8.36632 5.61328L8.19132 5.55703L8.01632 5.50391L7.79757 5.46953H7.6257L7.4507 5.47266C7.35883 5.47402 7.26575 5.48575 7.17257 5.50391L7.0007 5.53516L6.8257 5.56953C6.70305 5.59343 6.57977 5.61481 6.45695 5.63203L6.10695 5.68203C5.94446 5.70464 5.78016 5.69766 5.61945 5.66328L5.47882 5.63203L5.51632 5.76641L5.56632 5.94766C5.60824 6.09683 5.61556 6.24849 5.58507 6.39766L5.54132 6.54766L5.47882 6.71641L5.4132 6.88203L5.36945 7.09453L5.36632 7.26953L5.36007 7.44453L5.31632 7.85078L5.28507 8.02266L5.2507 8.19453C5.2366 8.26891 5.23563 8.34626 5.24445 8.42578L5.2632 8.60391L5.28195 8.77891L5.2882 9.02578C5.28259 9.10777 5.26819 9.18897 5.24757 9.26953L5.20382 9.44141L5.16007 9.61016C5.14092 9.68472 5.1348 9.76094 5.1382 9.83828L5.14445 10.0164L5.15382 10.1914C5.15854 10.2952 5.14654 10.3958 5.11945 10.4914L4.99445 10.7633L4.8882 10.9289L4.78507 11.0914C4.7802 11.099 4.77688 11.1041 4.7757 11.107V11.1227L4.82257 11.3008L4.86632 11.482L4.90382 11.7539C4.90454 11.8454 4.8923 11.938 4.86945 12.0289L4.8257 12.1977L4.78507 12.3695L4.69757 12.7102L4.65382 12.8789L4.61007 13.0508C4.58562 13.1469 4.56811 13.2443 4.55695 13.3414L4.51945 13.6852C4.51332 13.7385 4.5181 13.8006 4.54132 13.8727L4.59757 14.0539L4.65695 14.2352L4.71007 14.5039C4.71762 14.5949 4.71647 14.6868 4.7007 14.7789L4.66945 14.9508L4.64132 15.1227C4.62805 15.1997 4.6094 15.2764 4.58507 15.3508L4.49445 15.5695L4.33195 15.9008C4.31228 15.9414 4.30793 15.9764 4.3132 16.0133L4.3382 16.1914L4.36632 16.3695C4.37803 16.4519 4.38212 16.5345 4.37882 16.6164L4.34445 16.8633L4.2632 17.207C4.24218 17.2975 4.23057 17.3901 4.2257 17.482L4.21632 17.6539L4.20695 17.8289C4.20185 17.925 4.20387 18.0239 4.2132 18.1227L4.22882 18.2977L4.24757 18.4758C4.25617 18.5677 4.25178 18.6584 4.2382 18.7477L4.16632 19.0102L4.09757 19.1758L4.02882 19.3445L3.9257 19.6383L3.8757 19.807L3.83195 19.957L3.88507 20.032L3.90695 20.0633L4.19132 20.0227L4.59757 19.9883H4.77257L4.94445 19.9852L5.20695 20.0133C5.2933 20.0321 5.37799 20.0609 5.46007 20.0977L5.63507 20.1758L5.80695 20.2508L5.98507 20.2914L6.15695 20.2883L6.33195 20.2852L6.6132 20.2539L6.7882 20.2227L6.96007 20.1883L7.2132 20.1633C7.29679 20.1637 7.38005 20.1746 7.4632 20.1914L7.8132 20.2602H7.99132L8.34132 20.1789L8.69132 20.1008L8.86632 20.0633L9.0382 20.0258L9.27257 19.9914C9.35129 19.9868 9.43135 19.9918 9.51007 20.0008L9.55695 20.0039V19.9195C9.55615 19.7347 9.59928 19.5551 9.68507 19.3914L9.76945 19.232L9.85382 19.0758L10.0069 18.7664L10.0819 18.607L10.1601 18.4445C10.1832 18.3955 10.1929 18.3449 10.1913 18.2883L10.1882 18.1102L10.1819 17.9289C10.1787 17.8102 10.1765 17.6915 10.1726 17.5727L10.1601 17.2102C10.153 16.9843 10.2325 16.7814 10.3726 16.6133L10.6226 16.3133C10.6616 16.2661 10.672 16.2283 10.6757 16.1977L10.6976 16.0227L10.7194 15.8508L10.7632 15.6258C10.7829 15.5516 10.8081 15.4785 10.8382 15.407L10.9757 15.082L11.0194 14.882L11.0257 14.7039L11.0319 14.5289L11.0632 14.2883C11.0798 14.2091 11.1018 14.1299 11.1319 14.0539L11.2632 13.7289L11.2757 13.582L11.2257 13.2133C11.1968 13.0084 11.2291 12.8064 11.3288 12.6227L11.4163 12.4664L11.5007 12.307L11.6132 12.132C11.624 12.119 11.6896 12.037 11.8007 11.9945C11.8716 11.9677 11.9918 11.9474 12.1194 12.007C12.1797 12.0354 12.2248 12.0724 12.2569 12.1102L12.3194 12.2133L12.3351 12.2477L12.3507 12.2852L12.4382 12.5195L12.4944 12.6852L12.5476 12.8508L12.6069 13.082C12.6199 13.1597 12.628 13.2398 12.6288 13.3195V13.4977L12.6319 13.6758L12.6694 13.8289L12.7538 13.9883L12.8382 14.1445L13.0069 14.4914L13.0788 14.6539L13.1507 14.8133L13.2288 15.0977L13.2226 15.3914L13.1601 15.7664C13.1496 15.8297 13.1551 15.8783 13.1694 15.9195L13.2819 16.2508L13.3444 16.4695C13.3594 16.5442 13.3677 16.6209 13.3726 16.6977L13.3851 16.8727L13.3944 17.0508C13.3988 17.1182 13.4156 17.1824 13.4444 17.2445L13.5194 17.4039L13.5944 17.5664L13.7444 17.8633L13.8288 18.0227L13.9132 18.1789L14.0101 18.3852C14.0374 18.4555 14.0608 18.5274 14.0788 18.6008L14.1601 18.9383L14.2351 19.3164L14.2913 19.6602L14.3476 19.9852L14.3757 20.1227L14.5163 20.1008L14.7476 20.0789C14.8246 20.077 14.9017 20.0791 14.9788 20.0883L15.1538 20.1102L15.3288 20.1289L15.5851 20.132L15.7569 20.1133L15.9319 20.0945L16.1632 20.0852C16.2394 20.0876 16.3155 20.094 16.3913 20.107L16.5663 20.1383L16.7413 20.1664L16.9319 20.1633L17.1038 20.1227L17.2788 20.082L17.5726 20.0602C17.6691 20.0676 17.7641 20.0905 17.8569 20.1258L18.2069 20.257C18.2754 20.2831 18.3368 20.2939 18.3944 20.2914L18.5694 20.282L18.7413 20.2758C18.7951 20.2734 18.8573 20.2582 18.9288 20.2227L19.1038 20.1352L19.2788 20.0508L19.5382 19.9539C19.6284 19.9328 19.7214 19.9229 19.8163 19.9258L19.9913 19.932H20.0476L20.0507 19.9227L20.0476 19.9133L19.9632 19.7477L19.8757 19.5789C19.783 19.399 19.745 19.2007 19.7726 18.9977L19.7976 18.8227L19.8226 18.6445L19.8038 18.5039L19.7351 18.3383L19.6663 18.1695C19.5743 17.9452 19.5911 17.7142 19.6851 17.5039L19.8476 17.1352L19.8757 16.9914L19.8569 16.8195L19.8351 16.6477L19.7694 16.4727L19.6663 16.307L19.5632 16.1445C19.4584 15.9761 19.3994 15.7847 19.4038 15.582L19.4101 15.407L19.4132 15.232C19.4166 15.0793 19.4394 14.926 19.4819 14.7758L19.5351 14.5977L19.5819 14.4195L19.5788 14.4133L19.4632 14.2477L19.3507 14.0852C19.2126 13.8875 19.1609 13.6528 19.2257 13.4102L19.2726 13.2289L19.3226 13.0508L19.3382 12.8445L19.3007 12.5008L19.2538 12.182L19.1913 11.8383L19.1288 11.4883L19.0726 11.1445L19.0194 10.7883L18.9976 10.6133L18.9726 10.4414L18.9132 10.1633L18.8632 9.99141L18.8132 9.82266C18.7492 9.60904 18.7699 9.3944 18.8538 9.19766L18.9319 9.01641L19.0101 8.83203L19.0163 8.81016V8.80703L18.9382 8.63828L18.8632 8.47266C18.7873 8.30626 18.7514 8.12773 18.7601 7.94453L18.7694 7.76641L18.7757 7.59141L18.7507 7.37266L18.7038 7.20391L18.6569 7.03203C18.6067 6.85279 18.604 6.6693 18.6444 6.48828L18.6819 6.31016L18.7226 6.13203L18.7132 6.02578L18.6444 5.86016L18.5944 5.74453L18.4882 5.73516C18.4213 5.72932 18.3531 5.71659 18.2851 5.69766L18.0819 5.62891L17.9069 5.55703L17.7351 5.48516C17.6701 5.45875 17.6118 5.45076 17.5601 5.45391L17.3882 5.46641L17.2132 5.47578C17.081 5.48383 16.9485 5.48422 16.8163 5.47578L16.6413 5.46328L16.4663 5.45391C16.3569 5.44688 16.2476 5.44027 16.1382 5.43828L15.7882 5.43203L15.4288 5.41953L15.2569 5.41328L15.0819 5.40391L14.8538 5.42891ZM10.3601 20.2727L10.3288 20.4727C10.3057 20.5461 10.2667 20.6241 10.1976 20.6914C10.1245 20.7625 10.0417 20.8003 9.9632 20.8195L9.74757 20.832L9.58507 20.8133L9.41945 20.7945L9.21007 20.807L9.03507 20.8445L8.8632 20.882L8.51632 20.9602L8.34132 21.0008L8.16945 21.0383C8.08362 21.0577 7.99657 21.0686 7.91007 21.0695L7.65382 21.0445L7.47882 21.0102L7.30382 20.9727H7.1132L6.7632 21.0414L6.34757 21.0852L6.1757 21.0883L6.0007 21.0914C5.9105 21.0932 5.82176 21.0849 5.73507 21.0664L5.48195 20.982L5.13195 20.8258L4.9507 20.7852L4.77882 20.7883H4.60382L4.3132 20.8133L4.14132 20.8383L3.96632 20.8664C3.79995 20.8923 3.61512 20.8696 3.4632 20.7602L3.32257 20.6195L3.2382 20.5039L3.15695 20.3883C3.01134 20.1883 3.00275 19.9573 3.06007 19.757L3.10695 19.5883L3.15695 19.4195L3.2882 19.0383L3.35695 18.8727L3.4257 18.7039L3.4507 18.5508L3.43507 18.3727L3.41632 18.1977C3.40338 18.0606 3.39974 17.9212 3.40695 17.7852L3.41632 17.6133L3.4257 17.4383L3.48507 17.0227L3.5257 16.8539L3.56632 16.682L3.57257 16.482L3.52257 16.1258C3.49405 15.9261 3.5256 15.731 3.6132 15.5508L3.7757 15.2195L3.8507 14.9883L3.88195 14.8164L3.91007 14.6445L3.89445 14.482L3.8382 14.3008L3.77882 14.1195C3.72401 13.9495 3.7022 13.7717 3.72257 13.5945L3.74445 13.4227L3.7632 13.2508L3.83507 12.8539L3.87882 12.682L3.92257 12.5133L4.00695 12.1727L4.0507 12.0039L4.09445 11.832L4.09132 11.6789L4.04757 11.4977L4.0007 11.3164C3.94263 11.0846 3.98426 10.8571 4.11007 10.6602L4.21632 10.4977L4.31945 10.3352L4.35382 10.2289L4.34445 10.0508L4.3382 9.87578C4.3311 9.71945 4.34629 9.5648 4.38507 9.41328L4.42882 9.24141L4.47257 9.07266L4.4882 8.86641L4.46632 8.69141L4.44757 8.51328C4.43019 8.35648 4.4371 8.19875 4.46632 8.04453L4.49757 7.87578L4.52882 7.70391L4.56007 7.41953L4.56632 7.24453L4.56945 7.07266L4.59757 6.82891C4.61354 6.75044 4.6373 6.67345 4.66632 6.59766L4.73195 6.42891L4.79445 6.26016L4.79757 6.16328L4.74757 5.98203L4.69445 5.80391C4.65593 5.66685 4.61751 5.45906 4.7007 5.26641L4.7757 5.09141L4.84132 4.98203C4.91565 4.88644 5.01848 4.82911 5.12257 4.80391C5.182 4.78959 5.24054 4.78607 5.29445 4.78828L5.44132 4.80703L5.6132 4.84453L5.7882 4.88203C5.85899 4.89716 5.92855 4.89795 5.99757 4.88828L6.17257 4.86328L6.34445 4.83828C6.45335 4.82303 6.56348 4.80641 6.67257 4.78516L6.84757 4.75078L7.01945 4.71641C7.15811 4.68939 7.29823 4.67477 7.4382 4.67266L7.6132 4.66953H7.7882L8.02882 4.68516C8.10784 4.69739 8.18595 4.7165 8.2632 4.74141L8.4382 4.79766L8.61007 4.85391L8.7382 4.85703L8.9132 4.81328L9.0882 4.77266C9.23073 4.73696 9.37439 4.71496 9.51945 4.71016L9.69445 4.70391L9.86632 4.69766C9.98887 4.6936 10.1125 4.69229 10.2351 4.69453L10.5851 4.70078L10.8694 4.68516L11.0444 4.66016L11.2194 4.63828C11.3793 4.61659 11.5391 4.62244 11.6976 4.65391L12.0476 4.72266C12.1416 4.74135 12.236 4.75131 12.3288 4.75391L12.5007 4.76016L12.6757 4.76328C12.8039 4.76687 12.9322 4.77611 13.0601 4.79141L13.2351 4.81328L13.4069 4.83516C13.4927 4.84542 13.5806 4.84454 13.6663 4.83516L13.8382 4.81641L14.0132 4.79766L14.3038 4.74453L14.4788 4.69766L14.6538 4.65391C14.807 4.61451 14.9626 4.59641 15.1194 4.60391L15.2944 4.61328L15.4663 4.62266C15.5783 4.62804 15.6918 4.63001 15.8038 4.63203L15.9788 4.63516L16.1507 4.63828C16.2729 4.64049 16.3973 4.64605 16.5194 4.65391L16.6913 4.66641L16.8663 4.67578H17.1632L17.5132 4.65703C17.6931 4.64621 17.8683 4.67679 18.0351 4.74453L18.2101 4.81641L18.3819 4.88516L18.5569 4.93828L18.6726 4.95078L18.7913 4.96016C19.0133 4.97988 19.1549 5.1126 19.2413 5.24766L19.3101 5.38203L19.3819 5.54766L19.4507 5.71641L19.5257 6.00703L19.5038 6.30703L19.4632 6.48516L19.4257 6.66328C19.413 6.7202 19.4125 6.76935 19.4257 6.81641L19.4757 6.98828L19.5226 7.15703L19.5694 7.39141L19.5757 7.62891L19.5663 7.80703L19.5601 7.98203C19.5577 8.03223 19.5661 8.0826 19.5913 8.13828L19.6663 8.30703L19.7444 8.47266L19.8007 8.64141C19.8253 8.75517 19.8218 8.86998 19.7976 8.98203L19.7444 9.14766L19.6694 9.32891L19.5913 9.51328C19.5722 9.55834 19.5751 9.57859 19.5788 9.59141L19.6288 9.76328L19.6788 9.93203L19.7663 10.3383L19.7882 10.5102L19.8132 10.682L19.8632 11.0133L19.9194 11.357L19.9788 11.6945L20.0413 12.0383C20.0639 12.1617 20.0804 12.2858 20.0944 12.4102L20.1132 12.582L20.1351 12.757L20.1382 13.007L20.0944 13.257L20.0476 13.4383L19.9976 13.6133L20.0069 13.6258L20.1194 13.7914L20.2351 13.9539L20.3226 14.1102C20.3689 14.2185 20.3908 14.3346 20.3851 14.4539L20.3538 14.6352L20.3038 14.8164L20.2507 14.9945C20.2253 15.084 20.215 15.1701 20.2132 15.2508L20.2101 15.4258L20.2038 15.6008C20.2031 15.6318 20.2127 15.6685 20.2444 15.7195L20.3444 15.8852L20.4476 16.0508L20.5663 16.2914C20.5967 16.3746 20.618 16.4615 20.6288 16.5508L20.6507 16.7227L20.6694 16.8945L20.6632 17.1883L20.5788 17.4633L20.4944 17.6477L20.4132 17.8289L20.4038 17.8602C20.4038 17.8602 20.4057 17.8633 20.4069 17.8664L20.4757 18.032L20.5444 18.2008L20.6163 18.4727C20.6281 18.564 20.6289 18.6571 20.6163 18.7508L20.5663 19.107C20.562 19.1396 20.5669 19.1721 20.5882 19.2133L20.6726 19.3789L20.7601 19.5445L20.8538 19.8164C20.8623 19.8675 20.864 19.921 20.8601 19.9758L20.8257 20.1445L20.7819 20.257L20.7413 20.3695C20.6918 20.5031 20.5959 20.6101 20.4694 20.6727C20.4121 20.7009 20.3534 20.7163 20.2976 20.7258L20.1382 20.7352L19.9663 20.732L19.7913 20.7258C19.7489 20.7245 19.6987 20.7347 19.6351 20.7664L19.4601 20.8508L19.2851 20.9383C19.205 20.9781 19.1231 21.0122 19.0382 21.0352L18.7788 21.0758L18.6038 21.082L18.4288 21.0914C18.2553 21.0989 18.0853 21.0689 17.9226 21.007L17.7476 20.9383L17.5726 20.8727L17.4569 20.8633L17.2819 20.9008L17.1101 20.9414C17.0265 20.9605 16.9413 20.9734 16.8569 20.9758L16.6038 20.957L16.4288 20.9258L16.2569 20.8977L16.0194 20.8883L15.8444 20.907L15.6726 20.9258C15.599 20.9338 15.5243 20.9387 15.4507 20.9383L15.2319 20.9258L15.0569 20.9039L14.8851 20.882L14.6507 20.8883L14.4757 20.9195L14.3007 20.9477C14.1819 20.9674 14.0205 20.9635 13.8726 20.8633C13.7978 20.8123 13.7443 20.7474 13.7069 20.682L13.6351 20.4914L13.6007 20.3195L13.5632 20.1477L13.5007 19.782L13.4444 19.4383L13.3851 19.1289L13.3413 18.9602L13.3007 18.7914L13.2101 18.5602L13.1257 18.4008L13.0382 18.2445L12.8694 17.9039L12.7944 17.7414L12.7194 17.582C12.649 17.4301 12.6082 17.2678 12.5976 17.1008L12.5851 16.9227L12.5757 16.7477L12.5257 16.5133L12.4132 16.182C12.3511 16.0034 12.3384 15.817 12.3694 15.632L12.4007 15.4445L12.4319 15.2602L12.4194 15.1383L12.3476 14.9789L12.2757 14.8164L12.1319 14.5227L11.9632 14.2039C11.9568 14.1919 11.9535 14.1785 11.9476 14.1664L11.9413 14.1852L11.8757 14.3508L11.8319 14.5602L11.8257 14.7352L11.8194 14.9133C11.8129 15.0786 11.7772 15.2389 11.7132 15.3914L11.5757 15.7164L11.5132 15.9477L11.4913 16.1195L11.4726 16.2945C11.4481 16.4953 11.3618 16.6738 11.2351 16.8258L10.9851 17.1258C10.9601 17.1561 10.9596 17.1718 10.9601 17.1852L10.9663 17.3664L10.9726 17.5445C10.9765 17.6651 10.9786 17.7866 10.9819 17.907L10.9882 18.0883L10.9913 18.2664C10.9963 18.449 10.9608 18.6265 10.8819 18.7914L10.8038 18.9508L10.7288 19.1133L10.5601 19.4445L10.4788 19.6039L10.3944 19.7633C10.3689 19.812 10.3567 19.8629 10.3569 19.9164V20.0945L10.3601 20.2727Z" fill="#1E1E1E"/>
</svg>
