<svg width="24" height="24" viewBox="0 0 24 24" fill="none" xmlns="http://www.w3.org/2000/svg">
<path d="M8.59517 19.4037L8.75454 19.4475L8.91704 19.4943L9.31079 19.6412L9.48267 19.7225L9.65454 19.8006C9.72625 19.834 9.82643 19.8899 9.90454 19.9787C9.94684 20.0268 9.99667 20.1006 10.017 20.2006C10.028 20.2549 10.028 20.3094 10.0202 20.36L9.97642 20.5006L9.90142 20.6443L9.89829 20.6506C9.89731 20.6528 9.8966 20.6565 9.89517 20.66C9.89148 20.6689 9.88504 20.682 9.87954 20.6975C9.86845 20.7288 9.85717 20.7705 9.84204 20.8225L9.78892 21.0006L9.73892 21.1756C9.68395 21.3639 9.5691 21.5083 9.41704 21.6037L9.25142 21.6818L9.06704 21.7506L8.87954 21.8162C8.69172 21.8841 8.50047 21.8811 8.32642 21.8068L8.15767 21.71L7.84517 21.4725C7.70211 21.3646 7.59678 21.2208 7.54829 21.0506L7.52017 20.8725L7.51079 20.6881L7.50142 20.5068C7.49086 20.2932 7.55059 20.0905 7.68267 19.9193L7.90142 19.6381L8.02954 19.51C8.08011 19.4707 8.13787 19.4368 8.20454 19.4131C8.27188 19.3892 8.33922 19.3793 8.40454 19.3787L8.59517 19.4037ZM18.0358 19.235C18.1033 19.251 18.171 19.278 18.2358 19.3193C18.3024 19.3621 18.3583 19.4148 18.4014 19.4725L18.4983 19.6568L18.5639 19.835L18.6264 20.0162L18.6764 20.1412C18.6824 20.1551 18.6868 20.1651 18.6889 20.1693L18.717 20.2068L18.7514 20.26L18.8108 20.3787C18.8483 20.4971 18.8261 20.6068 18.8077 20.6693L18.6983 20.8912L18.6108 21.0256L18.5202 21.1568C18.4721 21.2277 18.4167 21.2914 18.3545 21.3475L18.1483 21.4943L17.8608 21.6506C17.6948 21.7415 17.5193 21.7584 17.3545 21.7256L17.192 21.6756L17.0108 21.6037L16.8295 21.5287C16.7103 21.4805 16.5938 21.4006 16.5108 21.2756C16.428 21.15 16.3994 21.0103 16.4014 20.8818L16.4077 20.4881L16.4514 20.1912C16.479 20.0969 16.5204 20.0053 16.5733 19.9193L16.6764 19.7537L16.7764 19.585L16.9014 19.4318C17.0407 19.298 17.2221 19.2302 17.4202 19.2256L17.6295 19.2193L17.8389 19.2162L18.0358 19.235ZM8.42642 20.2693L8.31704 20.41C8.30484 20.4258 8.29709 20.4383 8.29829 20.4662L8.30767 20.6506L8.31392 20.8225C8.31527 20.8239 8.3195 20.8266 8.32642 20.8318L8.48267 20.9506L8.62329 21.0568L8.79517 20.9975L8.97329 20.9287L9.02017 20.7756L9.07329 20.6006C9.08945 20.545 9.11167 20.4923 9.12954 20.4412L8.97017 20.3662L8.69829 20.2631L8.53892 20.2193L8.47642 20.2006L8.42642 20.2693ZM17.6483 20.0193L17.4452 20.0225L17.3577 20.1725L17.2545 20.3381L17.2077 20.5006L17.2045 20.6975L17.2014 20.8162L17.3108 20.86L17.492 20.935H17.4983L17.6202 20.8693L17.7639 20.7912L17.8577 20.7068L17.9483 20.5756L17.9795 20.5225L17.8733 20.2881L17.8108 20.1068L17.7764 20.0162L17.6483 20.0193ZM5.77642 7.71933V7.3662L5.74204 7.1537L5.68579 6.98808L5.62642 6.82245L5.52329 6.42558L5.46079 6.08183L5.39517 5.75995L5.31392 5.42245L5.22642 5.16933L5.14829 5.00995L5.07329 4.84745L4.99517 4.7287L4.89829 4.6412L4.82329 4.57558H4.62642L4.45454 4.5787C4.36267 4.58007 4.26959 4.5918 4.17642 4.60995L4.00142 4.6412L3.82954 4.67558L3.46079 4.73808L3.11079 4.78808C3.01498 4.80143 2.91283 4.79926 2.80767 4.78808L2.48579 4.7287L2.23892 4.6662H2.18579C1.96488 4.6662 1.78579 4.48712 1.78579 4.2662C1.78579 4.04529 1.96488 3.8662 2.18579 3.8662H2.28579L2.38267 3.8787L2.67954 3.9537L2.89204 3.9912C2.94491 3.99691 2.98099 3.99719 3.00142 3.99433L3.17329 3.96933L3.34829 3.94433L3.67642 3.8912L3.84829 3.85683L4.02329 3.82245C4.16206 3.79542 4.30196 3.78079 4.44204 3.7787L4.61704 3.77558H4.78892C4.9246 3.77356 5.07145 3.79666 5.20454 3.86933L5.33267 3.95683L5.42954 4.0412L5.52329 4.1287L5.67954 4.3037C5.72391 4.36704 5.7623 4.43446 5.79517 4.5037L5.87329 4.6662L5.94829 4.8287L6.09517 5.23808L6.13267 5.40995L6.17329 5.5787L6.24829 5.93808L6.31079 6.28183L6.38267 6.55995L6.44204 6.72558L6.49829 6.8912L6.55767 7.12558C6.57084 7.20441 6.57634 7.28533 6.57642 7.3662V7.71933L6.60142 8.00058L6.60454 8.02558C6.62748 8.04427 6.64865 8.06462 6.66704 8.08808L6.78267 8.06933L6.95767 8.03495L7.19829 8.00995C7.2785 8.00832 7.35872 8.01357 7.43892 8.02558L7.61392 8.05058L7.78892 8.0787L7.93267 8.05995L8.10454 7.9912L8.27954 7.92558L8.57642 7.85995C8.67659 7.85443 8.77885 7.86345 8.87954 7.8912L9.05142 7.9412L9.22642 7.98808L9.42642 8.00683L9.59829 7.98495L9.77329 7.9662L10.1295 7.93183L10.3014 7.9162L10.4764 7.90058H10.7139C10.7932 7.90622 10.873 7.91676 10.9514 7.93495L11.1233 7.97558L11.2983 8.0162L11.4577 8.01308L11.6295 7.96933L11.8045 7.92558C11.9293 7.89358 12.0544 7.86409 12.1795 7.8412L12.5295 7.7787L12.8233 7.76933C12.9195 7.78117 13.0134 7.80853 13.1045 7.84745L13.2795 7.92245L13.4545 7.99433L13.6045 8.02245L13.7795 8.00683L13.9545 7.98808C14.1067 7.97344 14.2598 7.98015 14.4108 8.00683L14.5827 8.03808L14.7577 8.06933L14.9577 8.0662L15.3077 7.99745L15.6295 7.92245L15.8045 7.87558L15.9764 7.8287L16.2014 7.78495C16.276 7.77501 16.3511 7.76956 16.4264 7.76933H16.7764C16.9035 7.76903 17.0307 7.77434 17.1577 7.78495L17.3327 7.80058L17.5045 7.81308L17.9264 7.8912L18.1014 7.93808L18.2764 7.98808L18.4514 7.99745L18.6233 7.96933L18.7983 7.93808C18.9514 7.91241 19.1069 7.91033 19.2608 7.9287L19.4327 7.95058L19.6077 7.96933C19.7205 7.9828 19.8535 8.01323 19.9733 8.08495L20.0858 8.16933L20.1639 8.24433L20.2389 8.3162L20.3639 8.49433C20.4153 8.61649 20.4124 8.74332 20.392 8.84745L20.3514 8.98495L20.2889 9.15058L20.2295 9.3162C20.2071 9.37617 20.1959 9.43726 20.1983 9.5037L20.2108 9.85995L20.1764 10.1537L20.0608 10.4225L19.9639 10.5818L19.8639 10.7381L19.7983 10.9162L19.7733 11.0881L19.7483 11.2631C19.7407 11.3163 19.7424 11.3801 19.7639 11.4568L19.817 11.6443L19.8702 11.8287L19.9139 12.1037L19.8889 12.3818L19.8514 12.5537L19.8139 12.7225C19.796 12.803 19.7705 12.8811 19.7389 12.9568L19.6264 13.1756L19.5264 13.335L19.4295 13.4912C19.4172 13.5109 19.4125 13.5236 19.417 13.5475L19.4545 13.7318L19.4889 13.9131C19.527 14.1122 19.5073 14.3134 19.4233 14.5006L19.3483 14.6631L19.2764 14.8287C19.2538 14.8793 19.2404 14.9353 19.242 15.0037L19.2452 15.1943L19.2514 15.3818C19.2547 15.5114 19.2255 15.6487 19.1452 15.7725C19.0658 15.8946 18.9556 15.9771 18.842 16.0287L18.4795 16.1912L18.2077 16.3318L18.0764 16.41L17.9452 16.485L17.667 16.66L17.5077 16.76L17.3514 16.8631C17.1739 16.9766 16.9695 17.0297 16.7545 17.0037L16.4045 16.96C16.2534 16.9414 16.1056 16.9013 15.9608 16.8443L15.7858 16.7756L15.6139 16.7068L15.6045 16.7131L15.4327 16.81L15.2577 16.9068C15.0994 16.9953 14.9249 17.0344 14.7483 17.01L14.5733 16.9631L14.2233 16.8318L14.0233 16.7943L13.8483 16.7975L13.6764 16.8006L13.3545 16.8131L13.1795 16.8287L13.0077 16.8443L12.6514 16.8693L12.4764 16.8787L12.3045 16.8912L11.942 16.91L11.7702 16.9131L11.5952 16.9193L11.3108 16.9506L10.9608 17.0193C10.7969 17.0508 10.6372 17.0356 10.4889 16.9818L10.3452 16.9162L10.1702 16.8193L9.99829 16.7225C9.98242 16.7137 9.97331 16.7131 9.97329 16.7131L9.97017 16.7162L9.79829 16.7756L9.62329 16.8318C9.47985 16.8806 9.33083 16.8996 9.18267 16.8787L9.03579 16.8443L8.87017 16.7912L8.70454 16.7412L8.33892 16.6068L8.17642 16.5381L8.01704 16.4662C7.79357 16.3701 7.64041 16.189 7.58267 15.9537L7.54204 15.7818L7.49829 15.6131L7.41079 15.3943L7.32017 15.2412L7.23267 15.0881L7.05142 14.7131L6.98579 14.5475L6.92329 14.385C6.85223 14.2011 6.83691 14.0075 6.87329 13.8162L6.91079 13.6318L6.94517 13.4475C6.95831 13.3786 6.95528 13.3194 6.94204 13.2693L6.89829 13.1037L6.85142 12.935C6.81757 12.8068 6.79408 12.6757 6.77642 12.5443L6.75142 12.3693L6.72954 12.1975C6.71493 12.0885 6.69599 11.9804 6.67642 11.8725L6.64517 11.7006L6.61704 11.5287L6.55767 11.1756L6.52954 11.0006L6.50454 10.8287L6.43579 10.61L6.27954 10.285L6.12642 9.9037L6.07329 9.73808L6.02329 9.56933C6.0011 9.49916 5.98102 9.42869 5.96704 9.35683L5.93892 9.13808L5.92329 8.9662L5.91079 8.7912C5.90258 8.68676 5.89081 8.58104 5.87329 8.4787L5.84204 8.30995L5.81392 8.13808C5.79047 8.0011 5.77655 7.85967 5.77642 7.71933ZM12.3233 8.6287C12.2171 8.64813 12.1111 8.67325 12.0045 8.70058L11.6545 8.78808C11.5655 8.81086 11.4758 8.82459 11.3858 8.82558L11.117 8.79433L10.9452 8.7537L10.7702 8.71308L10.5483 8.69745L10.1983 8.7287L9.86079 8.76308L9.51079 8.80058C9.42708 8.80965 9.34367 8.81063 9.26079 8.8037L9.01392 8.75995L8.83892 8.71308L8.66704 8.66308L8.56704 8.66933L8.39517 8.73808L8.22017 8.8037C8.13157 8.83793 8.04074 8.8616 7.94829 8.87245L7.67017 8.86933L7.49517 8.8412L7.32017 8.8162L7.10767 8.81933L6.93267 8.8537L6.76079 8.88808C6.74725 8.89067 6.73105 8.88584 6.71704 8.88808L6.72017 8.9037L6.73579 9.07558L6.78579 9.3287L6.83892 9.49745L6.88892 9.66308L7.00142 9.93808L7.15767 10.2631L7.24204 10.4818C7.26527 10.5564 7.28344 10.6323 7.29517 10.71L7.32329 10.8818L7.34829 11.0537L7.40142 11.3881L7.43267 11.5568L7.46392 11.7287C7.48573 11.8489 7.50702 11.9699 7.52329 12.0912L7.54517 12.2631L7.56704 12.4381C7.58025 12.5363 7.60114 12.6329 7.62642 12.7287L7.71392 13.0662C7.76005 13.2408 7.76336 13.4203 7.72954 13.5975L7.66079 13.9662C7.65061 14.02 7.65669 14.0591 7.67017 14.0943L7.79517 14.4256L7.92017 14.685L8.10142 14.9912L8.20454 15.2006C8.23344 15.272 8.2579 15.347 8.27642 15.4225L8.31704 15.5912L8.35454 15.7412L8.49204 15.8006L8.65454 15.8725L8.94204 15.9787L9.10767 16.0287L9.27329 16.0818L9.36392 16.0756L9.71392 15.9568L9.88579 15.9193C10.0588 15.8997 10.2282 15.9375 10.3827 16.0225L10.5577 16.1193L10.7295 16.2131L10.8108 16.235L10.9827 16.2006L11.1577 16.1662L11.5702 16.1193L11.742 16.1131L11.917 16.11L12.2514 16.0943L12.6014 16.0693L12.942 16.0443L13.117 16.0318L13.2889 16.0162L13.6639 16.0006L14.0139 15.9943L14.2639 16.0162C14.3465 16.0313 14.4279 16.0548 14.5077 16.085L14.6827 16.1506L14.8514 16.2131C14.854 16.2122 14.8601 16.2138 14.867 16.21L15.042 16.1131L15.2139 16.0162C15.3733 15.927 15.5494 15.89 15.7264 15.9162L15.9045 15.9631L16.0795 16.0318L16.2514 16.1006C16.3376 16.1346 16.4216 16.1564 16.5014 16.1662L16.6764 16.1881L16.8514 16.2068L16.9202 16.1881L17.0764 16.0881L17.2358 15.985L17.5358 15.7975L17.667 15.7225L17.7983 15.6443L18.1483 15.4631L18.3295 15.3818L18.4483 15.3256V15.2131L18.442 15.0256C18.4374 14.8432 18.4702 14.664 18.5452 14.4975L18.6202 14.335L18.692 14.1725C18.7055 14.1425 18.7099 14.1115 18.7014 14.0662L18.6327 13.6975C18.5904 13.4768 18.6295 13.2603 18.7483 13.0693L18.9483 12.7506L19.0327 12.5475L19.0702 12.3787L19.1077 12.2068L19.0983 12.0475L19.0452 11.86L18.9952 11.6725C18.9468 11.5003 18.929 11.3236 18.9545 11.1475L19.0045 10.8037L19.0702 10.5506C19.0999 10.4706 19.1372 10.3932 19.1827 10.3193L19.2827 10.16L19.3795 10.0006L19.4108 9.88808L19.3983 9.53183C19.3922 9.36126 19.4197 9.1947 19.4795 9.03495L19.542 8.86933L19.5733 8.78495L19.5577 8.77245H19.5545C19.5449 8.77029 19.5307 8.76511 19.5139 8.76308L19.3389 8.74433L19.1639 8.72245C19.0863 8.71327 19.0079 8.71553 18.9295 8.7287L18.7577 8.75683L18.5827 8.78808C18.495 8.80281 18.4073 8.80542 18.3202 8.80058L18.0608 8.75995L17.8858 8.70995L17.7139 8.65995C17.6214 8.63409 17.5289 8.61748 17.4389 8.60995L17.2639 8.59745L17.092 8.58183C16.9874 8.57308 16.8809 8.56905 16.7764 8.56933H16.4295L16.1827 8.6037L16.0077 8.65058L15.8358 8.69433L15.4608 8.78183L15.2889 8.8162L15.1139 8.85058C15.0319 8.86689 14.9495 8.87463 14.867 8.87558L14.617 8.85683L14.4452 8.82558L14.2702 8.79433C14.1897 8.78016 14.1089 8.77727 14.0295 8.78495L13.8577 8.8037L13.6827 8.81933C13.5885 8.82844 13.4955 8.82504 13.4045 8.80995L13.1389 8.73183L12.9639 8.65683L12.792 8.58183C12.7435 8.56106 12.7063 8.56036 12.6733 8.5662L12.3233 8.6287Z" fill="#1E1E1E"/>
</svg>
