<svg width="24" height="24" viewBox="0 0 24 24" fill="none" xmlns="http://www.w3.org/2000/svg">
<path d="M15.5751 3.22578L15.7439 3.2914L15.9095 3.35703L16.172 3.43203L16.3439 3.46015L16.5157 3.4914H16.7376L16.9157 3.46328L17.0939 3.43828L17.3157 3.4164C17.3899 3.41371 17.4638 3.4165 17.5376 3.42265L17.7126 3.43515L17.8845 3.45078C18.0264 3.46271 18.1711 3.48973 18.3126 3.5289L18.4907 3.57578L18.6689 3.62578L19.072 3.7789L19.2282 3.8539L19.3845 3.93203L19.622 4.08828C19.6918 4.15036 19.7525 4.22263 19.8064 4.30078L19.9189 4.46328L20.0282 4.62265L20.1032 4.68828L20.272 4.74453L20.4376 4.79765L20.722 4.8664L20.9064 4.89453L21.0876 4.92265L21.2939 4.98828C21.3625 5.02431 21.4301 5.07595 21.4845 5.15078C21.5379 5.22439 21.5643 5.30409 21.5782 5.3789L21.5845 5.58515L21.5626 5.7789L21.5376 5.96953L21.5032 6.32265L21.4876 6.49453L21.472 6.66953L21.3907 7.09453L21.3407 7.26328L21.2907 7.4289C21.2741 7.48366 21.2664 7.54275 21.2751 7.60703L21.3001 7.78828L21.3251 7.9664L21.3345 8.11953C21.3334 8.1702 21.328 8.22017 21.3189 8.26953L21.2189 8.5539L21.1314 8.7164L21.0407 8.8789C21.029 8.90063 21.0285 8.91694 21.0345 8.94453L21.0751 9.1289L21.1157 9.31015L21.1532 9.54453L21.1564 9.78203L21.1439 9.9539L21.1345 10.1289C21.1278 10.2356 21.0986 10.3605 21.022 10.4727C20.9818 10.5313 20.9321 10.5781 20.8782 10.6164L20.7032 10.7039L20.5657 10.7445L20.4314 10.7883L20.1407 10.8852L19.9689 10.9508L19.7939 11.0164C19.6607 11.0661 19.5263 11.106 19.3907 11.1352L19.0407 11.2102C18.9556 11.2284 18.8701 11.2383 18.7845 11.2383L18.5251 11.2102L18.3501 11.1727L18.1782 11.1352C18.137 11.1262 18.1043 11.1209 18.0814 11.1195H18.047L17.9751 11.132L17.9657 11.2039L17.9376 11.3789C17.925 11.4566 17.9247 11.5331 17.9345 11.6102L17.9782 11.9602L17.997 12.3695L17.9939 12.5445L17.9876 12.7164C17.9847 12.8139 17.9868 12.9124 17.997 13.0102L18.0345 13.3602C18.0436 13.4473 18.044 13.5339 18.0345 13.6195L17.9782 13.8727L17.8657 14.2227L17.8126 14.4789L17.797 14.6539L17.7814 14.8258C17.776 14.8894 17.7822 14.9561 17.8032 15.0258L17.8564 15.2008L17.9095 15.3727L17.9626 15.5977C17.9751 15.6731 17.9824 15.7492 17.9845 15.8258L17.9876 16.0008L17.9939 16.1758L18.0064 16.5133L18.0251 16.8633L18.0032 17.2852L17.9782 17.4602L17.9564 17.632C17.9452 17.7109 17.9422 17.7907 17.9532 17.8695L17.9782 18.0445L18.0032 18.2164L18.0439 18.5945L18.0532 18.7695L18.0657 18.9414L18.0814 19.3133V19.4883L18.0845 19.6633L18.072 19.882L18.0314 20.0977L17.9501 20.4227C17.9202 20.5433 17.8517 20.6851 17.7064 20.7789C17.6347 20.8248 17.5587 20.8494 17.4876 20.8602H17.2907L17.1157 20.8352L16.9439 20.8102L16.8126 20.832L16.6376 20.907L16.4657 20.982C16.3857 21.0171 16.3026 21.0441 16.2189 21.0633L15.9657 21.0977L15.6157 21.1039C15.5291 21.1056 15.4435 21.0981 15.3595 21.082L15.1095 21.007L14.9376 20.9383L14.7626 20.8664L14.5595 20.8227H14.3876L14.2126 20.8195L13.9751 20.8508L13.8001 20.9008L13.6282 20.9477L13.2251 21.032L13.0501 21.0539L12.8782 21.0758C12.7329 21.0951 12.5865 21.0983 12.4407 21.0852L12.2657 21.0695L12.0939 21.0539L11.6689 20.9758L11.497 20.9258L11.322 20.8758C11.2766 20.8628 11.2353 20.8607 11.1907 20.8727L11.0157 20.9227L10.8407 20.9695C10.6852 21.0118 10.5256 21.0283 10.3657 21.0195L10.1939 21.0102L10.0189 21.0008L9.63137 20.9602L9.4595 20.9352L9.2845 20.907L8.97512 20.8758L8.80325 20.8664L8.62825 20.8602L8.3845 20.8789L8.0345 20.9539L7.672 21.0227L7.322 21.0789C7.23082 21.0941 7.14008 21.0989 7.05012 21.0914L6.78137 21.0352L6.60637 20.9758L6.4345 20.9195C6.329 20.8841 6.20021 20.8159 6.1095 20.6883C6.01315 20.5521 5.99471 20.3987 6.01575 20.2664L6.06575 19.9602C6.07842 19.8809 6.08621 19.7925 6.08762 19.6945L6.09075 19.5195V19.3445L6.05012 19.1633L5.97512 18.9914L5.897 18.8164C5.80725 18.6139 5.7923 18.3959 5.86262 18.182L5.91887 18.007L5.97825 17.832C6.0069 17.7447 6.02427 17.6588 6.03137 17.5758L6.047 17.4039L6.0595 17.2289L6.0345 17.0633L5.96262 16.8914L5.89075 16.7164C5.82187 16.546 5.79229 16.3659 5.8095 16.182L5.82825 16.007L5.84387 15.832L5.8345 15.5914L5.80325 15.4164L5.772 15.2445C5.74686 15.1011 5.73829 14.9548 5.74387 14.8102L5.75012 14.6383L5.75637 14.4633L5.77825 14.2414C5.79 14.1679 5.80784 14.0952 5.82825 14.0227L5.87512 13.8477L5.92512 13.6758C5.94759 13.5959 5.95773 13.5169 5.95637 13.4414L5.95325 13.2664L5.95012 13.0945C5.94762 12.9558 5.9572 12.8168 5.97825 12.6789L6.00325 12.5039L6.03137 12.3289L6.06887 12.0102L6.08137 11.8383L6.097 11.6633C6.10237 11.596 6.09537 11.5261 6.07512 11.4539L6.02512 11.282L5.97512 11.107C5.96831 11.0828 5.96181 11.0699 5.9595 11.0664H5.96262L5.83762 10.982L5.72512 10.9039L5.71262 10.907L5.36262 10.9633L5.022 11.0227L4.85012 11.0539L4.67512 11.0852L4.31262 11.1445L3.96262 11.1945C3.84657 11.2109 3.71864 11.2021 3.59387 11.1477C3.53089 11.1201 3.47585 11.0833 3.42825 11.0414L3.30637 10.9008L3.21262 10.7602L3.11887 10.6164C3.07177 10.545 3.03336 10.4699 3.00325 10.3914L2.93762 10.1445L2.9095 9.97265L2.8845 9.80078L2.85012 9.40078L2.84387 9.05078L2.81575 8.76953L2.78137 8.59765L2.75012 8.42578L2.672 8.16328L2.60637 7.99453L2.54075 7.8289C2.47428 7.66087 2.44738 7.48399 2.46262 7.3039L2.49387 6.94765C2.50433 6.825 2.51654 6.70203 2.53137 6.5789L2.55325 6.40078L2.57512 6.21953L2.57825 6.0164L2.55325 5.8789L2.53137 5.7414C2.51071 5.61546 2.52929 5.48304 2.59075 5.36328C2.6494 5.24981 2.73603 5.16589 2.822 5.10703L2.96575 5.01015L3.1095 4.91015L3.3845 4.7164L3.52512 4.61015L3.66575 4.50703C3.79254 4.41343 3.93229 4.33975 4.08137 4.28828L4.25012 4.23203L4.41575 4.17265C4.51308 4.1391 4.60872 4.1035 4.70012 4.06015L5.01262 3.91015L5.30012 3.75703L5.4595 3.6664L5.61575 3.57578L5.78762 3.50078C5.96102 3.44978 6.1406 3.46683 6.3095 3.53515L6.497 3.61015L6.66575 3.68203L6.81575 3.58203L6.97825 3.47265L7.13137 3.3914C7.28953 3.32617 7.46191 3.31394 7.63762 3.35703L8.00012 3.44453L8.04075 3.4539L8.172 3.38828L8.2845 3.34765C8.33436 3.33656 8.39489 3.33155 8.46262 3.34453C8.6283 3.37683 8.72996 3.49213 8.77512 3.5914C8.8129 3.67484 8.81818 3.754 8.81887 3.79765L8.80637 3.93828L8.78137 4.1164L8.75325 4.29765C8.74353 4.36353 8.7462 4.42792 8.76262 4.4914L8.8095 4.66328L8.85325 4.83828L8.95012 5.08828L9.03137 5.24765L9.11575 5.40703L9.222 5.53203L9.36887 5.63515L9.51575 5.7414L9.722 5.9289C9.78126 5.99855 9.82988 6.07683 9.872 6.16015L10.0407 6.4914L10.1189 6.57578L10.2814 6.66328L10.4407 6.75078L10.647 6.81953L10.8251 6.84765L11.0032 6.87265C11.0931 6.88605 11.1814 6.88825 11.2689 6.88203L11.447 6.86953L11.622 6.85703C11.7825 6.8455 11.9447 6.85997 12.1032 6.89765L12.2845 6.9414L12.4595 6.98203L12.6126 6.8664L12.7626 6.75078L13.0657 6.52578L13.2032 6.4289L13.3407 6.33515L13.5532 6.21328C13.6274 6.17969 13.7044 6.15079 13.7845 6.1289L13.9689 6.0789L14.1314 6.03203L14.1845 5.88828L14.2439 5.71328L14.347 5.48203C14.3871 5.40935 14.4348 5.341 14.4876 5.27578L14.6001 5.13515L14.7157 4.99453L14.797 4.83203L14.8407 4.66015L14.8845 4.48515L14.9032 4.2164L14.8907 3.99453L14.8751 3.77578C14.8699 3.69091 14.8663 3.47801 15.0251 3.31953C15.1262 3.21887 15.2401 3.18502 15.3407 3.18203L15.5751 3.22578ZM15.7032 4.1664L15.7001 4.4289L15.6595 4.68203L15.6157 4.85703L15.572 5.0289C15.5501 5.11532 15.5176 5.19753 15.4782 5.27578L15.3376 5.49765L15.222 5.63828L15.1095 5.7789L15.0032 5.97265L14.9439 6.14453L14.8845 6.31953C14.821 6.50538 14.6979 6.64536 14.5376 6.73203L14.3657 6.80078L13.997 6.90078L13.797 6.9914L13.6626 7.08515L13.5251 7.18203L13.2532 7.38203L13.1001 7.49765L12.9501 7.6164C12.8049 7.72891 12.6366 7.78718 12.4595 7.78515L12.2814 7.76328L12.1001 7.71953L11.9157 7.67578C11.8332 7.6563 11.7555 7.65182 11.6814 7.65703L11.5032 7.66953L11.3282 7.68203C11.1807 7.69262 11.0319 7.68529 10.8845 7.66328L10.7064 7.63828L10.5282 7.61015C10.4451 7.59773 10.3632 7.58044 10.2845 7.5539L10.0564 7.4539L9.73762 7.2789C9.64788 7.23 9.56855 7.16872 9.50012 7.09765L9.32825 6.8539L9.24387 6.68828L9.1595 6.51953L9.05012 6.39453L8.75637 6.18203C8.68212 6.12894 8.61509 6.06823 8.55637 6.00078L8.40325 5.77578L8.322 5.6164L8.23762 5.45703C8.20313 5.39019 8.17364 5.32073 8.147 5.25078L8.07825 5.03828L8.0345 4.86328L7.99075 4.6914C7.9522 4.54244 7.94379 4.3904 7.9595 4.23828L7.8095 4.22265L7.62825 4.17578L7.447 4.13203H7.43762L7.422 4.1414L7.2595 4.24765L7.10012 4.3539C6.93367 4.46478 6.74711 4.5046 6.56262 4.47578L6.38137 4.42578L6.19387 4.35078L6.0095 4.27578L6.00325 4.27265L5.8595 4.36015L5.70012 4.45078L5.35637 4.63203L5.20012 4.70703L5.04075 4.78203C4.92322 4.83771 4.80218 4.88612 4.67825 4.9289L4.5095 4.98828L4.34387 5.04453C4.27132 5.06953 4.20502 5.10579 4.14387 5.15078L4.00012 5.2539L3.8595 5.36015L3.56262 5.56953L3.41887 5.66953L3.33762 5.72265L3.34387 5.74765L3.36575 5.88828L3.3845 6.09765L3.36887 6.3164L3.347 6.49453L3.32825 6.67265C3.31446 6.78707 3.30044 6.90265 3.29075 7.0164L3.27512 7.19453L3.26262 7.37265C3.25803 7.42865 3.26332 7.48166 3.2845 7.53515L3.35012 7.70078L3.41887 7.8664C3.47198 8.00058 3.51138 8.13891 3.53762 8.2789L3.60012 8.62265L3.64387 9.03515L3.65012 9.38515L3.67512 9.6789L3.70012 9.85078L3.72825 10.0227L3.78762 10.1758L3.88137 10.3195L3.92512 10.3883L4.20012 10.3539L4.53137 10.2977L4.70637 10.2664L4.87825 10.2352L5.2345 10.1727L5.5845 10.1164L5.7345 10.1039C5.83489 10.1043 5.93516 10.1233 6.03137 10.1633L6.172 10.2414L6.297 10.3258L6.41887 10.4102L6.5345 10.5102C6.6393 10.6185 6.70777 10.7516 6.747 10.8914L6.797 11.0633L6.84387 11.2383C6.88864 11.3979 6.9069 11.5613 6.89387 11.7258L6.87825 11.9008L6.86575 12.0758L6.822 12.4508L6.79387 12.6258L6.76887 12.7977C6.75455 12.8914 6.74848 12.986 6.75012 13.0789L6.75637 13.4289C6.75904 13.5849 6.73652 13.7398 6.69387 13.8914L6.647 14.0664L6.597 14.2383L6.55637 14.4945L6.55012 14.6695L6.54387 14.8414C6.5405 14.9287 6.54398 15.0185 6.5595 15.107L6.59075 15.2789L6.622 15.4539C6.63527 15.5297 6.64399 15.6058 6.647 15.682L6.64075 15.907L6.622 16.082L6.60637 16.257C6.60203 16.3042 6.60991 16.3557 6.6345 16.4164L6.70325 16.5914L6.77512 16.7633C6.84393 16.9332 6.87207 17.1143 6.85637 17.2977L6.84387 17.4695L6.82825 17.6445C6.81554 17.793 6.78508 17.9411 6.73762 18.0852L6.68137 18.257L6.622 18.432C6.6163 18.4495 6.61581 18.463 6.62825 18.4914L6.70637 18.6664L6.78137 18.8414C6.81747 18.9228 6.84727 19.0058 6.86575 19.0914L6.89075 19.357V19.5289L6.88762 19.7039C6.88579 19.8368 6.8761 19.9655 6.85637 20.0883L6.8345 20.2102L6.86262 20.2195L7.0345 20.2758L7.19075 20.2914L7.36575 20.2633L7.53762 20.232L7.86887 20.1695L8.04387 20.132L8.21887 20.0977L8.44387 20.0633C8.51865 20.0573 8.59367 20.0563 8.66887 20.0602L8.84387 20.0695L9.01575 20.0789L9.40637 20.1164L9.57825 20.1445L9.75325 20.1695L10.0626 20.2039L10.2376 20.2133L10.4095 20.2227C10.4811 20.2266 10.5554 20.2183 10.6314 20.1977L10.8064 20.1508L10.9782 20.1008C11.1651 20.0499 11.3578 20.0537 11.5439 20.107L11.7157 20.157L11.8907 20.207L12.1657 20.257L12.3376 20.2727L12.5126 20.2883C12.5988 20.2961 12.6854 20.2967 12.772 20.2852L12.947 20.2602L13.1189 20.2383L13.4126 20.1758L13.7626 20.082L13.9907 20.0352C14.067 20.025 14.1448 20.0187 14.222 20.0195L14.3939 20.0227H14.5689L14.8189 20.0508C14.9017 20.0679 14.9829 20.0935 15.0626 20.1258L15.2376 20.1945L15.4095 20.2664L15.6001 20.3039L15.7751 20.3008L15.947 20.2977L16.1439 20.2508L16.3189 20.1727L16.4939 20.0977L16.7689 20.0164C16.8637 20.0026 16.9614 20.0051 17.0595 20.0195L17.222 20.0414L17.2564 19.907L17.2845 19.6695L17.2814 19.4945V19.3195L17.2689 18.9977L17.2439 18.6477L17.2126 18.3289L17.1876 18.1539L17.1626 17.982C17.1412 17.8295 17.1412 17.6752 17.1626 17.5227L17.2126 17.1727L17.2251 16.9008L17.2157 16.7258L17.2064 16.5539L17.1939 16.1945L17.1907 16.0227L17.1845 15.8477L17.1439 15.6039L17.0907 15.432L17.0376 15.257C16.9886 15.095 16.9704 14.9283 16.9845 14.7602L17.0001 14.5852L17.0157 14.4133L17.047 14.1914C17.0621 14.1181 17.0796 14.0448 17.1032 13.9727L17.1626 13.7977L17.2189 13.6258L17.2407 13.4445L17.2032 13.0945C17.1893 12.9613 17.1837 12.828 17.1876 12.6945L17.1939 12.5195L17.197 12.3445L17.1845 12.0602L17.1626 11.8852L17.1407 11.7133C17.1211 11.5588 17.1219 11.4015 17.147 11.2477L17.1751 11.0758L17.2032 10.9008L17.2439 10.7508C17.3029 10.5917 17.4264 10.4213 17.6689 10.3758L17.9001 10.332L18.1251 10.3195C18.2004 10.3237 18.2752 10.3352 18.347 10.3508L18.522 10.3914L18.6939 10.4289C18.7542 10.442 18.8148 10.4419 18.8751 10.4289L19.047 10.3914L19.222 10.3539C19.3179 10.3333 19.4144 10.303 19.5126 10.2664L19.6876 10.2008L19.8626 10.1383L20.1939 10.0227L20.3314 9.98203L20.3407 9.97578L20.347 9.9039L20.3564 9.73203L20.3345 9.48828L20.2939 9.3039L20.2532 9.12265C20.2048 8.90784 20.2322 8.69222 20.3376 8.49765L20.4282 8.33515L20.5157 8.17265L20.5345 8.07578L20.5095 7.89765L20.4845 7.7164C20.4605 7.54125 20.4737 7.36683 20.5251 7.19765L20.6251 6.86015L20.6751 6.60078L20.6907 6.4289L20.7064 6.2539L20.7439 5.87578L20.7657 5.68203L20.6032 5.65703C20.4605 5.63518 20.3215 5.60153 20.1876 5.55703L20.0189 5.5039L19.8501 5.44765C19.7488 5.41387 19.6584 5.36321 19.5782 5.30078L19.3689 5.07578L19.2595 4.9164L19.147 4.7539L19.0345 4.65078L18.8782 4.57265L18.722 4.49765C18.6414 4.45832 18.5528 4.42443 18.4564 4.39765L18.2751 4.34765L18.097 4.29765C18.0008 4.27107 17.9079 4.25514 17.8189 4.24765L17.647 4.23203L17.472 4.21953L17.2126 4.2289L17.0345 4.2539L16.8564 4.28203C16.6966 4.3063 16.5364 4.30628 16.3782 4.2789L16.2064 4.24765L16.0345 4.21953C15.9201 4.19969 15.8106 4.16134 15.7001 4.12265L15.7032 4.1664Z" fill="#1E1E1E"/>
</svg>
