<svg width="24" height="24" viewBox="0 0 24 24" fill="none" xmlns="http://www.w3.org/2000/svg">
<path d="M10.6802 14.3594L10.8552 14.4313L11.0271 14.5032L11.2021 14.5344L11.374 14.5219L11.549 14.5125H11.9459L12.1209 14.525L12.2959 14.5344L12.624 14.55L12.974 14.5563C13.0935 14.5585 13.2139 14.5631 13.3334 14.5688L13.5052 14.575L13.6802 14.5844L13.9084 14.5594L14.0834 14.5157L14.2584 14.4688C14.3919 14.4344 14.5265 14.4117 14.6615 14.3969L14.8365 14.3782L15.0084 14.3563L15.2302 14.3469C15.3037 14.3475 15.3788 14.3503 15.4521 14.3594L15.624 14.3813L15.799 14.4032L16.1584 14.4563L16.5021 14.5125L16.7365 14.5719C16.8128 14.5988 16.8872 14.6314 16.9584 14.6719L17.1084 14.7594L17.2615 14.8438C17.3439 14.8907 17.4284 14.9297 17.5146 14.9625L17.674 15.025L17.8334 15.0844L18.049 15.1875C18.1162 15.2274 18.1794 15.2739 18.2396 15.325L18.3709 15.4375L18.5021 15.5469L18.7834 15.8219L18.899 15.95L19.0115 16.0782L19.2459 16.3282L19.3709 16.4594L19.4927 16.5907L19.5959 16.7188C19.6828 16.853 19.7266 17.0073 19.7302 17.1719L19.7365 17.3563L19.7396 17.5407L19.7646 17.8344L19.7927 18.0032L19.8209 18.1688L19.8802 18.4938L19.9146 18.6657L19.949 18.8407L20.0146 19.2094L20.0365 19.3844L20.0615 19.5594V19.8657C20.0495 19.9711 20.0273 20.0794 19.999 20.1875L19.9365 20.4188L19.9396 20.4563L19.9209 20.6125C19.8708 20.7603 19.7362 20.8723 19.5709 20.8844C19.4058 20.8962 19.2574 20.8043 19.1865 20.6657L19.1427 20.5125L19.1365 20.4125C19.1335 20.3693 19.1381 20.3264 19.149 20.2844L19.224 19.9844C19.2474 19.8949 19.2618 19.8264 19.2677 19.775L19.2709 19.6688L19.2459 19.4969L19.2209 19.3219L19.1646 19L19.1302 18.825L19.0959 18.6532L19.0302 18.2969L19.0021 18.1313L18.9771 17.9625L18.9396 17.5563L18.9365 17.3719L18.9302 17.1907L18.9115 17.1407L18.7896 17.0094L18.6646 16.8782L18.4177 16.6125L18.3052 16.4844L18.1896 16.3594L17.9834 16.1563L17.8521 16.0469L17.7209 15.9344L17.549 15.8344L17.3896 15.7719L17.2302 15.7125C17.1043 15.6647 16.9828 15.6048 16.8646 15.5375L16.7146 15.4532L16.5615 15.3688L16.374 15.3L16.0302 15.2438L15.699 15.1969L15.5271 15.175L15.3521 15.1563L15.0959 15.1532L14.924 15.1719L14.749 15.1907C14.6529 15.2012 14.5559 15.2187 14.4584 15.2438L14.2834 15.2907L14.1084 15.3344C14.0319 15.3541 13.9547 15.3669 13.8771 15.375L13.6427 15.3844L13.2927 15.3657C13.1813 15.3603 13.0698 15.3583 12.9584 15.3563L12.7834 15.3532L12.6115 15.35L12.2427 15.3344L12.0709 15.3219L11.8959 15.3125H11.599L11.249 15.3313C11.1592 15.3367 11.0704 15.3338 10.9834 15.3188L10.7271 15.2438L10.5521 15.1719L10.3771 15.1032L10.249 15.0844L10.074 15.1157L9.90212 15.1438L9.60212 15.2157L9.42712 15.2688L9.25525 15.325C9.15724 15.3551 9.05742 15.3669 8.95837 15.3657L8.66462 15.3157L8.31462 15.2032L8.199 15.1969L8.02712 15.2407L7.85837 15.2844L7.45837 15.3625L7.28337 15.3813L7.10837 15.4032L7.04275 15.4375L6.78962 15.6907C6.6743 15.8058 6.53615 15.885 6.3865 15.9282L6.2365 15.9594L6.03962 15.9844L5.84275 16.0125H5.82712L5.73337 16.1657L5.6365 16.3188L5.45525 16.6125L5.36775 16.7657L5.27712 16.9157L5.16775 17.1563L5.11462 17.3219L5.05837 17.4875C5.03066 17.5721 5.01212 17.6575 5.00212 17.7438L4.98337 17.9157L4.9615 18.0875C4.94991 18.1884 4.94448 18.2895 4.94275 18.3907L4.93962 18.5657L4.9365 18.7375C4.93506 18.8197 4.92746 18.9011 4.9115 18.9813L4.84275 19.2157L4.7115 19.5657C4.71254 19.5681 4.71544 19.5708 4.71775 19.575L4.9115 19.925L5.01462 20.1782C5.02794 20.2413 5.04517 20.376 4.98025 20.5063L4.88337 20.6313L4.83337 20.6813C4.81586 20.6977 4.79074 20.7028 4.77087 20.7157C4.6922 20.8217 4.57169 20.8944 4.43025 20.8844C4.21008 20.8687 4.04294 20.6764 4.05837 20.4563L4.06775 20.3563L4.10837 20.2063C4.11541 20.1922 4.12793 20.1818 4.1365 20.1688L4.11775 20.1407L4.02087 19.9657C3.90331 19.7552 3.87269 19.5163 3.9615 19.2813L4.03025 19.1094L4.09587 18.9344L4.1365 18.7219L4.14275 18.3782C4.14489 18.2508 4.1532 18.1237 4.16775 17.9969L4.1865 17.825L4.20837 17.6532C4.22463 17.512 4.25443 17.3733 4.299 17.2375L4.35525 17.0719L4.40837 16.9063L4.58962 16.5094L4.67712 16.3563L4.76775 16.2063L4.9615 15.8907L5.05837 15.7344L5.15837 15.5813L5.27087 15.4407C5.39703 15.3163 5.55904 15.2427 5.7365 15.2188L5.93025 15.1938L6.12712 15.1657L6.224 15.125L6.47712 14.8719L6.59587 14.7719C6.7185 14.6838 6.85934 14.628 7.01462 14.6094L7.36462 14.5657L7.65525 14.5125L7.824 14.4657L7.99587 14.4219L8.28337 14.3907C8.37895 14.3943 8.47466 14.413 8.56775 14.4438L8.73962 14.5L8.91462 14.5563L9.02087 14.5594L9.19275 14.5063L9.36775 14.4532L9.76462 14.3563L9.93962 14.3282L10.1115 14.2969L10.4021 14.2875C10.4967 14.2986 10.5901 14.3228 10.6802 14.3594ZM15.1365 7.87192C15.1517 7.79121 15.175 7.71199 15.2052 7.63442L15.2709 7.4688L15.3334 7.3063L15.3552 7.24692C15.3555 7.23669 15.3549 7.2272 15.3552 7.22192C15.3567 7.20146 15.3592 7.18032 15.3615 7.16255C15.3665 7.12414 15.3732 7.07096 15.3834 7.00942L15.4146 6.8313L15.4396 6.65317L15.3146 6.50942L15.1865 6.36567C15.122 6.29237 15.0696 6.21076 15.0271 6.12505L14.9365 5.85005L14.9021 5.67505L14.8709 5.50005C14.8655 5.47043 14.8558 5.45442 14.8365 5.43755L14.7052 5.32192L14.5709 5.2063L14.2834 4.90942L14.174 4.77505L14.0615 4.6438L13.8896 4.48755L13.7427 4.38755L13.599 4.29067L13.399 4.19692L13.2302 4.14692L13.0615 4.10005C12.967 4.07278 12.8724 4.05141 12.7771 4.03755L12.6052 4.01255L12.4365 3.98755C12.3214 3.9708 12.2042 3.95291 12.0865 3.93442L11.7365 3.87817L11.6146 3.8938L11.4521 3.96255L11.2865 4.03442L10.9802 4.1688L10.8271 4.24067L10.6709 4.30942L10.4771 4.43442L10.3459 4.54067L10.2177 4.64692L9.90212 4.87505L9.61462 5.0563L9.46462 5.19067L9.25212 5.45942L9.06462 5.7188L8.86462 6.0063L8.78025 6.1938L8.7365 6.36255L8.69275 6.53442C8.67477 6.6054 8.66867 6.67771 8.674 6.75005L8.6865 6.92192L8.699 7.09692V7.33442C8.6928 7.41268 8.6822 7.49105 8.66462 7.5688L8.624 7.75005L8.58025 7.92817C8.56797 7.98236 8.57235 8.03065 8.5865 8.07817L8.6365 8.25317L8.68962 8.42505C8.71231 8.50059 8.74556 8.57012 8.78962 8.63442L8.88962 8.7813L8.99275 8.9313L9.149 9.09692L9.43025 9.31567L9.71775 9.5563L9.84275 9.6688L9.96462 9.77817L10.2459 10.075L10.3615 10.2125L10.474 10.35H10.6552L10.8396 10.3469L11.099 10.375C11.1844 10.393 11.2682 10.4194 11.349 10.4563L11.5084 10.5282L11.6677 10.6032L11.8177 10.6313L11.9927 10.625L12.1646 10.6188C12.2316 10.6164 12.2968 10.6041 12.3584 10.5782L12.5177 10.5094L12.6771 10.4438L13.0646 10.3157L13.2302 10.2782L13.3927 10.2407L13.674 10.1532L14.0052 10.0282L14.1521 9.93442L14.274 9.80942L14.399 9.68442L14.5896 9.46255L14.6959 9.32192L14.799 9.1813L14.9334 8.9563L15.0771 8.63755L15.1146 8.4688V8.1188L15.1365 7.87192ZM15.3802 7.3813C15.3813 7.38539 15.3851 7.38904 15.3865 7.3938C15.3836 7.38554 15.3792 7.37898 15.3771 7.37192C15.3779 7.37506 15.3794 7.37805 15.3802 7.3813ZM15.9146 8.47192C15.9145 8.55794 15.9043 8.64238 15.8865 8.72505L15.8052 8.97192L15.7334 9.12817L15.6615 9.28755L15.4396 9.65942L15.2334 9.94067L14.9677 10.2469L14.7177 10.4969C14.6563 10.5587 14.5896 10.6129 14.5177 10.6594L14.2865 10.775L14.124 10.8375L13.9584 10.9032L13.5771 11.0188L13.4115 11.0563L13.2459 11.0969L12.9865 11.1813L12.8271 11.2469L12.6677 11.3157C12.5925 11.3473 12.5152 11.3733 12.4365 11.3907L12.1927 11.4188L12.0209 11.425L11.8459 11.4313C11.7577 11.4343 11.6713 11.4263 11.5865 11.4094L11.3334 11.3282L11.1771 11.2563L11.0177 11.1844L10.8396 11.1469L10.6552 11.15H10.4709C10.2907 11.1503 10.1261 11.0937 9.98962 10.9875L9.8615 10.8657L9.63025 10.5844L9.43025 10.3719L9.18025 10.1469L8.93962 9.94692L8.65837 9.72817C8.59558 9.67946 8.53743 9.62614 8.48337 9.5688L8.33337 9.3813L8.23025 9.23442L8.13025 9.08755C8.08455 9.02086 8.04287 8.95047 8.00837 8.87817L7.924 8.65317L7.87087 8.4813L7.82087 8.30942C7.76619 8.12684 7.7602 7.93855 7.80212 7.75317L7.84275 7.57192L7.88337 7.3938C7.90228 7.31037 7.90759 7.23084 7.90212 7.1563L7.87712 6.8063C7.86552 6.64712 7.87816 6.48916 7.91775 6.33442L7.9615 6.16567L8.00525 5.9938L8.0865 5.76567C8.11992 5.69198 8.15889 5.62069 8.20525 5.55317L8.30525 5.40942L8.40525 5.26255L8.624 4.96567L8.8365 4.69692L8.999 4.52192C9.05696 4.46987 9.11987 4.42333 9.1865 4.3813L9.33025 4.29067L9.47712 4.20005L9.70837 4.0313L9.8365 3.92505L9.96775 3.8188L10.1459 3.68755C10.2069 3.6493 10.2705 3.61485 10.3365 3.58442L10.4927 3.51255L10.6459 3.44067L10.974 3.29692L11.1396 3.22817L11.3021 3.1563L11.5771 3.08442C11.6696 3.073 11.7637 3.0728 11.8584 3.08755L12.2084 3.1438L12.5521 3.1938L12.7209 3.2188L12.8927 3.2438C13.025 3.26304 13.1571 3.29388 13.2865 3.3313L13.4521 3.37817L13.6209 3.42817L13.8427 3.50942C13.914 3.54285 13.9832 3.58353 14.049 3.62817L14.1927 3.72505L14.3365 3.82505L14.5177 3.96567C14.5745 4.01701 14.6278 4.07205 14.6771 4.1313L14.7896 4.26567L14.899 4.39692L15.099 4.60317L15.2302 4.7188L15.3646 4.83442C15.5219 4.97223 15.6212 5.1517 15.6584 5.3563L15.6896 5.5313L15.7209 5.70942L15.7865 5.83442L15.9146 5.9813L16.0427 6.12505L16.1459 6.2688C16.2025 6.36952 16.2354 6.4804 16.2427 6.59692L16.2334 6.77817L16.2021 6.95942L16.174 7.14067C16.1681 7.17656 16.1618 7.20547 16.1584 7.22817C16.1601 7.24149 16.1643 7.25128 16.1646 7.2563C16.1667 7.29081 16.1631 7.31813 16.1615 7.3313C16.1583 7.35782 16.1548 7.37996 16.1521 7.39067C16.1462 7.41381 16.1393 7.43912 16.1334 7.4563L16.0802 7.59692L16.0146 7.75942L15.9521 7.92505C15.9275 7.98816 15.9147 8.05162 15.9146 8.1188V8.47192Z" fill="#1E1E1E"/>
</svg>
